<svg xmlns="http://www.w3.org/2000/svg" xmlns:xlink="http://www.w3.org/1999/xlink" width="19" height="19" viewBox="0 0 19 19">
    <defs>
        <path id="prefix__a" d="M0 0.021L18.979 0.021 18.979 19 0 19z"/>
    </defs>
    <g fill="none" fill-rule="evenodd">
        <mask id="prefix__b" fill="#fff">
            <use xlink:href="#prefix__a"/>
        </mask>
        <path fill="#DA291C" d="M0 9.51C0 14.75 4.248 19 9.488 19c5.242.001 9.49-4.248 9.49-9.488v-.003c0-5.241-4.249-9.489-9.49-9.488C4.247.022 0 4.27 0 9.51" mask="url(#prefix__b)"/>
        <path fill="#FFF" d="M8.272 10.35L8.06 6.237c-.032-.574-.053-1.15-.06-1.727 0-.474.096-.845.288-1.111.193-.267.445-.399.759-.399.38 0 .633.17.76.51.13.341.193.833.193 1.473 0 .378-.016.76-.046 1.151L9.67 10.37c-.032.502-.098.888-.2 1.157-.086.257-.287.418-.503.403-.239 0-.404-.13-.497-.39-.092-.26-.158-.657-.198-1.19M9.007 16c-.27 0-.504-.111-.706-.337-.2-.227-.301-.544-.301-.95 0-.355.096-.657.288-.906.193-.249.427-.372.704-.372.28 0 .517.124.713.372.196.249.295.551.295.906 0 .4-.1.716-.297.945-.191.225-.44.347-.697.343"/>
    </g>
</svg>
