<svg xmlns="http://www.w3.org/2000/svg" xmlns:xlink="http://www.w3.org/1999/xlink" width="117" height="117" viewBox="0 0 117 117">
    <defs>
        <path id="prefix__a" d="M0 0.13L116.87 0.13 116.87 117 0 117z"/>
    </defs>
    <g fill="none" fill-rule="evenodd">
        <mask id="prefix__b" fill="#fff">
            <use xlink:href="#prefix__a"/>
        </mask>
        <path fill="#DA291C" d="M0 58.559C0 90.836 26.158 117 58.429 117c32.277.006 58.441-26.158 58.441-58.429v-.019C116.864 26.282 90.7.124 58.423.13 26.158.136 0 26.294 0 58.559" mask="url(#prefix__b)"/>
        <path fill="#FFF" d="M53.904 65.229L52.419 39.92c-.226-3.534-.368-7.08-.419-10.626 0-2.92.674-5.2 2.017-6.84C55.365 20.814 57.133 20 59.326 20c2.657 0 4.436 1.046 5.326 3.14.9 2.099 1.348 5.122 1.348 9.062 0 2.325-.113 4.683-.323 7.086l-1.989 26.057c-.22 3.094-.685 5.464-1.393 7.124-.607 1.583-2.012 2.571-3.524 2.48-1.672 0-2.833-.8-3.48-2.402-.645-1.602-1.11-4.044-1.387-7.318m5.144 34.77c-1.887 0-3.53-.69-4.94-2.08C52.703 96.524 52 94.573 52 92.074c0-2.184.674-4.044 2.017-5.575 1.348-1.53 2.991-2.293 4.93-2.293 1.954 0 3.614.769 4.99 2.293C65.31 88.03 66 89.89 66 92.074c0 2.467-.697 4.405-2.08 5.813-1.336 1.389-3.076 2.138-4.878 2.112"/>
    </g>
</svg>
