<svg xmlns="http://www.w3.org/2000/svg" xmlns:xlink="http://www.w3.org/1999/xlink" width="541" height="302" viewBox="0 0 541 302">
    <defs>
        <path id="5cxyn6d89a" d="M0 0H541V302H0z"/>
        <mask id="zn059rhkub" width="541" height="302" x="0" y="0" fill="#fff" maskContentUnits="userSpaceOnUse" maskUnits="objectBoundingBox">
            <use xlink:href="#5cxyn6d89a"/>
        </mask>
    </defs>
    <g fill="none" fill-rule="evenodd">
        <g stroke="#D5D7D7">
            <g transform="translate(-450 -294) translate(450 294)">
                <use fill="#F7F7F7" stroke-dasharray="9" stroke-width="14" mask="url(#zn059rhkub)" xlink:href="#5cxyn6d89a"/>
                <ellipse cx="53.5" cy="56" fill="#D8D8D8" stroke-width="4" rx="35.5" ry="35"/>
                <path fill="#D5D7D7" stroke-width="4" d="M13 292c52.987-65.74 88.248-107.976 105.784-126.707 6.367-6.8 14.71-6.148 22.33 0 10.422 8.41 85.165 79.89 99.632 86.584 2.425 1.122 7.625-.481 12.258-4.616 13.13-11.715 119.118-126.004 138.964-143.546 8.118-7.176 19.675-6.216 24.135-4.456 16.667 6.575 54.966 43.025 114.897 109.35V292H13z"/>
            </g>
        </g>
    </g>
</svg>
