<svg xmlns="http://www.w3.org/2000/svg" width="44" height="43" viewBox="0 0 44 43">
    <g fill="none" fill-rule="evenodd" transform="translate(-9 -9)">
        <circle cx="30.994" cy="30.494" r="21.519" fill="#0097A9" transform="rotate(45 30.994 30.494)"/>
        <path stroke="#FFF" stroke-linejoin="round" stroke-width="3" d="M32.012 24.824c.896-.85 1.83-1.678 2.801-2.486.635-.524 2.582-.524 3.985.619 1.402 1.143 1.402 3.2.884 3.862-.578.974-6.377 6.338-7.077 6.717-.358.194-2.258 1.29-3.605-.773"/>
        <path stroke="#FFF" stroke-linejoin="round" stroke-width="3" d="M28.988 37.176c-.896.85-1.83 1.678-2.801 2.486-.635.524-2.582.524-3.985-.619-1.402-1.143-1.402-3.2-.884-3.862.578-.974 6.377-6.338 7.077-6.717.358-.194 2.258-1.29 3.605.773"/>
    </g>
</svg>
