<svg xmlns="http://www.w3.org/2000/svg" width="36" height="35" viewBox="0 0 36 35">
    <g fill="none" fill-rule="evenodd">
        <ellipse cx="18" cy="17.5" fill="#949494" rx="18" ry="17.5"/>
        <g transform="translate(11 8)">
            <path fill="#FFF" d="M1.274 5.143h11.453v11.249c0 .888-.64 1.608-1.432 1.608h-8.59c-.791 0-1.432-.72-1.432-1.608l.001-11.25zM14 1.932v1.28c0 .356-.224.645-.5.645H.5c-.276 0-.5-.289-.5-.645v-1.28c0-.356.224-.645.5-.645h3.747l.295-.753C4.678.22 4.93.018 5.209 0h3.577c.28.02.532.22.67.534l.297.753h3.75c.275.003.497.29.497.645z"/>
            <path fill="#949494" d="M2.734 6.483l.272-.02c.276-.019.515.189.534.464v.001l.553 7.98c.019.276-.189.514-.464.534l-.272.02c-.275.019-.514-.189-.534-.464v-.001l-.552-7.98c-.02-.276.188-.514.463-.534z"/>
            <rect width="1.273" height="9" x="6.364" y="6.462" fill="#949494" rx=".5"/>
            <path fill="#949494" d="M10.916 6.461l.272.015c.276.014.487.25.473.525l-.415 7.99c-.014.275-.249.487-.525.472l-.273-.014c-.275-.015-.487-.25-.473-.525l.415-7.99c.014-.275.25-.487.525-.473z"/>
        </g>
    </g>
</svg>
