<svg xmlns="http://www.w3.org/2000/svg" xmlns:xlink="http://www.w3.org/1999/xlink" width="31" height="32" viewBox="0 0 31 32">
    <defs>
        <path id="klrqh19nma" d="M0 0.059L30.984 0.059 30.984 31.44 0 31.44z"/>
    </defs>
    <g fill="none" fill-rule="evenodd">
        <g>
            <g>
                <g>
                    <g transform="translate(-1227 -340) translate(1218 331) translate(9 9)">
                        <mask id="xwvktjz1bb" fill="#fff">
                            <use xlink:href="#klrqh19nma"/>
                        </mask>
                        <path fill="#FFF" d="M15.492 29.694c-7.593 0-13.768-6.256-13.768-13.944 0-7.689 6.175-13.944 13.768-13.944 7.59 0 13.767 6.255 13.767 13.944 0 7.688-6.177 13.944-13.767 13.944m0-29.635C6.95.06-.001 7.098-.001 15.75 0 24.402 6.95 31.44 15.492 31.44c8.541 0 15.492-7.039 15.492-15.69 0-8.652-6.95-15.69-15.492-15.69" mask="url(#xwvktjz1bb)"/>
                    </g>
                    <path fill="#FFF" d="M15.52 15.271c2.204 0 3.992-1.81 3.992-4.042 0-2.233-1.788-4.043-3.991-4.043-2.204 0-3.991 1.81-3.991 4.043 0 2.232 1.787 4.042 3.99 4.042M15.52 16.17c-3.672 0-6.651 3.037-6.651 6.785 0 .134.012.399.012.399l13.28.002c.007-.133.011-.266.011-.401 0-3.748-2.978-6.786-6.651-6.786" transform="translate(-1227 -340) translate(1218 331) translate(9 9)"/>
                </g>
            </g>
        </g>
    </g>
</svg>
