<svg xmlns="http://www.w3.org/2000/svg" xmlns:xlink="http://www.w3.org/1999/xlink" width="35" height="35" viewBox="0 0 35 35">
    <defs>
        <path id="29eqw0oqia" d="M0 0.039L34.961 0.039 34.961 35 0 35z"/>
    </defs>
    <g fill="none" fill-rule="evenodd">
        <mask id="zsn8z1qwab" fill="#fff">
            <use xlink:href="#29eqw0oqia"/>
        </mask>
        <path fill="#FF8200" d="M0 17.518C0 27.173 7.825 35 17.479 35c9.655.002 17.482-7.825 17.482-17.479v-.005C34.96 7.862 27.132.037 17.477.039 7.825.04 0 7.866 0 17.518" mask="url(#zsn8z1qwab)"/>
        <path fill="#FFF" d="M16.544 19.569l-.424-7.593c-.065-1.06-.105-2.124-.12-3.187 0-.876.193-1.56.576-2.053.386-.492.89-.736 1.517-.736.76 0 1.268.314 1.522.942.257.63.385 1.536.385 2.719 0 .697-.032 1.404-.092 2.125l-.568 7.817c-.064.929-.196 1.64-.399 2.138-.173.475-.574.771-1.007.744-.477 0-.809-.24-.993-.72-.185-.481-.318-1.214-.397-2.196m1.47 10.43c-.54 0-1.009-.207-1.412-.623-.401-.419-.602-1.004-.602-1.754 0-.655.193-1.213.576-1.672.386-.46.855-.688 1.409-.688.558 0 1.032.23 1.426.688.392.459.589 1.017.589 1.672 0 .74-.2 1.322-.594 1.744-.382.417-.88.642-1.394.634"/>
    </g>
</svg>
