<svg xmlns="http://www.w3.org/2000/svg" width="31" height="27" viewBox="0 0 31 27">
    <g fill="none" fill-rule="evenodd">
        <path fill="#FF8200" d="M29.892 19.325c0 3.585-2.96 6.492-6.61 6.492-3.65 0-6.609-2.907-6.609-6.492 0-3.586 2.959-6.493 6.61-6.493 3.65 0 6.61 2.907 6.61 6.493M11.839 10.19C9.057 10.19 6.8 7.975 6.8 5.243 6.801 2.51 9.057.295 11.84.295c2.78 0 5.036 2.215 5.036 4.948 0 2.732-2.255 4.947-5.036 4.947z"/>
        <path fill="#FF8200" d="M.394 21.087c0-5.597 5.124-10.133 11.444-10.133 6.32 0 11.444 4.536 11.444 10.133"/>
        <path stroke="#FFF" stroke-width="2" d="M29.892 19.325c0 3.585-2.96 6.492-6.61 6.492-3.65 0-6.609-2.907-6.609-6.492 0-3.586 2.959-6.493 6.61-6.493 3.65 0 6.61 2.907 6.61 6.493z"/>
        <path fill="#FFF" d="M20.847 20.292L24.308 16.824 25.424 17.942 21.963 21.412z"/>
        <path fill="#FFF" d="M20.847 21.412L21.864 21.129 21.129 20.392zM25.994 16.486c-.23-.23-.6-.23-.83 0l-.249.25 1.105 1.107.249-.25c.229-.23.229-.601 0-.831l-.275-.276z"/>
    </g>
</svg>
