<svg xmlns="http://www.w3.org/2000/svg" width="149" height="132" viewBox="0 0 149 132">
    <g fill="none" fill-rule="evenodd">
        <path stroke="#FF8200" stroke-width="11" d="M60.111 4.795L1.313 105.615C-2.417 112.01 2.245 120 9.7 120H127.3c7.456 0 12.116-7.991 8.388-14.384L76.89 4.795c-3.729-6.393-13.05-6.393-16.779 0z" transform="translate(6 6)"/>
        <path fill="#FF8200" d="M68.55 107.2c-2.047 0-3.836-.639-5.367-1.92-1.53-1.281-2.294-3.07-2.294-5.371 0-2.012.732-3.72 2.193-5.129 1.462-1.41 3.251-2.115 5.369-2.115 2.116 0 3.923.705 5.417 2.115 1.495 1.409 2.243 3.117 2.243 5.129 0 2.268-.755 4.052-2.268 5.347-1.512 1.295-3.276 1.944-5.292 1.944m-5.594-31.987l-1.615-23.286c-.301-4.538-.453-7.796-.453-9.772 0-2.691.732-4.789 2.193-6.296 1.462-1.506 3.385-2.259 5.77-2.259 2.892 0 4.824.964 5.798 2.891.975 1.93 1.461 4.709 1.461 8.337 0 2.14-.118 4.31-.352 6.515L73.592 75.31c-.234 2.852-.74 5.039-1.513 6.563-.773 1.524-2.048 2.285-3.83 2.285-1.816 0-3.075-.737-3.78-2.213-.707-1.474-1.21-3.718-1.512-6.732" transform="translate(6 6)"/>
    </g>
</svg>
