<svg xmlns="http://www.w3.org/2000/svg" xmlns:xlink="http://www.w3.org/1999/xlink" width="19" height="19" viewBox="0 0 19 19">
    <defs>
        <path id="a" d="M0 .36h18.641V19H0z"/>
    </defs>
    <g fill="none" fill-rule="evenodd">
        <g transform="translate(0 -.36)">
            <mask id="b" fill="#fff">
                <use xlink:href="#a"/>
            </mask>
            <path fill="#FF0007" d="M0 9.68a9.32 9.32 0 1 0 18.64-.001A9.32 9.32 0 0 0 0 9.68" mask="url(#b)"/>
        </g>
        <path fill="#FFF" d="M9.329 15.513c-.333 0-.623-.107-.872-.323-.248-.215-.372-.517-.372-.904 0-.338.119-.626.356-.863.238-.237.528-.356.87-.356.345 0 .638.12.88.356.243.237.365.525.365.863 0 .382-.123.682-.368.9a1.255 1.255 0 0 1-.86.327m-.907-5.383l-.262-3.918a29.373 29.373 0 0 1-.074-1.645c0-.452.119-.805.356-1.059.238-.254.55-.38.937-.38.469 0 .783.162.94.486.159.325.238.793.238 1.403 0 .36-.02.725-.057 1.097l-.352 4.033c-.038.48-.12.847-.245 1.104a.644.644 0 0 1-.622.384c-.295 0-.5-.124-.614-.372-.114-.248-.196-.626-.245-1.133"/>
    </g>
</svg>
