<svg xmlns="http://www.w3.org/2000/svg" width="34" height="34" viewBox="0 0 34 34">
    <g fill="none" fill-rule="evenodd">
        <ellipse cx="16.732" cy="16.552" fill="#0097A9" rx="16.732" ry="16.552"/>
        <path fill="#FFF" d="M18.88 21.506c.016.266.25.47.523.454.25-.015.45-.21.465-.454v-6.755c-.016-.266-.25-.469-.523-.453-.25.014-.45.21-.465.453v6.755zm-2.966 0c.016.266.25.47.523.454.25-.015.45-.21.465-.454v-6.755c-.016-.266-.25-.469-.523-.453-.25.014-.45.21-.465.453v6.755zm-2.965 0c.016.266.25.47.523.454.25-.015.45-.21.465-.454v-6.755c-.016-.266-.25-.469-.523-.453-.25.014-.45.21-.465.453v6.755zm-2.471-9.165h11.86V22.46c0 .799-.663 1.446-1.482 1.446h-8.897c-.819 0-1.483-.647-1.483-1.446l.002-10.119zm12.848-2.41v.959c0 .266-.221.483-.494.483H9.983c-.273 0-.495-.217-.495-.483V9.93c0-.266.222-.483.495-.483h3.704l.29-.564c.135-.235.384-.386.66-.4h3.535c.277.015.527.166.664.4l.292.564h3.707c.272.002.491.218.491.483z"/>
    </g>
</svg>
