<svg xmlns="http://www.w3.org/2000/svg" width="47" height="51" viewBox="0 0 47 51">
    <path fill="#5C5B5B" fill-rule="evenodd" d="M31.5 42.518c.049.868.76 1.53 1.588 1.48.76-.047 1.368-.683 1.412-1.48V20.483c-.049-.868-.76-1.531-1.588-1.48-.76.047-1.367.683-1.412 1.48v22.035zm-9 0c.049.868.76 1.53 1.588 1.48.76-.047 1.367-.683 1.412-1.48V20.483c-.05-.868-.76-1.531-1.588-1.48-.76.047-1.368.683-1.412 1.48v22.035zm-10 0c.049.868.76 1.53 1.588 1.48.76-.047 1.368-.683 1.412-1.48V20.483c-.049-.868-.76-1.531-1.588-1.48-.76.047-1.367.683-1.412 1.48v22.035zM4.506 13H43.5v33.247c0 2.625-2.183 4.753-4.875 4.753H9.375C6.683 51 4.5 48.872 4.5 46.247L4.506 13zM46.5 5.009v3.32c0 .923-.737 1.671-1.645 1.671H2.145C1.237 10 .5 9.252.5 8.329v-3.32c0-.923.737-1.672 1.645-1.672h12.311l.967-1.953C15.87.57 16.699.048 17.616 0h11.751c.92.05 1.75.572 2.205 1.384l.972 1.953h12.322c.904.006 1.634.753 1.634 1.672z"/>
</svg>
