<svg xmlns="http://www.w3.org/2000/svg" width="38" height="37" viewBox="0 0 38 37">
    <g fill="none" fill-rule="evenodd">
        <rect width="38" height="37" fill="#56C7D5" rx="2"/>
        <circle cx="13.5" cy="13.5" r="13.5" fill="#0097A9" transform="translate(5 5)"/>
        <path fill="#FFF" d="M20.465 22.977c.013.224.2.395.416.382.2-.012.358-.176.37-.382v-5.694c-.013-.225-.2-.396-.416-.383-.2.013-.358.177-.37.383v5.694zm-2.357 0c.013.224.199.395.416.382.199-.012.358-.176.37-.382v-5.694c-.014-.225-.2-.396-.416-.383-.2.013-.358.177-.37.383v5.694zm-2.357 0c.012.224.199.395.415.382.2-.012.358-.176.37-.382v-5.694c-.013-.225-.199-.396-.416-.383-.199.013-.358.177-.37.383v5.694zm-1.964-7.726h9.428v8.53c0 .673-.528 1.219-1.179 1.219h-7.072c-.651 0-1.179-.546-1.179-1.22l.002-8.529zM24 13.219v.809c0 .224-.176.406-.393.406H13.393c-.217 0-.393-.182-.393-.406v-.809c0-.224.176-.407.393-.407h2.944l.231-.475c.107-.198.306-.325.525-.337h2.81c.22.012.419.14.527.337l.233.475h2.946c.216.002.391.184.391.407z"/>
    </g>
</svg>
