<svg xmlns="http://www.w3.org/2000/svg" width="36" height="36" viewBox="0 0 36 36">
    <g fill="none" fill-rule="evenodd">
        <path fill="#D6D6D6" fill-rule="nonzero" d="M4 15H33V34H4z"/>
        <path fill="#727272" fill-rule="nonzero" d="M31 22.974h-4.364V19H31v3.974zM17.91 24.96V29h-4.365v-4.04h4.364zm-4.365-1.986V19h4.364v3.974h-4.364zm6.546 1.986h4.364V29H20.09v-4.04zm0-1.986V19h4.364v3.974H20.09zM11.364 19v3.974H7V19h4.364zM7 24.96h4.364V29H7v-4.04zM26.636 29v-4.04H31V29h-4.364zM9 3.988s.117.26.301 1.012L11 4.615s.049-.668-.437-1.615L9 3.988z"/>
        <path d="M10.357 3.396c-.07-.232-.155-.443-.246-.633-.267-.541-.513-.654-.549-.654-.035 0-.28.113-.548.654-.197.401-.344.9-.429 1.456h1.695c-.05-.267-.113-.535-.211-.795l.288-.028zM2.11 32.836c0 .584.47 1.055 1.054 1.055h29.672c.584 0 1.055-.471 1.055-1.055v-18H2.109v18z"/>
        <path fill="#727272" fill-rule="nonzero" d="M32.836 4.219h-2.96c.07.583.105 1.364-.021 2.2-.127.922-.345 1.8-.76 2.504-.717 1.209-1.223 1.912-2.84 1.912-.71 0-1.4-.626-1.294-1.519.07-.597.647-1.09 1.35-1.09.042 0 .12.008.443-.555.246-.415.295-.682.394-1.259 0 0 .197-1.075 0-2.2h-1.702c.084-.556.232-1.055.429-1.456.267-.541.513-.654.548-.654.029 0 .218.085.436.45 0 0 .162.26.33.746.008.028.022.063.029.091.429 1.315.169 2.932.169 2.932-.085.556-.24 1.055-.45 1.456-.282.541-.535.653-.57.653-.605 0-1.097.472-1.097 1.055 0 .584.492 1.055 1.097 1.055 1.027 0 1.927-.647 2.538-1.821.352-.682.591-1.505.697-2.398.196-1.483-.162-2.82-.247-3.115l-.02-.063c-.029-.113-.064-.24-.106-.38-.106-.337-.225-.66-.373-.949-.049-.091-.091-.183-.14-.267 0 0 0-.007-.007-.007C28.146.548 27.345 0 26.438 0c-.985 0-1.85.647-2.433 1.821-.338.682-.57 1.505-.668 2.398h-1.899c.07.583.106 1.364-.02 2.2-.127.922-.345 1.8-.76 2.504-.717 1.209-1.224 1.912-2.84 1.912-.711 0-1.4-.626-1.295-1.519.07-.597.647-1.09 1.35-1.09.043 0 .12.008.443-.555.247-.415.296-.682.394-1.259 0 0 .197-1.075 0-2.2H17.01c.084-.556.232-1.055.428-1.456.268-.541.514-.654.549-.654.035 0 .281.113.548.654.092.19.176.408.246.633h.008c.428 1.315.168 2.932.168 2.932-.084.556-.239 1.055-.45 1.456-.281.541-.534.653-.57.653-.604 0-1.096.472-1.096 1.055 0 .584.492 1.055 1.097 1.055 1.026 0 1.926-.647 2.538-1.821.352-.682.59-1.505.696-2.398.232-1.083-.007-2.327-.218-3.115-.133-.492-.26-.815-.26-.815l-.014.007c-.077-.204-.162-.401-.253-.584C19.849.647 18.984 0 18 0c-.984 0-1.85.647-2.433 1.821-.337.682-.57 1.505-.668 2.398h-1.898c.07.583.105 1.364-.021 2.2-.127.922-.345 1.8-.76 2.504-.717 1.209-1.223 1.912-2.84 1.912-.71 0-1.4-.626-1.294-1.519.07-.597.647-1.09 1.35-1.09.042 0 .12.008.443-.555.246-.415.295-.682.394-1.259 0 0 .197-1.075 0-2.2H8.578c.085-.556.232-1.055.429-1.456.267-.541.513-.654.548-.654.036 0 .282.113.549.654.091.19.176.408.246.633.429 1.315.169 2.932.169 2.932-.085.556-.24 1.055-.45 1.456-.282.541-.535.653-.57.653-.604 0-1.097.472-1.097 1.055 0 .584.493 1.055 1.097 1.055 1.027 0 1.927-.647 2.538-1.821.352-.682.591-1.505.697-2.398.196-1.483-.162-2.82-.246-3.115-.12-.506-.289-.977-.493-1.392C11.412.647 10.547 0 9.563 0c-.985 0-1.85.647-2.433 1.821-.338.682-.57 1.505-.668 2.398H3.164C1.42 4.219 0 5.639 0 7.383v25.453C0 34.58 1.42 36 3.164 36h29.672C34.58 36 36 34.58 36 32.836V7.383c0-1.744-1.42-3.164-3.164-3.164zm1.055 28.617c0 .584-.471 1.055-1.055 1.055H3.164c-.584 0-1.055-.471-1.055-1.055v-18h31.782v18z"/>
    </g>
</svg>
