<svg xmlns="http://www.w3.org/2000/svg" width="28" height="25" viewBox="0 0 28 25">
    <g fill="#FF8200" fill-rule="evenodd">
        <path stroke="#FF8200" stroke-width=".25" d="M24.476 14.831c0 1.11-.92 2.014-2.05 2.014H10.607l-5.523 3.771v-3.771h-1.51c-1.131 0-2.051-.904-2.051-2.014V3.508c0-1.11.92-2.013 2.05-2.013h18.851c1.132 0 2.051.903 2.051 2.013v11.323zM22.426 0H3.574C1.604 0 0 1.573 0 3.508v11.323c0 1.93 1.597 3.502 3.562 3.51v5.137l7.523-5.138h11.34c1.971 0 3.575-1.574 3.575-3.509V3.508C26 1.573 24.396 0 22.425 0h0z" transform="translate(1 1)"/>
        <path d="M7.137 7.217L19.373 7.217 19.373 5.217 7.137 5.217zM7.137 10.348L19.373 10.348 19.373 8.348 7.137 8.348zM7.137 13.565L19.373 13.565 19.373 11.565 7.137 11.565z" transform="translate(1 1)"/>
    </g>
</svg>
