<svg xmlns="http://www.w3.org/2000/svg" xmlns:xlink="http://www.w3.org/1999/xlink" width="48" height="53" viewBox="0 0 48 53">
    <defs>
        <path id="a" d="M.507.012h7.987V8H.509z"/>
    </defs>
    <g fill="none" fill-rule="evenodd">
        <path fill="#000" d="M3.994 45.968c.576 0 1.103.157 1.568.468.466.31.814.725 1.036 1.232l.046.104H7.87l-.076-.23a3.931 3.931 0 0 0-1.445-1.976 3.91 3.91 0 0 0-2.355-.765 3.865 3.865 0 0 0-2.824 1.17A3.868 3.868 0 0 0 0 48.797c0 1.096.394 2.046 1.17 2.823a3.864 3.864 0 0 0 2.824 1.17c.87 0 1.662-.26 2.355-.772a3.95 3.95 0 0 0 1.445-1.982l.076-.23H6.644l-.046.105a2.834 2.834 0 0 1-2.604 1.713 2.736 2.736 0 0 1-1.997-.83 2.687 2.687 0 0 1-.83-1.991c0-.78.28-1.455.831-2.005a2.735 2.735 0 0 1 1.996-.83"/>
        <g transform="translate(8 44.79)">
            <mask id="b" fill="#fff">
                <use xlink:href="#a"/>
            </mask>
            <path fill="#000" d="M4.5 6.833a2.697 2.697 0 0 1-2-.829 2.692 2.692 0 0 1-.827-1.992c0-.78.278-1.455.828-2.004a2.731 2.731 0 0 1 2-.83 2.7 2.7 0 0 1 2 .83c.548.55.827 1.224.827 2.004A2.73 2.73 0 0 1 6.5 6.004a2.696 2.696 0 0 1-2 .83m0-6.822a3.868 3.868 0 0 0-2.824 1.171A3.863 3.863 0 0 0 .507 4.006c0 1.097.393 2.047 1.17 2.823A3.868 3.868 0 0 0 4.5 8a3.865 3.865 0 0 0 2.823-1.17 3.864 3.864 0 0 0 1.17-2.824 3.864 3.864 0 0 0-1.17-2.823A3.865 3.865 0 0 0 4.5.013" mask="url(#b)"/>
        </g>
        <path fill="#000" d="M20.322 44.801a3.02 3.02 0 0 0-2.21.914 3.006 3.006 0 0 0-.915 2.197v4.771h1.167v-4.76c0-.545.187-.997.571-1.383a1.868 1.868 0 0 1 1.387-.572c.541 0 .991.187 1.375.572.383.386.571.838.571 1.382v4.761h1.166v-4.77c0-.852-.307-1.592-.914-2.198a3.008 3.008 0 0 0-2.198-.914M28.131 45.968c.576 0 1.104.157 1.568.468.466.31.815.726 1.037 1.232l.046.104h1.226l-.076-.23a3.935 3.935 0 0 0-1.446-1.976 3.911 3.911 0 0 0-2.355-.765 3.865 3.865 0 0 0-2.824 1.17 3.865 3.865 0 0 0-1.17 2.825c0 1.097.394 2.047 1.17 2.823a3.866 3.866 0 0 0 2.824 1.17c.868 0 1.661-.26 2.356-.772a3.964 3.964 0 0 0 1.445-1.981l.076-.231h-1.226l-.047.106a2.836 2.836 0 0 1-2.604 1.712 2.699 2.699 0 0 1-1.996-.83 2.684 2.684 0 0 1-.83-1.991c0-.78.278-1.455.83-2.005a2.7 2.7 0 0 1 1.996-.83M36.638 45.968c.682 0 1.29.22 1.803.653.5.422.823.955.963 1.59h-5.533a2.824 2.824 0 0 1 .964-1.59 2.723 2.723 0 0 1 1.803-.653m0-1.167a3.861 3.861 0 0 0-2.823 1.17 3.863 3.863 0 0 0-1.17 2.825c0 1.097.393 2.046 1.17 2.823a3.86 3.86 0 0 0 2.823 1.17c.858 0 1.646-.257 2.341-.764a3.99 3.99 0 0 0 1.46-1.988l.077-.232h-1.228l-.046.107a2.777 2.777 0 0 1-1.04 1.246 2.801 2.801 0 0 1-1.564.465c-.683 0-1.29-.221-1.803-.657a2.84 2.84 0 0 1-.96-1.587h6.757v-.583a3.866 3.866 0 0 0-1.17-2.824 3.868 3.868 0 0 0-2.824-1.171M42.13 45.596a2.613 2.613 0 0 0-.794 1.908v5.18h1.167v-5.17c0-.429.149-.786.455-1.092a1.48 1.48 0 0 1 1.094-.454h.702v-1.167h-.702c-.747 0-1.394.267-1.921.795M47.994 46.126V44.96l-1.37-.001v-2.49h-1.167v8.104c0 .58.21 1.084.625 1.494.414.409.918.617 1.499.617h.413v-1.167h-.413a.912.912 0 0 1-.68-.277.905.905 0 0 1-.277-.667v-4.447h1.37zM37.952 25.626a1.21 1.21 0 0 0-.457-.092c-.428 0-.795.249-.957.649a1.04 1.04 0 0 0 .008.842c.114.244.333.442.613.556.154.062.31.094.464.094.43 0 .785-.243.951-.651.231-.57-.03-1.158-.622-1.398M36.67 28.525c-.506-.347-1.169-.241-1.5.24a1.04 1.04 0 0 0-.173.826c.061.263.231.503.481.674.205.14.434.216.66.216.334 0 .641-.167.841-.458.347-.508.217-1.138-.309-1.498M33.303 30.907c-.449.42-.458 1.063-.022 1.529.228.243.516.377.812.377.26 0 .503-.1.706-.29.217-.203.34-.47.341-.752a1.121 1.121 0 0 0-.319-.776c-.42-.45-1.088-.49-1.518-.088M31.018 32.593c-.529.314-.677.94-.35 1.489.212.359.55.566.922.566.184 0 .37-.053.54-.154.528-.313.676-.94.35-1.488-.312-.527-.957-.712-1.462-.413M28.428 33.748c-.593.197-.865.764-.662 1.38.159.476.539.772.995.772.116 0 .232-.019.347-.057.583-.193.862-.773.66-1.379-.193-.586-.775-.902-1.34-.716M25.64 34.326c-.621.065-1.008.56-.941 1.205.062.594.479.993 1.036.993.039 0 .079-.002.12-.006.61-.064 1.007-.571.942-1.205-.066-.626-.546-1.048-1.157-.987M22.805 34.29c-.63-.073-1.106.34-1.18.974-.033.304.036.591.199.811.167.225.42.368.718.402.045.005.089.008.132.008.55 0 .982-.404 1.048-.98a1.147 1.147 0 0 0-.198-.807 1.022 1.022 0 0 0-.72-.408M20.052 33.646c-.579-.2-1.157.1-1.362.693-.209.603.055 1.185.63 1.384.12.041.241.062.362.062.455 0 .84-.289 1-.755a1.132 1.132 0 0 0-.018-.829 1.018 1.018 0 0 0-.612-.555M17.488 32.422c-.521-.32-1.152-.152-1.481.384-.333.544-.2 1.17.318 1.486.174.107.368.164.56.164.372 0 .707-.2.92-.547.333-.544.2-1.169-.317-1.487M13.708 30.733a1.14 1.14 0 0 0-.333.764c-.003.282.113.55.329.755.202.194.46.301.725.301.294 0 .579-.128.803-.362a1.14 1.14 0 0 0 .329-.76 1.018 1.018 0 0 0-.326-.76c-.438-.42-1.095-.39-1.527.062M13.424 28.48c-.335-.5-.988-.614-1.506-.268-.529.356-.669.979-.33 1.483.201.302.515.474.861.474.221 0 .443-.071.643-.205.263-.176.44-.428.495-.71a1.027 1.027 0 0 0-.163-.773M12.104 26.78c.125-.256.134-.549.024-.826-.165-.422-.526-.674-.962-.674-.149 0-.3.03-.45.09a1.134 1.134 0 0 0-.623.554 1.019 1.019 0 0 0-.018.823c.162.415.533.672.968.672.148 0 .296-.03.444-.087.278-.11.498-.306.617-.552M10.477 24.412c.313-.05.578-.205.747-.438.158-.218.22-.492.176-.77-.097-.608-.61-.977-1.255-.874a1.14 1.14 0 0 0-.728.408 1.02 1.02 0 0 0-.193.8c.084.533.507.89 1.051.89.065 0 .133-.005.202-.016M10.119 21.353a.99.99 0 0 0 .077.002c.595 0 1.05-.413 1.083-.984.037-.623-.39-1.085-1.036-1.123-.647-.042-1.126.377-1.161.981-.018.298.079.575.27.781.19.204.462.325.767.343M10.428 18.284c.113.032.227.048.34.048a1.02 1.02 0 0 0 1.004-.756 1.036 1.036 0 0 0-.1-.837 1.137 1.137 0 0 0-.67-.484c-.61-.173-1.18.13-1.345.708-.082.287-.047.578.096.82.14.24.381.418.675.5M11.393 15.353c.178.096.372.146.56.146.382 0 .72-.205.905-.55.146-.272.175-.57.08-.838a1.134 1.134 0 0 0-.55-.618c-.55-.294-1.186-.117-1.466.405-.29.542-.091 1.154.47 1.455M13.703 12.978c.299 0 .575-.13.778-.367.407-.475.347-1.1-.146-1.523-.474-.406-1.132-.37-1.518.08a1.042 1.042 0 0 0-.257.786c.027.275.17.537.403.737.217.185.479.287.74.287M15.94 10.9c.22 0 .437-.074.623-.214.245-.186.398-.444.425-.727a1.132 1.132 0 0 0-.24-.79c-.373-.497-1.027-.606-1.499-.25-.23.172-.38.417-.417.687-.04.283.042.578.231.83.223.295.542.464.877.464M19.526 7.807c-.26-.57-.866-.815-1.412-.566-.27.124-.47.339-.563.605-.09.263-.07.56.056.838.188.41.56.665.97.665.15 0 .298-.034.441-.1.568-.26.778-.852.508-1.442M22.518 7.075c-.135-.62-.665-.983-1.257-.854-.292.063-.533.23-.68.47a1.13 1.13 0 0 0-.125.83c.115.527.526.88 1.024.88.077 0 .156-.008.234-.025.61-.133.94-.667.804-1.301M25.613 7.001a1.143 1.143 0 0 0-.286-.785 1.028 1.028 0 0 0-.762-.32c-.613 0-1.06.461-1.061 1.097-.003.638.437 1.103 1.044 1.105h.004c.622 0 1.058-.45 1.06-1.097zM28.636 7.594c.138-.622-.19-1.171-.782-1.304-.586-.131-1.14.236-1.276.842-.066.293-.027.585.11.82.142.248.38.419.671.484.086.019.173.029.257.029.5 0 .9-.341 1.02-.871M31.473 8.828c.129-.277.154-.572.07-.832a1.024 1.024 0 0 0-.553-.609 1.09 1.09 0 0 0-.462-.106c-.413 0-.774.245-.965.655-.271.577-.068 1.184.483 1.441.154.071.31.108.468.108.409 0 .767-.245.959-.657M32.466 10.868c.195.15.418.229.645.229.328 0 .643-.167.867-.46.386-.506.318-1.142-.165-1.51-.47-.361-1.137-.26-1.51.23a1.138 1.138 0 0 0-.245.792c.027.283.171.538.408.719M35.3 13.231c.259 0 .513-.098.734-.284.488-.41.559-1.046.167-1.51-.383-.457-1.051-.503-1.526-.103-.488.411-.558 1.046-.167 1.51.21.25.49.387.793.387M36.118 15.256c.191.363.523.57.912.57.185 0 .378-.048.557-.142.27-.143.47-.362.56-.62a1.026 1.026 0 0 0-.072-.821c-.278-.527-.92-.716-1.469-.427-.565.297-.77.903-.488 1.44M41.764 26.127a1.128 1.128 0 0 0-.648-.534 1.258 1.258 0 0 0-.397-.067c-.458 0-.835.27-.983.705-.1.292-.08.59.056.84.13.237.359.42.645.519.135.046.27.069.403.069.455 0 .829-.271.976-.707a1.039 1.039 0 0 0-.052-.825M39.928 28.81c-.535-.298-1.188-.13-1.472.378a1.037 1.037 0 0 0-.097.836c.085.257.276.48.539.627.187.105.388.16.583.16.375 0 .699-.196.89-.536.3-.537.114-1.153-.443-1.465M38.26 31.557c-.471-.392-1.144-.347-1.516.101-.19.228-.277.493-.252.765.026.283.175.552.42.755.22.184.473.281.73.281.303 0 .582-.136.786-.382.19-.229.279-.51.247-.79a1.135 1.135 0 0 0-.414-.73M34.616 33.754c-.238.196-.378.46-.393.745-.015.268.083.546.276.78.228.275.53.427.848.427.237 0 .466-.086.661-.247.474-.392.523-1.033.117-1.525-.39-.471-1.059-.552-1.509-.18M32.135 35.42c-.547.302-.709.91-.396 1.477.206.371.556.593.936.593.177 0 .35-.046.515-.137.538-.299.704-.92.395-1.478-.299-.539-.934-.74-1.45-.456M29.381 36.605c-.593.197-.865.765-.66 1.379.157.477.538.773.993.773.116 0 .232-.02.347-.058.283-.093.506-.285.626-.54.12-.25.131-.55.035-.84-.194-.585-.778-.901-1.34-.714M26.462 37.263c-.295.04-.539.176-.704.394a1.128 1.128 0 0 0-.2.84c.078.575.493.96 1.032.96.051 0 .102-.003.155-.01.61-.083.99-.602.903-1.234-.083-.618-.585-1.033-1.186-.95M23.482 37.371l-.063-.002c-.588 0-1.021.431-1.053 1.048-.032.637.384 1.121.99 1.152l.06.002c.581 0 1.024-.44 1.055-1.047.032-.637-.384-1.122-.99-1.153M20.526 36.924c-.596-.144-1.14.207-1.29.822-.15.62.17 1.173.76 1.316.088.02.178.032.266.032.496 0 .898-.335 1.024-.853a1.14 1.14 0 0 0-.097-.823 1.022 1.022 0 0 0-.663-.494M17.717 35.944c-.558-.25-1.16-.008-1.42.564-.134.291-.15.598-.05.865.093.251.288.453.548.571.147.067.298.101.451.101.42 0 .782-.249.97-.664.264-.58.054-1.185-.499-1.437M15.101 34.45c-.497-.345-1.144-.212-1.499.3a1.135 1.135 0 0 0-.205.841c.048.263.204.498.437.66.186.13.396.197.608.197.348 0 .674-.18.892-.496.171-.247.245-.532.207-.803a1.016 1.016 0 0 0-.44-.699M11.298 32.528c-.454.448-.475 1.087-.05 1.519.206.208.47.323.747.323.283 0 .56-.121.783-.34.214-.21.339-.476.352-.75a1.019 1.019 0 0 0-.303-.77c-.425-.43-1.084-.421-1.53.018M10.952 30.183c-.206-.306-.51-.476-.855-.476-.222 0-.447.073-.65.21-.53.355-.669.98-.33 1.483.201.3.515.474.861.474.222 0 .444-.072.645-.207.25-.168.42-.405.484-.673a1.018 1.018 0 0 0-.155-.81M9.541 28.375c.115-.26.114-.553-.003-.827-.241-.556-.854-.788-1.432-.538a1.134 1.134 0 0 0-.605.575c-.113.257-.109.55.009.823.172.401.53.64.954.64.16 0 .32-.034.477-.1a1.14 1.14 0 0 0 .6-.573M7.788 25.967c.622-.14.977-.672.843-1.264-.134-.594-.691-.933-1.307-.793-.623.14-.978.672-.844 1.265.114.5.518.824 1.03.824.09 0 .184-.01.278-.032M7.2 22.82c.3-.01.572-.123.766-.316.202-.2.306-.474.296-.77-.023-.602-.47-1.022-1.089-1.022h-.05c-.306.012-.58.124-.773.318a1.02 1.02 0 0 0-.29.77c.022.592.48 1.021 1.09 1.021h.05zM7.206 19.614c.065.01.13.015.192.015.55 0 .974-.357 1.054-.887a1.038 1.038 0 0 0-.204-.816 1.141 1.141 0 0 0-.727-.398c-.643-.096-1.155.28-1.245.872-.045.295.026.58.198.803.17.22.43.365.732.411M7.795 16.488c.136.047.273.073.41.073.452 0 .826-.267.978-.694a1.043 1.043 0 0 0-.047-.84A1.135 1.135 0 0 0 8.5 14.5c-.593-.21-1.189.06-1.388.62-.205.58.083 1.155.684 1.368M8.968 13.497c.186.107.39.163.587.163.375 0 .7-.191.89-.523.311-.542.135-1.146-.426-1.47a1.196 1.196 0 0 0-.593-.165c-.37 0-.692.192-.884.526a1.04 1.04 0 0 0-.107.82c.08.266.268.497.533.649M11.405 11.062c.3 0 .577-.13.78-.369.404-.476.344-1.1-.15-1.522-.475-.405-1.133-.368-1.518.083-.399.468-.336 1.108.15 1.522.216.184.478.286.738.286M13.688 8.863c.233 0 .458-.082.649-.236.486-.392.542-1.02.135-1.523-.392-.486-1.045-.572-1.506-.2-.479.386-.536 1.027-.136 1.524.223.276.536.435.858.435M16.836 6.992c.55-.295.72-.9.413-1.473-.295-.548-.92-.755-1.444-.474a1.052 1.052 0 0 0-.524.641c-.073.268-.035.564.11.833.203.377.557.603.946.603.171 0 .34-.043.499-.13M19.603 5.84a1.04 1.04 0 0 0 .642-.544c.114-.245.127-.54.035-.827-.19-.6-.757-.914-1.332-.731-.586.187-.87.763-.677 1.37.151.477.545.784 1.003.784.11 0 .22-.017.33-.052M22.532 5.217c.306-.038.566-.186.73-.417a1.13 1.13 0 0 0 .187-.806c-.078-.631-.561-1.038-1.174-.964a1.043 1.043 0 0 0-.72.407 1.132 1.132 0 0 0-.198.816c.07.573.497.973 1.037.973.045 0 .09-.003.138-.01M26.645 4.113a1.136 1.136 0 0 0-.239-.8 1.022 1.022 0 0 0-.737-.365c-.625-.039-1.089.397-1.129 1.032-.019.3.065.581.238.794a1.02 1.02 0 0 0 .817.374c.58 0 1.012-.426 1.05-1.035M29.77 4.825a1.14 1.14 0 0 0-.085-.83 1.027 1.027 0 0 0-.659-.496c-.584-.149-1.145.198-1.3.806-.156.618.157 1.175.745 1.325.096.025.192.037.287.037.485 0 .882-.33 1.012-.842M32.7 6.1c.271-.576.068-1.183-.48-1.441a1.09 1.09 0 0 0-.464-.106c-.412 0-.774.244-.965.653-.27.577-.069 1.184.481 1.44.154.074.312.11.47.11.408 0 .766-.244.958-.655M35.367 7.89c.37-.52.28-1.153-.216-1.505-.484-.344-1.145-.22-1.502.28a1.126 1.126 0 0 0-.21.842c.043.265.195.5.425.665.19.135.404.207.62.207.34 0 .661-.178.883-.49M36.86 10.472c.279 0 .555-.118.779-.333.22-.212.35-.479.365-.75.015-.28-.09-.554-.297-.769-.41-.427-1.085-.43-1.53-.003-.46.442-.488 1.081-.067 1.52.21.22.47.335.75.335M37.954 12.484c.203.309.517.487.863.487.217 0 .438-.07.64-.202.533-.35.68-.971.347-1.48-.325-.497-.984-.623-1.502-.285a1.137 1.137 0 0 0-.493.667c-.07.275-.018.564.145.813M39.343 14.35a1.02 1.02 0 0 0-.007.825c.171.41.527.655.953.655.157 0 .316-.033.472-.098a1.14 1.14 0 0 0 .612-.568c.116-.255.116-.547.002-.823-.229-.549-.852-.795-1.425-.556a1.14 1.14 0 0 0-.607.564M44.048 25.568c-.6-.166-1.184.147-1.342.715-.082.297-.045.594.105.836.142.23.382.4.673.481.114.032.23.048.341.048.48 0 .871-.299 1-.762.164-.593-.162-1.147-.777-1.318M43.103 28.737a1.205 1.205 0 0 0-.498-.11c-.414 0-.764.226-.938.608-.259.57-.026 1.154.563 1.422.167.076.337.114.505.114.41 0 .758-.229.931-.612.123-.272.134-.565.029-.826a1.121 1.121 0 0 0-.592-.596M41.695 31.594c-.513-.34-1.175-.222-1.497.266a1.04 1.04 0 0 0-.16.827c.066.262.24.499.493.665.203.135.426.206.646.206.342 0 .652-.172.85-.471.165-.25.22-.537.159-.812a1.126 1.126 0 0 0-.491-.681M38.338 34.212a1.04 1.04 0 0 0-.287.792c.022.27.157.53.379.734.223.205.495.318.765.318.283 0 .55-.122.755-.344.416-.453.377-1.095-.092-1.527-.452-.413-1.125-.403-1.52.027M36.135 36.236c-.49.388-.55 1.015-.148 1.523.227.288.532.446.859.446.23 0 .453-.081.645-.233a1.04 1.04 0 0 0 .403-.721 1.124 1.124 0 0 0-.254-.801c-.38-.48-1.046-.578-1.505-.214M33.637 37.894a1.04 1.04 0 0 0-.519.664c-.062.263-.015.553.134.816.206.367.555.587.932.587.18 0 .354-.047.521-.14.536-.303.698-.926.384-1.48-.302-.538-.938-.737-1.452-.447M30.904 39.144a1.045 1.045 0 0 0-.616.574c-.102.25-.1.544.005.827.17.455.546.738.985.738.127 0 .255-.023.38-.07.28-.104.495-.303.607-.562.11-.255.111-.553.005-.84-.217-.582-.807-.875-1.366-.667M28.019 39.948a1.04 1.04 0 0 0-.698.472 1.135 1.135 0 0 0-.125.817c.11.544.51.896 1.02.896.074 0 .148-.007.225-.023.602-.122.949-.664.823-1.289-.123-.61-.634-.996-1.245-.873M25.083 40.291l-.046.001c-.308.012-.58.138-.764.355a1.143 1.143 0 0 0-.252.788c.025.623.454 1.06 1.044 1.06l.048-.002c.614-.025 1.04-.505 1.015-1.143-.024-.614-.463-1.059-1.045-1.059M22.041 40.16c-.629-.075-1.109.335-1.184.969-.075.633.308 1.145.91 1.217.046.006.092.009.137.009.548 0 .978-.402 1.047-.978a1.13 1.13 0 0 0-.194-.805 1.022 1.022 0 0 0-.716-.412M19.105 39.558c-.587-.166-1.15.167-1.32.77-.087.307-.058.614.08.863.132.233.355.405.629.482.1.029.204.043.305.043.477 0 .875-.32 1.015-.813a1.134 1.134 0 0 0-.066-.826 1.017 1.017 0 0 0-.643-.52M16.291 38.5c-.556-.254-1.162-.014-1.424.557a1.13 1.13 0 0 0-.066.832c.088.266.285.48.556.606.148.069.302.104.457.104.415 0 .777-.247.967-.66.126-.272.149-.565.065-.825a1.025 1.025 0 0 0-.555-.613M13.69 37.026c-.505-.336-1.149-.193-1.495.327-.354.53-.245 1.16.26 1.497.181.122.386.186.592.186.355 0 .684-.186.901-.512.355-.53.245-1.16-.258-1.498M9.82 35.241a1.134 1.134 0 0 0-.321.77c0 .281.12.547.34.75.202.187.456.29.715.29.3 0 .588-.133.812-.376.433-.467.426-1.107-.02-1.52-.444-.413-1.101-.372-1.526.086M9.328 32.938c-.374-.477-1.029-.54-1.52-.155-.24.188-.397.44-.439.71-.043.277.034.56.218.793.208.265.5.411.818.411.246 0 .49-.088.703-.255.237-.185.39-.435.434-.706a1.02 1.02 0 0 0-.214-.798M7.68 30.426c-.194-.349-.522-.55-.899-.55a1.2 1.2 0 0 0-.579.157c-.558.31-.749.92-.454 1.451.191.343.53.547.907.547.192 0 .39-.053.571-.154.558-.31.75-.92.454-1.45M6.448 27.694c-.159-.436-.523-.697-.972-.697-.142 0-.284.027-.427.08-.599.218-.883.791-.674 1.361.156.43.532.695.98.695.138 0 .28-.025.42-.076.598-.219.881-.792.673-1.363M4.776 26.038c.626-.123.995-.645.879-1.24-.118-.6-.66-.952-1.285-.83-.626.123-.995.645-.88 1.24.1.51.52.854 1.04.854.082 0 .164-.008.246-.024M4.264 22.905c.3-.01.573-.123.766-.315.203-.2.308-.474.298-.771-.022-.601-.47-1.022-1.09-1.022H4.19c-.304.011-.58.123-.772.316a1.027 1.027 0 0 0-.29.77c.02.594.478 1.024 1.09 1.024l.047-.002zM4.253 19.726c.054.007.107.01.16.01.558 0 .995-.376 1.062-.914a1.038 1.038 0 0 0-.226-.81 1.133 1.133 0 0 0-.736-.379c-.645-.082-1.147.305-1.222.904-.037.296.041.58.22.797.175.215.44.355.742.392M4.745 16.588c.115.034.231.05.345.05.48 0 .872-.295 1.004-.75a1.04 1.04 0 0 0-.097-.838 1.137 1.137 0 0 0-.667-.488c-.608-.175-1.182.126-1.348.702a1.04 1.04 0 0 0 .091.822c.14.24.38.418.672.503M5.722 13.568c.166.078.337.117.508.117.408 0 .756-.225.933-.6.13-.28.142-.579.035-.842a1.139 1.139 0 0 0-.584-.586c-.57-.265-1.191-.054-1.441.484a1.04 1.04 0 0 0-.037.826c.1.258.309.472.586.601M7.157 10.73c.202.138.427.21.65.21.343 0 .65-.168.849-.46.173-.255.232-.548.167-.825a1.132 1.132 0 0 0-.484-.67c-.515-.35-1.168-.238-1.5.25-.161.24-.222.519-.17.787.054.28.228.533.488.709M9.789 8.482c.28 0 .547-.117.748-.332.21-.226.316-.506.296-.788a1.142 1.142 0 0 0-.373-.74c-.452-.423-1.118-.417-1.52.011a1.04 1.04 0 0 0-.292.774c.015.277.146.545.37.754.22.207.495.322.77.322M12.13 6.367c.227 0 .446-.077.635-.224.493-.382.56-1.007.164-1.52-.38-.489-1.036-.589-1.503-.228-.485.376-.555 1.016-.164 1.52.222.288.539.452.868.452M14.778 4.642c.175 0 .345-.045.506-.133.548-.3.712-.908.4-1.476-.3-.546-.928-.747-1.448-.46a1.047 1.047 0 0 0-.518.643 1.13 1.13 0 0 0 .118.832c.205.372.557.594.942.594M18.648 1.895c-.212-.589-.796-.883-1.358-.681a1.045 1.045 0 0 0-.603.535c-.122.259-.13.564-.022.86.165.461.545.746.993.746.122 0 .244-.021.365-.065.587-.211.844-.785.625-1.395M21.76 1.232c-.117-.614-.628-1-1.235-.885-.604.116-.956.653-.837 1.28.104.541.517.906 1.028.906.067 0 .137-.006.208-.02.613-.117.957-.643.836-1.28M24.933 1.07C24.913.44 24.484 0 23.888 0h-.036c-.614.02-1.046.495-1.027 1.133.02.62.458 1.07 1.045 1.07l.035-.002c.297-.008.553-.118.74-.317a1.13 1.13 0 0 0 .288-.815zM28.09 1.409a1.14 1.14 0 0 0-.186-.814 1.021 1.021 0 0 0-.712-.412c-.611-.08-1.115.335-1.195.956a1.14 1.14 0 0 0 .186.807c.165.232.418.38.713.419.053.007.105.01.155.01.547 0 .964-.388 1.039-.966M31.158 2.241c.18-.612-.112-1.18-.694-1.352-.58-.17-1.154.16-1.33.757-.18.612.113 1.18.695 1.351.109.033.218.05.326.05.472 0 .857-.309 1.003-.806M34.063 3.544a1.14 1.14 0 0 0 .075-.831 1.024 1.024 0 0 0-.55-.613 1.077 1.077 0 0 0-.467-.108c-.41 0-.772.243-.964.649a1.131 1.131 0 0 0-.072.825c.084.272.28.49.547.619.157.073.316.11.474.11.407 0 .764-.243.957-.651M35.227 5.591c.188.128.397.196.605.196.348 0 .672-.184.893-.505.36-.527.258-1.158-.243-1.5-.492-.337-1.149-.2-1.498.31-.36.525-.258 1.156.243 1.5M38.268 7.785c.293 0 .58-.132.806-.37.21-.223.327-.495.329-.768a1.02 1.02 0 0 0-.332-.753c-.43-.407-1.104-.377-1.528.07-.438.463-.437 1.102.004 1.52.208.197.457.301.72.301M39.54 9.721c.209.273.5.423.82.423.244 0 .485-.086.7-.25.242-.187.4-.437.445-.707a1.02 1.02 0 0 0-.21-.795c-.36-.47-1.03-.549-1.52-.173-.505.39-.604 1.02-.235 1.502M41.084 11.426c-.093.269-.064.562.077.823.192.355.523.559.905.559.19 0 .387-.053.569-.151.269-.146.465-.369.55-.627.09-.266.06-.557-.082-.819-.282-.52-.93-.702-1.474-.408a1.142 1.142 0 0 0-.545.623M42.365 15.119c.157.443.522.707.977.707.137 0 .277-.025.415-.074.6-.213.89-.783.688-1.355-.2-.566-.801-.842-1.392-.633-.601.213-.891.783-.688 1.355"/>
        <path fill="#E03032" d="M26.547 17.678l5.888 3.391-5.88 3.404-5.88 3.404-.009-6.795-.009-6.794z"/>
    </g>
</svg>
