<svg xmlns="http://www.w3.org/2000/svg" width="43" height="43" viewBox="0 0 43 43">
    <g fill="none" fill-rule="evenodd">
        <ellipse cx="21.161" cy="21.459" fill="#0097A9" rx="21.161" ry="21.459"/>
        <path fill="#FFF" d="M23.877 27.882a.626.626 0 0 0 1.25 0v-8.757a.626.626 0 0 0-1.25 0v8.757zm-3.75 0a.626.626 0 0 0 1.25 0v-8.757a.626.626 0 0 0-1.25 0v8.757zm-3.75 0a.626.626 0 0 0 1.249 0v-8.757a.626.626 0 0 0-1.25 0v8.757zM13.251 16h15v13.118c0 1.036-.84 1.876-1.876 1.876H15.125a1.875 1.875 0 0 1-1.876-1.876L13.252 16zm16.25-3.125v1.243c0 .346-.281.626-.627.626h-16.25a.626.626 0 0 1-.625-.626v-1.243c0-.345.28-.626.626-.626h4.684l.367-.73c.17-.305.486-.501.835-.519h4.47c.35.019.667.214.84.518l.37.731h4.688a.626.626 0 0 1 .621.626z"/>
    </g>
</svg>
