<svg xmlns="http://www.w3.org/2000/svg" width="60" height="52" viewBox="0 0 60 52">
    <g fill="none" fill-rule="evenodd">
        <path fill="#A8A8A8" d="M58.788 37.906c0 7.034-5.82 12.735-13 12.735-7.178 0-12.997-5.701-12.997-12.735S38.61 25.17 45.789 25.17c7.18 0 12.999 5.702 12.999 12.736M23.283 19.989c-5.472 0-9.907-4.345-9.907-9.705S17.81.579 23.283.579c5.47 0 9.905 4.345 9.905 9.705s-4.435 9.705-9.905 9.705z"/>
        <path fill="#A8A8A8" d="M.775 41.363c0-10.978 10.077-19.877 22.507-19.877 12.43 0 22.507 8.899 22.507 19.877"/>
        <path stroke="#FFF" stroke-width="2" d="M58.788 37.906c0 7.034-5.82 12.735-13 12.735-7.178 0-12.997-5.701-12.997-12.735S38.61 25.17 45.789 25.17c7.18 0 12.999 5.702 12.999 12.736z"/>
        <path fill="#FFF" d="M41 39.804L47.806 33 50 35.194 43.194 42z"/>
        <path fill="#FFF" d="M41 42L43 41.446 41.554 40zM51.121 32.338c-.451-.45-1.18-.45-1.632 0l-.489.488L51.173 35l.49-.49c.45-.451.45-1.18 0-1.631l-.542-.541z"/>
    </g>
</svg>
