<svg xmlns="http://www.w3.org/2000/svg" width="125" height="114" viewBox="0 0 125 114">
    <path fill="none" fill-rule="evenodd" stroke="#FFF" stroke-linejoin="round" stroke-width="6.5" d="M44.486 4.914c8.927 2.58 15.07 7.737 18.427 15.474 3.493-6.652 9.36-11.146 17.602-13.483C94.737 3.75 108.24 9.341 113.93 17.062c9.456 12.833 9.75 29.515-1.08 46.107-10.93 16.75-27.624 32.333-50.08 46.751-.08.052-.174.08-.27.08-.188 0-.352-.104-.437-.257l.163.106C39.772 95.163 23.08 79.29 12.15 62.23 1.32 45.325 1.614 28.332 11.07 15.26 16.76 7.395 30.263 1.699 44.486 4.914z" opacity=".576"/>
</svg>
