<svg xmlns="http://www.w3.org/2000/svg" xmlns:xlink="http://www.w3.org/1999/xlink" width="28" height="44" viewBox="0 0 28 44">
    <defs>
        <path id="a" d="M0 1.896h27.565v42.548H0z"/>
    </defs>
    <g fill="none" fill-rule="evenodd">
        <g transform="translate(0 -1.34)">
            <mask id="b" fill="#fff">
                <use xlink:href="#a"/>
            </mask>
            <path fill="#000" d="M5.054 3.285c-2.03 0-3.68 1.667-3.68 3.717V39.34c0 2.05 1.65 3.716 3.68 3.716h17.462c2.024 0 3.674-1.666 3.674-3.716V7c0-2.05-1.65-3.716-3.674-3.716H5.054zm17.462 41.161H5.054c-2.789 0-5.055-2.289-5.055-5.105V7c0-2.816 2.266-5.105 5.055-5.105h17.462c2.783 0 5.05 2.289 5.05 5.106V39.34c0 2.816-2.267 5.105-5.05 5.105z" mask="url(#b)"/>
        </g>
        <path fill="#000" d="M7.963 4.19h11.643c0 1.628-1.298 2.94-2.91 2.94h-5.824c-1.611 0-2.91-1.312-2.91-2.94"/>
    </g>
</svg>
