<svg xmlns="http://www.w3.org/2000/svg" width="31" height="33" viewBox="0 0 31 33">
    <g fill="none" fill-rule="evenodd" transform="translate(-3)">
        <rect width="34" height="33" fill="#56C7D5" rx="2"/>
        <g transform="translate(5 5)">
            <circle cx="12" cy="12" r="12" fill="#0097A9"/>
            <path fill="#FFF" fill-rule="nonzero" d="M12 18.419c.74 0 1.345-.603 1.345-1.34h-2.69c0 .737.606 1.34 1.345 1.34zm4.37-4.019v-3.684c0-2.076-1.412-3.75-3.362-4.22v-.468c0-.536-.47-1.005-1.008-1.005s-1.008.47-1.008 1.005v.469c-1.95.469-3.362 2.143-3.362 4.22V14.4l-1.344 1.34v.67h11.428v-.67L16.37 14.4z"/>
        </g>
    </g>
</svg>
