<svg xmlns="http://www.w3.org/2000/svg" width="28" height="19" viewBox="0 0 28 19">
    <g fill="#FF8200" fill-rule="evenodd">
        <path d="M14.255 6.162c-1.966 0-3.564 1.612-3.564 3.595s1.598 3.594 3.564 3.594 3.563-1.611 3.563-3.594c0-1.983-1.597-3.595-3.563-3.595"/>
        <path d="M13.745 15.919c-3.448 0-6.248-2.761-6.248-6.163 0-3.4 2.8-6.162 6.248-6.162 3.45 0 6.249 2.761 6.249 6.162 0 3.402-2.8 6.163-6.249 6.163m0-15.405C7.497.514 2.161 4.346 0 9.756 2.161 15.167 7.497 19 13.745 19 20 19 25.33 15.167 27.491 9.756 25.329 4.346 19.999.514 13.745.514"/>
    </g>
</svg>
