<svg xmlns="http://www.w3.org/2000/svg" width="55" height="50" viewBox="0 0 55 50">
    <path fill="#000" fill-rule="evenodd" d="M48.75 40H6.25a3.75 3.75 0 0 1-3.75-3.75V35h50v1.25A3.75 3.75 0 0 1 48.75 40m-13.888 7.5H20.138a13.055 13.055 0 0 0 2.224-5h10.276a13.055 13.055 0 0 0 2.224 5M6.25 2.5h42.5a3.75 3.75 0 0 1 3.75 3.75V32.5h-50V6.25A3.75 3.75 0 0 1 6.25 2.5M48.75 0H6.25A6.25 6.25 0 0 0 0 6.25v30a6.25 6.25 0 0 0 6.25 6.25h13.563c-.563 2.188-2.313 5-3.563 5a1.25 1.25 0 1 0 0 2.5h22.5a1.249 1.249 0 1 0 0-2.5c-1.25 0-3-2.813-3.563-5H48.75A6.25 6.25 0 0 0 55 36.25v-30A6.25 6.25 0 0 0 48.75 0"/>
</svg>
