<svg xmlns="http://www.w3.org/2000/svg" width="32" height="32" viewBox="0 0 32 32">
    <g fill="none" fill-rule="evenodd">
        <circle cx="16" cy="16" r="16" fill="#D8D8D8"/>
        <g fill="#000" fill-rule="nonzero">
            <path d="M26.396 15.092c-.195-.268-4.86-6.556-10.816-6.556S4.96 14.824 4.764 15.092a.723.723 0 0 0 0 .852c.196.268 4.86 6.557 10.816 6.557 5.957 0 10.62-6.289 10.816-6.556a.722.722 0 0 0 0-.853zM15.58 21.056c-4.387 0-8.188-4.174-9.313-5.538 1.124-1.366 4.916-5.538 9.313-5.538 4.388 0 8.187 4.173 9.313 5.539-1.124 1.365-4.916 5.537-9.313 5.537z"/>
            <path d="M15.58 11.184a4.339 4.339 0 0 0-4.334 4.334 4.339 4.339 0 0 0 4.334 4.334 4.339 4.339 0 0 0 4.334-4.334 4.339 4.339 0 0 0-4.334-4.334zm0 7.224a2.892 2.892 0 0 1-2.89-2.89 2.893 2.893 0 0 1 2.89-2.89 2.893 2.893 0 0 1 2.89 2.89 2.892 2.892 0 0 1-2.89 2.89z"/>
        </g>
    </g>
</svg>
