<?xml version="1.0" encoding="UTF-8"?>
<svg width="1736px" height="509px" viewBox="0 0 1736 509" version="1.1" xmlns="http://www.w3.org/2000/svg" xmlns:xlink="http://www.w3.org/1999/xlink">
    <!-- Generator: Sketch 61.2 (89653) - https://sketch.com -->
    <title>Group 8</title>
    <desc>Created with Sketch.</desc>
    <defs>
        <path d="M77.5311111,0.37106087 C77.7563767,0.523548665 88.8519667,8.17771774 89.0466667,36.8244783 L89.0466667,36.8244783 L89.0428962,37.7502957 C88.5867591,68.2823724 55.3517111,96.7558114 7.34111111,96.8137565 L7.34111111,96.8137565 L6.99,96.8137565 L5.74057778,96.8052751 C4.07017778,96.7853085 2.382,96.7307096 0.678888889,96.6414783 L0.678888889,96.6414783 L0.681111111,0.485913043 L77.5311111,0.37106087 Z" id="path-1"></path>
        <path d="M0.66828125,0.173083333 L0.66828125,66.0631167 C22.5553125,61.0526333 45.9626563,38.1006667 29.32125,12.8818667 L29.32125,12.8818667 C24.1521875,5.04956667 13.0407813,0.16415 1.54,0.16415 L1.54,0.16415 C1.2490625,0.16415 0.95921875,0.1675 0.66828125,0.173083333 L0.66828125,0.173083333 Z" id="path-3"></path>
        <path d="M16.7733429,0.260121212 C12.5825143,0.294878788 8.33597143,1.76590909 4.60088571,5.05330303 L4.60088571,5.05330303 C1.32711429,7.93369697 0.0624,11.9240909 0.0445714286,15.7642424 L0.0445714286,15.7642424 L0.0445714286,15.9391515 C0.0590571429,18.9720303 0.846857143,21.8995152 2.02911429,24.0937273 L2.02911429,24.0937273 C6.94422857,33.2192727 17.2825714,38.6235152 26.7918857,36.1321818 L26.7918857,36.1321818 C39.4992,32.8066667 40.3538571,18.9350303 34.6520571,10.2803939 L34.6520571,10.2803939 C30.6573429,4.22136364 23.9705143,0.320666667 17.0964857,0.260121212 L17.0964857,0.260121212 L16.7733429,0.260121212 Z" id="path-5"></path>
    </defs>
    <g id="Welcome" stroke="none" stroke-width="1" fill="none" fill-rule="evenodd">
        <g id="Admin-del-sitio" transform="translate(0.000000, -341.000000)">
            <g id="Group-8" transform="translate(-3.000000, 341.000000)">
                <g id="Group-13">
                    <g id="Group-7">
                        <g id="Group-6" transform="translate(3.000000, 0.000000)">
                            <g id="Group-3" transform="translate(0.000000, 29.817391)">
                                <mask id="mask-2" fill="white">
                                    <use xlink:href="#path-1"></use>
                                </mask>
                                <g id="Clip-2"></g>
                                <polygon id="Fill-1" fill="#DDFCFF" mask="url(#mask-2)" points="-3.65333333 101.118504 93.3788889 101.118504 93.3788889 -3.93368696 -3.65333333 -3.93368696"></polygon>
                            </g>
                            <path d="M83.0655556,37.285433 C83.0655556,37.285433 56.0677778,-4.1728887 0.677777778,0.777902609 L0.681111111,50.4061896 L83.0655556,37.285433 Z" id="Fill-4" fill="#DDFCFF"></path>
                        </g>
                        <g id="Group-12" transform="translate(0.000000, 443.000000)">
                            <mask id="mask-4" fill="white">
                                <use xlink:href="#path-3"></use>
                            </mask>
                            <g id="Clip-11"></g>
                            <polygon id="Fill-10" fill="#F8E2FC" mask="url(#mask-4)" points="-4.375 71.21095 40.000625 71.21095 40.000625 -4.9848 -4.375 -4.9848"></polygon>
                        </g>
                    </g>
                </g>
                <g id="Group-9" transform="translate(1700.000000, 77.000000)">
                    <mask id="mask-6" fill="white">
                        <use xlink:href="#path-5"></use>
                    </mask>
                    <g id="Clip-8"></g>
                    <polygon id="Fill-7" fill="#F8E2FC" mask="url(#mask-6)" points="-8.09082857 44.9247273 46.1559429 44.9247273 46.1559429 -7.9269697 -8.09082857 -7.9269697"></polygon>
                </g>
            </g>
        </g>
    </g>
</svg>