<svg xmlns="http://www.w3.org/2000/svg" xmlns:xlink="http://www.w3.org/1999/xlink" width="28" height="25" viewBox="0 0 28 25">
    <defs>
        <path id="a" d="M0 .645h3.418v3.416H0z"/>
        <path id="c" d="M0 .507h3.418v3.417H0z"/>
        <path id="e" d="M0 .72h3.418v3.417H0z"/>
        <path id="g" d="M0 .583h3.418V4H0z"/>
    </defs>
    <g fill="none" fill-rule="evenodd">
        <path fill="#3EDDE6" d="M11.502 1.709a1.709 1.709 0 1 1-3.418-.002 1.709 1.709 0 0 1 3.418.002"/>
        <g transform="translate(0 -.645)">
            <mask id="b" fill="#fff">
                <use xlink:href="#a"/>
            </mask>
            <path fill="#3EDDE6" d="M3.418 2.353a1.709 1.709 0 1 1-3.418 0 1.709 1.709 0 0 1 3.418 0" mask="url(#b)"/>
        </g>
        <path fill="#3EDDE6" d="M11.502 8.57a1.71 1.71 0 1 1-3.42 0 1.71 1.71 0 0 1 3.42 0"/>
        <g transform="translate(0 6.355)">
            <mask id="d" fill="#fff">
                <use xlink:href="#c"/>
            </mask>
            <path fill="#3EDDE6" d="M3.418 2.215a1.71 1.71 0 1 1-3.42 0 1.71 1.71 0 0 1 3.42 0" mask="url(#d)"/>
        </g>
        <path fill="#3EDDE6" d="M11.502 15.785a1.71 1.71 0 1 1-3.419-.003 1.71 1.71 0 0 1 3.419.003"/>
        <g transform="translate(0 13.355)">
            <mask id="f" fill="#fff">
                <use xlink:href="#e"/>
            </mask>
            <path fill="#3EDDE6" d="M3.418 2.43a1.71 1.71 0 1 1-3.419-.003 1.71 1.71 0 0 1 3.419.002" mask="url(#f)"/>
        </g>
        <path fill="#3EDDE6" d="M11.502 22.647a1.709 1.709 0 1 1-3.418-.002 1.709 1.709 0 0 1 3.418.002"/>
        <g transform="translate(0 20.355)">
            <mask id="h" fill="#fff">
                <use xlink:href="#g"/>
            </mask>
            <path fill="#3EDDE6" d="M3.418 2.291a1.709 1.709 0 1 1-3.418 0 1.709 1.709 0 0 1 3.418 0" mask="url(#h)"/>
        </g>
        <path fill="#3EDDE6" d="M27.694 1.709a1.708 1.708 0 1 1-3.416 0 1.708 1.708 0 0 1 3.416 0M19.61 1.709a1.708 1.708 0 1 1-3.415 0 1.708 1.708 0 0 1 3.415 0M27.694 8.57a1.709 1.709 0 1 1-3.418 0 1.709 1.709 0 0 1 3.418 0M19.61 8.57a1.709 1.709 0 1 1-3.417.001 1.709 1.709 0 0 1 3.417 0M27.694 15.785a1.709 1.709 0 1 1-3.417-.001 1.709 1.709 0 0 1 3.417 0M19.61 15.785a1.708 1.708 0 1 1-3.417-.001 1.708 1.708 0 0 1 3.417 0M27.694 22.647a1.708 1.708 0 1 1-3.416 0 1.708 1.708 0 0 1 3.416 0M19.61 22.647a1.708 1.708 0 1 1-3.415 0 1.708 1.708 0 0 1 3.415 0"/>
    </g>
</svg>
