<?xml version="1.0" encoding="utf-8"?>
<!-- Generator: Adobe Illustrator 23.0.5, SVG Export Plug-In . SVG Version: 6.00 Build 0)  -->
<svg version="1.1" id="Capa_1" xmlns="http://www.w3.org/2000/svg" xmlns:xlink="http://www.w3.org/1999/xlink" x="0px" y="0px"
	 viewBox="0 0 530 833" style="enable-background:new 0 0 530 833;" xml:space="preserve">
<style type="text/css">
	.st0{filter:url(#Adobe_OpacityMaskFilter);}
	.st1{fill:#FFFFFF;}
	.st2{mask:url(#SVGID_1_);}
	.st3{fill-rule:evenodd;clip-rule:evenodd;fill:#F7F7F7;stroke:#D5D7D7;stroke-width:14;stroke-dasharray:9;}
	.st4{fill-rule:evenodd;clip-rule:evenodd;fill:#D8D8D8;stroke:#D5D7D7;stroke-width:4;}
	.st5{fill-rule:evenodd;clip-rule:evenodd;fill:#D5D7D7;stroke:#D5D7D7;stroke-width:4;}
	.st6{opacity:0.381;fill-rule:evenodd;clip-rule:evenodd;fill:#9B9B9B;enable-background:new    ;}
	.st7{opacity:0.576;fill:none;stroke:#FFFFFF;stroke-width:6.5;stroke-linejoin:round;enable-background:new    ;}
</style>
<g>
	<g>
		<g>
			<g>
				<defs>
					<filter id="Adobe_OpacityMaskFilter" filterUnits="userSpaceOnUse" x="-7" y="-7" width="544" height="847">
						<feColorMatrix  type="matrix" values="1 0 0 0 0  0 1 0 0 0  0 0 1 0 0  0 0 0 1 0"/>
					</filter>
				</defs>
				<mask maskUnits="userSpaceOnUse" x="-7" y="-7" width="544" height="847" id="SVGID_1_">
					<g class="st0">
						<path id="a6pn2j8b0a_1_" class="st1" d="M0,0h530v833H0V0z"/>
					</g>
				</mask>
				<g transform="translate(-1261 -576) translate(1261 576)" class="st2">
					<g>
						<path class="st3" d="M0,0h530v833H0V0z"/>
					</g>
					<circle class="st4" cx="122.5" cy="123.5" r="74.5"/>
					<path class="st5" d="M8,824c52.5-121.3,87.4-199.3,104.8-233.8c6.3-12.5,14.6-11.3,22.1,0c10.3,15.5,84.3,147.4,98.7,159.8
						c2.4,2.1,7.6-0.9,12.1-8.5c13-21.6,118-232.5,137.6-264.9c8-13.2,19.5-11.5,23.9-8.2c16.5,12.1,54.4,79.4,113.8,201.8V824H8z"
						/>
				</g>
				<path class="st6" d="M431,4h95v101h-95V4z"/>
				<path class="st7" d="M479,40.1c1.6-3.8,4.7-6.4,9.1-7.7c7-1.6,13.6,1.2,16.4,5.1c4.6,6.4,4.8,14.7-0.5,23
					c-5.3,8.2-13.4,15.9-24.2,23c-0.1,0.1-0.2,0.1-0.3,0.1c-0.3,0-0.5-0.2-0.5-0.5l0,0v0c0,0.3-0.2,0.5-0.5,0.5
					c-0.1,0-0.2,0-0.3-0.1C467.4,76.2,459.3,68.4,454,60c-5.3-8.4-5.2-16.9-0.5-23.4c2.8-3.9,9.4-6.8,16.4-5.2
					c4.4,1.3,7.5,3.9,9.1,7.8L479,40.1z"/>
			</g>
		</g>
	</g>
</g>
</svg>
