<?xml version="1.0" encoding="utf-8"?>
<!-- Generator: Adobe Illustrator 23.0.5, SVG Export Plug-In . SVG Version: 6.00 Build 0)  -->
<svg version="1.1" xmlns="http://www.w3.org/2000/svg" xmlns:xlink="http://www.w3.org/1999/xlink" x="0px" y="0px"
	 viewBox="0 0 44 43" style="enable-background:new 0 0 44 43;" xml:space="preserve">
<style type="text/css">
	.st0{display:none;}
	.st1{display:inline;}
	.st2{fill-rule:evenodd;clip-rule:evenodd;fill:#0097A9;}
	.st3{fill:none;stroke:#FFFFFF;stroke-width:3;stroke-linejoin:round;}
	.st4{fill-rule:evenodd;clip-rule:evenodd;fill:#FFFFFF;}
	.st5{fill:none;stroke:#0097A9;stroke-width:2;}
</style>
<g id="Capa_1" class="st0">
	<g transform="translate(-9 -9)" class="st1">
		<circle class="st2" cx="31" cy="30.5" r="21.5"/>
		<path class="st3" d="M32,24.8c0.9-0.9,1.8-1.7,2.8-2.5c0.6-0.5,2.6-0.5,4,0.6c1.4,1.1,1.4,3.2,0.9,3.9c-0.6,1-6.4,6.3-7.1,6.7
			c-0.4,0.2-2.3,1.3-3.6-0.8"/>
		<path class="st3" d="M29,37.2c-0.9,0.8-1.8,1.7-2.8,2.5c-0.6,0.5-2.6,0.5-4-0.6c-1.4-1.1-1.4-3.2-0.9-3.9c0.6-1,6.4-6.3,7.1-6.7
			c0.4-0.2,2.3-1.3,3.6,0.8"/>
	</g>
</g>
<g id="Capa_2">
	<g>
		<circle class="st2" cx="22" cy="21.5" r="21.4"/>
		<g transform="translate(51.85 58.728)">
			<path class="st4" d="M-39.4-45.2h5.7c0.6-1.6,1.2-2.4,1.6-2.5c1.2-0.2,3.4-0.2,4.5,0c0.5,0.1,1,0.9,1.5,2.5h6
				c1.9,0,3.4,1.5,3.4,3.4v10.5c0,1.9-1.5,3.4-3.4,3.4h-19.4c-1.9,0-3.4-1.5-3.4-3.4v-10.5C-42.8-43.7-41.3-45.2-39.4-45.2z"/>
			<circle class="st5" cx="-29.9" cy="-36.4" r="5.1"/>
			<circle class="st2" cx="-29.9" cy="-36.4" r="3.4"/>
			<path class="st2" d="M-39.9-43.5h2.7c0.5,0,0.8,0.4,0.8,0.8l0,0c0,0.5-0.4,0.8-0.8,0.8h-2.7c-0.5,0-0.8-0.4-0.8-0.8l0,0
				C-40.8-43.1-40.4-43.5-39.9-43.5z"/>
			<path class="st2" d="M-19.2-43.5L-19.2-43.5c0.5,0,0.8,0.4,0.8,0.8l0,0c0,0.5-0.4,0.8-0.8,0.8l0,0c-0.5,0-0.8-0.4-0.8-0.8l0,0
				C-20-43.1-19.7-43.5-19.2-43.5z"/>
		</g>
	</g>
</g>
</svg>
