<svg xmlns="http://www.w3.org/2000/svg" xmlns:xlink="http://www.w3.org/1999/xlink" width="86" height="18" viewBox="0 0 86 18">
    <defs>
        <path id="a" d="M0 0h85.905v17.357H0z"/>
    </defs>
    <g fill="none" fill-rule="evenodd">
        <mask id="b" fill="#fff">
            <use xlink:href="#a"/>
        </mask>
        <path fill="#E1261C" d="M80.078 12.421h5.827v-2.04h-5.827v2.04zm-6.673-6.516h1.97V0h-1.97v5.905zm5.7 2.193l5.317-5.508-1.398-1.447-5.319 5.507 1.4 1.448zm-11.19-.044c-.592.242-1.12.659-1.568 1.294V8.185l-2.097-.02v9.128h2.183v-4.367c0-.746.086-1.27.276-1.602.147-.35.422-.636.763-.878a2.079 2.079 0 0 1 1.208-.395l.676.045-.02-2.329-.57.046-.85.241zm-16.228 9.239h2.204V5.399h-2.204v11.894zm7.416-9.568c-1.484-.022-2.523.395-3.115 1.208-.38.503-.571 1.164-.636 1.996h2.205c.041-.395.168-.659.317-.832.232-.31.613-.465 1.166-.44.466-.025.825.065 1.08.219.253.13.36.394.38.768 0 .305-.17.55-.508.703l-1.695.283c-.783.111-1.42.307-1.907.594-.826.504-1.227 1.315-1.206 2.48-.021.81.233 1.47.74 1.952.445.396 1.06.614 1.801.637 1.209-.023 2.16-.33 2.838-.945v.945h2.206v-6.715c0-1.098-.383-1.865-1.104-2.261-.762-.416-1.61-.614-2.562-.592zm.932 5.155l.423-.238v.92c0 .788-.212 1.339-.613 1.644-.424.308-.87.461-1.38.461-.317 0-.57-.088-.782-.26-.211-.201-.318-.485-.318-.902 0-.46.171-.79.53-1.032.211-.132.57-.241 1.039-.307l1.101-.286zM45.118 5.4c-1.588-.021-2.903.548-4.004 1.733-1.122 1.164-1.673 2.546-1.673 4.192 0 1.622.551 3.05 1.673 4.212 1.1 1.141 2.416 1.712 4.004 1.712a5.394 5.394 0 0 0 3.454-1.208 5.973 5.973 0 0 0 1.992-3.137h-2.31a4.098 4.098 0 0 1-1.249 1.514c-.595.375-1.208.572-1.887.572-.974 0-1.8-.374-2.478-1.078-.699-.722-1.038-1.577-1.017-2.587-.02-1.01.318-1.866 1.017-2.589.678-.703 1.504-1.076 2.478-1.076.679 0 1.292.197 1.887.593.528.374.952.898 1.25 1.513h2.309c-.339-1.272-.996-2.326-1.992-3.136-1.016-.835-2.181-1.251-3.454-1.23zM77.387 9.15c-.912-.943-2.012-1.405-3.263-1.405-1.25 0-2.331.462-3.22 1.405-.912.946-1.356 2.084-1.356 3.401 0 1.317.444 2.457 1.356 3.379.889.944 1.97 1.426 3.22 1.426 1.25 0 2.352-.482 3.263-1.426.89-.922 1.335-2.062 1.335-3.379 0-1.317-.445-2.455-1.335-3.4zM75.84 14.33c-.465.506-1.036.745-1.716.745-.656 0-1.229-.239-1.694-.745-.466-.505-.722-1.098-.722-1.778 0-.723.256-1.317.722-1.799.465-.503 1.038-.746 1.694-.723.68-.023 1.25.22 1.736.723.447.482.679 1.076.701 1.8a2.66 2.66 0 0 1-.721 1.777zM4.071 17.279c-1.212 0-2.206-.45-2.983-1.254C-.032 14.869 0 13.438 0 11.463c0-1.978-.031-3.408 1.088-4.565.777-.804 1.771-1.254 2.983-1.254 1.414 0 2.284.515 3.077 1.317l-1.43 1.48c-.482-.5-.87-.804-1.647-.804-.59 0-1.056.224-1.367.594-.42.482-.544 1.03-.544 3.232 0 2.2.125 2.746.544 3.229.31.368.777.594 1.367.594.777 0 1.165-.306 1.648-.804l1.429 1.478c-.793.805-1.663 1.319-3.077 1.319M13.053 13.647h-1.6c-.73 0-1.134.354-1.134.949 0 .578.372.963 1.165.963.56 0 .917-.049 1.273-.401.218-.209.296-.546.296-1.061v-.45zm.047 3.535v-.723c-.544.562-1.056.804-1.989.804-.916 0-1.585-.242-2.067-.74-.435-.466-.668-1.14-.668-1.88 0-1.333.885-2.427 2.766-2.427h1.911v-.418c0-.916-.435-1.317-1.507-1.317-.777 0-1.134.193-1.554.69l-1.29-1.3c.792-.9 1.57-1.158 2.922-1.158 2.268 0 3.45.996 3.45 2.957v5.512H13.1zM21.957 17.182V12.12c0-1.141-.699-1.527-1.336-1.527-.637 0-1.352.386-1.352 1.527v5.062h-2.02V8.81h1.974v.77a2.725 2.725 0 0 1 2.02-.866c.808 0 1.46.273 1.91.739.653.674.824 1.463.824 2.378v5.351h-2.02zM30.255 13.647h-1.6c-.73 0-1.134.354-1.134.949 0 .578.372.963 1.165.963.56 0 .916-.049 1.274-.401.218-.209.295-.546.295-1.061v-.45zm.048 3.535v-.723c-.544.562-1.057.804-1.99.804-.916 0-1.585-.242-2.067-.74-.434-.466-.667-1.14-.667-1.88 0-1.333.885-2.427 2.765-2.427h1.911v-.418c0-.916-.435-1.317-1.507-1.317-.777 0-1.134.193-1.554.69l-1.29-1.3c.793-.9 1.57-1.158 2.922-1.158 2.268 0 3.45.996 3.45 2.957v5.512h-1.973zM36.736 17.182c-1.663 0-2.362-1.205-2.362-2.394V5.741h2.02v8.918c0 .499.201.756.714.756h.777v1.767h-1.15z" mask="url(#b)"/>
    </g>
</svg>
