<svg xmlns="http://www.w3.org/2000/svg" xmlns:xlink="http://www.w3.org/1999/xlink" width="100" height="100" viewBox="0 0 100 100">
    <defs>
        <path id="a" d="M0 0h100v100H0z"/>
        <path id="c" d="M0 100h100V0H0z"/>
    </defs>
    <g fill="none" fill-rule="evenodd">
        <mask id="b" fill="#fff">
            <use xlink:href="#a"/>
        </mask>
        <path fill="#000" d="M100 50c0 27.615-22.386 50-50 50S0 77.615 0 50 22.386 0 50 0s50 22.385 50 50" mask="url(#b)"/>
        <path fill="#FFF" d="M31.755 68.313c-1.828 0-4.094-.984-4.094-4.693 0-3.707 2.266-4.674 4.094-4.674 1.265 0 2.215.387 3.024 1.23l-1.547 1.547c-.475-.51-.88-.72-1.477-.72-.544 0-.966.192-1.301.596-.35.44-.508 1.055-.508 2.021 0 .968.158 1.6.508 2.04.335.403.757.597 1.301.597.597 0 1.002-.21 1.477-.72l1.547 1.529c-.81.842-1.76 1.247-3.024 1.247"/>
        <mask id="d" fill="#fff">
            <use xlink:href="#c"/>
        </mask>
        <path fill="#FFF" d="M36.2 68.207h2.285v-9.156H36.2v9.156zm1.143-10.298c-.792 0-1.442-.65-1.442-1.441 0-.79.65-1.422 1.442-1.422.79 0 1.423.632 1.423 1.422 0 .79-.634 1.44-1.423 1.44zM46.006 68.207v-5.535c0-1.249-.791-1.67-1.512-1.67-.72 0-1.528.421-1.528 1.67v5.535h-2.285v-9.156h2.23v.844c.6-.632 1.443-.948 2.286-.948.913 0 1.651.298 2.162.807.738.739.932 1.6.932 2.602v5.851h-2.285zM55.458 61.793c-.245-.544-.755-.949-1.528-.949s-1.283.405-1.529.949c-.141.334-.193.58-.212.984h3.481a2.512 2.512 0 0 0-.212-.984zM52.19 64.34c0 1.177.722 2.039 2.005 2.039 1.001 0 1.492-.281 2.073-.862l1.388 1.353c-.932.932-1.828 1.441-3.479 1.441-2.162 0-4.235-.984-4.235-4.691 0-2.988 1.617-4.675 3.99-4.675 2.547 0 3.988 1.863 3.988 4.376v1.02h-5.73zM70.325 68.207v-5.535c0-1.249-.791-1.67-1.512-1.67-.703 0-1.528.421-1.528 1.617v5.588H65v-5.535c0-1.249-.791-1.67-1.51-1.67-.722 0-1.53.421-1.53 1.67v5.535h-2.285v-9.156h2.23v.844a3.21 3.21 0 0 1 2.286-.948c1.02 0 1.846.368 2.427 1.159.772-.808 1.597-1.16 2.74-1.16.914 0 1.74.3 2.25.808.738.739 1 1.6 1 2.602v5.851h-2.283zM79.355 64.341h-1.808c-.828 0-1.286.387-1.286 1.037 0 .632.424 1.054 1.32 1.054.633 0 1.036-.053 1.44-.44.246-.227.334-.596.334-1.158v-.493zm.053 3.866v-.79c-.616.614-1.194.879-2.25.879-1.036 0-1.792-.265-2.336-.81-.493-.51-.756-1.246-.756-2.055 0-1.459 1.001-2.655 3.128-2.655h2.161v-.455c0-1.002-.492-1.442-1.704-1.442-.88 0-1.282.21-1.757.756l-1.46-1.423c.898-.984 1.776-1.266 3.304-1.266 2.567 0 3.903 1.09 3.903 3.233v6.028h-2.233zM69.538 41.9c-1.304-1.305-2.88-1.945-4.67-1.945-1.789 0-3.334.64-4.608 1.944-1.304 1.308-1.94 2.884-1.94 4.706 0 1.822.636 3.399 1.94 4.675 1.274 1.308 2.82 1.972 4.608 1.972 1.79 0 3.366-.664 4.67-1.972 1.272-1.276 1.91-2.853 1.91-4.675 0-1.822-.638-3.398-1.91-4.706m-2.215 7.165c-.666.702-1.485 1.031-2.455 1.031-.937 0-1.758-.33-2.424-1.03-.668-.7-1.03-1.52-1.03-2.46a3.39 3.39 0 0 1 1.03-2.49c.666-.696 1.487-1.032 2.424-1 .97-.032 1.79.304 2.486 1 .637.668.97 1.489 1.002 2.49a3.618 3.618 0 0 1-1.033 2.46M23.364 36.708c-2.274-.03-4.155.76-5.73 2.397-1.607 1.61-2.394 3.523-2.394 5.8 0 2.245.787 4.222 2.394 5.828 1.575 1.58 3.456 2.37 5.73 2.37 1.819 0 3.487-.548 4.941-1.673 1.425-1.152 2.366-2.578 2.85-4.34h-3.304a5.68 5.68 0 0 1-1.789 2.095c-.848.517-1.728.791-2.698.791-1.394 0-2.577-.516-3.547-1.49-.999-1.001-1.486-2.182-1.456-3.58-.03-1.396.457-2.583 1.456-3.583.97-.972 2.153-1.487 3.547-1.487.97 0 1.85.272 2.698.82.76.516 1.365 1.244 1.789 2.094h3.304c-.484-1.76-1.425-3.22-2.85-4.34-1.454-1.156-3.122-1.732-4.941-1.702M43.375 39.926c-2.122-.032-3.609.546-4.459 1.67-.543.698-.816 1.611-.907 2.764h3.153c.058-.547.242-.912.454-1.153.332-.428.878-.643 1.668-.609.667-.034 1.182.09 1.544.303.363.183.516.547.545 1.063 0 .424-.242.76-.726.972l-2.427.392c-1.122.154-2.029.426-2.729.823-1.18.697-1.754 1.82-1.724 3.431-.03 1.12.333 2.034 1.058 2.702.637.548 1.516.848 2.58.88 1.726-.032 3.089-.457 4.06-1.307v1.307h3.155v-9.29c0-1.52-.55-2.582-1.579-3.129-1.091-.576-2.303-.851-3.666-.819zm1.332 7.133l.605-.331v1.275c0 1.09-.303 1.85-.877 2.275-.606.425-1.244.638-1.972.638-.454 0-.818-.122-1.12-.363-.302-.275-.455-.67-.455-1.244 0-.637.244-1.095.757-1.43.303-.18.818-.334 1.486-.425l1.576-.395zM32.762 53.165h3.154V36.709h-3.154zM55.984 40.381c-.846.336-1.603.912-2.243 1.79v-1.609l-3.001-.028v12.63h3.123v-6.041c0-1.034.124-1.76.396-2.218.21-.484.604-.88 1.091-1.213.544-.365 1.12-.549 1.728-.549l.968.063-.027-3.22-.819.062-1.216.333zM71.992 40.443l7.612-7.62-2.003-2.004-7.609 7.62zM63.838 37.407h2.82v-8.169h-2.82zM73.388 46.424h8.338V43.6h-8.338z" mask="url(#d)"/>
        <path fill="#E1251B" d="M50 6.694C26.12 6.694 6.694 26.121 6.694 50 6.694 73.88 26.12 93.306 50 93.306c23.879 0 43.305-19.426 43.305-43.306S73.88 6.694 50 6.694m0 90.288C24.094 96.983 3.017 75.906 3.017 50S24.094 3.018 50 3.018c25.905 0 46.982 21.076 46.982 46.982S75.905 96.983 50 96.983" mask="url(#d)"/>
    </g>
</svg>
