<svg xmlns="http://www.w3.org/2000/svg" xmlns:xlink="http://www.w3.org/1999/xlink" width="71" height="42" viewBox="0 0 71 42">
    <defs>
        <path id="a" d="M0 41.96h70.522V0H0z"/>
    </defs>
    <g fill="none" fill-rule="evenodd">
        <path fill="#FF0007" d="M8.696 21.63a5.305 5.305 0 1 1 0-10.61 5.3 5.3 0 0 1 4.828 3.117h3.58c-.971-3.741-4.363-6.507-8.408-6.507a8.696 8.696 0 1 0 0 17.392c4.007 0 7.373-2.716 8.38-6.403h-3.603a5.3 5.3 0 0 1-4.777 3.01M52.39 21.56a3.688 3.688 0 0 1 0-7.376 3.687 3.687 0 0 1 0 7.376m0-10.517a6.829 6.829 0 1 0 0 13.658 6.829 6.829 0 0 0 0-13.658M28.951 22.603c-2.49.178-2.311-3.255-.356-3.503 1.957-.25 3.165-.944 3.165-.944s.037.18.037 1.21-.356 3.058-2.846 3.237m2.952.996v1.315h3.362l-.124-10.67s.177-3.093-5.443-3.093c-5.619 0-5.815 4.427-5.655 4.588h3.45s.036-2.455 3.023-1.78c0 0 1.389 0 1.317 1.352-.073 1.352-2.205 1.352-3.486 1.352-1.28 0-6.224 1.245-3.984 6.722 0 0 1.138 1.957 4.553 1.423 0 0 1.6-.07 2.881-1.173 1.28-1.104.106-.036.106-.036M45.06 14.858c-.364-.28-4.263-.667-4.263 3.3v6.614H37.44V11.795h3.358v1.41s1.083-1.868 4.262-1.975v3.628z"/>
        <mask id="b" fill="#fff">
            <use xlink:href="#a"/>
        </mask>
        <path fill="#FF0007" d="M18.565 24.771h3.344V7.7h-3.344zM51.91 8.429h3.253v-8.43H51.91zM61.993 17.551h8.43v-3.254h-8.43zM60.205 11.742L58.01 9.548l8.094-8.095L68.3 3.647zM62.099 20.892h3.158v.83h-1.06v2.532H63.16v-2.531h-1.061zM65.717 20.892h1.366l.525 2.045.521-2.045h1.365v3.362h-.85V21.69l-.654 2.564h-.77l-.653-2.564v2.564h-.85z" mask="url(#b)"/>
        <path fill="#000" d="M7.528 34.474c.54.565.809 1.32.809 2.268v5.112H6.008v-4.431c0-.514-.144-.92-.431-1.218-.288-.297-.678-.446-1.172-.446-.575.01-1.028.21-1.362.596-.332.39-.499.886-.499 1.49v4.009H.216v-8.136h2.328v1.42c.565-.988 1.504-1.492 2.813-1.511.908 0 1.63.282 2.17.847M15.656 37.12c-.021-.534-.192-.963-.515-1.285-.323-.324-.75-.484-1.285-.484-.504 0-.925.158-1.262.476-.339.318-.554.749-.643 1.292h3.705zm1.17-2.344c.682.756 1.021 1.81 1.021 3.16 0 .242-.003.43-.013.56h-5.838c.132.513.383.915.756 1.203.373.286.821.43 1.346.43.383 0 .751-.072 1.105-.219.352-.146.669-.36.95-.642l1.227 1.24a4.109 4.109 0 0 1-1.505 1.065c-.59.248-1.248.37-1.974.37-.857 0-1.605-.17-2.245-.514a3.602 3.602 0 0 1-1.482-1.451c-.349-.624-.522-1.345-.522-2.163 0-.825.176-1.554.529-2.184a3.703 3.703 0 0 1 1.484-1.468c.633-.348 1.36-.52 2.175-.52 1.312 0 2.306.376 2.987 1.133zM24.412 41.4a3.806 3.806 0 0 1-1.005.416c-.37.095-.738.143-1.113.143-.755 0-1.37-.217-1.845-.65-.473-.433-.71-1.053-.71-1.86v-3.766h-1.133V34.08h1.134v-2.239h2.313v2.239h2.208v1.618h-2.208v3.357c0 .624.246.937.74.937.344 0 .722-.1 1.134-.302l.485 1.709zM24.654 33.732l2.374-.015 1.815 5.822 1.754-5.822h2.284l1.784 5.822 1.785-5.822h2.299l-2.965 8.136h-2.329l-1.754-5.367-1.74 5.367h-2.328zM41.704 36.198c-.376.412-.567.952-.567 1.618 0 .666.19 1.204.567 1.617.38.414.871.62 1.475.62.596 0 1.082-.206 1.46-.62.378-.413.567-.951.567-1.617s-.189-1.206-.568-1.618c-.377-.414-.863-.62-1.459-.62-.604 0-1.095.206-1.475.62m3.752-2.042c.66.343 1.171.828 1.534 1.451.363.625.546 1.352.546 2.178 0 .817-.183 1.54-.546 2.17a3.744 3.744 0 0 1-1.534 1.467c-.66.348-1.42.521-2.277.521-.867 0-1.63-.173-2.29-.521a3.73 3.73 0 0 1-1.534-1.466c-.365-.63-.546-1.354-.546-2.17 0-.827.181-1.554.546-2.179a3.71 3.71 0 0 1 1.534-1.451c.66-.344 1.423-.514 2.29-.514.858 0 1.616.17 2.277.514M52.51 34.035c.454-.262.983-.398 1.588-.408v2.192a3.652 3.652 0 0 0-.362-.014c-.716 0-1.283.194-1.702.58-.419.39-.628.907-.628 1.551v3.917h-2.328v-8.136h2.328v1.468a2.95 2.95 0 0 1 1.105-1.15M60.783 41.853l-1.966-3.312-1.045 1.105v2.207h-2.327V30.632h2.327v6.17l2.981-3.07h2.646l-2.98 3.13 3.116 4.991zM68.344 35.525a3.942 3.942 0 0 0-1.164-.204c-.283 0-.509.05-.68.15a.492.492 0 0 0-.258.454c0 .222.116.394.347.514.233.122.61.257 1.135.409.574.171 1.049.34 1.42.506.374.167.697.414.97.741.27.329.408.759.408 1.294 0 .806-.31 1.434-.93 1.882-.62.45-1.415.672-2.383.672a6.28 6.28 0 0 1-1.921-.294 4.946 4.946 0 0 1-1.602-.84l.756-1.572c.414.323.876.573 1.384.748.51.177.99.265 1.443.265.314 0 .562-.052.75-.158a.515.515 0 0 0 .28-.476c0-.232-.12-.414-.356-.545-.238-.13-.618-.273-1.142-.423a11.54 11.54 0 0 1-1.383-.485 2.448 2.448 0 0 1-.945-.733c-.264-.328-.393-.753-.393-1.278 0-.806.301-1.431.906-1.875.605-.443 1.372-.666 2.3-.666.554 0 1.107.08 1.662.235a5.56 5.56 0 0 1 1.513.673l-.801 1.588a6.838 6.838 0 0 0-1.316-.582" mask="url(#b)"/>
    </g>
</svg>
