<svg xmlns="http://www.w3.org/2000/svg" xmlns:xlink="http://www.w3.org/1999/xlink" width="64" height="38" viewBox="0 0 64 38">
    <defs>
        <path id="a" d="M0 .238h15.325v15.583H0z"/>
        <path id="c" d="M0 37.598h63.19V0H0z"/>
    </defs>
    <g fill="none" fill-rule="evenodd">
        <g transform="translate(0 6.598)">
            <mask id="b" fill="#fff">
                <use xlink:href="#a"/>
            </mask>
            <path fill="#A3A3A3" d="M7.792 12.782a4.753 4.753 0 0 1 0-9.506 4.752 4.752 0 0 1 4.327 2.793h3.206C14.455 2.717 11.417.24 7.792.24a7.792 7.792 0 1 0 0 15.582c3.59 0 6.605-2.432 7.509-5.736h-3.228a4.75 4.75 0 0 1-4.281 2.697" mask="url(#b)"/>
        </g>
        <path fill="#A3A3A3" d="M46.942 19.319a3.305 3.305 0 1 1 .001-6.61 3.305 3.305 0 0 1-.001 6.61m0-9.424a6.118 6.118 0 0 0-6.118 6.119 6.118 6.118 0 1 0 12.236 0 6.118 6.118 0 0 0-6.118-6.12M25.941 20.252c-2.231.16-2.071-2.916-.318-3.139 1.752-.223 2.836-.844 2.836-.844s.031.16.031 1.084c0 .923-.319 2.74-2.549 2.9m2.645.892v1.178h3.011l-.111-9.56s.159-2.773-4.876-2.773-5.21 3.968-5.066 4.112h3.09s.033-2.2 2.709-1.593c0 0 1.244 0 1.179 1.21-.063 1.211-1.976 1.211-3.123 1.211-1.147 0-5.577 1.115-3.569 6.023 0 0 1.019 1.753 4.079 1.276 0 0 1.434-.065 2.581-1.052 1.147-.988.096-.032.096-.032M40.374 13.313c-.325-.25-3.818-.598-3.818 2.957v5.927h-3.01V10.569h3.01v1.263s.969-1.673 3.818-1.77v3.25z"/>
        <mask id="d" fill="#fff">
            <use xlink:href="#c"/>
        </mask>
        <path fill="#A3A3A3" d="M16.635 22.197h2.995V6.9h-2.995zM46.512 7.553h2.916V0h-2.916zM55.546 15.727h7.553V12.81h-7.553zM53.945 10.52l-1.967-1.966 7.253-7.252 1.967 1.966zM55.642 18.72h2.83v.744h-.95v2.268h-.93v-2.268h-.95zM58.883 18.72h1.224l.47 1.832.468-1.832h1.223v3.012h-.762v-2.297l-.586 2.297h-.69l-.585-2.297v2.297h-.762zM6.747 30.89c.482.507.725 1.185.725 2.033v4.58H5.385v-3.97c0-.46-.13-.825-.386-1.091-.258-.266-.608-.4-1.051-.4-.514.009-.921.188-1.22.536-.297.347-.446.792-.446 1.334v3.59H.195v-7.29h2.087v1.275c.506-.885 1.346-1.337 2.52-1.355.813 0 1.462.253 1.945.759M14.03 33.262c-.02-.479-.172-.862-.461-1.151-.29-.289-.673-.435-1.151-.435-.452 0-.83.143-1.132.428-.303.284-.494.67-.575 1.158h3.319zm1.05-2.101c.61.678.915 1.622.915 2.832 0 .217-.005.385-.014.502h-5.23c.117.46.343.82.677 1.078.334.256.737.385 1.206.385a2.567 2.567 0 0 0 1.843-.772l1.098 1.111c-.37.416-.82.735-1.35.955a4.517 4.517 0 0 1-1.766.332c-.77 0-1.44-.153-2.013-.461a3.218 3.218 0 0 1-1.328-1.3c-.312-.56-.467-1.207-.467-1.938 0-.74.157-1.394.474-1.958a3.319 3.319 0 0 1 1.328-1.314c.569-.312 1.22-.467 1.95-.467 1.175 0 2.067.338 2.677 1.015zM21.875 37.097a3.404 3.404 0 0 1-.9.372c-.33.086-.662.129-.996.129-.678 0-1.23-.194-1.654-.583-.425-.388-.637-.943-.637-1.666v-3.374h-1.016v-1.437h1.016v-2.005h2.074v2.005h1.978v1.45h-1.978v3.008c0 .56.22.84.664.84.306 0 .645-.09 1.015-.27l.434 1.53zM22.091 30.227l2.128-.014 1.626 5.217 1.571-5.217h2.047l1.6 5.217 1.597-5.217h2.06l-2.655 7.29h-2.087l-1.573-4.81-1.557 4.81h-2.087zM37.37 32.436c-.338.37-.508.854-.508 1.449 0 .597.17 1.08.509 1.45.339.37.779.556 1.32.556.534 0 .97-.185 1.309-.556.338-.37.508-.853.508-1.45 0-.595-.17-1.08-.508-1.45-.34-.37-.775-.555-1.308-.555-.542 0-.982.185-1.321.556m3.36-1.83c.592.308 1.05.74 1.375 1.3.326.56.489 1.212.489 1.952 0 .732-.163 1.38-.49 1.945a3.36 3.36 0 0 1-1.374 1.315c-.591.31-1.271.466-2.04.466-.776 0-1.461-.155-2.052-.466a3.36 3.36 0 0 1-1.375-1.315c-.326-.564-.488-1.213-.488-1.945 0-.74.162-1.391.488-1.951.325-.56.783-.993 1.375-1.301.59-.307 1.276-.46 2.053-.46.768 0 1.448.153 2.039.46M47.052 30.497c.406-.234.88-.356 1.423-.365v1.965a2.873 2.873 0 0 0-.326-.014c-.64 0-1.15.174-1.525.521-.374.348-.56.811-.56 1.39v3.51h-2.088v-7.29h2.087v1.313c.253-.452.582-.795.99-1.03M54.464 37.503l-1.762-2.968-.934.99v1.978H49.68V27.448h2.087v5.53l2.67-2.75h2.37l-2.67 2.803 2.793 4.472zM61.238 31.832a3.523 3.523 0 0 0-1.043-.183c-.253 0-.456.045-.61.135a.442.442 0 0 0-.23.407c0 .2.104.353.312.461.208.11.546.23 1.016.366.515.154.94.304 1.274.454.334.15.623.37.867.664.244.294.366.68.366 1.158 0 .723-.278 1.285-.834 1.687-.556.403-1.266.603-2.134.603-.596 0-1.17-.088-1.72-.264a4.405 4.405 0 0 1-1.437-.752l.678-1.409c.37.29.783.513 1.239.67a3.96 3.96 0 0 0 1.294.237c.28 0 .504-.047.67-.142a.462.462 0 0 0 .252-.427c0-.207-.106-.37-.318-.487-.213-.117-.554-.244-1.024-.38-.497-.144-.91-.289-1.24-.434a2.21 2.21 0 0 1-.847-.657c-.234-.293-.351-.675-.351-1.145 0-.722.27-1.283.812-1.68.542-.398 1.229-.596 2.06-.596.497 0 .994.07 1.49.21.497.14.949.341 1.355.603l-.717 1.422a6.161 6.161 0 0 0-1.18-.52" mask="url(#d)"/>
    </g>
</svg>
