<svg xmlns="http://www.w3.org/2000/svg" width="123" height="69" viewBox="0 0 123 69">
    <g fill="none" fill-rule="evenodd">
        <path fill="#E1261C" d="M0 68.857h122.356V0H0z"/>
        <g fill="#FFF">
            <path d="M97.749 36.57h5.699v-1.93h-5.699v1.93zm-6.528-6.162h1.927v-5.584h-1.927v5.584zm5.575 2.074l5.201-5.21-1.367-1.367-5.202 5.207 1.368 1.37zm-10.943-.042c-.58.229-1.096.624-1.534 1.224v-1.1l-2.051-.02v8.633h2.135v-4.13c0-.705.084-1.201.271-1.515.142-.331.412-.601.746-.83.373-.25.764-.373 1.18-.373l.663.042-.021-2.202-.558.043-.831.228zm-15.872 8.737h2.156V29.929h-2.156v11.248zm7.253-9.048c-1.451-.021-2.467.373-3.047 1.142-.372.476-.558 1.1-.621 1.888h2.156c.041-.373.165-.622.31-.787.228-.292.6-.44 1.141-.417.455-.022.807.063 1.056.207.246.125.352.375.371.728 0 .289-.166.519-.497.664l-1.657.267c-.766.106-1.387.29-1.865.562-.808.478-1.201 1.244-1.18 2.347-.021.765.228 1.389.724 1.845.435.374 1.036.58 1.762.602 1.181-.021 2.113-.312 2.776-.893v.893h2.157v-6.35c0-1.04-.376-1.763-1.08-2.138-.745-.393-1.574-.581-2.506-.56zm.912 4.875l.413-.225v.87c0 .745-.207 1.266-.6 1.554-.414.292-.85.437-1.348.437-.31 0-.559-.083-.765-.247-.207-.19-.312-.458-.312-.852 0-.435.167-.747.518-.976.208-.124.559-.228 1.016-.29l1.078-.271zm-14.589-7.075c-1.553-.02-2.839.519-3.917 1.639-1.097 1.1-1.636 2.408-1.636 3.964 0 1.534.539 2.885 1.636 3.984 1.078 1.079 2.364 1.619 3.917 1.619a5.397 5.397 0 0 0 3.377-1.142c.974-.79 1.618-1.763 1.948-2.967h-2.258a3.896 3.896 0 0 1-1.223 1.43c-.581.356-1.18.542-1.844.542-.954 0-1.761-.353-2.425-1.02-.683-.682-1.014-1.49-.994-2.446-.02-.954.311-1.764.994-2.447.664-.666 1.471-1.018 2.425-1.018.664 0 1.263.186 1.844.56.518.354.932.85 1.223 1.432h2.258c-.33-1.204-.974-2.2-1.948-2.966-.994-.791-2.133-1.184-3.377-1.164zm31.559 3.549c-.891-.892-1.968-1.33-3.191-1.33-1.222 0-2.28.438-3.149 1.33-.892.894-1.326 1.97-1.326 3.216 0 1.246.434 2.324 1.326 3.195.869.894 1.927 1.349 3.149 1.349 1.223 0 2.3-.455 3.191-1.35.871-.87 1.307-1.948 1.307-3.194 0-1.245-.436-2.322-1.307-3.216zm-1.513 4.897c-.455.479-1.013.705-1.678.705a2.2 2.2 0 0 1-1.657-.705c-.456-.477-.706-1.038-.706-1.681 0-.684.25-1.245.706-1.701.456-.475 1.015-.706 1.657-.684.665-.022 1.223.209 1.698.684.437.456.664 1.017.686 1.7a2.468 2.468 0 0 1-.706 1.682zM23.411 41.164c-1.186 0-2.158-.425-2.918-1.185-1.095-1.094-1.064-2.447-1.064-4.316 0-1.87-.031-3.222 1.064-4.316.76-.76 1.732-1.186 2.918-1.186 1.383 0 2.234.487 3.009 1.246l-1.399 1.398c-.47-.47-.85-.76-1.61-.76-.578 0-1.033.213-1.338.563-.41.456-.532.973-.532 3.055 0 2.082.122 2.599.532 3.055.305.349.76.562 1.338.562.76 0 1.14-.29 1.61-.76l1.399 1.397c-.775.76-1.626 1.247-3.009 1.247M32.195 37.73h-1.564c-.715 0-1.11.334-1.11.896 0 .546.364.912 1.14.912.547 0 .896-.046 1.246-.38.212-.198.288-.517.288-1.004v-.425zm.046 3.342v-.683c-.532.532-1.033.76-1.945.76-.897 0-1.55-.228-2.022-.7-.426-.44-.653-1.079-.653-1.778 0-1.26.866-2.295 2.705-2.295h1.87v-.395c0-.866-.426-1.246-1.475-1.246-.759 0-1.109.182-1.519.653l-1.262-1.23c.775-.852 1.535-1.095 2.858-1.095 2.217 0 3.374.943 3.374 2.796v5.213h-1.93zM40.904 41.072v-4.787c0-1.078-.684-1.443-1.307-1.443-.623 0-1.322.364-1.322 1.443v4.788H36.3v-7.918h1.93v.73c.516-.548 1.245-.822 1.975-.822.79 0 1.428.26 1.87.7.638.637.805 1.383.805 2.248v5.061h-1.976zM49.02 37.73h-1.565c-.715 0-1.11.334-1.11.896 0 .546.364.912 1.14.912.547 0 .896-.046 1.246-.38.213-.198.29-.517.29-1.004v-.425zm.046 3.342v-.683c-.532.532-1.034.76-1.946.76-.897 0-1.55-.228-2.022-.7-.425-.44-.653-1.079-.653-1.778 0-1.26.867-2.295 2.706-2.295h1.87v-.395c0-.866-.427-1.246-1.476-1.246-.759 0-1.109.182-1.519.653l-1.262-1.23c.776-.852 1.535-1.095 2.858-1.095 2.218 0 3.374.943 3.374 2.796v5.213h-1.93zM55.358 41.072c-1.627 0-2.31-1.14-2.31-2.264v-8.555h1.975v8.434c0 .47.197.714.7.714h.76v1.671h-1.125z"/>
        </g>
    </g>
</svg>
