<svg xmlns="http://www.w3.org/2000/svg" xmlns:xlink="http://www.w3.org/1999/xlink" width="93" height="49" viewBox="0 0 93 49">
    <defs>
        <path id="a" d="M0 48.79h92.548V0H0z"/>
    </defs>
    <g fill="none" fill-rule="evenodd">
        <path fill="#DA291C" d="M68.228 15.802c-1.627-1.627-3.596-2.427-5.827-2.427-2.234 0-4.164.8-5.752 2.427-1.63 1.631-2.422 3.6-2.422 5.873s.793 4.243 2.423 5.835c1.587 1.631 3.517 2.462 5.75 2.462 2.232 0 4.2-.83 5.828-2.462 1.59-1.592 2.385-3.562 2.385-5.835 0-2.274-.796-4.242-2.385-5.873m-2.763 8.943c-.833.874-1.853 1.286-3.065 1.286-1.17 0-2.194-.412-3.026-1.286-.834-.873-1.288-1.896-1.288-3.07 0-1.249.455-2.274 1.288-3.106.832-.87 1.855-1.289 3.026-1.25 1.212-.039 2.232.38 3.101 1.25.797.832 1.212 1.857 1.252 3.106-.04 1.174-.454 2.197-1.288 3.07M10.6 9.324c-2.837-.038-5.185.947-7.151 2.992C1.444 14.325.462 16.71.462 19.554c0 2.802.982 5.269 2.987 7.275 1.966 1.97 4.314 2.956 7.15 2.956 2.272 0 4.355-.684 6.169-2.086 1.778-1.44 2.952-3.22 3.557-5.417H16.2a7.108 7.108 0 0 1-2.233 2.614c-1.06.646-2.156.986-3.368.986-1.74 0-3.215-.644-4.427-1.86-1.246-1.25-1.852-2.723-1.816-4.468-.036-1.742.57-3.222 1.816-4.471 1.212-1.212 2.687-1.856 4.427-1.856 1.212 0 2.309.34 3.368 1.023.947.644 1.703 1.553 2.233 2.614h4.124c-.605-2.198-1.78-4.018-3.557-5.416-1.814-1.442-3.897-2.162-6.168-2.124M35.575 13.34c-2.649-.04-4.504.681-5.564 2.083-.679.871-1.02 2.01-1.135 3.45h3.937c.073-.682.303-1.138.567-1.44.416-.533 1.096-.8 2.083-.76.831-.04 1.473.113 1.926.38.454.227.643.682.682 1.327 0 .527-.305.95-.908 1.213l-3.029.49c-1.399.19-2.533.53-3.405 1.025-1.474.871-2.19 2.271-2.154 4.283-.037 1.398.416 2.537 1.322 3.37.794.685 1.892 1.06 3.22 1.1 2.153-.04 3.854-.57 5.066-1.63v1.63h3.94V18.264c0-1.896-.687-3.22-1.97-3.903-1.364-.719-2.877-1.063-4.578-1.023zm1.664 8.902l.755-.413v1.59c0 1.361-.379 2.31-1.096 2.84-.757.53-1.552.796-2.46.796-.567 0-1.02-.153-1.4-.453-.376-.344-.567-.835-.567-1.554 0-.794.304-1.365.946-1.783.38-.227 1.02-.416 1.853-.53l1.97-.493z"/>
        <mask id="b" fill="#fff">
            <use xlink:href="#a"/>
        </mask>
        <path fill="#DA291C" d="M22.329 29.861h3.937V9.324h-3.937zM51.313 13.907c-1.058.418-2.002 1.14-2.8 2.234v-2.008l-3.745-.035v15.763h3.898v-7.54c0-1.29.153-2.198.494-2.767.262-.605.755-1.099 1.36-1.515.681-.456 1.397-.684 2.157-.684l1.21.078-.035-4.02-1.021.077-1.519.417zM71.292 13.984l9.5-9.512-2.499-2.498-9.497 9.51zM61.115 10.195h3.518V0h-3.518zM73.033 21.449H83.44v-3.523H73.033z" mask="url(#b)"/>
        <path fill="#000" d="M6.72 48.657v-6.985c0-1.575-.998-2.107-1.907-2.107-.91 0-1.93.532-1.93 2.107v6.985H0V37.103h2.817v1.065c.754-.8 1.818-1.198 2.882-1.198 1.154 0 2.085.377 2.729 1.02.93.932 1.175 2.018 1.175 3.282v7.385H6.72zM19.096 40.562c-.311-.687-.954-1.198-1.93-1.198-.975 0-1.62.511-1.93 1.198-.176.421-.244.731-.265 1.242h4.39c-.022-.51-.088-.82-.265-1.242zm-4.125 3.216c0 1.486.909 2.572 2.528 2.572 1.264 0 1.885-.355 2.617-1.086l1.75 1.707c-1.173 1.175-2.304 1.82-4.39 1.82-2.727 0-5.344-1.243-5.344-5.923 0-3.77 2.04-5.899 5.034-5.899 3.216 0 5.034 2.351 5.034 5.523v1.286h-7.23zM28.477 48.657c-2.351 0-3.35-1.663-3.35-3.304V39.63H23.91v-2.195h1.219V34.02h2.883v3.415h2.04v2.195h-2.04v5.545c0 .665.31 1.042.998 1.042h1.043v2.439h-1.575zM44.268 48.657h-2.373l-2.417-7.251-2.418 7.25h-2.373l-3.548-11.553h3.06l1.863 7.14 2.352-7.14h2.106l2.373 7.14 1.862-7.14h3.039zM55.067 40.075c-.333-.333-.776-.51-1.354-.51-.576 0-.998.177-1.33.51-.598.599-.665 1.597-.665 2.794 0 1.198.067 2.218.665 2.816.332.333.754.51 1.33.51.578 0 1.021-.177 1.354-.51.6-.598.665-1.618.665-2.816 0-1.197-.066-2.195-.665-2.794m2.24 7.296c-.71.754-1.886 1.419-3.594 1.419-1.707 0-2.86-.665-3.57-1.42-1.042-1.086-1.307-2.394-1.307-4.501 0-2.085.265-3.393 1.307-4.48.71-.753 1.863-1.42 3.57-1.42 1.708 0 2.884.667 3.593 1.42 1.043 1.087 1.31 2.395 1.31 4.48 0 2.107-.267 3.415-1.31 4.502M67.643 40.252c-.443-.443-.82-.687-1.53-.687-.887 0-1.864.665-1.864 2.128v6.964h-2.882V37.103h2.816v1.108c.555-.665 1.663-1.241 2.905-1.241 1.13 0 1.93.288 2.729 1.087l-2.174 2.195zM78.398 48.657l-2.838-4.812-1.22 1.375v3.437h-2.883v-15.79h2.883v8.96l3.836-4.724h3.483l-4.125 4.658 4.435 6.896zM87.647 48.79c-1.819 0-3.46-.2-4.924-1.663l1.886-1.885c.954.953 2.196 1.086 3.083 1.086.998 0 2.04-.332 2.04-1.197 0-.577-.31-.976-1.22-1.065l-1.819-.177c-2.084-.2-3.37-1.109-3.37-3.238 0-2.395 2.107-3.681 4.458-3.681 1.795 0 3.304.31 4.412 1.353l-1.773 1.796c-.666-.599-1.686-.776-2.683-.776-1.153 0-1.642.532-1.642 1.109 0 .421.177.909 1.198.998l1.819.177c2.284.222 3.436 1.441 3.436 3.393 0 2.55-2.172 3.77-4.9 3.77" mask="url(#b)"/>
    </g>
</svg>
