<svg xmlns="http://www.w3.org/2000/svg" xmlns:xlink="http://www.w3.org/1999/xlink" width="52" height="13" viewBox="0 0 52 13">
    <defs>
        <path id="a" d="M0 .18h7.063v7.278H0z"/>
        <path id="c" d="M0 12.667h51.867V0H0z"/>
    </defs>
    <g fill="none" fill-rule="evenodd">
        <path fill="#A3A3A3" d="M23.115 8.799c-.296.31-.66.457-1.09.457a1.43 1.43 0 0 1-1.076-.457c-.297-.31-.457-.674-.457-1.092 0-.443.16-.808.457-1.104.296-.31.66-.459 1.076-.445.43-.014.794.135 1.103.445.284.296.43.661.445 1.104a1.602 1.602 0 0 1-.458 1.092m-1.09-4.042c-.794 0-1.48.283-2.045.862-.58.58-.861 1.28-.861 2.088 0 .81.282 1.509.861 2.076.565.58 1.251.875 2.045.875s1.494-.296 2.072-.875c.565-.567.848-1.267.848-2.076 0-.808-.283-1.508-.848-2.088a2.835 2.835 0 0 0-2.072-.862"/>
        <g transform="translate(0 3.134)">
            <mask id="b" fill="#fff">
                <use xlink:href="#a"/>
            </mask>
            <path fill="#A3A3A3" d="M3.605 1.57c.43 0 .82.12 1.198.363.337.23.606.553.794.93h1.466A3.596 3.596 0 0 0 5.798.937 3.36 3.36 0 0 0 3.605.18C2.597.168 1.762.518 1.061 1.245.35 1.96 0 2.808 0 3.82c0 .996.349 1.873 1.061 2.587.7.7 1.536 1.052 2.544 1.052a3.5 3.5 0 0 0 2.193-.743 3.648 3.648 0 0 0 1.265-1.926H5.597a2.52 2.52 0 0 1-.794.93c-.377.23-.767.35-1.198.35a2.148 2.148 0 0 1-1.574-.661 2.1 2.1 0 0 1-.646-1.589 2.102 2.102 0 0 1 .646-1.59c.43-.43.955-.66 1.574-.66" mask="url(#b)"/>
        </g>
        <path fill="#A3A3A3" d="M13.347 8.328c0 .484-.135.82-.39 1.01-.27.188-.552.283-.876.283a.766.766 0 0 1-.496-.162c-.135-.122-.203-.296-.203-.553 0-.281.108-.485.337-.632.134-.082.362-.15.66-.19l.699-.175.269-.147v.566zm.767-3.221a3.257 3.257 0 0 0-1.628-.364c-.942-.014-1.602.243-1.978.741-.242.31-.363.715-.404 1.227h1.4a.9.9 0 0 1 .201-.512c.148-.19.391-.284.741-.27.296-.014.524.04.686.135.16.08.228.242.241.472 0 .187-.108.336-.322.43l-1.077.175c-.498.069-.9.189-1.21.365-.525.31-.78.807-.767 1.524-.013.496.148.902.47 1.196.283.245.673.378 1.145.393.767-.015 1.37-.204 1.802-.58v.58h1.4V6.495c0-.675-.244-1.145-.7-1.388z"/>
        <mask id="d" fill="#fff">
            <use xlink:href="#c"/>
        </mask>
        <path fill="#A3A3A3" d="M7.776 10.618h1.4V3.315h-1.4zM18.622 4.797l-.54.149a2.236 2.236 0 0 0-.995.793v-.713l-1.333-.013v5.606h1.387V7.936c0-.458.054-.78.176-.983.093-.215.268-.39.484-.538.241-.163.497-.244.767-.244l.43.028-.013-1.43-.363.028zM27.676.702L24.3 4.082l.887.89 3.378-3.382zM21.569 3.625h1.25V0h-1.25zM25.807 7.627h3.7V6.374h-3.7zM33.003 10.682c-.88 0-1.673-.096-2.381-.804l.912-.912c.461.461 1.062.525 1.49.525.484 0 .988-.16.988-.579 0-.279-.15-.472-.59-.515l-.879-.086c-1.009-.096-1.631-.536-1.631-1.567 0-1.159 1.02-1.781 2.155-1.781.87 0 1.6.15 2.137.654l-.858.87c-.323-.29-.817-.375-1.3-.375-.558 0-.793.257-.793.536 0 .203.085.44.58.482l.88.087c1.105.107 1.662.697 1.662 1.642 0 1.234-1.052 1.823-2.372 1.823M39.324 10.618V7.206c0-.74-.473-.987-.913-.987-.44 0-.901.258-.901.987v3.412h-1.394v-7.64h1.394v2.565a1.85 1.85 0 0 1 1.341-.58c1.224 0 1.868.86 1.868 2.04v3.615h-1.395zM44.571 6.466c-.162-.162-.375-.247-.655-.247-.278 0-.482.085-.643.247-.29.29-.323.773-.323 1.352 0 .58.033 1.072.323 1.362.161.16.365.247.643.247.28 0 .493-.087.655-.247.29-.29.322-.783.322-1.362 0-.58-.032-1.062-.322-1.352m1.083 3.53c-.343.364-.911.686-1.738.686-.825 0-1.384-.322-1.726-.687-.506-.525-.634-1.158-.634-2.177 0-1.01.128-1.642.634-2.168.342-.365.9-.686 1.726-.686.827 0 1.395.321 1.738.686.506.526.632 1.159.632 2.168 0 1.019-.126 1.652-.632 2.177M49.527 6.218c-.835 0-.943.688-.943 1.6 0 .911.108 1.609.943 1.609.84 0 .946-.698.946-1.609 0-.912-.107-1.6-.946-1.6m1.772 3.96c-.311.311-.815.504-1.363.504-.569 0-.987-.15-1.352-.558v2.542h-1.395V5.028h1.352v.525c.388-.43.805-.59 1.395-.59.548 0 1.052.193 1.363.505.558.557.568 1.513.568 2.35 0 .837-.01 1.802-.568 2.36" mask="url(#d)"/>
    </g>
</svg>
