<svg xmlns="http://www.w3.org/2000/svg" xmlns:xlink="http://www.w3.org/1999/xlink" width="35" height="22" viewBox="0 0 35 22">
    <defs>
        <path id="a" d="M0 .71H34.97v20.373H0z"/>
    </defs>
    <g fill="none" fill-rule="evenodd">
        <path fill="#A3A3A3" d="M17.12 16.433l-.968 2.967-.976-2.967h-1.263l1.77 4.802h.94l1.76-4.802z"/>
        <g transform="translate(0 .206)">
            <mask id="b" fill="#fff">
                <use xlink:href="#a"/>
            </mask>
            <path fill="#A3A3A3" d="M18.907 21.028h1.2v-4.801h-1.2v4.801zm.6-5.4a.75.75 0 1 1 0-1.502.752.752 0 0 1 0 1.502zM23.063 17.25c-.718 0-.81.59-.81 1.373 0 .784.092 1.382.81 1.382.72 0 .822-.598.822-1.382 0-.784-.103-1.373-.822-1.373zm.848 3.778v-.451c-.331.368-.68.506-1.189.506-.47 0-.912-.165-1.178-.433-.48-.479-.489-1.308-.489-2.027 0-.719.008-1.54.489-2.018.266-.268.699-.434 1.17-.434.488 0 .857.13 1.17.48v-2.185h1.198v6.562h-1.17zM28.896 17.664c-.129-.286-.396-.497-.8-.497-.406 0-.674.211-.803.497-.073.175-.1.305-.11.516h1.824a1.31 1.31 0 0 0-.11-.516zm-1.713 1.337c0 .617.378 1.069 1.05 1.069.526 0 .784-.148 1.088-.452l.728.71c-.488.488-.958.755-1.824.755-1.134 0-2.222-.515-2.222-2.46 0-1.567.848-2.452 2.092-2.452 1.336 0 2.092.977 2.092 2.296V19h-3.004zM33.495 17.461c-.137-.137-.323-.21-.562-.21a.74.74 0 0 0-.554.21c-.248.249-.276.665-.276 1.163 0 .496.028.92.276 1.17.14.137.314.211.554.211.24 0 .425-.074.562-.212.248-.25.277-.673.277-1.17 0-.497-.029-.913-.277-1.162m.931 3.033c-.296.312-.783.589-1.493.589-.71 0-1.189-.277-1.483-.59-.434-.451-.545-.994-.545-1.87 0-.867.111-1.41.545-1.862.294-.313.773-.59 1.483-.59.71 0 1.197.277 1.493.59.433.452.543.995.543 1.863 0 .875-.11 1.418-.543 1.87M28.476 7.351a3.353 3.353 0 0 0-2.449-1.02c-.937 0-1.75.336-2.417 1.02a3.364 3.364 0 0 0-1.017 2.468c0 .955.332 1.783 1.017 2.45.667.687 1.48 1.036 2.417 1.036.938 0 1.765-.35 2.449-1.035.668-.668 1.002-1.496 1.002-2.451 0-.956-.334-1.782-1.002-2.468m-1.163 3.758c-.348.367-.777.54-1.286.54-.493 0-.923-.173-1.272-.54-.35-.367-.54-.797-.54-1.29 0-.525.19-.956.54-1.305.35-.366.78-.541 1.272-.526.509-.015.938.16 1.303.526.334.349.51.78.526 1.305a1.897 1.897 0 0 1-.543 1.29M4.26 4.629c-1.192-.017-2.179.399-3.005 1.257C.413 6.73 0 7.733 0 8.927c0 1.178.413 2.214 1.255 3.057.826.828 1.813 1.242 3.005 1.242.954 0 1.829-.288 2.592-.876a4.316 4.316 0 0 0 1.495-2.277H6.613c-.223.447-.54.811-.938 1.099a2.645 2.645 0 0 1-1.415.414 2.54 2.54 0 0 1-1.86-.78c-.524-.526-.779-1.146-.763-1.879-.016-.731.239-1.354.763-1.878a2.542 2.542 0 0 1 1.86-.78c.51 0 .97.142 1.415.43.398.271.715.652.938 1.098h1.734C8.093 6.873 7.6 6.108 6.852 5.52a3.968 3.968 0 0 0-2.592-.892M14.754 6.316c-1.112-.017-1.892.286-2.338.876-.284.365-.428.845-.476 1.449h1.654c.031-.285.127-.478.238-.604.175-.225.461-.337.876-.32.349-.017.618.048.81.158.189.098.27.288.286.56 0 .221-.128.397-.381.508l-1.274.207c-.587.08-1.064.222-1.43.43-.62.367-.922.956-.905 1.8-.017.587.174 1.066.554 1.416.335.288.796.446 1.353.462.906-.016 1.621-.24 2.13-.686v.686h1.655V8.386c0-.797-.289-1.354-.828-1.64-.572-.302-1.209-.447-1.924-.43zm.7 3.741l.317-.173v.668c0 .571-.159.97-.461 1.193-.317.222-.65.334-1.033.334a.91.91 0 0 1-.588-.19c-.158-.144-.239-.35-.239-.653 0-.334.128-.574.399-.749.158-.095.428-.175.778-.223l.828-.207zM9.189 13.259h1.653v-8.63H9.19zM21.368 6.555c-.444.175-.842.478-1.177.938V6.65l-1.574-.016v6.623h1.638V10.09c0-.542.063-.922.208-1.162.11-.254.316-.462.572-.637.285-.191.587-.287.907-.287l.508.032-.016-1.69-.429.034-.637.175zM29.763 6.587l3.991-3.996-1.049-1.05-3.992 3.995zM25.487 4.995h1.478V.71h-1.478zM30.496 9.723h4.372v-1.48h-4.372z" mask="url(#b)"/>
        </g>
    </g>
</svg>
