<svg xmlns="http://www.w3.org/2000/svg" xmlns:xlink="http://www.w3.org/1999/xlink" width="34" height="20" viewBox="0 0 34 20">
    <defs>
        <path id="a" d="M0 .786h8.128V9.05H0z"/>
        <path id="c" d="M0 19.361h33.714V.001H0z"/>
    </defs>
    <g fill="none" fill-rule="evenodd">
        <g transform="translate(0 2.84)">
            <mask id="b" fill="#fff">
                <use xlink:href="#a"/>
            </mask>
            <path fill="#A3A3A3" d="M4.132 7.439a2.52 2.52 0 1 1 2.295-3.56h1.7A4.13 4.13 0 0 0 0 4.919a4.132 4.132 0 1 0 8.115 1.089H6.402a2.518 2.518 0 0 1-2.27 1.43" mask="url(#b)"/>
        </g>
        <path fill="#A3A3A3" d="M24.895 10.245a1.753 1.753 0 1 1 0-3.506 1.753 1.753 0 0 1 0 3.506m0-4.997a3.244 3.244 0 0 0-3.244 3.244 3.244 3.244 0 1 0 6.489 0 3.244 3.244 0 0 0-3.245-3.244M13.757 10.741c-1.182.084-1.099-1.547-.168-1.665.93-.118 1.503-.449 1.503-.449s.018.085.018.575c0 .49-.17 1.454-1.353 1.539m1.403.473v.625h1.597l-.059-5.07s.085-1.47-2.586-1.47c-2.67 0-2.763 2.104-2.687 2.18h1.64s.017-1.167 1.436-.846c0 0 .659 0 .625.643-.034.642-1.048.642-1.656.642-.608 0-2.957.592-1.893 3.194 0 0 .54.93 2.163.676 0 0 .76-.033 1.37-.557.608-.525.05-.017.05-.017M21.412 7.06c-.173-.131-2.025-.317-2.025 1.569v3.142H17.79V5.605h1.596v.67s.515-.888 2.025-.938v1.724z"/>
        <mask id="d" fill="#fff">
            <use xlink:href="#c"/>
        </mask>
        <path fill="#A3A3A3" d="M8.822 11.77h1.588V3.66H8.822zM24.667 4.006h1.546V0h-1.546zM29.46 8.34h4.003V6.794H29.46zM28.609 5.58l-1.043-1.043L31.413.69l1.043 1.043zM29.509 9.928h1.5v.394h-.504v1.203h-.492v-1.203h-.504zM31.228 9.928h.65l.249.972.248-.972h.648v1.597h-.403v-1.217l-.311 1.217h-.367l-.31-1.217v1.217h-.404zM6.748 15.001h1.01v.665h.019c.094-.201.246-.38.456-.537.21-.155.49-.234.847-.234.667 0 1.11.263 1.328.788.154-.27.345-.47.576-.597.231-.127.505-.19.824-.19.285 0 .524.046.719.141.194.094.353.224.473.39.121.166.21.358.261.58.054.221.08.46.08.714v2.534h-1.063v-2.411c0-.13-.011-.255-.036-.376a.9.9 0 0 0-.123-.32.645.645 0 0 0-.24-.217.84.84 0 0 0-.39-.078.883.883 0 0 0-.42.092.82.82 0 0 0-.283.248 1 1 0 0 0-.16.354 1.67 1.67 0 0 0-.05.404v2.304H9.513v-2.534c0-.267-.056-.477-.168-.634-.112-.157-.298-.234-.558-.234-.177 0-.327.03-.448.088a.86.86 0 0 0-.301.239.974.974 0 0 0-.173.346c-.036.13-.053.266-.053.408v2.321H6.748v-4.254zM16.904 12.981h1.205l-1.25 1.276h-.833l.878-1.276zm1.48 6.274h-1.01v-.682h-.018c-.101.213-.254.397-.461.553-.207.157-.487.235-.843.235-.283 0-.523-.046-.721-.137a1.297 1.297 0 0 1-.483-.372 1.462 1.462 0 0 1-.266-.536 2.503 2.503 0 0 1-.08-.63v-2.685h1.064v2.154c0 .118.005.249.017.394.012.144.043.28.094.408.05.127.126.233.23.319.104.085.25.128.438.128.178 0 .326-.03.448-.088.121-.06.222-.14.302-.24.08-.1.136-.216.172-.345.036-.13.053-.266.053-.408v-2.322h1.064v4.254zM21.858 16.18a.974.974 0 0 0-1.25-.328.36.36 0 0 0-.204.345.3.3 0 0 0 .168.285c.112.058.254.109.426.15.171.041.355.084.553.128.199.044.383.113.555.204.171.092.313.217.425.377.112.16.169.378.169.656 0 .254-.056.467-.165.642-.11.174-.251.314-.425.421a1.888 1.888 0 0 1-.59.23c-.218.047-.437.071-.655.071-.33 0-.635-.047-.912-.142a1.733 1.733 0 0 1-.746-.514l.71-.664c.136.153.282.28.438.376.157.098.347.147.572.147.077 0 .156-.01.24-.027a.79.79 0 0 0 .23-.09.546.546 0 0 0 .172-.153.362.362 0 0 0 .067-.217c0-.148-.056-.258-.169-.328a1.487 1.487 0 0 0-.425-.174 10.14 10.14 0 0 0-.554-.124 2.12 2.12 0 0 1-.554-.186 1.165 1.165 0 0 1-.425-.359c-.112-.153-.169-.366-.169-.637 0-.237.05-.442.147-.616.098-.175.226-.318.386-.43.159-.112.341-.195.55-.248a2.513 2.513 0 0 1 1.47.066c.277.098.501.264.673.5l-.708.64zM23.54 19.255h1.064v-4.254h-1.063v4.254zm-.15-5.698c0-.171.063-.32.19-.448a.654.654 0 0 1 .484-.19c.195 0 .36.06.492.181.133.121.2.273.2.457a.59.59 0 0 1-.2.456.702.702 0 0 1-.492.182.658.658 0 0 1-.483-.19.611.611 0 0 1-.19-.448zM28.734 16.278a1.711 1.711 0 0 0-.39-.31.839.839 0 0 0-.416-.115 1.225 1.225 0 0 0-.918.39 1.217 1.217 0 0 0-.249.407 1.391 1.391 0 0 0 0 .956 1.217 1.217 0 0 0 .644.692c.153.07.328.106.523.106.165 0 .318-.034.46-.102a.994.994 0 0 0 .364-.297l.709.762c-.106.106-.23.199-.368.275-.138.077-.28.14-.421.186-.142.047-.278.081-.408.103-.13.02-.242.03-.336.03-.32 0-.621-.054-.905-.16a2.169 2.169 0 0 1-.735-.451 2.15 2.15 0 0 1-.492-.705 2.234 2.234 0 0 1-.181-.917c0-.336.06-.642.181-.917s.285-.51.492-.705c.207-.194.452-.345.735-.45.284-.108.585-.16.905-.16.272 0 .544.051.82.154.274.103.514.268.721.491l-.735.737zM32.695 17.35h-.222a7.56 7.56 0 0 0-.496.018c-.183.011-.356.039-.518.083-.162.044-.3.11-.413.196a.427.427 0 0 0-.167.358c0 .1.022.185.066.253a.689.689 0 0 0 .412.274c.089.022.177.031.266.031.366 0 .636-.087.81-.26.174-.174.262-.413.262-.714v-.24zm.062 1.32h-.026a1.38 1.38 0 0 1-.585.527c-.237.11-.496.164-.78.164-.195 0-.386-.026-.573-.08a1.554 1.554 0 0 1-.495-.24 1.214 1.214 0 0 1-.35-.398 1.12 1.12 0 0 1-.134-.558c0-.23.042-.427.125-.59.083-.162.194-.298.333-.407.138-.109.3-.196.482-.262a3.49 3.49 0 0 1 .572-.146c.198-.032.397-.052.598-.062.2-.009.39-.012.568-.012h.265v-.116c0-.266-.091-.465-.275-.599-.183-.132-.416-.198-.7-.198-.224 0-.434.04-.629.119-.194.08-.363.188-.505.323l-.558-.558c.236-.242.512-.416.829-.522.315-.107.641-.16.979-.16.3 0 .555.034.761.102.207.068.379.155.514.261.136.107.241.229.315.369.074.138.127.278.16.42.032.142.051.279.058.413.005.132.008.249.008.35v2.445h-.957v-.585z" mask="url(#d)"/>
    </g>
</svg>
