<svg xmlns="http://www.w3.org/2000/svg" xmlns:xlink="http://www.w3.org/1999/xlink" width="110" height="123" viewBox="0 0 110 123">
    <defs>
        <path id="a" d="M0 .995h18.04v18.38H0z"/>
        <path id="c" d="M.207.59h4.835v5.067H.207z"/>
    </defs>
    <g fill="none" fill-rule="evenodd">
        <g transform="translate(0 103.035)">
            <mask id="b" fill="#fff">
                <use xlink:href="#a"/>
            </mask>
            <path fill="#FFF" d="M9.155 3.679c1.32 0 2.53.362 3.593 1.075a6.523 6.523 0 0 1 2.377 2.836l.103.24h2.811l-.173-.528c-.61-1.85-1.724-3.381-3.314-4.548C12.96 1.586 11.144.995 9.155.995 6.64.995 4.46 1.9 2.682 3.688.905 5.475-.001 7.662-.001 10.187c0 2.522.906 4.708 2.683 6.494 1.78 1.788 3.958 2.693 6.473 2.693 1.99 0 3.809-.597 5.397-1.775 1.59-1.176 2.704-2.71 3.314-4.56l.173-.53h-2.811l-.103.24a6.546 6.546 0 0 1-2.377 2.859c-1.062.717-2.272 1.083-3.593 1.083-1.776 0-3.314-.643-4.576-1.91C3.297 13.5 2.676 12 2.676 10.2c0-1.797.639-3.349 1.903-4.614C5.84 4.322 7.38 3.679 9.155 3.679" mask="url(#b)"/>
        </g>
        <path fill="#FFF" d="M28.65 119.725c-1.808 0-3.31-.624-4.583-1.908-1.275-1.283-1.895-2.78-1.895-4.582 0-1.796.637-3.348 1.895-4.612 1.257-1.267 2.8-1.91 4.584-1.91 1.808 0 3.31.624 4.585 1.91 1.256 1.266 1.895 2.817 1.895 4.612 0 1.774-.639 3.317-1.895 4.582-1.276 1.284-2.777 1.908-4.585 1.908m0-15.695c-2.513 0-4.69.906-6.473 2.693-1.777 1.786-2.679 3.972-2.679 6.498 0 2.525.902 4.708 2.679 6.495 1.783 1.788 3.96 2.693 6.473 2.693 2.514 0 4.691-.905 6.472-2.693 1.78-1.787 2.68-3.97 2.68-6.495 0-2.526-.9-4.712-2.68-6.498-1.781-1.787-3.958-2.693-6.472-2.693M46.579 104.03c-1.973 0-3.679.706-5.068 2.101-1.391 1.395-2.094 3.096-2.094 5.057v10.98h2.673v-10.957c0-1.253.428-2.292 1.31-3.179.88-.887 1.918-1.32 3.179-1.32 1.239 0 2.271.433 3.15 1.32.88.887 1.31 1.926 1.31 3.18v10.956h2.67v-10.98c0-1.959-.702-3.66-2.094-5.057-1.389-1.395-3.083-2.102-5.036-2.102M64.477 106.714c1.32 0 2.53.362 3.593 1.075a6.519 6.519 0 0 1 2.378 2.836l.102.24h2.812l-.172-.528c-.612-1.853-1.725-3.381-3.315-4.548-1.593-1.168-3.41-1.759-5.398-1.759-2.515 0-4.694.905-6.473 2.693-1.777 1.787-2.682 3.972-2.682 6.499 0 2.522.905 4.71 2.682 6.494 1.781 1.788 3.958 2.693 6.473 2.693 1.99 0 3.807-.596 5.4-1.774 1.588-1.177 2.701-2.711 3.313-4.561l.172-.53H70.55l-.104.243a6.53 6.53 0 0 1-2.376 2.856c-1.061.717-2.271 1.083-3.593 1.083-1.799 0-3.296-.624-4.576-1.91-1.281-1.281-1.903-2.78-1.903-4.58 0-1.797.64-3.349 1.903-4.614 1.282-1.285 2.777-1.908 4.576-1.908M83.973 106.714c1.565 0 2.954.505 4.134 1.503a6.514 6.514 0 0 1 2.205 3.662l-12.68-.002a6.525 6.525 0 0 1 2.207-3.66c1.18-.998 2.569-1.503 4.134-1.503m0-2.684c-2.515 0-4.693.905-6.47 2.693-1.78 1.787-2.681 3.972-2.681 6.499 0 2.522.9 4.708 2.68 6.494 1.78 1.788 3.956 2.693 6.47 2.693 1.97 0 3.776-.59 5.368-1.759a9.2 9.2 0 0 0 3.344-4.574l.178-.531h-2.816l-.104.244a6.354 6.354 0 0 1-2.387 2.865 6.372 6.372 0 0 1-3.582 1.072c-1.565 0-2.955-.508-4.134-1.511a6.566 6.566 0 0 1-2.2-3.653h15.489v-1.34c0-2.527-.903-4.712-2.683-6.499-1.78-1.788-3.958-2.693-6.472-2.693M96.562 105.859c-1.21 1.215-1.822 2.693-1.822 4.39v11.918h2.673v-11.894c0-.987.341-1.81 1.044-2.513.704-.704 1.525-1.047 2.509-1.047h1.61v-2.685h-1.61c-1.712 0-3.194.616-4.404 1.83M109.999 107.077v-2.683l-3.14-.002v-5.727h-2.673v18.644c0 1.339.48 2.496 1.43 3.44.952.94 2.106 1.42 3.44 1.42h.943v-2.686h-.944c-.623 0-1.13-.21-1.557-.64a2.073 2.073 0 0 1-.639-1.534v-10.232H110zM86.984 59.905a2.77 2.77 0 0 0-1.046-.211c-.98 0-1.821.571-2.194 1.494-.266.656-.258 1.344.02 1.935.262.564.762 1.017 1.404 1.279.352.145.71.217 1.062.217.986 0 1.8-.56 2.18-1.498.531-1.312-.07-2.664-1.426-3.216M84.046 66.575c-1.158-.798-2.678-.554-3.437.556-.4.586-.542 1.258-.395 1.897.139.607.529 1.157 1.1 1.552.473.324.997.496 1.51.496.77 0 1.473-.383 1.93-1.054.796-1.168.499-2.617-.708-3.447M76.33 72.057c-1.028.967-1.051 2.447-.051 3.519.52.558 1.183.866 1.862.866.596 0 1.154-.229 1.615-.665.5-.469.78-1.085.786-1.732.007-.64-.255-1.273-.732-1.786-.967-1.035-2.495-1.128-3.48-.202M71.092 75.937c-1.212.723-1.55 2.162-.803 3.425.488.828 1.258 1.302 2.115 1.302.42 0 .85-.122 1.235-.352 1.212-.723 1.552-2.162.805-3.426-.714-1.21-2.194-1.637-3.352-.949M65.155 78.595c-1.358.454-1.98 1.758-1.515 3.174.361 1.099 1.233 1.779 2.28 1.779.264 0 .53-.045.794-.132 1.338-.444 1.975-1.779 1.515-3.174-.445-1.346-1.779-2.075-3.074-1.647M58.765 79.924c-1.42.15-2.309 1.288-2.156 2.773.14 1.365 1.096 2.284 2.374 2.284.088 0 .181-.004.276-.014 1.399-.147 2.308-1.313 2.157-2.772-.149-1.44-1.25-2.412-2.651-2.271M52.268 79.842c-1.445-.169-2.535.78-2.701 2.242-.08.697.08 1.36.451 1.865.382.52.967.847 1.648.925.103.011.203.017.301.017 1.264 0 2.252-.928 2.403-2.257.075-.686-.083-1.345-.454-1.852a2.336 2.336 0 0 0-1.648-.94M45.959 78.36c-1.326-.46-2.652.227-3.123 1.597-.476 1.387.128 2.724 1.444 3.183.272.095.554.143.832.143 1.044 0 1.922-.666 2.29-1.74.226-.65.21-1.327-.038-1.904-.26-.6-.76-1.054-1.405-1.279M40.082 75.544c-1.194-.736-2.64-.349-3.394.884-.764 1.251-.457 2.69.727 3.42.4.245.846.375 1.286.375.85 0 1.619-.457 2.109-1.257.762-1.252.457-2.691-.728-3.422M31.42 71.656c-.485.507-.757 1.133-.765 1.76-.008.646.26 1.262.754 1.737a2.39 2.39 0 0 0 1.66.692c.676 0 1.328-.297 1.843-.836.475-.497.741-1.12.753-1.747.013-.655-.253-1.275-.747-1.75-1.002-.965-2.51-.893-3.499.144M30.767 66.474c-.764-1.15-2.264-1.414-3.45-.62-1.214.82-1.533 2.255-.759 3.414.463.694 1.183 1.09 1.976 1.09a2.64 2.64 0 0 0 1.475-.472c.602-.405 1.005-.984 1.13-1.633a2.353 2.353 0 0 0-.372-1.779M27.744 62.562a2.357 2.357 0 0 0 .052-1.901c-.378-.97-1.204-1.55-2.204-1.55-.341 0-.69.068-1.03.203-.652.258-1.162.711-1.432 1.277a2.362 2.362 0 0 0-.039 1.893c.37.955 1.222 1.546 2.22 1.546.337 0 .679-.068 1.017-.2.638-.251 1.14-.7 1.416-1.268M24.015 57.112c.716-.114 1.325-.472 1.711-1.009.361-.5.504-1.13.404-1.77-.224-1.4-1.403-2.25-2.878-2.012-.69.11-1.283.444-1.667.94-.396.51-.554 1.162-.444 1.84.193 1.225 1.162 2.05 2.408 2.05.151 0 .307-.011.466-.039M23.193 50.073c.058.004.118.006.175.006 1.365 0 2.409-.954 2.484-2.265.083-1.436-.895-2.498-2.377-2.585-1.483-.097-2.579.866-2.66 2.26-.04.683.18 1.32.62 1.795.434.467 1.06.748 1.758.789M23.901 43.01c.26.073.522.11.776.11 1.106 0 2.007-.684 2.304-1.74.193-.684.11-1.366-.227-1.924-.324-.53-.873-.926-1.536-1.116-1.401-.397-2.71.3-3.084 1.632a2.41 2.41 0 0 0 .22 1.889c.322.548.872.957 1.547 1.149M26.112 36.267c.41.22.851.335 1.283.335.877 0 1.652-.473 2.075-1.265.334-.626.4-1.31.187-1.928-.204-.589-.654-1.093-1.262-1.422-1.264-.676-2.721-.27-3.364.932-.662 1.248-.208 2.656 1.081 3.348M31.406 30.802c.683 0 1.32-.3 1.785-.845.93-1.093.793-2.532-.336-3.503-1.088-.936-2.596-.853-3.48.182-.443.521-.654 1.165-.588 1.808.062.635.392 1.238.922 1.697.498.426 1.099.66 1.697.66M36.532 26.02c.508 0 1.003-.17 1.428-.492.565-.428.913-1.021.977-1.672.061-.62-.132-1.267-.55-1.821-.853-1.141-2.355-1.391-3.434-.576-.532.4-.874.963-.959 1.585-.092.651.097 1.33.53 1.907.51.68 1.242 1.07 2.008 1.07M44.754 18.902c-.6-1.312-1.985-1.878-3.236-1.302-.621.287-1.079.779-1.291 1.393-.208.602-.164 1.288.13 1.926.428.943 1.28 1.53 2.22 1.53.342 0 .686-.075 1.012-.226 1.302-.599 1.781-1.963 1.165-3.321M51.61 17.217c-.308-1.422-1.524-2.26-2.88-1.964-.67.145-1.224.529-1.56 1.083-.334.544-.432 1.222-.285 1.91.262 1.211 1.204 2.025 2.348 2.025.174 0 .353-.021.535-.06 1.399-.304 2.155-1.535 1.843-2.994M58.705 17.047c.002-.703-.23-1.343-.656-1.804-.439-.473-1.054-.736-1.747-.738-1.405 0-2.428 1.062-2.432 2.525-.005 1.468 1 2.538 2.393 2.542h.01c1.424 0 2.424-1.037 2.432-2.525zM65.634 18.411c.316-1.432-.436-2.693-1.793-3.001-1.343-.3-2.615.542-2.924 1.937-.15.675-.063 1.347.253 1.89.324.567.87.962 1.536 1.112.197.044.396.067.589.067 1.148 0 2.063-.786 2.339-2.005M72.136 21.252c.295-.637.353-1.316.16-1.912-.199-.615-.649-1.112-1.27-1.403a2.481 2.481 0 0 0-1.058-.244c-.945 0-1.775.564-2.213 1.505-.618 1.331-.152 2.726 1.108 3.317.353.165.714.248 1.073.248.938 0 1.758-.564 2.2-1.511M74.412 25.945c.446.345.96.525 1.479.525.748 0 1.472-.383 1.985-1.056.888-1.166.732-2.627-.376-3.476-1.079-.829-2.607-.596-3.462.53-.419.548-.618 1.195-.56 1.823.06.65.392 1.238.934 1.654M80.908 31.384c.593 0 1.172-.227 1.681-.653 1.118-.946 1.28-2.408.382-3.478-.88-1.048-2.41-1.157-3.496-.234-1.118.945-1.28 2.406-.382 3.475.478.574 1.125.89 1.815.89M82.782 36.043c.438.835 1.198 1.313 2.09 1.313.424 0 .864-.112 1.275-.329.622-.327 1.077-.833 1.284-1.426.212-.61.152-1.28-.166-1.889-.637-1.213-2.108-1.649-3.366-.982-1.295.682-1.766 2.077-1.117 3.313M95.721 61.058c-.295-.566-.824-1.004-1.486-1.228a2.827 2.827 0 0 0-.908-.155c-1.05 0-1.913.621-2.255 1.621-.227.673-.18 1.358.13 1.934.297.546.822.97 1.478 1.193.309.107.62.16.924.16 1.04 0 1.9-.623 2.237-1.628a2.4 2.4 0 0 0-.12-1.897M91.513 67.233c-1.225-.686-2.723-.3-3.373.868-.346.62-.425 1.302-.222 1.926.193.59.633 1.102 1.235 1.443.428.24.89.366 1.337.366.857 0 1.602-.45 2.038-1.232.69-1.236.263-2.652-1.015-3.371M87.693 73.553c-1.083-.903-2.623-.798-3.478.233-.434.525-.634 1.133-.579 1.76.062.652.402 1.27.965 1.737.506.422 1.085.647 1.674.647.692 0 1.333-.312 1.8-.88.438-.527.639-1.172.566-1.817-.074-.634-.412-1.23-.948-1.68M79.339 78.607c-.545.452-.865 1.06-.9 1.713-.034.622.19 1.26.631 1.796.523.634 1.214.984 1.944.984.542 0 1.069-.197 1.515-.567 1.088-.901 1.198-2.378.268-3.51-.896-1.086-2.426-1.272-3.458-.416M73.653 82.44c-1.253.697-1.627 2.096-.907 3.4.47.855 1.273 1.366 2.146 1.366.405 0 .8-.106 1.179-.316 1.233-.685 1.615-2.115.907-3.4-.687-1.242-2.142-1.707-3.325-1.05M67.341 85.169c-1.36.453-1.982 1.759-1.515 3.173.361 1.097 1.235 1.779 2.28 1.779.262 0 .532-.045.795-.134a2.383 2.383 0 0 0 1.433-1.242c.272-.577.301-1.263.081-1.931-.445-1.347-1.783-2.076-3.074-1.645M60.65 86.683c-.675.093-1.234.405-1.612.906-.394.522-.556 1.208-.458 1.932.18 1.323 1.13 2.213 2.364 2.213.116 0 .234-.008.355-.025 1.4-.192 2.268-1.386 2.071-2.84-.191-1.423-1.341-2.378-2.72-2.186M53.82 86.932l-.145-.004c-1.347 0-2.341.992-2.413 2.413-.073 1.464.88 2.578 2.272 2.65l.137.004c1.33 0 2.348-1.013 2.418-2.41.073-1.465-.878-2.581-2.27-2.653M47.046 85.902c-1.366-.331-2.615.477-2.958 1.89-.342 1.427.39 2.7 1.74 3.03.205.048.41.073.614.073 1.137 0 2.057-.77 2.345-1.963.162-.67.08-1.343-.222-1.893a2.341 2.341 0 0 0-1.519-1.137M40.606 83.649c-1.277-.58-2.659-.017-3.255 1.298-.305.669-.344 1.376-.114 1.99.214.577.662 1.044 1.256 1.314.338.153.685.232 1.035.232.959 0 1.79-.572 2.225-1.529.604-1.337.121-2.726-1.147-3.305M34.612 80.21c-1.139-.794-2.623-.488-3.435.688-.42.605-.585 1.292-.47 1.938.109.604.466 1.145 1 1.519a2.44 2.44 0 0 0 1.395.453c.797 0 1.544-.417 2.044-1.141.392-.568.56-1.223.473-1.847a2.327 2.327 0 0 0-1.007-1.61M25.895 75.787c-1.042 1.028-1.086 2.5-.114 3.495.473.48 1.077.742 1.71.742.649 0 1.288-.277 1.797-.78.49-.485.776-1.098.807-1.727a2.362 2.362 0 0 0-.697-1.77c-.97-.991-2.484-.97-3.503.04M25.102 70.392c-.471-.707-1.168-1.094-1.96-1.094-.508 0-1.024.166-1.49.48-1.215.82-1.533 2.255-.757 3.416.463.69 1.183 1.087 1.976 1.087.506 0 1.017-.165 1.476-.477.571-.383.963-.932 1.112-1.544.15-.637.023-1.3-.357-1.868M21.868 66.232a2.358 2.358 0 0 0-.008-1.903c-.55-1.279-1.958-1.813-3.282-1.238-.643.277-1.135.746-1.386 1.321-.259.593-.25 1.266.021 1.895.394.924 1.214 1.475 2.187 1.475.364 0 .733-.08 1.092-.235.631-.273 1.12-.74 1.376-1.315M17.85 60.69c1.424-.323 2.239-1.548 1.93-2.91-.305-1.364-1.583-2.145-2.995-1.823-1.426.322-2.24 1.546-1.934 2.91.26 1.151 1.189 1.897 2.36 1.897.209 0 .425-.025.639-.074M16.503 53.449c.685-.025 1.31-.283 1.756-.727.46-.46.7-1.09.677-1.774-.052-1.384-1.077-2.35-2.495-2.35l-.116.001c-.7.026-1.328.285-1.77.73-.453.456-.689 1.086-.665 1.774.052 1.36 1.101 2.348 2.497 2.348l.116-.002zM16.516 46.071c.148.023.297.033.44.033 1.26 0 2.23-.82 2.414-2.038.106-.702-.06-1.37-.467-1.88-.39-.484-.98-.81-1.666-.914-1.474-.22-2.647.641-2.854 2.005-.102.678.06 1.333.454 1.847.391.505.988.843 1.679.947M17.867 38.877c.31.11.625.166.938.166 1.036 0 1.897-.61 2.242-1.594.236-.669.197-1.354-.106-1.934-.29-.55-.807-.98-1.46-1.213-1.36-.482-2.726.138-3.181 1.428-.471 1.333.189 2.657 1.567 3.147M20.554 31.994c.429.247.894.376 1.347.376.86 0 1.6-.44 2.038-1.205.714-1.248.311-2.637-.976-3.38a2.738 2.738 0 0 0-1.357-.382c-.849 0-1.586.441-2.028 1.212-.342.595-.429 1.264-.245 1.886.181.612.615 1.143 1.221 1.493M26.14 26.392c.687 0 1.324-.302 1.787-.848.927-1.095.788-2.535-.343-3.503-1.089-.932-2.598-.847-3.48.192-.91 1.077-.77 2.55.344 3.5.496.425 1.096.66 1.692.66M31.372 21.332c.535 0 1.05-.188 1.488-.543 1.115-.903 1.243-2.344.31-3.505-.899-1.12-2.394-1.315-3.452-.459-1.098.89-1.23 2.362-.314 3.505.513.637 1.23 1.002 1.968 1.002M38.588 17.028c1.26-.68 1.65-2.073.946-3.389-.674-1.263-2.11-1.738-3.31-1.09-.6.325-1.029.848-1.2 1.472-.17.616-.08 1.296.252 1.916.466.87 1.276 1.387 2.168 1.387.391 0 .78-.098 1.144-.296M44.93 14.375c.675-.215 1.196-.66 1.472-1.252.26-.564.29-1.24.08-1.902-.439-1.382-1.737-2.105-3.054-1.682-1.343.428-1.995 1.755-1.551 3.154.347 1.095 1.248 1.802 2.3 1.802.251 0 .504-.04.753-.12M51.643 12.941c.7-.087 1.297-.428 1.675-.959.363-.505.513-1.164.428-1.854-.18-1.453-1.287-2.39-2.694-2.218a2.387 2.387 0 0 0-1.648.935c-.378.514-.54 1.18-.455 1.88.162 1.317 1.14 2.236 2.377 2.236.104 0 .209-.006.317-.02M61.07 10.403c.042-.702-.151-1.357-.547-1.841-.407-.5-1.01-.796-1.69-.84-1.43-.09-2.496.914-2.588 2.374-.043.69.148 1.337.544 1.828.413.507 1.013.81 1.694.852.06.004.122.008.18.008 1.33 0 2.32-.98 2.406-2.381M68.233 12.04c.173-.68.104-1.36-.2-1.91-.308-.565-.84-.97-1.504-1.14-1.34-.342-2.625.456-2.982 1.853-.359 1.422.359 2.705 1.706 3.05.22.056.444.085.658.085 1.112 0 2.022-.761 2.322-1.937M74.947 14.976c.622-1.33.157-2.724-1.101-3.317a2.476 2.476 0 0 0-1.062-.244c-.946 0-1.773.56-2.213 1.501-.62 1.33-.157 2.724 1.105 3.317a2.5 2.5 0 0 0 1.075.252c.936 0 1.755-.566 2.196-1.51M81.061 19.093c.845-1.198.639-2.653-.494-3.463-1.11-.794-2.626-.505-3.445.647-.422.593-.594 1.281-.482 1.934.102.61.448 1.153.974 1.529.437.314.929.478 1.42.478.78 0 1.518-.41 2.027-1.125M84.483 25.035c.637 0 1.268-.273 1.784-.767.505-.489.802-1.101.837-1.729.035-.643-.206-1.27-.68-1.767-.939-.98-2.487-.988-3.508-.006-1.051 1.018-1.119 2.488-.156 3.496.485.505 1.08.773 1.723.773M86.99 29.664c.463.71 1.183 1.12 1.976 1.12a2.69 2.69 0 0 0 1.467-.464c1.223-.806 1.56-2.235.797-3.406-.745-1.143-2.256-1.435-3.445-.655-.575.378-.976.923-1.129 1.533-.158.634-.038 1.3.334 1.872M90.173 33.957a2.356 2.356 0 0 0-.015 1.902c.39.942 1.208 1.506 2.184 1.506a2.82 2.82 0 0 0 1.083-.227c.646-.27 1.142-.732 1.401-1.306.266-.587.268-1.26.004-1.895-.523-1.263-1.953-1.827-3.263-1.278-.635.265-1.131.726-1.394 1.298M100.957 59.772c-1.374-.382-2.713.339-3.074 1.645-.188.685-.103 1.365.239 1.924.326.528.874.922 1.542 1.108.264.073.527.108.783.108 1.098 0 1.998-.688 2.291-1.753.376-1.364-.372-2.64-1.781-3.032M98.791 67.064a2.742 2.742 0 0 0-1.142-.255c-.948 0-1.75.523-2.15 1.402-.592 1.308-.06 2.653 1.293 3.27.38.175.768.264 1.156.264.938 0 1.737-.527 2.134-1.408.282-.626.305-1.3.064-1.9-.235-.596-.716-1.082-1.355-1.373M95.563 73.637c-1.173-.779-2.694-.511-3.43.612-.389.591-.52 1.268-.366 1.903.149.605.55 1.149 1.13 1.533.462.308.976.472 1.48.472.783 0 1.493-.395 1.948-1.085.377-.573.506-1.236.363-1.867-.14-.622-.54-1.18-1.125-1.568M87.87 79.663c-.478.523-.712 1.17-.66 1.82.054.62.361 1.221.87 1.69.512.473 1.133.733 1.755.733.648 0 1.262-.281 1.729-.793.953-1.042.864-2.518-.21-3.512-1.035-.95-2.58-.928-3.484.062M82.82 84.32c-1.122.892-1.26 2.334-.34 3.504.52.66 1.22 1.025 1.97 1.025a2.35 2.35 0 0 0 1.478-.537 2.395 2.395 0 0 0 .925-1.658c.058-.638-.149-1.293-.585-1.843-.87-1.104-2.395-1.327-3.449-.49M77.096 88.136c-.616.346-1.038.889-1.189 1.526-.143.607-.035 1.273.305 1.88.475.845 1.274 1.348 2.136 1.348.411 0 .813-.108 1.195-.323 1.227-.694 1.6-2.128.882-3.406-.693-1.237-2.154-1.694-3.33-1.025M70.832 91.01c-.662.248-1.164.717-1.41 1.322-.237.575-.233 1.251.008 1.902.388 1.049 1.253 1.7 2.258 1.7.292 0 .585-.055.873-.161.64-.24 1.132-.7 1.39-1.295.252-.585.256-1.272.013-1.933-.498-1.339-1.851-2.011-3.132-1.535M64.219 92.862c-.693.142-1.26.525-1.6 1.085-.323.533-.425 1.201-.288 1.882.251 1.251 1.17 2.061 2.341 2.061.166 0 .338-.017.513-.052 1.382-.281 2.175-1.529 1.888-2.967-.284-1.404-1.455-2.292-2.854-2.009M57.489 93.65l-.106.003c-.707.029-1.328.32-1.75.817-.4.473-.605 1.118-.58 1.814.06 1.434 1.042 2.435 2.395 2.435l.108-.002c1.409-.058 2.386-1.162 2.328-2.63-.054-1.411-1.064-2.436-2.395-2.436M50.518 93.349c-1.444-.173-2.542.77-2.714 2.23-.173 1.457.705 2.633 2.086 2.8.105.013.21.019.313.019 1.256 0 2.242-.924 2.4-2.248.082-.686-.076-1.344-.443-1.854a2.34 2.34 0 0 0-1.642-.947M43.79 91.964c-1.346-.382-2.637.383-3.027 1.77-.202.71-.137 1.413.184 1.986.3.539.81.932 1.44 1.11.233.066.468.1.7.1 1.09 0 2.005-.735 2.325-1.872.188-.663.136-1.34-.148-1.9a2.339 2.339 0 0 0-1.475-1.194M37.339 89.531c-1.276-.587-2.664-.033-3.264 1.279-.297.64-.349 1.32-.152 1.914.2.612.654 1.108 1.275 1.395.34.159.691.238 1.048.238.952 0 1.78-.567 2.216-1.517.287-.626.341-1.3.146-1.9a2.344 2.344 0 0 0-1.27-1.409M31.376 86.137c-1.156-.775-2.63-.443-3.426.752-.81 1.22-.56 2.67.597 3.447a2.44 2.44 0 0 0 1.356.426c.817 0 1.57-.428 2.067-1.176.813-1.222.562-2.672-.594-3.449M22.507 82.03c-.477.516-.74 1.146-.737 1.774.002.645.28 1.257.78 1.724.464.43 1.043.668 1.64.668.687 0 1.347-.308 1.86-.864.996-1.077.976-2.548-.044-3.499-1.021-.95-2.525-.858-3.5.198M21.38 76.732c-.855-1.097-2.36-1.246-3.484-.359-.552.434-.909 1.014-1.007 1.634-.098.637.08 1.286.502 1.827.476.61 1.14.945 1.874.945.563 0 1.12-.203 1.611-.587.542-.424.894-1.001.994-1.623a2.346 2.346 0 0 0-.49-1.837M17.603 70.951c-.444-.804-1.198-1.265-2.061-1.265-.444 0-.901.124-1.328.362-1.277.713-1.715 2.116-1.038 3.339.438.788 1.214 1.259 2.077 1.259.441 0 .893-.122 1.31-.356 1.277-.713 1.717-2.116 1.04-3.339M14.78 64.665c-.365-1.004-1.2-1.603-2.227-1.603-.326 0-.652.06-.98.18-1.373.504-2.023 1.822-1.546 3.135.36.987 1.22 1.599 2.246 1.599.317 0 .643-.058.961-.177 1.372-.503 2.023-1.823 1.546-3.134M10.947 60.852c1.434-.283 2.28-1.484 2.014-2.854-.27-1.38-1.509-2.19-2.944-1.91-1.436.283-2.283 1.484-2.015 2.856.23 1.174 1.189 1.963 2.383 1.963.185 0 .373-.018.562-.055M9.775 53.645c.685-.025 1.312-.283 1.754-.725a2.36 2.36 0 0 0 .683-1.776c-.052-1.384-1.077-2.35-2.497-2.35h-.112c-.699.025-1.33.284-1.77.728-.455.457-.69 1.087-.668 1.773.049 1.362 1.099 2.352 2.496 2.352l.114-.002zM9.748 46.33c.124.015.247.023.367.023 1.281 0 2.28-.866 2.433-2.104.09-.704-.096-1.366-.517-1.866-.4-.475-1-.785-1.687-.87-1.478-.188-2.63.701-2.8 2.08-.085.68.093 1.334.502 1.834.403.496 1.01.815 1.702.902M10.875 39.109c.265.077.53.114.791.114a2.346 2.346 0 0 0 2.303-1.726c.193-.684.115-1.366-.222-1.926-.323-.53-.865-.93-1.53-1.124-1.394-.405-2.71.287-3.09 1.612-.191.661-.118 1.331.208 1.891.32.553.867.963 1.54 1.159M13.114 32.159c.38.178.772.267 1.166.267.934 0 1.733-.515 2.136-1.38.297-.642.326-1.33.08-1.937-.235-.575-.71-1.054-1.338-1.348-1.305-.609-2.727-.124-3.302 1.114a2.402 2.402 0 0 0-.085 1.9c.231.595.708 1.086 1.343 1.384M16.404 25.63c.462.314.979.48 1.492.48.784 0 1.49-.385 1.942-1.057.397-.587.532-1.261.384-1.899-.143-.604-.535-1.153-1.11-1.542-1.18-.802-2.677-.546-3.435.577a2.4 2.4 0 0 0-.392 1.81c.122.645.521 1.226 1.12 1.631M22.435 20.456c.645 0 1.253-.27 1.716-.765.482-.517.723-1.162.675-1.815-.044-.62-.347-1.225-.853-1.7-1.036-.974-2.56-.96-3.485.026-.465.5-.704 1.131-.668 1.78.035.638.334 1.252.846 1.734.507.477 1.136.74 1.77.74M27.8 15.59a2.34 2.34 0 0 0 1.456-.516c1.13-.88 1.287-2.317.376-3.497-.87-1.126-2.374-1.357-3.445-.525-1.111.866-1.27 2.338-.374 3.497.507.662 1.233 1.04 1.988 1.04M33.87 11.62c.402 0 .79-.103 1.16-.306 1.257-.694 1.631-2.089.917-3.397-.685-1.255-2.126-1.718-3.319-1.06-.598.33-1.02.857-1.187 1.483-.162.616-.067 1.296.27 1.912.47.856 1.276 1.368 2.16 1.368M42.742 5.298c-.487-1.356-1.826-2.032-3.115-1.567a2.406 2.406 0 0 0-1.382 1.232c-.28.595-.297 1.298-.05 1.98.378 1.058 1.25 1.715 2.277 1.715.28 0 .56-.049.836-.15 1.345-.486 1.936-1.805 1.434-3.21M49.875 3.773c-.27-1.416-1.44-2.303-2.833-2.036-1.384.266-2.19 1.504-1.916 2.945.237 1.246 1.183 2.083 2.356 2.083.154 0 .315-.016.477-.045 1.403-.27 2.194-1.482 1.916-2.947"/>
        <g transform="translate(52.105 .348)">
            <mask id="d" fill="#fff">
                <use xlink:href="#c"/>
            </mask>
            <path fill="#FFF" d="M5.04 3.05C4.998 1.602 4.01.59 2.647.59l-.083.002C1.154.632.164 1.729.209 3.198c.042 1.426 1.05 2.459 2.395 2.459h.08c.682-.02 1.268-.274 1.699-.73.446-.48.68-1.144.658-1.876z" mask="url(#d)"/>
        </g>
        <path fill="#FFF" d="M64.38 4.18c.091-.698-.06-1.363-.426-1.874-.372-.525-.955-.86-1.63-.95-1.402-.184-2.556.773-2.739 2.201-.087.684.064 1.345.427 1.858.376.533.955.876 1.632.963.124.016.241.024.355.024 1.255 0 2.21-.894 2.382-2.223M71.412 6.095c.413-1.408-.257-2.716-1.59-3.11-1.328-.395-2.644.369-3.047 1.74-.411 1.41.256 2.717 1.592 3.11.25.076.5.113.747.113 1.082 0 1.962-.71 2.298-1.853M78.072 9.092c.3-.636.361-1.314.172-1.913a2.35 2.35 0 0 0-1.262-1.408 2.448 2.448 0 0 0-1.07-.25c-.94 0-1.767.56-2.209 1.494-.293.624-.353 1.298-.168 1.898.197.624.643 1.13 1.26 1.423.354.17.72.255 1.083.255.932 0 1.752-.56 2.194-1.5M80.739 13.803c.432.295.91.452 1.387.452.797 0 1.542-.425 2.046-1.163.824-1.213.592-2.664-.556-3.453-1.129-.775-2.632-.46-3.433.711-.826 1.211-.592 2.663.556 3.453M87.708 18.852c.674 0 1.328-.302 1.849-.853.48-.511.749-1.137.754-1.765.006-.645-.266-1.261-.764-1.732-.986-.938-2.528-.87-3.499.159-1.005 1.066-1.003 2.536.008 3.497.477.454 1.05.694 1.652.694M90.624 23.307c.48.63 1.148.974 1.881.974.558 0 1.11-.2 1.602-.579.556-.428.917-1.004 1.02-1.624.109-.635-.063-1.286-.478-1.83-.826-1.084-2.362-1.262-3.485-.398-1.158.895-1.386 2.348-.54 3.457M94.163 27.23c-.21.62-.147 1.292.18 1.893.437.818 1.196 1.286 2.072 1.286.436 0 .886-.12 1.303-.346.615-.336 1.065-.849 1.262-1.444.206-.612.137-1.28-.19-1.885-.644-1.197-2.13-1.614-3.377-.938-.604.33-1.047.84-1.25 1.434M97.1 35.727c.36 1.017 1.196 1.626 2.238 1.626.312 0 .635-.058.951-.17 1.378-.49 2.044-1.803 1.579-3.118-.46-1.3-1.836-1.938-3.192-1.457-1.376.492-2.04 1.804-1.577 3.12"/>
        <path fill="#E03032" d="M60.845 41.616L74.34 49.42l-13.478 7.833-13.477 7.833-.018-15.635-.02-15.634z"/>
    </g>
</svg>
