<svg xmlns="http://www.w3.org/2000/svg" xmlns:xlink="http://www.w3.org/1999/xlink" width="45" height="45" viewBox="0 0 45 45">
    <defs>
        <path id="a" d="M0 .239h44.761v44.76H0z"/>
    </defs>
    <g fill="none" fill-rule="evenodd">
        <g>
            <mask id="b" fill="#fff">
                <use xlink:href="#a"/>
            </mask>
            <path fill="#6031AD" d="M44.761 22.62c0 12.36-10.02 22.38-22.38 22.38C10.02 45 0 34.98 0 22.62 0 10.259 10.02.239 22.38.239c12.361 0 22.381 10.02 22.381 22.38" mask="url(#b)"/>
        </g>
        <path fill="#FFF" d="M27.155 12.55v3.062l-1.829.004c-1.434 0-1.71.677-1.71 1.666v2.19h3.415l-.442 3.425h-2.973v8.913h-3.564v-8.913h-2.983v-3.425h2.983v-2.526c0-2.933 1.8-4.532 4.44-4.532 1.258 0 2.344.095 2.663.137"/>
    </g>
</svg>
