<svg xmlns="http://www.w3.org/2000/svg" xmlns:xlink="http://www.w3.org/1999/xlink" width="63" height="16" viewBox="0 0 63 16">
    <defs>
        <path id="a" d="M.756.443h6.09v4.872H.756z"/>
        <path id="c" d="M.615.45h14.506V15.11H.615z"/>
    </defs>
    <g fill="none" fill-rule="evenodd">
        <path fill="#A3A3A3" d="M51.55 12.373c.093-.548.015-.958-.233-1.232-.246-.272-.617-.411-1.11-.411-.22 0-.42.03-.603.085a2.268 2.268 0 0 0-.5.217c-.148.09-.284.191-.406.307a3.6 3.6 0 0 0-.32.341c-.06-.316-.207-.554-.441-.712-.235-.158-.539-.238-.915-.238-.21 0-.405.032-.583.095a2.199 2.199 0 0 0-.85.533c-.105.11-.198.213-.277.312l.157-.83h-1.59l-.84 4.763h1.58l.536-3.033c.15-.14.313-.262.488-.37a.976.976 0 0 1 .519-.164c.23 0 .39.063.48.193.089.129.11.31.064.548l-.495 2.826h1.592l.534-3.053c.152-.138.315-.258.49-.361.174-.102.346-.153.519-.153.23 0 .388.063.474.193.085.129.11.31.069.548l-.494 2.826h1.583l.572-3.23z"/>
        <path fill="#A3A3A3" d="M51.463 12.358c.087-.517.016-.907-.211-1.158-.229-.253-.58-.38-1.046-.38-.207 0-.401.026-.577.08a2.158 2.158 0 0 0-.87.503 3.62 3.62 0 0 0-.314.334l-.12.145-.034-.185c-.056-.295-.188-.51-.403-.656-.22-.147-.51-.222-.866-.222-.2 0-.385.03-.553.088a2.202 2.202 0 0 0-.462.224 2.042 2.042 0 0 0-.354.288 4.331 4.331 0 0 0-.271.305l-.157-.071.138-.724h-1.41l-.46 2.603 1.427-.142.153-.866.021-.02c.154-.14.323-.269.502-.38.186-.117.377-.176.565-.176.261 0 .447.077.552.23.103.149.13.355.08.615l-.074.418 1.437-.143.1-.563.022-.02a3.02 3.02 0 0 1 .504-.372c.187-.109.376-.165.563-.165.261 0 .446.078.549.232.098.15.126.355.081.613l-.016.096 1.436-.143.068-.388zM54.757 14.538c-.16.131-.326.24-.504.325a1.392 1.392 0 0 1-.614.129c-.197 0-.346-.045-.45-.134a.44.44 0 0 1-.153-.35c0-.278.152-.498.455-.663.303-.164.784-.267 1.444-.307l-.178 1zm1.403.978c.007-.1.019-.203.036-.312.016-.108.037-.235.063-.38l.347-1.928c.058-.323.075-.616.05-.88a1.334 1.334 0 0 0-.258-.682 1.401 1.401 0 0 0-.619-.444c-.266-.107-.61-.16-1.033-.16-.27 0-.529.02-.775.06-.247.04-.48.092-.698.16a4.4 4.4 0 0 0-.593.221 3.06 3.06 0 0 0-.454.252l.533.988c.277-.145.562-.262.856-.35.293-.09.561-.134.806-.134.29 0 .484.058.583.172.1.117.132.273.1.47l-.021.13c-1.246.058-2.168.263-2.768.612-.6.35-.9.864-.9 1.542 0 .198.036.38.108.544.033.074.072.142.116.205h2.69c.096-.08.193-.167.29-.264a2.131 2.131 0 0 0-.034.264h1.574l.001-.086z"/>
        <path fill="#A3A3A3" d="M56.568 12.025a1.249 1.249 0 0 0-.24-.638 1.332 1.332 0 0 0-.58-.416c-.255-.101-.592-.152-1.002-.152a5.052 5.052 0 0 0-1.447.214 4.445 4.445 0 0 0-.581.218 3.286 3.286 0 0 0-.375.2l.453.844c.258-.13.524-.238.793-.318.3-.092.58-.138.832-.138.319 0 .532.066.65.204.076.088.119.198.13.326l1.377-.138c0-.071-.004-.14-.01-.206"/>
        <g transform="translate(56 10.287)">
            <mask id="b" fill="#fff">
                <use xlink:href="#a"/>
            </mask>
            <path fill="#A3A3A3" d="M2.873 1.734a.921.921 0 0 1 .682-.292c.29 0 .49.079.602.237.113.159.169.347.169.563 0 .337-.088.603-.263.797a.866.866 0 0 1-.676.291c-.298 0-.505-.077-.623-.232a.907.907 0 0 1-.179-.568c0-.336.095-.601.288-.796m2.12 3.39a2.774 2.774 0 0 0-.677-.232 9.7 9.7 0 0 0-.761-.128 17.434 17.434 0 0 1-1.019-.154c-.264-.048-.395-.14-.395-.27 0-.086.058-.175.177-.268.29.093.616.138.98.138.356 0 .684-.043.988-.128.304-.086.563-.213.78-.38.218-.169.388-.377.51-.624s.183-.528.183-.844c0-.14-.016-.284-.05-.436a3.617 3.617 0 0 1 .92-.108L6.847.474c-.1.006-.214.025-.346.06a4.16 4.16 0 0 0-.405.123c-.138.05-.275.108-.41.177-.135.07-.253.147-.351.232a1.771 1.771 0 0 0-.672-.454C4.384.5 4.04.443 3.624.443c-.362 0-.7.046-1.009.135-.31.09-.577.218-.8.39-.224.171-.401.382-.53.633a1.85 1.85 0 0 0-.193.86c0 .25.05.487.15.71.098.225.249.417.454.575-.192.093-.348.19-.47.291a1.485 1.485 0 0 0-.286.308.98.98 0 0 0-.184.537c0 .167.06.31.17.433H5.28a1.536 1.536 0 0 0-.287-.19" mask="url(#b)"/>
        </g>
        <path fill="#A3A3A3" d="M58.81 11.96c.206-.211.457-.319.745-.319.291 0 .505.077.639.23l2.407-.239.138-.77a2.28 2.28 0 0 0-.217.043c-.13.033-.263.073-.398.122a3.167 3.167 0 0 0-.399.173c-.13.067-.242.142-.334.22l-.066.057-.057-.064a1.71 1.71 0 0 0-.639-.432c-.266-.108-.604-.162-1.005-.162-.353 0-.685.044-.984.13a2.326 2.326 0 0 0-.773.376 1.792 1.792 0 0 0-.504.603 1.582 1.582 0 0 0-.093.234l1.492-.148c.016-.018.03-.037.048-.055M24.177 13.898l-1.738.571L20.136.89H2.575L0 15.62h3.82l.753-4.196h5.22l.518-3.034h-5.22l.753-4.232h8.96L8.803 15.62h3.62l.589-1.165h.017l1.408-2.75h-.015l3.057-5.949h.047l.87 5.949h-.003l.61 3.915h.251l4.926-1.714a.032.032 0 0 0-.003-.008M33.17 10.453a10.966 10.966 0 0 0-2.056-.917 31.712 31.712 0 0 1-2.058-.752c-.634-.259-1.163-.54-1.586-.847-.424-.305-.636-.709-.636-1.21 0-.643.228-1.13.683-1.459.454-.328 1.073-.494 1.857-.494.564 0 1.057.071 1.481.213.423.141.795.325 1.117.553.322.227.59.473.81.74.22.266.416.525.589.776l3.033-1.905c-.282-.439-.607-.87-.975-1.293-.37-.423-.82-.8-1.352-1.128-.534-.33-1.168-.592-1.905-.788-.737-.196-1.614-.294-2.634-.294-.784 0-1.56.106-2.327.316a6.47 6.47 0 0 0-2.093 1 5.171 5.171 0 0 0-1.517 1.74c-.384.706-.576 1.552-.576 2.54 0 .878.212 1.599.635 2.163.424.565.948 1.03 1.575 1.398.627.37 1.314.679 2.059.93.744.25 1.429.501 2.056.752.627.25 1.152.533 1.576.846.423.314.634.73.634 1.247 0 .408-.09.748-.27 1.022-.004.007-.01.012-.013.018h3.88c.153-.53.235-1.1.235-1.722 0-.831-.21-1.521-.634-2.07a5.388 5.388 0 0 0-1.587-1.375"/>
        <g transform="translate(35.556 .51)">
            <mask id="d" fill="#fff">
                <use xlink:href="#c"/>
            </mask>
            <path fill="#A3A3A3" d="M9.502 3.648h5.056L15.12.45H1.155l-.54 3.198H5.67L3.658 15.111h3.813z" mask="url(#d)"/>
        </g>
        <path fill="#A3A3A3" d="M43.666 12.187h-3.82l-.366 2.088h3.816zM44.128 9.578h-3.824l-.122.695h3.823zM15.746 11.362l6.637-4.97-5.964 5.803z"/>
        <path fill="#A3A3A3" d="M16.772 11.83a.78.78 0 1 1-1.56 0 .78.78 0 0 1 1.56 0"/>
    </g>
</svg>
