<svg xmlns="http://www.w3.org/2000/svg" xmlns:xlink="http://www.w3.org/1999/xlink" width="54" height="14" viewBox="0 0 54 14">
    <defs>
        <path id="a" d="M0 13.464h53.14V0H0z"/>
    </defs>
    <g fill="none" fill-rule="evenodd">
        <path fill="#A3A3A3" d="M9.525 1.079v2.67c0 .995-.786 1.07-1.948 1.07-1.075 0-1.946-.021-1.946-1.07v-2.67h.557v2.67c0 .604.19.698 1.39.698.99 0 1.39-.005 1.39-.698v-2.67h.557zM16.646 4.788h-.912l-2.76-3.364h-.013v3.364h-.557v-3.71h.917l2.754 3.388h.012V1.078h.559zM21.871 4.417c.984 0 1.114-.435 1.128-1.098v-.975c0-.207-.098-.895-1.036-.895h-1.928v2.968h1.836zM19.478 1.08h2.393c.597 0 1.686.059 1.686 1.429v.884c0 .367-.08 1.396-1.554 1.396h-2.525v-3.71zM28.074 1.425l-1.081 2.23h2.176l-1.095-2.23zm-1.232 2.577l-.381.787h-.584l1.79-3.71h.786l1.837 3.71h-.577l-.387-.787h-2.484zM34.02 4.818c-.898 0-1.428-.425-1.428-1.167V2.216c0-1.049.859-1.167 2.051-1.167h.46c1.029 0 1.345.336 1.345 1.067v.12h-.559v-.104c0-.52-.142-.713-.865-.713h-.315c-1.154 0-1.56.105-1.56.782v1.02c0 .845.045 1.226.976 1.226h.663c.89 0 1.167-.094 1.167-.623v-.297h.557v.346c0 .85-.72.945-1.704.945h-.787z"/>
        <mask id="b" fill="#fff">
            <use xlink:href="#a"/>
        </mask>
        <path fill="#A3A3A3" d="M39.095 4.788h.558v-3.71h-.558zM44.905.267l-1.056.494-.176-.202L44.65 0l.255.267zm-.952 1.152c-.825 0-1.042.154-1.042.877v1.32c0 .737.321.826 1.042.832h.662c.723-.006 1.044-.095 1.044-.832v-1.32c0-.723-.217-.877-1.044-.877h-.662zm.662-.37c1.228.01 1.6.317 1.6 1.247v1.32c0 .875-.418 1.202-1.6 1.202h-.662c-1.178 0-1.598-.327-1.598-1.202v-1.32c0-.93.373-1.237 1.598-1.247h.662zM53.14 4.788h-.912l-2.761-3.364h-.012v3.364h-.557v-3.71h.917l2.754 3.388h.013V1.078h.558zM43.404 10.241c-.087-.023-.12-.048-.242-.049-.67.568-1.25 1.25-1.87 1.87-.174.175-.551.476-.316.826.223.329.57-.01.73-.17.418-.42.83-.885 1.189-1.36.16-.211.47-.387.559-.656.088-.137-.02-.358-.05-.46zm-22.316.34a.14.14 0 0 0 .073-.194c-.053-.161-.216-.203-.437-.195-.088.06-.228.036-.34.073-.251.082-.794.253-.971.413h-.049c.018-.121.049-.275-.024-.364-.033-.048-.032-.052-.097-.073-.095-.058-.38-.031-.485 0-.274.08-1.139.38-1.239.583-.02.024-.01.006-.025.048.023.023.033.042.05.073.146.023.79-.106.922-.194.145 0 .164.022.243.073-.005.553-.687 1.075-.996 1.384-.174.175-.359.256-.364.608l.145.169c.553.126.755-.306.997-.631.396-.537.882-1.096 1.456-1.457.22-.138.466-.25.753-.317h.388zm9.131-.462c-.104.072-.268.07-.388.122a2.084 2.084 0 0 0-.85.728c-.286.459-.284 1.183-.68 1.53-.397-.029-.664-.308-.874-.534-.084.006-.125.012-.17.049-.049.034-.052.032-.073.097-.058.08-.033.133-.024.243.197.194.325.42.583.558.089.05.216.097.315.121.197.05.418-.03.534-.073.88-.318.502-1.37 1.068-1.942.113-.113.656-.53.899-.388.057.018.055.025.097.048-.007.162-.107.317-.049.413v.05c.098.02.194.035.267-.025.2-.067.337-.462.194-.705-.141-.245-.44-.308-.849-.292zm22.559.292c-.248-.366-.811-.353-1.287-.194a9.161 9.161 0 0 0-1.87.899c-.303.186-.655.312-.899.557H48.7c.111-.441.431-1.094.194-1.577-.434-.077-.791.09-1.093.218-.646.27-1.235.532-1.797.875-.274.165-.62.25-.85.46h-.072c.135-.259.39-.43.559-.655.106-.146.157-.31.266-.461-.016-.118-.056-.18-.097-.268-.434-.114-.658-.006-.971.194l.024.05c.064.025.103.043.194.048v.073c-.447.412-.759.977-1.19 1.408-.228.228-.536.366-.534.826a.404.404 0 0 1 .072.096c.37.14.982-.15 1.264-.29 1.14-.6 2.283-1.2 3.423-1.798h.098c-.202.548-.293 1.238-.656 1.627-.002.148.008.284.073.365l.096.096c.476-.022.808-.35 1.118-.558.63-.419 1.235-.825 1.917-1.19.185-.097 1.02-.514 1.288-.315.683.133.142 1.438.025 1.773-.05.14-.003.223.047.315a.283.283 0 0 1 .122.048c.912.011.982-1.995.559-2.622zm-39.096-.534c-.098.065-.268.033-.389.073-.107.036-.202.116-.29.17-.023.081-.08.185-.025.267.039.113.117.122.194.193.255-.005.328-.121.535-.169l.606.025c.499.114 1.437.25 1.578.68h.026l-.026.073c-.214-.019-.389-.092-.558-.147-.316-.101-.655-.14-.97-.218l-.414-.024c-.95-.21-1.92.214-2.258.729-.109.165-.362.631-.292.946.08.354.332.476.68.558h.315c.325.067.879-.027 1.191-.096l.413-.025c.49-.11 1.038-.15 1.505-.267.365-.09.794.022 1.045-.122.098-.24-.036-.353-.147-.51-.367-.081-.756-.04-1.116.05l-.85.12c-.65.167-1.614.387-2.308.17-.255-1.299 2.091-1.057 2.94-.801.19.058.365.099.533.146.305.086.85.093.996-.12.258-.382-.087-.747-.268-.925-.569-.56-1.488-.804-2.646-.776zm12.457 1.48c-.21.479-1.18 1.056-1.893 1.045a.677.677 0 0 0-.147-.097c.002-.36.277-.5.486-.655.3-.224.607-.497.972-.656.19-.083.445-.1.606-.22h.05c.004.227-.004.424-.074.584zm.486-1.432c-.052-.121-.153-.23-.219-.34-.192-.002-.236.03-.34.096-.011.161-.018.386.073.511v.025c-1.019.038-1.95.784-2.403 1.408-.215.294-.497.779-.195 1.19.284.386 1.117.171 1.481.024.767-.31 1.658-.673 1.87-1.529.068-.273-.055-.516-.073-.73l.244-.047v-.049a2.085 2.085 0 0 1-.317-.194c-.074-.093-.07-.25-.121-.365zm16.61-.704c.095.101.116.218.266.267.079.062.242.063.316 0 .202-.067.348-.403.341-.68-.158-.154-.223-.252-.56-.243-.188.178-.37.276-.364.656zM9.99 6.72c-.143.09-.452.007-.632.049-.508.116-1.022.16-1.504.315-1.363.44-2.7.863-3.959 1.385-.718.296-1.397.546-2.015.922-.705.43-1.59.835-1.773 1.773-.018.095.03.223.048.292.195.69.757.883 1.385 1.14.608.25 1.296.369 2.016.535.311.072.63.036.946.048.437.017 1.52.05 1.88.006l.451-.03c.42-.051.906-.067 1.287-.122l.351-.03s.656-.036.985-.066l.655.023c.124-.033.18-.128.267-.194.018-.223-.023-.287-.121-.437-.472-.12-1.168.012-1.675.073-.381.045-.938.074-1.068.097-.383.07-.778.05-1.166.073h-.486c-.358.04-.958.022-1.433 0-.356-.017-.685-.022-1.02-.073-.905-.137-1.723-.365-2.355-.826-.127-.091-.29-.252-.292-.363-.016-.76.85-1.088 1.337-1.385.637-.388 1.376-.618 2.112-.922 1.037-.43 2.145-.788 3.23-1.191.54-.199 1.12-.29 1.7-.436.139-.035.521-.097.63-.025.091.01.09.02.146.05a.628.628 0 0 1-.17.411l.025.074c.546.112 1.08-.238 1.068-.802-.254-.27-.342-.342-.85-.364zm31.982 2.914l.242-.219c.286-.378.636-.69.923-1.067.073-.067.145-.13.218-.194.245-.326.532-.599.776-.924.122-.16.342-.28.415-.486.066-.087.044-.26-.026-.34-.033-.047-.031-.05-.096-.072-.034-.025-.08-.025-.146-.025a6.54 6.54 0 0 0-1.092 1.117l-.34.315c-.217.289-.487.514-.706.803l-.728.728c-.516.682-1.207 1.211-1.722 1.894-.343.45-1.368 1.098-1.288 1.796h.024c.106.082.404.108.534.025.142-.09.263-.303.365-.436.206-.274.493-.526.728-.778.402-.433.832-.863 1.19-1.335.214-.285.508-.512.729-.802zm-17.412-.85l.39-.389c.351-.467.817-.848 1.164-1.311.144-.191.26-.397.413-.582 0-.071 0-.133-.025-.17-.037-.115-.113-.149-.242-.17-.123.087-.274.108-.388.194-.09.065-.127.176-.195.267-.134.18-.322.325-.462.51l-.218.195c-.358.474-.806.861-1.166 1.335-.154.153-.308.307-.46.461-.418.553-.943 1.002-1.36 1.554l-.438.438c-.33.438-.782.79-1.093 1.238-.076.108-.225.385-.096.534.046.097.137.086.218.145.442-.006.61-.346.802-.607.246-.337.548-.634.8-.97.36-.478.826-.88 1.19-1.36l.195-.17c.304-.403.666-.74.971-1.142zm14.57.437c.097-.088.195-.178.29-.268.28-.368.621-.716.948-1.043l.413-.39c.183-.24.39-.448.631-.63l.365-.388c.11-.084.241-.147.34-.243.1.008.09-.006.121.073.156.27-.504.537-.606.68l-.025.023a.247.247 0 0 1 .048.074c.388.08.641-.344.778-.607.057-.11.16-.323.05-.462-.093-.141-.245-.202-.488-.195l-.29.098a4.416 4.416 0 0 0-.657.413c-.167.122-.298.314-.462.437-.429.324-.84.76-1.165 1.19l-.242.218c-.326.431-.747.788-1.07 1.214-.376.5-.813.935-1.189 1.432l-.46.463c-.176.232-.529.63-.754.8-.352.267-.694.648-1.165.778-.458.126-.722-.279-.85-.51-.047-.082-.152-.259-.098-.364.084-.206.448-.114.608-.243h.024v-.05c-.653-.17-.895-.002-1.239.366.003.67.548 1.073 1.045 1.262.147.057.406.155.655.098.418-.098.744-.336 1.044-.559l.316-.316c.396-.3.768-.696 1.068-1.093.073-.063.146-.13.219-.194.349-.461.768-.85 1.117-1.31.202-.267.474-.482.68-.754zM.557 2.796h2.394v.346H.557v1.696H0v-3.71h3.018V1.5H.557z" mask="url(#b)"/>
    </g>
</svg>
