<svg xmlns="http://www.w3.org/2000/svg" width="45" height="45" viewBox="0 0 45 45">
    <g fill="none" fill-rule="evenodd">
        <path fill="#6031AD" d="M45 22.5C45 34.926 34.927 45 22.5 45S0 34.926 0 22.5 10.073 0 22.5 0 45 10.074 45 22.5"/>
        <path fill="#FFF" d="M29.736 16.52a1.257 1.257 0 1 1-2.514 0 1.257 1.257 0 0 1 2.514 0m-6.848 9.083a3.491 3.491 0 1 0 0-6.982 3.491 3.491 0 0 0 0 6.982m0-8.87a5.379 5.379 0 1 1-.001 10.758 5.379 5.379 0 0 1 0-10.758m0-3.208c-2.796 0-3.127.011-4.231.061-1.022.047-1.576.217-1.945.361-.49.19-.838.417-1.204.783a3.247 3.247 0 0 0-.784 1.204c-.143.37-.314.925-.361 1.946-.05 1.104-.06 1.435-.06 4.232s.01 3.128.06 4.233c.047 1.021.218 1.576.361 1.944.19.49.417.839.784 1.204.366.367.715.594 1.204.785.369.143.923.313 1.945.36 1.104.05 1.435.061 4.232.061s3.128-.01 4.232-.061c1.022-.047 1.576-.217 1.945-.36.49-.19.838-.418 1.204-.785.367-.365.594-.715.784-1.204.143-.368.314-.923.36-1.944.051-1.105.062-1.436.062-4.233 0-2.797-.01-3.128-.061-4.232-.047-1.021-.218-1.576-.361-1.946a3.247 3.247 0 0 0-.784-1.204 3.243 3.243 0 0 0-1.204-.783c-.369-.144-.923-.314-1.945-.36-1.104-.051-1.436-.062-4.232-.062m0-1.887c2.845 0 3.201.012 4.318.063 1.115.05 1.876.228 2.543.487a5.132 5.132 0 0 1 1.855 1.208 5.13 5.13 0 0 1 1.208 1.855c.259.666.436 1.427.487 2.542.05 1.118.063 1.475.063 4.32 0 2.843-.012 3.2-.063 4.318-.051 1.114-.228 1.876-.487 2.542a5.14 5.14 0 0 1-1.208 1.855 5.123 5.123 0 0 1-1.855 1.208c-.667.26-1.428.437-2.543.487-1.117.05-1.473.063-4.318.063-2.845 0-3.201-.012-4.319-.063-1.114-.05-1.875-.227-2.542-.487a5.123 5.123 0 0 1-1.855-1.208 5.14 5.14 0 0 1-1.208-1.855c-.26-.666-.436-1.428-.487-2.542-.05-1.118-.063-1.475-.063-4.319s.012-3.201.063-4.319c.051-1.115.228-1.876.487-2.542a5.13 5.13 0 0 1 1.208-1.855 5.132 5.132 0 0 1 1.855-1.208c.667-.259 1.428-.437 2.542-.487 1.118-.051 1.474-.063 4.319-.063"/>
    </g>
</svg>
