<svg xmlns="http://www.w3.org/2000/svg" xmlns:xlink="http://www.w3.org/1999/xlink" width="62" height="10" viewBox="0 0 62 10">
    <defs>
        <path id="a" d="M0 0h61.93v9.77H0z"/>
    </defs>
    <g fill="none" fill-rule="evenodd">
        <mask id="b" fill="#fff">
            <use xlink:href="#a"/>
        </mask>
        <path fill="#A3A3A3" d="M56.828 5.6s-1.138.324-1.17 1.3c0 0 .551.293 1.007-.098 0 0 .197-.911.163-1.202zM35.702 6.64c-.975 2.567.292 1.982.292 1.982.976-.585.976-1.333.976-1.333.032-.455-.487-1.235-.487-1.235-.358-.228-.781.586-.781.586zm-6.37.26c-.586 1.786.097 1.949.097 1.949.65-.033 1.17-1.235 1.17-1.235.164-.649-.553-1.462-.553-1.462-.422-.098-.714.748-.714.748zm1.008-2.08c-.39 1.104.422.259.422.259 2.015-1.04 2.015 1.073 2.015 1.073.39.52 1.17-.128 1.17-.128.39-.263.878-.75.878-.75 1.3-1.17 2.145-.292 2.145-.292.195.52.683.13.683.13 1.657-.487 1.331.779 1.331.779-.488.133-.227.683-.227.683.196.682 1.203-.39 1.203-.39.584-.16.294-.975.294-.975.031-.65.843-.39.843-.39.553.422 1.333.097 1.333.097 1.299-.064 1.169.618 1.169.618.487.49 0 1.04 0 1.04-.91.846-.942 1.788-.942 1.788C42.723 9.434 44.9 6.9 44.9 6.9c1.657-2.341 3.12-1.984 3.12-1.984 1.333-.03.975 1.984.975 1.984l1.657-1.528c.586-.813 1.43-.552 1.43-.552 1.82.454.455 2.696.455 2.696-.356.911.522.553.522.553.616-.877 2.08-2.243 2.08-2.243 2.338-2.143 3.508-1.623 3.508-1.623.911.194.13.909.13.909-.453.65-.13 1.82-.13 1.82l3.283.032-.975 1.139-2.762-.034c-.455.975-1.756.975-1.756.975-1.59-.162-1.722-1.461-1.722-1.461-.26-.034-1.17.974-1.17.974-.618.812-2.438.195-2.438.195-.974-.292-.356-1.852-.356-1.852-.294-.26-1.756 1.429-1.756 1.429-.812 1.203-1.853.715-1.853.715-1.236-.358-.487-1.851-.487-1.851.454-.749.326-.942.326-.942-.684.389-1.886 1.883-1.886 1.883-2.47 2.406-4.095.553-4.095.553-.78-1.17 1.007-2.697 1.007-2.697-.39-.294-.747.034-.747.034-1.105 2.013-3.12 1.818-3.12 1.818-.553.975-1.886 1.398-1.886 1.398-3.443.909-2.63-1.886-2.63-1.886-.88.26-1.01-.031-1.01-.031-.065.227-.682.324-.682.324s-1.298 1.756-2.795 1.787c-1.494.032-1.917-.844-1.689-2.307.226-1.463 2.176-4.323 2.176-4.323-.292.163-.617-.064-.617-.064-.26-.553 1.496-1.268 1.496-1.268 1.398-.618.941.292.941.292L30.34 4.82zm-14.366.584s.229-.941-2.373-.618c0 0-3.867.683-3.802 3.348 0 0 .39 2.112 2.633 1.106 0 0 1.462-.78 1.82-1.007 0 0 .13 1.69 1.852 1.527 0 0 1.138.097 2.178-1.3 0 0 1.04-1.333 1.268-1.267 0-.001.553-.066.194.519 0 0-.813 1.3.325 1.56 0 0 1.235.422 1.952-.682 0 0 1.103-1.69 1.753-1.69 0 0 .26.096-.162.683 0 0-.618 1.689 1.105 1.82 0 0 1.69.161 1.982-.585 0 0 .325-.717-.552-.26 0 0-1.202.714-.747-.359 0 0 1.82-2.373.064-3.023 0 0-.942-.422-1.625.065 0 0-1.007 1.073-1.462 1.138 0 0-.356.065-.423-.715 0 0-.358-1.169-1.819-.455 0 0-.943.815-2.666 2.894 0 0-1.592 1.623-1.17.031 0 0 1.138-1.789-.065-2.21 0 0-.682-.324-1.722.749 0 0-2.113 1.852-2.632 1.852 0 0-.65-.098.293-1.3 0 0 1.006-1.366 2.761-1.495 0 0 1.04 0 1.04-.326zm-8.06-3.413s.682-.097.52-.583c0 0-.845-.392-1.592.26 0 0-.293.52 1.072.323zm-2.925.26s-2.374.975-2.47 1.529c0 0-.455.683 1.333.519 0 0 5.362-.52 5.557 1.885 0 0 .065.975-.975 1.788 0 0-2.34 2.21-6.5 1.495 0 0-1.884-.13-1.82-1.234 0 0 .293-.521 1.007 0 0 0 3.803.974 5.623-.553 0 0 .812-.78.227-1.137 0 0-1.071-.553-2.503-.585 0 0-4.256.486-4.452-1.235 0-.001-.357-1.497 2.244-2.927 0 0 3.834-1.852 7.149-1.722 0 0 1.82-.488 1.95 1.04 0 0-.65 1.462-3.055 1.592 0 0-2.372.098-2.6-.487 0 0-.098-.162-.715.033z" mask="url(#b)"/>
    </g>
</svg>
