<svg xmlns="http://www.w3.org/2000/svg" xmlns:xlink="http://www.w3.org/1999/xlink" width="69" height="19" viewBox="0 0 69 19">
    <defs>
        <path id="a" d="M.576.136h57.399v11.091H.576z"/>
        <path id="c" d="M0 18.547h68.339V0H0z"/>
    </defs>
    <g fill="none" fill-rule="evenodd">
        <path fill="#A3A3A3" d="M22.47.126l-.764 1.867-.125.295c-.01.03-.03.08-.06.152l-.021.054-.022-.054-.06-.152-.121-.296-.769-1.866h-.63v2.93h.407V.642l.026.062.984 2.352h.378l.982-2.378.024-.063V3.057h.408V.125h-.637zM28.188.126v2.036c.002.267-.048.426-.118.473-.071.054-.302.095-.671.092-.342.003-.554-.038-.62-.094-.068-.048-.116-.205-.116-.47V.125h-.407v2.036l.002.095c-.002.31.078.536.252.657.17.119.472.17.91.17.47 0 .778-.053.943-.179.16-.127.232-.377.232-.743V.126h-.407zM33.684 1.549c-.14-.105-.424-.157-.871-.177-.373-.018-.605-.057-.66-.097-.053-.03-.096-.156-.095-.383 0-.197.047-.31.125-.355.078-.05.295-.084.628-.084.281 0 .459.035.512.084.057.042.101.175.099.404v.044h.408V.94c0-.339-.063-.566-.213-.686-.148-.114-.43-.158-.858-.16-.425.002-.709.054-.866.172-.158.123-.227.352-.227.683-.006.482.266.764.764.794l.315.015.336.019c.178.01.29.046.331.09.044.042.076.147.074.315.002.266-.045.42-.109.46-.06.052-.288.086-.653.084-.318.002-.516-.032-.57-.084-.056-.038-.104-.19-.103-.438V2.09h-.406l.006.173c0 .318.064.543.217.662.155.112.432.16.848.16.471 0 .784-.045.939-.16.16-.119.225-.36.225-.715 0-.328-.057-.549-.196-.66M37.265.124v2.932h1.917v-.359h-1.507v-.975h1.445v-.358h-1.445V.482h1.507V.124zM43.866.453c.387-.001.633.046.716.12.091.066.144.252.144.563l.004.27v.185c.001.583-.049.932-.11 1.003-.045.076-.308.138-.754.136-.447.002-.708-.06-.756-.136-.064-.071-.11-.42-.107-1.003-.003-.582.043-.932.107-1.006.048-.074.31-.135.756-.132M44.91.344c-.159-.174-.5-.246-1.042-.247-.47 0-.796.064-.98.215-.187.155-.274.425-.274.809l-.001.268v.202c0 .656.06 1.065.204 1.242.154.18.499.25 1.051.252.554-.002.899-.074 1.052-.252.143-.183.198-.6.2-1.28-.002-.633-.06-1.027-.21-1.209M4.378 13.264c-1.535 0-2.968-.392-3.927-1.08-.363-.256-.515-.55-.426-.818.082-.254.37-.446.673-.446a.67.67 0 0 1 .403.13c.742.559 2.797.927 3.829.927.038 0 .072 0 .107-.003 2.737-.08 3.915-1.794 4.294-2.53.392-.76.498-1.543.26-1.907-.194-.293-.605-.43-1.288-.43-.229 0-.457.015-.667.03l-.068.003c-.18.012-.348.027-.479.027l-.036-.003-.48-.003c-.985-.003-2.21-.009-2.98-.557-.378-.27-.564-.601-.552-.983.042-1.122 1.778-2.425 2.44-2.834C6.835 1.96 11.485 0 13.76 0c.336 0 .605.043.802.127.233.108.326.422.266.874-.104.76-.482 1.886-1.425 1.975-.09.007-.221.003-.278-.007-.884-.1-.292-.654-.202-.798.108-.179.228-.41.132-.53-.101-.133-.23-.147-.526-.147-1.644 0-6.016 2.057-6.73 2.611-.362.278-1.19.977-1.037 1.426.083.242.412.358 1.013.358h.055c.392-.017.908-.038 1.445-.038.806 0 1.522.046 2.193.137.814.111 1.345.49 1.575 1.117.408 1.1-.24 2.876-1.099 3.839-1.034 1.162-2.76 2.024-4.502 2.252a8.108 8.108 0 0 1-1.064.067"/>
        <g transform="translate(10.364 7.32)">
            <mask id="b" fill="#fff">
                <use xlink:href="#a"/>
            </mask>
            <path fill="#A3A3A3" d="M4.103 1.168c-.318.018-.672.283-.787.44-.052.077.013.241.203.438.262.275.761.466.761.466.25-.305.409-.827.312-1.08-.046-.121-.268-.282-.489-.264zm29.074.426c-.715 0-1.971.858-2.138 1.458-.057.188-.05.322.014.403.046.06.117.092.215.092.485 0 1.544-.797 1.556-.805.088-.069.893-.692.8-.907-.076-.153-.23-.24-.447-.24zm-30.633.758s-.922.982-.729 1.513c.073.202.386.314.835.145.315-.122.878-.656.878-.656s-.496-.228-.783-.535c-.263-.287-.27-.542-.27-.542l.07.075zM40 5.622l-.164.11c-1.008.668-1.82 1.411-2.356 2.15-.672.923-.71 1.56-.706 1.735.004.187.05.311.095.358l.002.002.013.015c.027.031.048.031.106.042a.594.594 0 0 0 .266-.107c.137-.095.308-.25.477-.44.333-.378.718-.945 1.119-1.643.324-.564.661-1.216 1.064-2.048l.084-.175zm-3.02 5.605h-.012a1.352 1.352 0 0 1-1.03-.502c-.229-.287-.353-.656-.36-1.092-.005-.76.309-1.583.936-2.451.705-.97 1.738-1.886 3.074-2.712.447-.276.943-.582 1.45-.888l.008-.007.01-.01a.136.136 0 0 0 .011-.022c.008-.013.016-.033.028-.057.016-.031.036-.074.067-.126l.093-.175-.168.105c-.32.2-.619.371-.889.51-.433.215-.903.424-1.414.44h-.02c-.102 0-.2-.012-.293-.029a1.38 1.38 0 0 1-.595-.273.9.9 0 0 1-.268-.407l-.022-.063-.056.035c-.928.543-2.315 1.268-3.623 1.305h-.046a3.26 3.26 0 0 1-.274-.013.903.903 0 0 1-.597-.286.884.884 0 0 1-.217-.586V3.89l-.03-.032a.169.169 0 0 0-.071-.014c-.125 0-.292.108-.503.244-.13.087-.276.182-.432.26-.507.262-.925.393-1.238.393a.7.7 0 0 1-.397-.102c-.444-.287-.376-.887-.279-1.163l.009-.025-.015-.039c-.007-.011-.023-.028-.06-.028-.046 0-.136.033-.376.13-1.822.74-3.097 1.055-3.336 1.11-.271.064-.476.104-.647.104-.272 0-.43-.104-.544-.361-.108-.243.011-.555.12-.831.094-.252.174-.47.042-.577a.317.317 0 0 0-.191-.052c-.657 0-2.541 1.105-2.788 1.26l-.03.022c-.242.158-.82.528-1.352.528-.19 0-.36-.049-.502-.142-.268-.186-.195-.543.244-1.196.018-.029.045-.064.072-.104.166-.221.282-.398.23-.509-.015-.032-.047-.07-.126-.077-.115 0-.295.11-.578.291-.13.085-.263.17-.38.231l-.067.038c-1.053.57-1.45.783-2.64 1.283-.136.06-.618.247-1.06.247-.38 0-.599-.145-.65-.426-.074-.403.091-.705.393-1.25.043-.084.095-.174.146-.269.008-.025.026-.07 0-.11a.083.083 0 0 0-.068-.03c-.103 0-.315.197-.783.45-3.17 1.71-4.328 1.78-4.603 1.78-.309 0-.534-.06-.67-.176-.203-.168-.15-.38-.116-.521.018-.078.027-.128.003-.166-.014-.012-.03-.03-.066-.03a.367.367 0 0 0-.126.041c-.138.07-.292.155-.456.244-.338.184-.72.39-1.038.525-.284.117-.659.25-1.022.25a1.19 1.19 0 0 1-.54-.124c-.444-.24-.437-.835-.332-1.086l.062-.146s-.211.096-.616.101a3.42 3.42 0 0 1-.84-.124s-.44.526-.747.765c-.206.162-.738.61-1.604.738a3.121 3.121 0 0 1-.347.026c-.435 0-.78-.133-.981-.387-.687-.865.119-2.058.427-2.533C3.141-.555 4.787.194 5.091.304c.655.234.819.735.331 1.973-.097.255-.306.538-.286.542.14.036.826.072 1.275-.225.048-.033.194-.22.699-.929.427-.611.881-.97 1.441-1.052.172-.024.395.03.5.166.061.08.072.193.036.332-.062.236-.152.345-.396.642-.124.146-.275.333-.48.605l-.049.054c-.315.407-.596.808-.507.998.025.043.073.095.192.095a.444.444 0 0 0 .09-.009c.703-.115 1.486-.605 1.914-1.011l.281-.263c.413-.39.603-.569.895-.887.205-.224.772-.686 1.218-.686.045 0 .091.007.134.016.32.08.505.21.55.396.064.227-.108.48-.268.632-.263.242-.41.372-.514.464-.123.113-.18.164-.29.282-.396.421-.52.592-.504.71.006.04.03.077.066.103a.401.401 0 0 0 .213.05c.487 0 1.44-.555 2.36-1.099.422-.247.821-.48 1.136-.633l.31-.157c.673-.335 1.203-.601 1.696-.644a.649.649 0 0 1 .072-.003c.316 0 .747.14.892.363.065.104.07.213.016.34a1.187 1.187 0 0 1-.089.144c-.332.544-.533.932-.439 1.092a.17.17 0 0 0 .13.05c.447 0 2.185-1.036 3.014-1.593.444-.331 1.016-.544 1.464-.544.243 0 .441.058.594.176.209.163.087.452-.031.737-.114.264-.218.512-.03.638a.152.152 0 0 0 .078.019c.244 0 1.012-.338 1.733-.665l.152-.069c.215-.096.429-.21.64-.323.533-.289 1.085-.585 1.666-.585.023 0 .047 0 .072.002.2.009.415.164.518.377.101.2.086.417-.04.595a8.765 8.765 0 0 0-.121.162c-.307.407-.578.788-.49 1.007.052.14.166.21.342.21.264 0 .653-.161 1.062-.332l.205-.086a40.92 40.92 0 0 0 2.354-1.077c.64-.308 1.194-.578 1.507-.683A4.376 4.376 0 0 1 33.687.5c.332 0 .558.062.656.182.108.13.222.194.356.194.081 0 .16-.024.245-.048.096-.026.184-.047.27-.047.043 0 .081.002.12.014a.463.463 0 0 1 .358.366.484.484 0 0 1-.158.484c-.064.045-.138.101-.218.157l-.013.008-.003.01a.54.54 0 0 1-.08.118c-.143.16-.458.554-.735.97a5.326 5.326 0 0 0-.366.608l-.045.09.101-.011c.674-.09 1.663-.485 2.644-1.062a20.484 20.484 0 0 0 2.21-1.487c.091-.073.141-.111.141-.111a.598.598 0 0 1 .8.04c.218.22.234.566.036.804-.187.227-.381.446-.556.64-.1.11-.192.216-.28.312-.05.056-.093.109-.134.161l-.114.14.17-.054c.092-.031.181-.066.277-.105.256-.113.573-.283.917-.496a19.85 19.85 0 0 0 1.73-1.202c.272-.208.448-.354.454-.356a.586.586 0 0 1 .377-.134c.13 0 .253.042.36.12a.6.6 0 0 1 .186.719c-.11.25-.224.499-.335.748l-.073.15.149-.083c.462-.268.858-.49 1.178-.662.322-.17.558-.293.762-.382l.01-.005.01-.007a.095.095 0 0 1 .028-.022C46.509.519 47.65.696 48.063.972c.447.301.374.695 0 .765-.188.034-.456-.055-.933-.03-.375.019-1.738.216-1.733 1.261 0 .217.19.332.454.332.336 0 .785-.196 1.06-.349.41-.226 1.042-.608 1.254-.617.368-.019.468.125.642.266.488.387 1.015-.159 1.52-.285.777-.196 3.313.101 4.21.144.842.039 1.645.108 2.385.204.836.106 1.056.254 1.053.317-.002.064-.26.213-1.04.272-.413.041-.78.01-1.22.01 0 0-3.743-.11-4.134-.142-.556-.045-.844-.115-1.287.218-.117.083-.547.357-1.221.393-.373.018-.67-.105-.84-.254 0 0-.131-.098-.25.012-.108.096-1.263.838-2.26.847a2.6 2.6 0 0 1-.698-.092c-.59-.165-.815-.87-.775-1.067l.022-.115-.1.058a113.313 113.313 0 0 0-2.275 1.337l-.008.007-.014.016c-.003.006-.008.018-.02.03-.013.03-.038.069-.06.12-.052.1-.118.235-.194.4-.066.135-.138.287-.217.457-.106.231-.23.49-.365.767-.431.902-1.013 2.061-1.652 3.037-.336.507-.794 1.142-1.347 1.555-.346.253-.664.374-1.002.381h-.04z" mask="url(#b)"/>
        </g>
        <path fill="#A3A3A3" d="M29.64 17.061c.082-.021.075-.124.548-.03.47.1.5.265.467.265-.107.003-.629-.22-1.123-.147-.197.03-.432.097-.548.312a.665.665 0 0 0-.088.33c.025.339.598.23.941.19.302-.034.648-.1.844-.136.102-.02.12.049.214-.006.09-.05.03-.281-.236-.241-.125.018-.726.124-.829.143-.108.02-.637.114-.657-.01-.031-.17.127-.305.318-.348.419-.088.937.076 1.007.1.045.014.249.064.371.015.09-.032.136-.2.06-.305a.963.963 0 0 0-.317-.261c-.289-.137-.724-.198-.994-.11-.115.039-.128.129-.103.175.036.057.109.073.124.064M31.352 17.21a4.08 4.08 0 0 1 .344-.084c.081-.01.105.09.029.2-.075.11-.393.406-.44.458-.048.054-.1.17.03.225.075.038.16 0 .236-.085.076-.086.455-.568.552-.635.098-.063.248-.174.375-.209.174-.047.232 0 .258-.047.02-.046-.008-.203-.361-.075-.358.128-.358.158-.358.158s.086-.21-.111-.206c-.197.007-.573.2-.6.23-.03.028 0 .08.046.07M34.51 15.493s-1.896 2.094-2.013 2.234c-.12.138-.112.251-.024.28.084.026.152.064.39-.258.238-.32 1.839-2.086 1.855-2.12.02-.037.194-.181.101-.275-.093-.094-.258.058-.309.139M35.055 17.032c-.054.028-.495.124-.713.258-.223.136-.501.346-.449.441.079.145.552-.098.653-.202.108-.103.257-.192.125-.685-.05-.184.047-.172.099-.18.05-.004.125.146.159.295.036.167.162.407-.103.66-.271.257-1.005.594-1.179.277-.17-.32.388-.747.613-.851.217-.104.3-.128.502-.128.203 0 .293.115.293.115M36.413 17.07c-.054-.006-.302.06-.398.237-.095.179-.097.483-.222.623-.053.056-.238.123-.38.08-.144-.04-.305-.198-.322-.278-.016-.083.078-.174.145-.1.064.079.261.24.351.156.088-.083.099-.418.268-.63.168-.208.424-.311.594-.277.214.04.24.229.165.338-.07.108-.214.076-.165-.012.046-.087.016-.13-.036-.136M28.198 15.783c-.268.006-.858.15-2.109.64-.388.15-1.382.515-1.382.888 0 .2.593.5 1.44.538.847.038 2.076-.13 2.16-.134.258-.006.258.318-.017.274-.263-.04-1.874.228-2.75.02-.625-.148-1.088-.328-1.088-.695 0-.368.644-.76 1.394-1.055 1.652-.653 2.24-.713 2.517-.713.365 0 .325.213.287.289-.05.095-.24.185-.378.17-.118-.013.197-.228-.074-.222M41.531 15.427c-.075.088-2.158 2.3-2.2 2.363-.042.06-.062.196-.026.211.038.016.173.052.235-.026.063-.076 1.047-1.158 1.163-1.282.436-.483.925-1.024 1-1.125.043-.058.018-.158-.03-.18-.047-.029-.124.015-.142.039M41.107 16.948c-.046.054-.716.744-.74.764-.023.02-.16.134-.044.27.096.106.201-.02.243-.057.098-.096.688-.765.713-.803.022-.042.017-.126-.01-.177-.031-.052-.116-.051-.162.003M41.886 17.106c-.014.018-.337.415-.426.507a6.001 6.001 0 0 0-.195.2c-.04.047-.044.139-.006.175.047.054.215.027.53-.128.315-.157 1.327-.698 1.35-.692.023.002-.126.405-.172.53-.004.017-.053.069-.057.082-.032.049-.027.086-.01.157.025.083.104.083.318-.043.323-.188.978-.732 1.377-.726.153.001.208.15.185.33-.007.071-.063.28-.087.325-.034.073-.075.162.02.188.094.031.138-.004.184-.061.105-.125.151-.359.156-.467.018-.315-.1-.62-.342-.614-.449.012-1.38.611-1.38.641 0 .038.239-.63.053-.654-.348-.04-1.44.642-1.458.627-.015-.013.015-.036.046-.071.208-.25.31-.341.259-.438-.085-.158-.404.015-.4.039.002.058.144.003.055.093M37.698 17.97c.361.03 1.19-1.031 1.584-1.474.391-.446 1.176-1.38 1.514-1.293.198.051.115.23.032.342 0 0-.165.21-.249.147-.082-.064.124-.094.188-.186.061-.096.061-.187-.04-.128-.105.065-.644.6-1.328 1.357-.533.585-1.13 1.348-1.535 1.44-.404.094-.776-.381-.686-.55.095-.166.426-.166.467-.111.041.05-.239.03-.252.111-.006.085.107.327.305.346M41.206 16.423s.062-.148.161-.16c.1-.011.226.086.189.172-.036.086-.077.214-.189.214-.108 0-.208-.128-.161-.226M11.145 16.612v.524h.729v.144h-.729v.692h-.172v-1.504h.92v.144zM13.21 16.468h.169v1.052c0 .19-.041.316-.115.376-.076.06-.236.09-.482.09-.232 0-.387-.03-.468-.086-.084-.056-.128-.165-.128-.33v-1.102h.173v1.052c0 .143.022.232.07.269.044.036.158.055.34.055.198 0 .32-.019.369-.054.047-.038.071-.125.071-.27v-1.052zM15.06 16.468v1.503h-.277l-.63-1.022-.104-.17-.05-.082-.052-.085h-.003v.056l.002.059v1.244h-.167v-1.503h.275l.55.896.146.236.068.116.07.119h.007l-.003-.056-.004-.057v-1.254zM15.63 17.827h.487c.181 0 .297-.034.35-.107.05-.072.077-.234.077-.482 0-.27-.02-.445-.067-.517-.045-.072-.152-.109-.325-.109h-.521v1.215zm-.17.143V16.47h.696c.213 0 .362.047.436.14.077.096.116.278.116.545 0 .326-.036.544-.102.653-.07.11-.203.163-.409.163h-.737zM17.92 17.525l-.334-.919-.329.92h.663zm.049.128h-.761l-.115.319h-.181l.552-1.504h.235l.563 1.504h-.177l-.116-.319zM19.514 17.468h.17v.057c0 .205-.036.331-.106.383-.07.052-.245.078-.525.078-.252 0-.413-.042-.478-.137-.07-.088-.105-.3-.105-.632 0-.26.008-.424.024-.494a.314.314 0 0 1 .132-.178c.085-.06.268-.093.55-.093.193 0 .321.03.388.09.065.059.1.175.1.344v.041h-.168l-.001-.046c0-.121-.02-.198-.059-.232-.04-.036-.13-.053-.265-.053-.242 0-.391.022-.444.06-.053.04-.081.153-.081.336 0 .421.02.671.055.744.034.071.157.108.366.108.201 0 .326-.017.376-.048.05-.032.074-.11.074-.238l-.003-.09z"/>
        <mask id="d" fill="#fff">
            <use xlink:href="#c"/>
        </mask>
        <path fill="#A3A3A3" d="M19.989 17.972h.167v-1.504h-.167zM21.3 16.053l.066.124-.339.167-.054-.086.327-.205zm-.193.543c-.237 0-.376.026-.415.08-.042.052-.063.234-.063.543 0 .31.02.492.063.544.039.053.178.08.415.08.24 0 .38-.027.421-.08.039-.052.058-.234.058-.544v-.241c0-.163-.028-.27-.086-.314-.054-.045-.184-.068-.393-.068zm.002-.144c.283 0 .46.042.533.123.072.086.108.292.108.621 0 .362-.035.583-.104.664-.07.085-.248.125-.537.125-.288 0-.468-.04-.536-.125-.071-.081-.105-.296-.105-.64v-.106l.002-.143c0-.2.046-.334.134-.408.093-.072.26-.111.505-.111zM23.338 16.468v1.503h-.278l-.628-1.022-.104-.17-.052-.082-.049-.085h-.004v.056l.002.059v1.244h-.17v-1.503h.277l.55.896.142.236.072.116.071.119h.004v-.056l-.003-.057v-1.254z" mask="url(#d)"/>
    </g>
</svg>
