<svg xmlns="http://www.w3.org/2000/svg" xmlns:xlink="http://www.w3.org/1999/xlink" width="95" height="60" viewBox="0 0 95 60">
    <defs>
        <path id="a" d="M0 59.74h95V0H0z"/>
    </defs>
    <g fill="none" fill-rule="evenodd">
        <path fill="#FF0007" d="M77.052 17.968c-1.852-1.853-4.085-2.761-6.626-2.761-2.536 0-4.734.908-6.539 2.76-1.853 1.854-2.755 4.093-2.755 6.676 0 2.587.902 4.825 2.755 6.635 1.805 1.855 4.003 2.798 6.539 2.798 2.54 0 4.774-.943 6.626-2.798 1.808-1.81 2.713-4.048 2.713-6.635 0-2.583-.905-4.822-2.713-6.675m-3.143 10.167c-.942.995-2.104 1.463-3.483 1.463-1.331 0-2.494-.468-3.44-1.463-.948-.99-1.464-2.158-1.464-3.492 0-1.417.516-2.583 1.464-3.532.946-.987 2.109-1.463 3.44-1.42 1.379-.043 2.54.433 3.525 1.42.904.949 1.377 2.115 1.424 3.532-.047 1.334-.52 2.501-1.466 3.492M11.528 10.6c-3.226-.041-5.895 1.078-8.13 3.402-2.28 2.283-3.398 5-3.398 8.232 0 3.183 1.117 5.988 3.397 8.272 2.236 2.236 4.905 3.357 8.13 3.357 2.583 0 4.949-.774 7.013-2.37 2.022-1.639 3.355-3.66 4.044-6.158h-4.688a8.127 8.127 0 0 1-2.54 2.973c-1.204.733-2.453 1.119-3.828 1.119-1.98 0-3.656-.733-5.035-2.114-1.416-1.418-2.105-3.096-2.065-5.08-.04-1.983.649-3.665 2.065-5.085 1.38-1.378 3.056-2.112 5.035-2.112 1.375 0 2.624.389 3.829 1.164 1.074.733 1.938 1.768 2.54 2.973h4.687c-.689-2.498-2.022-4.567-4.044-6.16-2.064-1.638-4.43-2.454-7.012-2.413M39.923 15.166c-3.013-.044-5.118.774-6.327 2.372-.771.987-1.157 2.283-1.286 3.92h4.473c.086-.774.346-1.293.646-1.637.471-.605 1.246-.912 2.369-.863.945-.049 1.675.125 2.19.43.514.26.732.777.776 1.51 0 .598-.345 1.08-1.035 1.38l-3.443.553c-1.59.221-2.877.604-3.87 1.17-1.676.99-2.493 2.58-2.447 4.87-.046 1.588.47 2.883 1.501 3.833.901.777 2.15 1.2 3.659 1.249 2.45-.049 4.386-.649 5.762-1.857v1.857h4.477V20.769c0-2.156-.781-3.661-2.24-4.44-1.549-.819-3.269-1.207-5.205-1.163zm1.895 10.122l.858-.468v1.809c0 1.546-.431 2.625-1.247 3.225-.86.605-1.764.908-2.798.908-.646 0-1.157-.173-1.59-.515-.428-.393-.647-.949-.647-1.768 0-.901.349-1.553 1.08-2.024.426-.26 1.157-.479 2.105-.604l2.24-.563z"/>
        <mask id="b" fill="#fff">
            <use xlink:href="#a"/>
        </mask>
        <path fill="#FF0007" d="M24.866 33.954h4.474V10.6h-4.474zM57.82 15.814c-1.202.47-2.278 1.293-3.185 2.539V16.07l-4.26-.038v17.92h4.433V25.38c0-1.467.174-2.498.56-3.146.301-.69.86-1.25 1.55-1.722.775-.52 1.59-.779 2.454-.779l1.374.09-.043-4.57-1.162.085-1.722.477zM80.535 15.9L91.337 5.084l-2.84-2.843-10.8 10.815zM68.965 11.593h4V0h-4zM82.52 24.388H94.35v-4.006H82.52z" mask="url(#b)"/>
        <path fill="#000" d="M34.077 55.126c-2.043 0-3.889-.224-5.534-1.87l2.12-2.12c1.072 1.072 2.469 1.224 3.464 1.224 1.124 0 2.296-.377 2.296-1.348 0-.647-.35-1.096-1.373-1.198l-2.044-.197c-2.343-.227-3.789-1.248-3.789-3.642 0-2.694 2.37-4.138 5.012-4.138 2.017 0 3.715.347 4.96 1.52l-1.994 2.018c-.746-.67-1.894-.87-3.017-.87-1.296 0-1.847.598-1.847 1.246 0 .474.2 1.021 1.348 1.122l2.046.2c2.567.246 3.865 1.619 3.865 3.812 0 2.87-2.446 4.241-5.513 4.241M46.749 44.752c-1.945 0-2.197 1.597-2.197 3.714 0 2.123.252 3.741 2.197 3.741 1.944 0 2.194-1.618 2.194-3.74 0-2.118-.25-3.715-2.194-3.715m4.112 9.201c-.724.724-1.897 1.174-3.165 1.174-1.322 0-2.295-.351-3.144-1.297v5.911h-3.24V41.984h3.14v1.221c.898-.996 1.873-1.369 3.244-1.369 1.268 0 2.441.446 3.165 1.17 1.298 1.297 1.322 3.516 1.322 5.46 0 1.947-.024 4.19-1.322 5.487M60.738 45.327c-.374-.376-.874-.574-1.52-.574-.65 0-1.124.198-1.497.574-.675.674-.75 1.796-.75 3.14 0 1.347.075 2.495.75 3.168.373.373.847.573 1.496.573.647 0 1.147-.2 1.521-.573.673-.673.749-1.82.749-3.168 0-1.344-.076-2.466-.749-3.14m2.517 8.203c-.797.846-2.12 1.596-4.038 1.596-1.92 0-3.217-.75-4.017-1.596-1.17-1.221-1.47-2.692-1.47-5.063 0-2.343.3-3.813 1.47-5.036.8-.848 2.096-1.595 4.017-1.595 1.919 0 3.24.747 4.038 1.595 1.173 1.223 1.473 2.693 1.473 5.036 0 2.371-.3 3.842-1.473 5.063M73.338 45.526c-.499-.5-.923-.774-1.719-.774-1 0-2.098.749-2.098 2.393v7.83h-3.24v-12.99h3.17v1.245c.622-.746 1.867-1.394 3.265-1.394 1.271 0 2.17.323 3.067 1.22l-2.445 2.47zM81.507 54.975c-2.644 0-3.763-1.87-3.763-3.712v-6.435H76.37v-2.47h1.374v-3.84h3.242v3.84h2.291v2.47h-2.291v6.232c0 .75.347 1.173 1.119 1.173h1.172v2.742h-1.77zM89.488 55.126c-2.046 0-3.892-.224-5.537-1.87l2.12-2.12c1.07 1.072 2.47 1.224 3.468 1.224 1.12 0 2.291-.377 2.291-1.348 0-.647-.346-1.096-1.371-1.198l-2.043-.197c-2.346-.227-3.792-1.248-3.792-3.642 0-2.694 2.37-4.138 5.012-4.138 2.022 0 3.717.347 4.966 1.52l-2 2.018c-.745-.67-1.893-.87-3.016-.87-1.296 0-1.843.598-1.843 1.246 0 .474.198 1.021 1.346 1.122l2.043.2c2.572.246 3.868 1.619 3.868 3.812 0 2.87-2.444 4.241-5.512 4.241" mask="url(#b)"/>
    </g>
</svg>
