<svg xmlns="http://www.w3.org/2000/svg" xmlns:xlink="http://www.w3.org/1999/xlink" width="40" height="40" viewBox="0 0 40 40">
    <defs>
        <path id="a" d="M0 0h40v40H0z"/>
        <path id="c" d="M0 40h40V0H0z"/>
    </defs>
    <g fill="none" fill-rule="evenodd">
        <mask id="b" fill="#fff">
            <use xlink:href="#a"/>
        </mask>
        <path fill="#000" d="M40 20c0 11.046-8.954 20-20 20C8.955 40 0 31.046 0 20S8.955 0 20 0c11.046 0 20 8.954 20 20" mask="url(#b)"/>
        <path fill="#FFF" d="M12.702 27.325c-.731 0-1.638-.393-1.638-1.877 0-1.483.907-1.87 1.638-1.87.506 0 .886.155 1.21.492l-.62.62c-.19-.205-.351-.29-.59-.29a.635.635 0 0 0-.52.24c-.14.176-.203.422-.203.808 0 .387.062.64.202.816a.637.637 0 0 0 .521.239c.239 0 .4-.084.59-.289l.62.612c-.324.337-.704.5-1.21.5"/>
        <mask id="d" fill="#fff">
            <use xlink:href="#c"/>
        </mask>
        <path fill="#FFF" d="M14.48 27.283h.914V23.62h-.914v3.662zm.457-4.12a.579.579 0 0 1-.576-.576c0-.316.26-.569.576-.569a.573.573 0 0 1 0 1.145zM18.402 27.283v-2.214c0-.5-.316-.668-.604-.668-.289 0-.612.168-.612.668v2.214h-.914V23.62h.893v.337c.24-.253.577-.38.914-.38.365 0 .66.12.864.324.296.295.373.64.373 1.04v2.34h-.914zM22.183 24.717a.636.636 0 0 0-.61-.38.636.636 0 0 0-.613.38 1.015 1.015 0 0 0-.084.394h1.392a1.005 1.005 0 0 0-.085-.394zm-1.307 1.02c0 .47.289.815.801.815.401 0 .598-.112.83-.345l.555.541c-.373.373-.731.577-1.392.577-.864 0-1.694-.394-1.694-1.877 0-1.195.647-1.87 1.596-1.87 1.019 0 1.595.746 1.595 1.75v.409h-2.291zM28.13 27.283v-2.214c0-.5-.316-.668-.605-.668-.28 0-.61.168-.61.647v2.235H26v-2.214c0-.5-.316-.668-.604-.668-.289 0-.612.168-.612.668v2.214h-.914V23.62h.892v.337c.24-.246.577-.38.914-.38.408 0 .739.148.971.464.309-.323.639-.463 1.097-.463.365 0 .695.12.899.323.295.295.4.64.4 1.04v2.34h-.913zM31.742 25.736h-.723c-.332 0-.514.155-.514.415 0 .253.169.422.527.422.254 0 .415-.021.577-.176.098-.091.133-.239.133-.463v-.198zm.021 1.547v-.317c-.246.246-.477.352-.9.352-.414 0-.717-.106-.934-.323-.197-.204-.303-.5-.303-.823 0-.583.4-1.061 1.251-1.061h.865v-.183c0-.4-.197-.576-.682-.576-.351 0-.513.084-.703.302l-.583-.57c.359-.393.71-.506 1.321-.506 1.027 0 1.561.436 1.561 1.294v2.41h-.893zM27.815 16.76a2.558 2.558 0 0 0-1.868-.778c-.715 0-1.334.256-1.843.778a2.569 2.569 0 0 0-.776 1.882c0 .729.254 1.36.776 1.87.51.523 1.128.789 1.843.789.716 0 1.346-.266 1.868-.789.51-.51.764-1.141.764-1.87a2.61 2.61 0 0 0-.764-1.882m-.886 2.866c-.266.28-.594.412-.982.412-.375 0-.703-.132-.97-.412a1.39 1.39 0 0 1-.412-.984c0-.4.146-.729.413-.996a1.24 1.24 0 0 1 .969-.4 1.29 1.29 0 0 1 .995.4c.254.267.387.596.4.996a1.447 1.447 0 0 1-.413.984M9.346 14.683c-.91-.012-1.662.304-2.292.96-.643.643-.958 1.408-.958 2.32 0 .897.315 1.688.958 2.33.63.632 1.382.948 2.292.948.727 0 1.394-.219 1.976-.669a3.29 3.29 0 0 0 1.14-1.736H11.14c-.17.34-.412.619-.715.838-.34.207-.691.316-1.08.316-.557 0-1.03-.206-1.418-.595a1.89 1.89 0 0 1-.583-1.433 1.893 1.893 0 0 1 .583-1.433 1.94 1.94 0 0 1 1.419-.594c.388 0 .74.108 1.079.327.303.207.546.498.715.838h1.322a3.244 3.244 0 0 0-1.14-1.736 3.028 3.028 0 0 0-1.976-.68M17.35 15.97c-.849-.012-1.444.219-1.784.668-.217.28-.326.645-.363 1.106h1.262a.81.81 0 0 1 .181-.461c.133-.171.352-.257.667-.244.268-.013.473.036.618.121.145.073.207.22.218.426 0 .17-.097.304-.29.389l-.97.156c-.45.062-.813.17-1.093.33-.471.278-.701.727-.689 1.372-.012.448.133.813.423 1.08.255.22.606.34 1.032.353.69-.013 1.236-.183 1.624-.523v.523h1.262v-3.717c0-.607-.22-1.032-.632-1.25a2.926 2.926 0 0 0-1.466-.329zm.533 2.853l.242-.132v.51c0 .436-.122.74-.35.91a1.33 1.33 0 0 1-.79.255.69.69 0 0 1-.448-.145c-.12-.11-.182-.268-.182-.498 0-.254.098-.437.303-.571.121-.073.327-.134.594-.17l.63-.159zM13.105 21.266h1.261v-6.582h-1.261zM22.394 16.153a2.024 2.024 0 0 0-.897.715v-.643l-1.201-.011v5.051h1.25V18.85c0-.414.049-.704.158-.887.084-.194.241-.352.436-.485a1.22 1.22 0 0 1 .691-.22l.387.026-.01-1.289-.328.025-.486.134zM28.797 16.177l3.045-3.048-.802-.801-3.043 3.047zM25.535 14.963h1.128v-3.268h-1.128zM29.355 18.57h3.336v-1.13h-3.336z" mask="url(#d)"/>
        <path fill="#E1251B" d="M20 2.678c-9.552 0-17.323 7.77-17.323 17.322S10.448 37.322 20 37.322 37.322 29.552 37.322 20 29.552 2.678 20 2.678m0 36.115C9.637 38.793 1.207 30.363 1.207 20 1.207 9.638 9.637 1.207 20 1.207c10.362 0 18.793 8.43 18.793 18.793 0 10.362-8.43 18.793-18.793 18.793" mask="url(#d)"/>
    </g>
</svg>
