<svg xmlns="http://www.w3.org/2000/svg" xmlns:xlink="http://www.w3.org/1999/xlink" width="39" height="40" viewBox="0 0 39 40">
    <defs>
        <path id="a" d="M0 39.163h38.095V0H0z"/>
    </defs>
    <g fill="none" fill-rule="evenodd">
        <path fill="#211F1F" d="M35.011 16.586c0 9.16-7.426 16.586-16.586 16.586-9.16 0-16.586-7.426-16.586-16.586C1.84 7.426 9.265 0 18.425 0c9.16 0 16.586 7.425 16.586 16.586M1.983 39.138L.86 37.36v1.78H0v-3.544h.753l1.12 1.78v-1.78h.862v3.543zM4.619 39.163c-.374 0-.688-.117-.942-.35-.254-.234-.381-.54-.381-.922v-2.295h.86v2.275c0 .163.04.29.121.38a.43.43 0 0 0 .342.137.456.456 0 0 0 .345-.134c.084-.09.127-.217.127-.383v-2.275h.86v2.295c0 .378-.128.684-.385.92a1.35 1.35 0 0 1-.947.352M6.513 39.138v-3.543h2.38v.776h-1.52v.591h1.3v.775h-1.3v.626h1.52v.775zM10.413 39.163c-.292 0-.543-.034-.755-.102a1.383 1.383 0 0 1-.573-.365l.551-.556a.753.753 0 0 0 .337.188c.14.04.288.06.446.06.334 0 .501-.106.501-.318 0-.09-.017-.152-.052-.189a.344.344 0 0 0-.105-.08.487.487 0 0 0-.143-.034l-.423-.06c-.311-.046-.547-.152-.706-.315-.159-.164-.238-.4-.238-.708 0-.328.114-.597.344-.805.23-.209.54-.313.935-.313.259 0 .482.032.671.096.188.065.358.174.51.326l-.542.547a.68.68 0 0 0-.24-.155 1.019 1.019 0 0 0-.36-.054h-.064c-.141 0-.247.032-.318.097a.305.305 0 0 0-.105.231c0 .036.005.067.018.092.01.025.029.05.053.075a.345.345 0 0 0 .091.064c.036.018.085.03.148.037l.423.06c.308.043.523.125.644.246.122.12.203.245.243.373.041.127.063.277.063.45 0 .344-.13.615-.387.814-.258.198-.58.298-.967.298M13.759 36.37v2.768h-.861v-2.767h-.861v-.776h2.583v.776zM16.38 36.376h-.487v.715h.487a.358.358 0 1 0 0-.715zm.423 2.762l-.62-1.321h-.29v1.321h-.861v-3.542h1.387c.374 0 .667.111.878.335.212.224.317.49.317.802a.955.955 0 0 1-.167.57 1.09 1.09 0 0 1-.402.354l.757 1.481h-.999z"/>
        <path fill="#211F1F" d="M19.425 36.937l-.315.944h.61l-.295-.944zm.684 2.201l-.163-.531H18.87l-.172.531h-.9l1.274-3.542h.664l1.274 3.542h-.9zM23.72 39.138h-.64l-1.156-3.543h.89l.59 1.978.58-1.978h.896z"/>
        <mask id="b" fill="#fff">
            <use xlink:href="#a"/>
        </mask>
        <path fill="#211F1F" d="M25.146 39.138h.86v-3.542h-.86zM27.625 39.163c-.292 0-.544-.034-.755-.102a1.38 1.38 0 0 1-.573-.365l.55-.556a.753.753 0 0 0 .338.188c.139.04.287.06.445.06.334 0 .501-.106.501-.318 0-.09-.017-.152-.051-.189a.346.346 0 0 0-.106-.08.478.478 0 0 0-.142-.034l-.423-.06c-.312-.046-.547-.152-.706-.315-.16-.164-.239-.4-.239-.708 0-.328.115-.597.344-.805.23-.209.541-.313.935-.313.26 0 .483.032.672.096.188.065.358.174.509.326l-.541.547a.68.68 0 0 0-.241-.155 1.019 1.019 0 0 0-.36-.054h-.064c-.14 0-.247.032-.317.097a.305.305 0 0 0-.106.231c0 .036.006.067.017.092a.27.27 0 0 0 .055.075.345.345 0 0 0 .09.064c.037.018.086.03.149.037l.422.06c.308.043.523.125.645.246.121.12.202.245.243.373.041.127.062.277.062.45 0 .344-.129.615-.387.814-.257.198-.58.298-.966.298M29.455 39.138h.86v-3.542h-.86zM32.5 36.495a.347.347 0 0 0-.14-.112.481.481 0 0 0-.205-.042.416.416 0 0 0-.352.164.555.555 0 0 0-.09.246 4.2 4.2 0 0 0-.03.614c0 .297.01.501.03.61.019.11.049.19.088.242a.436.436 0 0 0 .354.17c.151 0 .258-.04.32-.123a.665.665 0 0 0 .123-.289c.02-.109.03-.313.03-.61 0-.295-.01-.5-.03-.612a.589.589 0 0 0-.098-.258m.634 2.27a1.34 1.34 0 0 1-.432.299 1.4 1.4 0 0 1-.547.1c-.39 0-.692-.109-.905-.324-.213-.215-.338-.425-.374-.628a5.163 5.163 0 0 1-.054-.847c0-.378.017-.664.052-.858a.955.955 0 0 1 .275-.516c.15-.151.303-.26.46-.326.158-.066.34-.1.546-.1.39 0 .693.108.905.324.213.215.338.424.374.628.036.204.054.487.054.848 0 .377-.017.662-.051.856a1.034 1.034 0 0 1-.303.545M35.978 39.138l-1.122-1.779v1.78h-.861v-3.544h.752l1.122 1.78v-1.78h.861v3.543z" mask="url(#b)"/>
        <path fill="#FFF" d="M30.01 26.03h-4.454l-8.05-18.2h6.2l4.112 10.159 4.042-10.16h6.235z" mask="url(#b)"/>
        <path fill="#EB0D6C" d="M14.938 26.032l-7.812-9.14v9.14H1.13V7.83h5.243l7.812 9.14V7.83h5.995v18.203z" mask="url(#b)"/>
    </g>
</svg>
