<svg xmlns="http://www.w3.org/2000/svg" xmlns:xlink="http://www.w3.org/1999/xlink" width="47" height="30" viewBox="0 0 47 30">
    <defs>
        <path id="a" d="M0 29.477h46.875V0H0z"/>
    </defs>
    <g fill="none" fill-rule="evenodd">
        <path fill="#FF0007" d="M38.019 8.866c-.914-.914-2.016-1.363-3.27-1.363-1.25 0-2.335.449-3.226 1.363-.914.914-1.36 2.019-1.36 3.293 0 1.277.446 2.381 1.36 3.274.89.915 1.975 1.38 3.227 1.38 1.253 0 2.355-.465 3.269-1.38.892-.893 1.339-1.997 1.339-3.274 0-1.274-.447-2.379-1.34-3.293m-1.55 5.016c-.465.491-1.038.722-1.718.722-.657 0-1.231-.23-1.698-.722-.468-.488-.722-1.065-.722-1.723 0-.699.254-1.274.722-1.743a2.171 2.171 0 0 1 1.698-.7c.68-.022 1.253.213 1.74.7.445.469.678 1.044.702 1.743a2.542 2.542 0 0 1-.724 1.723M5.688 5.23c-1.591-.02-2.909.532-4.012 1.679C.551 8.035 0 9.376 0 10.971c0 1.57.551 2.954 1.676 4.081 1.103 1.103 2.42 1.657 4.012 1.657 1.274 0 2.441-.382 3.46-1.17a5.772 5.772 0 0 0 1.995-3.038H8.83a4.01 4.01 0 0 1-1.253 1.467c-.594.362-1.21.552-1.889.552-.976 0-1.804-.362-2.484-1.043-.699-.7-1.04-1.528-1.02-2.506-.02-.98.321-1.81 1.02-2.51.68-.68 1.508-1.042 2.484-1.042.679 0 1.295.192 1.89.574.53.362.956.873 1.252 1.467h2.313c-.34-1.232-.997-2.253-1.995-3.04-1.019-.808-2.186-1.21-3.46-1.19M19.699 7.483c-1.487-.021-2.526.382-3.122 1.17-.38.488-.571 1.127-.634 1.935h2.207c.042-.382.17-.638.318-.808.233-.298.615-.45 1.17-.426.466-.024.826.062 1.08.212.253.128.36.384.383.746 0 .295-.17.532-.51.68l-1.7.273c-.785.11-1.42.298-1.91.578-.826.488-1.23 1.273-1.207 2.402-.022.784.232 1.423.74 1.892.446.383 1.062.592 1.806.616 1.21-.024 2.164-.32 2.843-.916v.916h2.21v-6.505c0-1.064-.386-1.807-1.106-2.19-.764-.405-1.613-.596-2.568-.575zm.935 4.995l.423-.231v.892c0 .763-.213 1.296-.615 1.592-.424.298-.87.448-1.38.448a1.21 1.21 0 0 1-.785-.255c-.211-.193-.32-.468-.32-.872 0-.445.173-.766.533-.999.21-.128.571-.236 1.04-.297l1.104-.278z"/>
        <mask id="b" fill="#fff">
            <use xlink:href="#a"/>
        </mask>
        <path fill="#FF0007" d="M12.27 16.754h2.207V5.23h-2.208zM28.53 7.803c-.594.232-1.125.638-1.572 1.253V7.929l-2.102-.018v8.842h2.188v-4.23c0-.724.085-1.233.276-1.553.148-.34.424-.616.765-.85a2.138 2.138 0 0 1 1.21-.384l.678.044-.02-2.255-.574.043-.85.235zM39.738 7.845l5.33-5.336-1.401-1.403-5.33 5.337zM34.029 5.72h1.974V0h-1.974zM40.717 12.033h5.837v-1.976h-5.837z" mask="url(#b)"/>
        <path fill="#000" d="M16.814 27.2c-1.008 0-1.919-.11-2.73-.923l1.046-1.046c.529.53 1.218.604 1.709.604.554 0 1.133-.185 1.133-.664 0-.32-.173-.541-.677-.592l-1.01-.097c-1.155-.112-1.869-.616-1.869-1.797 0-1.329 1.17-2.042 2.473-2.042.996 0 1.834.172 2.448.75l-.984.996c-.368-.331-.935-.43-1.489-.43-.64 0-.911.296-.911.616 0 .234.098.503.665.553l1.01.098c1.266.122 1.906.8 1.906 1.882 0 1.416-1.206 2.092-2.72 2.092M23.067 22.082c-.96 0-1.084.787-1.084 1.832 0 1.048.124 1.846 1.084 1.846.959 0 1.082-.798 1.082-1.846 0-1.045-.123-1.832-1.082-1.832m2.03 4.54c-.358.357-.937.579-1.563.579-.652 0-1.132-.174-1.551-.64v2.917h-1.598v-8.762h1.549v.602c.443-.491.924-.675 1.6-.675.626 0 1.205.22 1.562.577.64.64.652 1.735.652 2.694 0 .96-.012 2.068-.652 2.708M29.97 22.365c-.185-.185-.432-.283-.751-.283-.32 0-.554.098-.738.283-.333.333-.37.886-.37 1.55s.037 1.23.37 1.563c.184.184.418.282.738.282.319 0 .566-.098.75-.282.333-.332.37-.899.37-1.563 0-.664-.037-1.217-.37-1.55m1.242 4.048c-.393.418-1.045.787-1.992.787-.948 0-1.588-.37-1.982-.787-.577-.603-.725-1.328-.725-2.498 0-1.156.148-1.882.725-2.485.394-.419 1.034-.787 1.982-.787.947 0 1.599.368 1.992.787.58.603.727 1.329.727 2.485 0 1.17-.148 1.895-.727 2.498M36.187 22.464c-.247-.247-.456-.382-.849-.382-.493 0-1.035.369-1.035 1.18v3.864h-1.599v-6.41h1.564v.615c.307-.369.922-.688 1.612-.688.627 0 1.07.16 1.513.602l-1.206 1.219zM40.217 27.126c-1.304 0-1.856-.922-1.856-1.832v-3.175h-.678V20.9h.678v-1.894h1.6V20.9h1.13v1.22h-1.13v3.074c0 .37.17.58.551.58h.579v1.352h-.874zM44.155 27.2c-1.01 0-1.92-.11-2.732-.923l1.046-1.046c.529.53 1.219.604 1.711.604.553 0 1.131-.185 1.131-.664 0-.32-.17-.541-.677-.592l-1.008-.097c-1.157-.112-1.87-.616-1.87-1.797 0-1.329 1.168-2.042 2.472-2.042.998 0 1.834.172 2.45.75l-.986.996c-.368-.331-.934-.43-1.488-.43-.64 0-.91.296-.91.616 0 .234.098.503.665.553l1.007.098c1.27.122 1.91.8 1.91 1.882 0 1.416-1.207 2.092-2.72 2.092" mask="url(#b)"/>
    </g>
</svg>
