<svg xmlns="http://www.w3.org/2000/svg" width="45" height="45" viewBox="0 0 45 45">
    <g fill="none" fill-rule="evenodd">
        <path fill="#6031AD" d="M45 22.5C45 34.926 34.927 45 22.5 45S0 34.926 0 22.5 10.073 0 22.5 0 45 10.074 45 22.5"/>
        <path fill="#FFF" d="M30.521 18.023c.262 5.786-4.08 12.236-11.763 12.236-2.337 0-4.513-.682-6.344-1.849a8.355 8.355 0 0 0 6.127-1.703 4.138 4.138 0 0 1-3.866-2.857 4.17 4.17 0 0 0 1.869-.07c-1.991-.398-3.364-2.18-3.32-4.085a4.12 4.12 0 0 0 1.875.514 4.101 4.101 0 0 1-1.28-5.491 11.77 11.77 0 0 0 8.53 4.298c-.604-2.574 1.36-5.05 4.031-5.05 1.19 0 2.266.498 3.02 1.298a8.307 8.307 0 0 0 2.629-.999 4.127 4.127 0 0 1-1.82 2.276 8.333 8.333 0 0 0 2.377-.648 8.387 8.387 0 0 1-2.065 2.13"/>
    </g>
</svg>
