<svg xmlns="http://www.w3.org/2000/svg" xmlns:xlink="http://www.w3.org/1999/xlink" width="32" height="32" viewBox="0 0 32 32">
    <defs>
        <path id="a" d="M0 .34h30.86V31.2H0z"/>
    </defs>
    <g fill="none" fill-rule="evenodd" opacity=".5">
        <path fill="#FFF" d="M15.43 16.23a3.912 3.912 0 0 0 3.91-3.91c0-2.183-1.726-3.96-3.91-3.96a3.966 3.966 0 0 0-3.96 3.96c0 2.134 1.777 3.91 3.96 3.91M15.43 17.043c-3.656 0-6.65 2.996-6.65 6.652 0 .254.202.406.456.406h12.39c.253 0 .456-.203.456-.406-.05-3.656-2.996-6.652-6.652-6.652"/>
        <g transform="translate(0 .461)">
            <mask id="b" fill="#fff">
                <use xlink:href="#a"/>
            </mask>
            <path fill="#FFF" d="M15.43 1.939c-7.625 0-13.83 6.204-13.83 13.83 0 7.627 6.205 13.83 13.83 13.83 7.626 0 13.83-6.203 13.83-13.83 0-7.626-6.204-13.83-13.83-13.83m0 29.26C6.922 31.2 0 24.28 0 15.77 0 7.261 6.922.34 15.43.34c8.51 0 15.43 6.922 15.43 15.43 0 8.51-6.92 15.43-15.43 15.43" mask="url(#b)"/>
        </g>
    </g>
</svg>
