<svg xmlns="http://www.w3.org/2000/svg" xmlns:xlink="http://www.w3.org/1999/xlink" width="90" height="93" viewBox="0 0 90 93">
    <defs>
        <path id="a" d="M0 92.523h90V0H0z"/>
    </defs>
    <g fill="none" fill-rule="evenodd">
        <path fill="#211F1F" d="M82.713 39.184c0 21.641-17.543 39.184-39.183 39.184-21.641 0-39.184-17.543-39.184-39.184C4.346 17.542 21.889 0 43.53 0c21.64 0 39.183 17.542 39.183 39.184M4.684 92.464l-2.65-4.202v4.202H0v-8.37h1.778l2.649 4.202v-4.202H6.46v8.37zM10.912 92.523c-.883 0-1.625-.276-2.225-.828-.6-.551-.901-1.277-.901-2.177v-5.423H9.82v5.376c0 .384.094.683.285.897.19.216.458.324.807.324.34 0 .612-.106.814-.317.201-.212.302-.513.302-.904v-5.376h2.033v5.423c0 .892-.303 1.616-.911 2.171-.608.557-1.354.834-2.238.834M15.387 92.464v-8.37h5.624v1.832h-3.59v1.397h3.068v1.83H17.42v1.48h3.59v1.831zM24.601 92.523c-.69 0-1.283-.08-1.783-.241-.5-.16-.951-.447-1.354-.863l1.301-1.314c.201.204.467.352.797.446.33.094.68.141 1.052.141.79 0 1.185-.25 1.185-.752 0-.211-.041-.36-.123-.445a.812.812 0 0 0-.248-.189 1.15 1.15 0 0 0-.338-.081l-1-.142c-.735-.109-1.291-.358-1.667-.745-.376-.387-.563-.945-.563-1.672 0-.776.27-1.41.813-1.903.542-.493 1.278-.739 2.208-.739.612 0 1.14.076 1.587.228.444.154.846.41 1.202.77l-1.278 1.29a1.608 1.608 0 0 0-.57-.363c-.225-.086-.507-.13-.848-.13h-.151c-.334 0-.584.077-.75.23a.72.72 0 0 0-.25.546c0 .086.013.158.042.218.026.058.069.116.127.175.058.059.129.11.215.153.084.043.2.072.349.088l.998.14c.73.103 1.237.297 1.523.582.287.285.48.579.575.88.097.3.147.655.147 1.062 0 .815-.305 1.456-.914 1.925-.608.47-1.37.705-2.284.705M32.505 85.926v6.538H30.47v-6.538h-2.034v-1.832h6.102v1.832zM38.698 85.937h-1.15v1.691h1.15c.271 0 .487-.084.645-.252a.839.839 0 0 0 .24-.594.838.838 0 0 0-.885-.845zm1 6.527l-1.464-3.122h-.687v3.122h-2.034v-8.37h3.278c.883 0 1.575.265 2.074.792.5.53.749 1.16.749 1.896 0 .525-.13.973-.395 1.344-.262.373-.58.653-.951.84l1.789 3.498h-2.36z"/>
        <path fill="#211F1F" d="M45.891 87.264l-.743 2.23h1.441l-.698-2.23zm1.616 5.2l-.383-1.255h-2.545l-.407 1.255h-2.126l3.009-8.37h1.569l3.01 8.37h-2.127zM56.037 92.464h-1.511l-2.73-8.37h2.103l1.394 4.673 1.37-4.673h2.117z"/>
        <mask id="b" fill="#fff">
            <use xlink:href="#a"/>
        </mask>
        <path fill="#211F1F" d="M59.407 92.465h2.034v-8.37h-2.034zM65.264 92.523c-.69 0-1.285-.08-1.784-.241-.5-.16-.952-.447-1.354-.863l1.302-1.314c.2.204.466.352.796.446.328.094.68.141 1.052.141.79 0 1.184-.25 1.184-.752 0-.211-.04-.36-.122-.445a.816.816 0 0 0-.25-.189 1.128 1.128 0 0 0-.336-.081l-1-.142c-.734-.109-1.291-.358-1.666-.745-.377-.387-.564-.945-.564-1.672 0-.776.27-1.41.812-1.903.544-.493 1.279-.739 2.208-.739.613 0 1.14.076 1.588.228.445.154.846.41 1.202.77l-1.278 1.29a1.608 1.608 0 0 0-.57-.363c-.225-.086-.507-.13-.848-.13h-.152c-.332 0-.583.077-.75.23a.72.72 0 0 0-.248.546c0 .086.012.158.04.218.026.058.07.116.128.175.059.059.13.11.215.153.085.043.2.072.349.088l.998.14c.729.103 1.237.297 1.523.582.287.285.478.579.575.88.097.3.147.655.147 1.062 0 .815-.305 1.456-.914 1.925-.608.47-1.37.705-2.283.705M69.587 92.465h2.034v-8.37h-2.034zM76.78 86.22a.82.82 0 0 0-.33-.265 1.136 1.136 0 0 0-.483-.1 1.1 1.1 0 0 0-.477.1.984.984 0 0 0-.353.288c-.099.124-.17.318-.216.581-.046.262-.071.745-.071 1.45 0 .703.025 1.185.07 1.443.046.259.117.448.211.57a1.062 1.062 0 0 0 .836.404c.356 0 .608-.096.755-.293.147-.195.245-.422.29-.681.046-.258.071-.74.071-1.443 0-.697-.025-1.178-.07-1.444-.046-.266-.125-.47-.233-.61m1.5 5.365c-.31.312-.651.546-1.022.703a3.306 3.306 0 0 1-1.29.235c-.923 0-1.636-.254-2.14-.763-.503-.51-.797-1.003-.883-1.485-.085-.48-.128-1.148-.128-2.001 0-.893.04-1.567.124-2.026.08-.458.296-.864.649-1.22.353-.357.714-.613 1.085-.77.374-.156.805-.233 1.292-.233.921 0 1.636.253 2.138.762.503.509.798 1.003.884 1.485.084.482.127 1.149.127 2.002 0 .892-.04 1.566-.122 2.024-.082.459-.32.886-.714 1.287M84.997 92.464l-2.65-4.202v4.202h-2.034v-8.37h1.778l2.65 4.202v-4.202h2.034v8.37z" mask="url(#b)"/>
        <path fill="#FFF" d="M70.9 61.496H60.376l-19.019-43h14.65L65.72 42.5l9.55-24.002H90z" mask="url(#b)"/>
        <path fill="#EB0D6C" d="M35.292 61.501L16.836 39.908v21.593H2.67V18.497h12.385L33.511 40.09V18.497h14.165V61.5z" mask="url(#b)"/>
    </g>
</svg>
