<svg xmlns="http://www.w3.org/2000/svg" width="45" height="45" viewBox="0 0 45 45">
    <g fill="none" fill-rule="evenodd">
        <path fill="#6031AD" d="M45 22.5C45 34.926 34.926 45 22.5 45 10.073 45 0 34.926 0 22.5S10.073 0 22.5 0C34.926 0 45 10.074 45 22.5"/>
        <path fill="#FFF" d="M33.905 17.48s-.228-1.596-.924-2.299c-.886-.923-1.878-.927-2.333-.98-3.257-.235-8.143-.235-8.143-.235h-.01s-4.886 0-8.143.234c-.456.054-1.447.058-2.333.981-.697.703-.924 2.3-.924 2.3s-.233 1.874-.233 3.748v1.758c0 1.875.233 3.75.233 3.75s.227 1.595.924 2.298c.886.923 2.05.894 2.567.99 1.862.178 7.914.234 7.914.234s4.891-.008 8.148-.242c.455-.054 1.447-.059 2.333-.982.696-.703.924-2.299.924-2.299s.233-1.874.233-3.749V21.23c0-1.874-.233-3.749-.233-3.749zm-13.808 7.636l-.001-6.508 6.289 3.266-6.288 3.242z"/>
    </g>
</svg>
