<svg xmlns="http://www.w3.org/2000/svg" xmlns:xlink="http://www.w3.org/1999/xlink" width="29" height="29" viewBox="0 0 29 29">
    <defs>
        <path id="a" d="M.17 14.117c0 7.792 6.317 14.108 14.109 14.108s14.108-6.316 14.108-14.108C28.387 6.326 22.071.01 14.28.01 6.487.009.171 6.326.171 14.117z"/>
    </defs>
    <g fill="none" fill-rule="evenodd">
        <mask id="b" fill="#fff">
            <use xlink:href="#a"/>
        </mask>
        <path fill="#74ACDF" d="M-19.595 35.288h67.748V21.174h-67.748zM-19.595 7.06h67.748V-7.054h-67.748z" mask="url(#b)"/>
        <path fill="#FFF" d="M8.507 13.997l3.318-.124a2.335 2.335 0 0 0-.479-.071c-.275-.021-.56-.043-.955-.245-.502-.257-.766-.246-.999-.235-.123.005-.24.01-.378-.025-.3-.075-.47-.244-.5-.369-.017-.067.01-.103.027-.117.06-.054.12 0 .169.043.064.055.152.133.305.145.075.005.167-.005.276-.017.301-.034.714-.08 1.19.169.309.161.608.172.925.184.14.005.284.012.43.03L8.9 12.017c-.007-.002-.074-.031-.097-.087a.109.109 0 0 1 0-.082.105.105 0 0 1 .058-.057c.056-.024.124.003.132.006l3.114 1.155c-.137-.108-.274-.177-.415-.248-.247-.125-.502-.254-.79-.592-.366-.43-.613-.52-.832-.6-.116-.043-.226-.082-.34-.167-.249-.184-.34-.405-.322-.532.011-.069.049-.091.072-.098.073-.027.11.045.138.103a.49.49 0 0 0 .228.252c.066.033.156.06.26.09.291.083.691.198 1.035.611.224.267.496.392.784.524.128.059.257.12.386.193l-2.199-2.37s-.023-.024-.039-.055c-.026-.052-.02-.102.016-.138.035-.036.085-.041.137-.015a.246.246 0 0 1 .057.04l2.435 2.26a2.375 2.375 0 0 0-.289-.39c-.18-.209-.366-.426-.502-.848-.174-.538-.368-.716-.54-.873-.09-.083-.177-.163-.25-.284-.159-.266-.16-.505-.093-.615.036-.058.08-.065.103-.064.079.005.084.085.088.15a.495.495 0 0 0 .114.319c.049.056.121.114.206.182.238.19.563.449.724.961.103.333.307.552.523.784.095.103.191.21.282.326l-1.124-3.03a.25.25 0 0 1-.015-.066c-.004-.058.02-.103.066-.122.076-.031.142.029.17.099l1.386 3.018c-.021-.173-.069-.319-.118-.47-.086-.262-.175-.534-.14-.976.046-.563-.066-.803-.164-1.013a1.238 1.238 0 0 1-.123-.359c-.044-.305.047-.527.15-.603.056-.04.099-.03.12-.02.071.035.045.11.024.172a.494.494 0 0 0-.017.339c.024.07.068.152.12.246.147.267.349.63.3 1.166-.031.346.074.627.184.925.049.13.097.266.136.408l.121-3.229c0-.007.002-.08.045-.123a.103.103 0 0 1 .075-.031c.082 0 .12.08.12.156l.124 3.319c.047-.168.059-.321.071-.479.02-.276.043-.561.245-.956.257-.503.246-.766.236-.998-.006-.124-.011-.24.024-.379.075-.3.244-.47.369-.5.049-.011.091-.002.118.028.052.059 0 .119-.043.168a.494.494 0 0 0-.146.306c-.005.074.005.167.017.274.034.302.081.715-.169 1.192-.161.308-.172.607-.184.924a4.81 4.81 0 0 1-.03.43l1.347-2.937c.001-.002.014-.031.036-.059.039-.043.087-.058.134-.038.046.02.071.064.066.122a.226.226 0 0 1-.015.068l-1.155 3.114c.107-.137.176-.274.248-.416.125-.246.254-.501.592-.789.43-.366.52-.613.6-.832.042-.116.082-.226.167-.34.185-.248.406-.34.533-.321.067.01.09.048.098.07.026.076-.046.111-.104.14-.076.037-.182.089-.252.226-.034.067-.06.156-.09.26-.083.292-.198.692-.612 1.036-.266.223-.391.496-.523.784a4.78 4.78 0 0 1-.193.385l2.37-2.197c.004-.005.057-.056.118-.056.029 0 .055.011.074.031.036.036.042.086.016.138a.228.228 0 0 1-.04.057l-2.26 2.435c.152-.085.27-.186.39-.288.21-.18.425-.367.848-.504.538-.173.716-.367.873-.539.084-.09.162-.177.285-.25.264-.159.504-.16.614-.093.059.036.065.08.064.103-.005.08-.085.084-.15.089a.483.483 0 0 0-.318.114c-.057.047-.116.12-.183.205-.19.237-.45.563-.962.723-.332.104-.551.308-.784.524-.102.096-.209.191-.326.282l3.031-1.124c.006-.002.074-.03.13-.006a.104.104 0 0 1 .058.058c.031.075-.03.14-.098.17l-3.019 1.385c.174-.021.319-.07.47-.118.262-.086.534-.175.976-.14.564.046.802-.066 1.013-.164.112-.052.218-.102.358-.122.306-.046.528.045.604.149.04.056.03.099.02.12-.035.071-.11.045-.172.024a.494.494 0 0 0-.339-.017c-.07.023-.152.068-.247.12-.265.147-.63.35-1.164.3-.348-.03-.628.074-.925.184a5.518 5.518 0 0 1-.408.136l3.228.121c.01.004.08.002.124.045.02.02.03.046.03.075 0 .082-.08.12-.156.12l-3.318.125c.167.046.32.058.479.07.275.021.56.043.955.245.502.258.766.246.998.236.124-.006.241-.011.379.024.3.075.47.244.5.37.017.065-.01.101-.027.117a.08.08 0 0 1-.054.022c-.041 0-.081-.036-.115-.065a.491.491 0 0 0-.306-.145 1.493 1.493 0 0 0-.275.016c-.301.035-.715.08-1.191-.168-.308-.162-.607-.173-.924-.185a4.836 4.836 0 0 1-.43-.031l2.937 1.349c.007.001.074.031.097.088.01.026.01.054 0 .08-.02.047-.063.072-.122.067a.226.226 0 0 1-.068-.016l-3.114-1.154c.137.107.274.176.415.248.247.125.502.254.79.592.366.43.613.52.832.6.116.042.226.083.34.167.249.185.34.406.322.533-.011.068-.049.09-.072.098a.083.083 0 0 1-.03.005c-.054 0-.084-.06-.108-.11-.038-.076-.09-.182-.228-.25-.066-.034-.156-.06-.26-.09-.292-.085-.69-.2-1.035-.612-.224-.267-.496-.392-.784-.524a5.065 5.065 0 0 1-.386-.193l2.199 2.37c.004.004.055.057.055.118a.1.1 0 0 1-.032.075c-.035.035-.085.04-.137.015a.264.264 0 0 1-.057-.041l-2.435-2.258c.086.152.185.268.289.389.18.209.366.425.502.848.173.537.368.716.54.873.09.084.177.162.25.284.159.265.16.505.093.615-.033.055-.074.064-.097.064h-.006c-.079-.005-.084-.085-.088-.15a.491.491 0 0 0-.114-.319c-.049-.056-.122-.114-.206-.181-.238-.19-.562-.45-.724-.962-.103-.333-.307-.552-.523-.785a5.025 5.025 0 0 1-.282-.325l1.124 3.03a.22.22 0 0 1 .015.067c.004.058-.02.102-.067.121-.046.02-.094.005-.133-.039a.219.219 0 0 1-.036-.06l-1.386-3.017c.021.172.069.318.118.469.086.262.175.534.14.976-.046.564.066.802.164 1.013.052.112.101.218.123.359.044.305-.047.527-.15.603a.131.131 0 0 1-.079.029.1.1 0 0 1-.041-.01c-.071-.034-.046-.11-.024-.172.027-.08.065-.19.017-.337a1.594 1.594 0 0 0-.12-.248c-.147-.266-.348-.63-.3-1.165.031-.346-.074-.628-.184-.925a5.004 5.004 0 0 1-.136-.409l-.121 3.23c0 .007-.002.08-.045.123a.102.102 0 0 1-.075.03c-.083 0-.12-.08-.12-.154l-.124-3.32c-.047.168-.059.32-.07.48-.022.275-.044.56-.246.955-.257.502-.246.765-.236.998.006.124.011.24-.024.379-.075.3-.244.47-.369.5-.066.016-.102-.01-.118-.028-.053-.06 0-.12.043-.168.057-.064.134-.152.145-.306a1.488 1.488 0 0 0-.016-.274c-.034-.302-.081-.716.169-1.191.161-.31.172-.608.184-.925.005-.14.013-.283.03-.43l-1.347 2.937c-.003.006-.032.074-.088.097a.121.121 0 0 1-.04.008.109.109 0 0 1-.042-.009c-.046-.018-.071-.063-.066-.12a.242.242 0 0 1 .015-.07l1.155-3.113a2.347 2.347 0 0 0-.248.416c-.125.246-.254.502-.592.788-.43.366-.52.614-.6.833-.042.116-.082.226-.167.34-.185.248-.405.342-.533.321-.067-.01-.09-.048-.098-.07-.026-.075.046-.11.104-.139.077-.038.182-.09.252-.227.034-.067.059-.156.09-.26.083-.292.198-.692.612-1.037.266-.222.391-.495.523-.783.058-.127.12-.257.193-.385l-2.37 2.198c-.004.004-.057.055-.118.055a.106.106 0 0 1-.075-.031c-.058-.058-.028-.142.026-.195l2.258-2.435a2.354 2.354 0 0 0-.388.289c-.21.18-.427.366-.849.502-.538.173-.716.368-.873.54a1.204 1.204 0 0 1-.285.25c-.265.158-.504.16-.614.093-.059-.036-.065-.08-.064-.103.005-.08.085-.085.15-.089.085-.005.202-.012.318-.113.058-.048.116-.122.183-.206.19-.238.45-.562.962-.723.332-.104.551-.308.783-.524.103-.095.21-.19.326-.282l-3.03 1.124a.233.233 0 0 1-.067.015h-.012c-.051 0-.091-.024-.109-.067-.031-.076.03-.14.098-.17l3.019-1.385a2.379 2.379 0 0 0-.47.118c-.262.086-.534.175-.976.14-.563-.046-.802.065-1.013.164-.112.052-.218.101-.358.122-.307.045-.528-.046-.604-.15-.04-.054-.03-.098-.02-.119.035-.07.111-.045.172-.025.081.028.192.066.339.018.07-.023.152-.069.247-.121.265-.147.63-.347 1.165-.3.346.032.627-.072.924-.183.132-.05.267-.097.409-.136l-3.229-.122a.183.183 0 0 1-.124-.044.105.105 0 0 1-.03-.076c0-.081.08-.119.156-.119zm-28.102 7.177h67.747V7.06h-67.747v14.114z" mask="url(#b)"/>
        <path fill="#F6B40E" d="M12.684 15.927l-.073-.066-1.141 1.061 1.061-1.142a4.874 4.874 0 0 1-.062-.068l-2.288 2.467c-.008.008-.042.049-.028.063.027.005.052-.016.062-.026l2.47-2.29zM11.921 15.896c.134-.114.263-.225.438-.318l-.056-.075c-.567.305-.802.758-1.313.791.578-.16.773-.57 1.247-.892l-.055-.09a3.8 3.8 0 0 0-.424.352c-.24.224-.467.434-.82.545-.485.151-.734.464-.916.691-.07.089-.13.165-.194.22a.578.578 0 0 1-.375.135c-.021.002-.048.003-.062.007.006.001.016.01.035.018.073.032.258.045.502-.1.11-.067.181-.144.263-.234.166-.18.353-.384.914-.565.404-.13.614-.31.816-.485M13.405 16.367l-.648 1.416.543-1.46c-.028-.012-.055-.026-.083-.04l-1.17 3.156c-.004.01-.02.06 0 .068.024-.006.04-.035.046-.047l1.404-3.06-.092-.033M12.073 17.387c.473-.37.496-.823.811-1.3a2.165 2.165 0 0 1-.084-.064 3.707 3.707 0 0 0-.257.488c-.137.298-.266.58-.55.817-.39.326-.5.71-.581.99-.032.108-.058.202-.096.276a.585.585 0 0 1-.294.269.49.49 0 0 0-.055.03c.007-.001.018.003.04.003h.002c.079 0 .255-.06.422-.285a1.14 1.14 0 0 0 .155-.316c.083-.23.178-.49.627-.872.323-.276.448-.522.569-.76a2.32 2.32 0 0 1 .283-.46l-.081-.05c-.408.5-.451 1.007-.91 1.234M15.443 19.308c-.018-.127-.063-.222-.114-.333-.104-.22-.221-.472-.173-1.06.033-.423-.052-.685-.135-.94a2.32 2.32 0 0 1-.126-.524c-.03.008-.06.016-.092.022.066.64.393 1.031.229 1.516.073-.595-.231-.932-.347-1.493l-.104.016c.04.186.101.359.163.526.114.307.222.598.19.965-.046.507.147.856.288 1.112.054.099.101.184.127.263a.577.577 0 0 1-.018.398c-.006.02-.015.047-.017.06.003-.005.015-.01.03-.025.056-.055.14-.222.1-.503M15.34 16.284c-.029.014-.058.029-.088.042l.543 1.46-.649-1.418a1.4 1.4 0 0 1-.086.033l1.404 3.057c.004.01.03.057.048.049.018-.008.003-.058-.001-.067l-1.17-3.156zM13.493 17.982c.294-.523.143-.949.251-1.51a2.188 2.188 0 0 1-.102-.028c-.035.189-.044.371-.051.55-.012.328-.024.637-.195.964-.236.45-.191.847-.159 1.137.013.112.024.21.017.292a.577.577 0 0 1-.168.361.409.409 0 0 0-.04.049c.005-.003.018-.004.04-.012.071-.029.213-.152.282-.426.03-.125.027-.23.021-.352-.01-.243-.023-.52.246-1.045.194-.378.215-.654.235-.92.014-.175.027-.344.084-.533l-.092-.014c-.186.616-.032 1.102-.37 1.487M14.333 16.53l-.057 1.557-.057-1.557c-.031 0-.062-.003-.092-.005l.127 3.363c0 .01.004.063.025.063.02 0 .025-.052.025-.062l.127-3.364a2.048 2.048 0 0 1-.098.005M10.434 13.473c.378.194.653.215.92.235.175.013.344.026.533.084l.015-.092c-.617-.185-1.103-.032-1.488-.37.522.295.949.144 1.51.252l.028-.102a3.852 3.852 0 0 0-.55-.051c-.328-.012-.637-.023-.964-.195-.45-.236-.847-.191-1.137-.159-.112.013-.21.024-.292.018-.186-.014-.291-.108-.361-.17-.017-.013-.038-.032-.049-.038.003.004.004.017.012.037.029.073.151.215.426.284.124.031.23.027.352.021.244-.01.52-.023 1.045.246M8.506 14.142l3.364.127c-.001-.033-.004-.065-.004-.098l-1.557-.057 1.557-.057.004-.092-3.362.127c-.011 0-.063.004-.063.025.014.02.047.025.061.025" mask="url(#b)"/>
        <path fill="#85340A" d="M13.193 12.103l.026-.013a.115.115 0 0 1 .017-.008l.025-.012c.03-.015.059-.03.089-.043.037-.017.076-.032.114-.046l.086-.032c.015-.005.03-.012.045-.016l.028-.008.045-.012.092-.023a1.89 1.89 0 0 1 .132-.027c.035-.006.072-.012.108-.016.01-.001.018-.004.028-.004l.019-.003.028-.001.019-.001c.01 0 .02 0 .029-.002l.098-.005c.02 0 .038-.003.058-.003.022 0 .043.003.065.004.03 0 .06.002.091.004l.048.003.03.001.045.007c.032.003.062.009.093.014a1.9 1.9 0 0 1 .239.052l.027.008.018.004.029.008a.112.112 0 0 0 .017.006l.027.01c.03.01.061.022.092.034a1.617 1.617 0 0 1 .197.087l.042.02.027.013.04.024.08.049a2.807 2.807 0 0 1 .2.14l.022.016.016.012a.444.444 0 0 1 .022.018l.013.013.022.019a2.9 2.9 0 0 1 .16.153l.061.068c.01.012.022.023.032.036a.444.444 0 0 1 .018.022c.01.011.018.025.029.036l.056.076c.027.037.052.074.076.113.019.03.038.06.056.093l.015.024.01.017.011.025c.004.006.006.011.008.017l.014.026c.014.029.029.058.042.088a2.457 2.457 0 0 1 .078.201c.005.015.012.029.016.044l.008.028c.005.015.008.03.012.046a1.716 1.716 0 0 1 .05.224l.016.107.004.028c0 .007.002.012.003.018l.001.03c0 .006 0 .012.002.018l.001.028.005.098c0 .02.003.039.003.06l-.003.063-.006.093c0 .016 0 .031-.002.047v.029l-.008.046-.014.093a2.384 2.384 0 0 1-.052.239l-.007.027a.584.584 0 0 1-.005.018l-.008.028a.152.152 0 0 1-.006.018l-.01.027c-.01.03-.022.061-.034.092a2.04 2.04 0 0 1-.047.113l-.04.083-.02.043-.013.027-.024.04c-.015.027-.033.053-.049.08a2.178 2.178 0 0 1-.14.2c-.006.008-.01.016-.017.023-.004.004-.007.01-.01.015l-.019.022a.22.22 0 0 0-.013.014l-.019.02-.066.074-.088.086a1.747 1.747 0 0 1-.068.063l-.034.031-.023.019c-.012.01-.025.018-.037.027a1.873 1.873 0 0 1-.281.189l-.024.015-.016.01-.026.012-.017.008-.025.012a2.271 2.271 0 0 1-.203.089c-.028.012-.057.022-.086.032-.015.005-.03.012-.045.016l-.028.008-.045.011a1.968 1.968 0 0 1-.224.05 2.393 2.393 0 0 1-.108.017l-.028.005-.019.002c-.009 0-.02 0-.028.002h-.019l-.029.002a2.048 2.048 0 0 1-.098.005c-.02 0-.038.003-.058.003-.022 0-.043-.003-.065-.003l-.091-.005c-.016 0-.033 0-.048-.002l-.03-.002-.045-.007-.093-.014c-.045-.008-.09-.015-.133-.025a1.611 1.611 0 0 1-.133-.035l-.018-.004-.029-.008-.017-.006c-.009-.003-.018-.008-.027-.01a2.304 2.304 0 0 1-.206-.08l-.083-.04-.042-.022-.027-.012-.04-.024a2.207 2.207 0 0 1-.08-.05 1.752 1.752 0 0 1-.2-.139l-.022-.016-.016-.012-.022-.018-.014-.013-.02-.02a2.277 2.277 0 0 1-.222-.222c-.01-.01-.022-.02-.032-.033a.444.444 0 0 1-.018-.022l-.029-.038-.056-.075a2.185 2.185 0 0 1-.076-.113c-.019-.03-.038-.061-.056-.093l-.015-.024-.01-.016-.011-.026-.01-.017-.012-.026c-.014-.029-.029-.058-.042-.088a2.175 2.175 0 0 1-.078-.2l-.016-.045-.008-.028-.012-.045a2.328 2.328 0 0 1-.067-.332c0-.01-.002-.019-.003-.028-.001-.006-.003-.012-.003-.019L12 14.321c0-.006 0-.013-.002-.019v-.028c-.003-.033-.005-.065-.006-.098 0-.02-.003-.04-.003-.059 0-.022.003-.043.003-.065L12 13.96c0-.015 0-.031.002-.047v-.03l.008-.045.014-.093a2.5 2.5 0 0 1 .052-.238l.007-.029a.584.584 0 0 0 .005-.018l.008-.027.006-.017.01-.028c.01-.03.022-.06.034-.092.015-.038.03-.076.047-.114l.04-.083.02-.042.013-.027.024-.04c.015-.027.032-.053.049-.08.023-.038.049-.076.074-.113l.065-.088.018-.021.01-.015.019-.023.013-.013c.005-.008.013-.015.019-.022a1.905 1.905 0 0 1 .222-.221l.034-.032.023-.019.037-.028a2.702 2.702 0 0 1 .281-.188l.024-.015.016-.01zm-4.608 3.08c-.015-.016-.02-.027-.025-.03a.41.41 0 0 1 .06.017c.088.03.221.075.398.018a1.7 1.7 0 0 0 .263-.129c.255-.14.605-.333 1.112-.288.367.034.658-.075.965-.19.167-.061.339-.122.526-.163.004.035.01.07.017.105-.562.116-.899.42-1.494.347.485.164.875-.163 1.515-.229.007.031.015.06.024.091a2.36 2.36 0 0 0-.526.127c-.254.083-.516.168-.94.134-.587-.047-.838.07-1.06.174a1.14 1.14 0 0 1-.332.114c-.282.042-.448-.042-.503-.099zm.304 1.166c-.008-.018.039-.043.049-.047l3.057-1.403.032.086-1.417.648 1.46-.542c.012.03.028.058.042.087l-3.156 1.17c-.009.004-.059.02-.067.001zm1.303.597c-.082.09-.154.168-.264.233-.244.146-.43.133-.502.1-.02-.007-.029-.017-.035-.017.013-.003.041-.005.063-.007.092-.006.233-.014.374-.136.063-.054.124-.13.195-.219.181-.227.43-.54.916-.691.353-.11.58-.321.82-.545a3.79 3.79 0 0 1 .423-.352l.055.09c-.474.322-.669.732-1.247.892.51-.033.746-.486 1.313-.791.018.026.038.05.057.075-.176.093-.305.204-.439.318-.202.174-.412.355-.816.485-.561.18-.748.385-.913.565zm-.012 1.233l2.289-2.468c.021.024.04.047.063.07l-1.063 1.14 1.142-1.06.073.066-2.469 2.29c-.01.009-.035.03-.061.025-.015-.015.018-.055.026-.063zm2.602-1.516c-.121.238-.245.485-.569.76-.45.382-.544.642-.627.872a1.14 1.14 0 0 1-.155.316c-.167.225-.343.285-.422.285h-.003c-.022 0-.033-.004-.039-.003a.335.335 0 0 1 .055-.03.582.582 0 0 0 .294-.269c.037-.074.064-.168.095-.277.081-.28.192-.663.582-.989.284-.237.413-.519.55-.816.074-.163.153-.328.257-.49l.084.065c-.315.477-.338.93-.811 1.3.46-.226.503-.734.91-1.234l.082.049a2.315 2.315 0 0 0-.283.46zm-.736 2.843c-.018-.007-.003-.057.001-.068l1.17-3.154.083.04-.543 1.46.648-1.417.092.033-1.404 3.06c-.005.013-.022.04-.047.046zm1.824-2.464c-.02.267-.04.542-.235.92-.269.525-.256.801-.246 1.045.005.122.01.227-.021.351-.07.275-.21.398-.283.427-.021.008-.034.008-.039.012a.505.505 0 0 1 .04-.05.577.577 0 0 0 .169-.36 1.748 1.748 0 0 0-.017-.292c-.033-.29-.078-.687.158-1.137.172-.327.183-.637.195-.964.006-.178.017-.36.05-.549.035.01.069.018.103.026-.108.563.044.989-.252 1.511.338-.385.185-.87.37-1.488.03.006.062.01.093.014a2.329 2.329 0 0 0-.085.534zm.409 2.909c-.02 0-.025-.052-.025-.064l-.127-3.362.092.005.057 1.557.057-1.557a2 2 0 0 0 .098-.005l-.127 3.364c0 .01-.005.062-.025.062zm1.053-.175a.582.582 0 0 0 .017-.398 1.653 1.653 0 0 0-.128-.263c-.14-.255-.333-.605-.288-1.111.033-.368-.074-.66-.189-.966a3.747 3.747 0 0 1-.163-.526c.035-.004.07-.01.104-.016.116.56.42.897.347 1.493.164-.485-.163-.875-.23-1.515.032-.007.062-.016.093-.024.018.197.071.359.126.526.083.254.168.516.135.94-.048.588.07.838.173 1.06.05.11.095.205.114.332.042.28-.043.448-.098.503-.016.015-.028.02-.03.025 0-.013.01-.04.017-.06zm1.18-.269c-.018.008-.044-.039-.048-.05L15.06 16.4l.087-.031.648 1.417-.543-1.46c.03-.013.06-.028.089-.043l1.17 3.157c.004.01.019.06 0 .067zm.829-1.04c.146.244.132.43.1.503-.008.02-.016.029-.017.035-.003-.013-.005-.041-.006-.062-.007-.093-.015-.234-.137-.375a1.56 1.56 0 0 0-.218-.194c-.229-.182-.54-.431-.692-.916-.11-.353-.321-.58-.544-.82a3.8 3.8 0 0 1-.352-.424c.03-.017.06-.036.09-.055.321.474.73.668.89 1.248-.033-.512-.485-.747-.79-1.314l.075-.056c.094.174.203.304.319.438.174.202.353.412.484.816.181.56.385.748.565.914.09.082.167.152.233.263zm1-.251l-2.467-2.29.068-.061 1.142 1.061-1.061-1.142.065-.072 2.29 2.469c.01.01.03.036.026.061-.014.014-.054-.019-.063-.026zm-.756-2.033c.382.45.642.544.871.627.115.043.214.078.317.155.228.169.287.346.285.424 0 .022-.005.034-.003.04-.008-.01-.02-.036-.03-.054-.041-.084-.103-.21-.269-.294a1.676 1.676 0 0 0-.276-.097c-.28-.08-.664-.191-.99-.581-.237-.284-.52-.413-.817-.55a3.904 3.904 0 0 1-.488-.257c.022-.028.043-.056.063-.085.478.316.931.34 1.301.812-.226-.46-.735-.504-1.234-.911.017-.027.033-.053.048-.08.154.125.305.202.462.282.238.12.484.245.76.57zm2.084.166c-.008.02-.058.003-.069 0l-3.154-1.17.04-.083 1.46.543-1.417-.648.034-.092 3.059 1.403c.012.006.04.023.047.047zm-.148-1.321c.275.069.397.21.426.284.008.02.009.033.012.037-.011-.006-.032-.025-.049-.039a.577.577 0 0 0-.36-.168c-.084-.007-.18.004-.293.017-.29.032-.686.077-1.137-.16-.327-.17-.637-.182-.965-.194a3.852 3.852 0 0 1-.549-.05c.01-.034.02-.069.027-.103.562.108.99-.043 1.511.251-.385-.338-.87-.184-1.488-.369l.015-.093c.189.059.359.072.533.084.267.02.542.042.92.236.525.268.802.257 1.045.246.122-.005.228-.01.352.02zm.592-.91c0 .02-.052.024-.063.024l-3.363.127.005-.092 1.557-.057-1.557-.057c0-.033-.003-.065-.005-.098l3.364.127c.01 0 .062.005.062.025zm-.14-1.067c.015.016.02.028.026.03-.014 0-.04-.01-.06-.016a.577.577 0 0 0-.399-.019c-.079.026-.164.073-.263.128-.256.141-.605.333-1.112.289-.367-.034-.658.075-.965.19a3.854 3.854 0 0 1-.526.162c-.004-.035-.01-.07-.016-.105.56-.115.898-.418 1.493-.346-.485-.165-.875.164-1.515.229l-.023-.091c.196-.019.358-.072.525-.126.254-.083.516-.17.94-.136.587.048.838-.07 1.06-.172.11-.052.205-.097.332-.116.282-.04.448.044.503.1zm-.304-1.166c.008.019-.039.043-.049.047l-3.057 1.404c-.01-.03-.02-.058-.032-.087l1.416-.649-1.458.544-.043-.089 3.156-1.17c.009-.004.059-.019.067 0zm-1.303-.597c.082-.09.154-.167.264-.233.243-.146.43-.132.502-.101.02.008.029.017.035.018-.013.004-.042.005-.063.007a.578.578 0 0 0-.374.135c-.063.055-.124.131-.195.22-.182.227-.43.54-.916.691-.353.11-.58.322-.82.545-.13.12-.266.243-.423.351l-.055-.09c.474-.32.669-.73 1.247-.891-.51.033-.746.486-1.314.791a1.344 1.344 0 0 0-.056-.075c.176-.093.305-.204.439-.318.202-.174.411-.354.816-.484.561-.181.748-.386.913-.566zm.012-1.233l-2.289 2.467a1.73 1.73 0 0 0-.062-.068l1.061-1.142-1.142 1.061c-.023-.023-.047-.044-.072-.066l2.469-2.29c.01-.01.036-.029.06-.025.016.014-.017.054-.025.063zm-2.602 1.516c.121-.239.246-.485.569-.76.45-.382.544-.642.627-.871a1.14 1.14 0 0 1 .155-.317c.17-.228.349-.285.425-.285.022 0 .033.005.039.003-.01.008-.035.02-.054.03-.084.041-.211.103-.295.27-.038.073-.064.167-.096.275-.08.28-.19.664-.581.99-.285.237-.413.519-.55.817a3.85 3.85 0 0 1-.257.488 2.165 2.165 0 0 0-.084-.064c.315-.478.338-.93.81-1.3-.46.227-.502.735-.91 1.234l-.08-.049c.126-.153.202-.305.282-.461zm.736-2.844c.018.008.003.058-.001.068l-1.17 3.155a8.336 8.336 0 0 0-.083-.04l.543-1.46-.649 1.417a4.324 4.324 0 0 0-.091-.034l1.404-3.059c.003-.009.027-.055.047-.047zm-1.824 2.465c.02-.266.04-.542.235-.92.268-.524.256-.801.246-1.045a1.138 1.138 0 0 1 .021-.352c.07-.275.21-.397.283-.426.021-.008.034-.008.038-.012a.628.628 0 0 1-.039.049.577.577 0 0 0-.169.361c-.006.082.005.18.017.292.033.29.078.686-.158 1.137-.172.327-.183.637-.194.965a3.97 3.97 0 0 1-.051.548c-.035-.01-.069-.019-.103-.026.108-.562-.044-.989.252-1.511-.338.385-.185.871-.37 1.488a1.78 1.78 0 0 0-.093-.014c.058-.19.071-.36.085-.534zm-.409-2.91c.02 0 .025.053.025.065l.127 3.362-.092-.005-.057-1.557-.057 1.557c-.033 0-.066.003-.098.005l.127-3.364c0-.01.005-.062.025-.062zm-1.053.175c-.03.089-.075.222-.017.399.026.079.073.164.127.263.14.255.334.605.289 1.111-.034.369.074.659.189.966.062.167.123.34.163.526l-.104.016c-.116-.56-.42-.897-.347-1.494-.164.486.164.876.229 1.516-.031.007-.061.016-.092.024a2.317 2.317 0 0 0-.126-.526c-.083-.254-.17-.517-.135-.94.048-.588-.07-.839-.173-1.06-.05-.11-.096-.206-.114-.333-.042-.28.043-.447.098-.501.016-.016.028-.02.03-.026a.361.361 0 0 1-.017.06zm-1.18.27c.018-.01.043.038.048.049l1.403 3.057a2.8 2.8 0 0 0-.086.032l-.648-1.417.543 1.46c-.03.013-.06.028-.089.042l-1.17-3.156c-.004-.009-.019-.06 0-.067zm-.829 1.04c-.146-.244-.132-.431-.101-.502.009-.02.017-.03.018-.036.003.013.005.041.006.062.007.094.015.234.137.375.054.063.13.124.218.194.228.182.54.431.692.917.11.352.321.579.544.82a3.8 3.8 0 0 1 .352.424l-.09.054c-.321-.475-.73-.669-.891-1.247.033.511.486.746.792 1.313-.026.018-.051.038-.076.057a2.299 2.299 0 0 0-.319-.439c-.173-.203-.353-.412-.483-.815-.182-.562-.386-.749-.566-.914-.09-.083-.168-.153-.233-.264zm-1.063.225c.014-.014.054.019.063.027l2.467 2.288a1.73 1.73 0 0 0-.068.062l-1.142-1.061 1.061 1.141a1.453 1.453 0 0 0-.065.073l-2.29-2.469c-.008-.007-.04-.047-.026-.06zm.819 2.06c-.382-.45-.642-.545-.872-.629a1.144 1.144 0 0 1-.316-.153c-.228-.17-.287-.347-.285-.425 0-.022.005-.035.003-.04.008.01.02.036.03.055.041.084.103.21.269.294.074.037.168.065.276.096.28.08.664.191.99.582.237.283.52.412.817.548.162.075.327.154.488.258a1.701 1.701 0 0 0-.063.085c-.478-.315-.931-.339-1.301-.811.226.459.735.503 1.234.91a2.178 2.178 0 0 0-.049.08 2.342 2.342 0 0 0-.461-.282c-.238-.12-.485-.245-.76-.569zm-2.084-.168c.008-.019.058-.003.068 0l3.155 1.171-.04.083-1.46-.543 1.417.648-.034.092-3.059-1.404c-.012-.005-.04-.023-.047-.047zm.148 1.322c-.275-.07-.397-.21-.426-.283-.008-.02-.009-.034-.012-.038.011.006.032.025.049.04.07.06.175.154.361.168.082.006.18-.005.292-.018.29-.032.686-.076 1.137.159.327.171.636.183.965.195.178.006.36.016.549.05-.01.035-.02.068-.027.103-.562-.108-.99.044-1.511-.252.385.339.87.184 1.488.37l-.015.093a2.322 2.322 0 0 0-.534-.085c-.266-.02-.541-.04-.919-.234-.524-.27-.8-.257-1.045-.246-.122.004-.228.009-.352-.022zm-.529.886l3.363-.127-.005.093-1.557.056 1.557.057c0 .032.003.065.005.097l-3.364-.126c-.015 0-.047-.005-.062-.025 0-.02.052-.025.063-.025zm-.003.144l3.229.122c-.142.039-.277.087-.409.136-.297.11-.578.215-.925.184-.535-.048-.899.152-1.164.299-.095.052-.177.098-.247.12-.147.05-.258.01-.339-.017-.06-.02-.137-.046-.171.025-.01.02-.022.065.02.12.075.103.296.194.603.15.14-.022.246-.071.358-.123.21-.099.45-.21 1.013-.165.442.037.714-.053.976-.14.15-.048.296-.096.47-.117L8.9 16.215c-.069.03-.13.094-.098.17.018.043.058.067.11.067h.011a.233.233 0 0 0 .067-.015l3.03-1.124c-.116.091-.223.187-.326.282-.232.216-.451.42-.783.524-.513.16-.772.485-.962.723-.067.084-.125.158-.183.206a.491.491 0 0 1-.319.113c-.064.004-.144.01-.149.089-.001.023.005.067.064.103.11.066.35.065.614-.093.123-.073.202-.159.285-.25.157-.172.335-.367.873-.54.422-.136.639-.322.849-.502.12-.104.237-.203.388-.289l-2.258 2.435c-.054.053-.084.137-.026.195.02.02.047.031.075.031.06 0 .114-.05.118-.055l2.37-2.198a4.898 4.898 0 0 0-.193.385c-.132.288-.257.56-.524.783-.413.345-.528.745-.612 1.037-.03.104-.055.193-.089.26-.07.137-.175.189-.252.227-.058.028-.13.064-.104.139.008.022.03.06.098.07.128.021.348-.073.533-.321.085-.114.125-.224.167-.34.08-.219.17-.467.6-.833.338-.286.467-.542.592-.788.072-.142.14-.28.248-.416l-1.155 3.114a.242.242 0 0 0-.015.069c-.005.057.02.102.066.12a.109.109 0 0 0 .041.009.121.121 0 0 0 .04-.008c.057-.023.086-.09.089-.097l1.348-2.937c-.018.147-.026.29-.03.43-.013.317-.024.616-.185.925-.25.475-.203.89-.17 1.19.013.108.023.2.017.275-.01.154-.088.242-.145.306-.042.049-.096.109-.043.168.016.018.052.044.118.028.125-.03.293-.2.369-.5.035-.138.03-.255.024-.379-.01-.233-.021-.496.236-.998.202-.395.224-.68.245-.956.012-.158.024-.31.07-.479l.125 3.32c0 .074.037.155.12.155.029 0 .055-.01.075-.03.043-.044.045-.117.045-.124l.121-3.23c.04.143.087.278.136.41.11.296.215.578.184.924-.048.536.153.9.3 1.165.052.095.096.176.12.248.048.146.01.257-.017.337-.022.062-.047.138.024.173a.1.1 0 0 0 .041.009.131.131 0 0 0 .079-.029c.103-.076.194-.298.15-.603a1.243 1.243 0 0 0-.123-.36c-.098-.21-.21-.448-.164-1.012.035-.442-.054-.714-.14-.976a2.385 2.385 0 0 1-.118-.47l1.386 3.018c0 .004.014.033.036.06.039.044.087.059.133.04.047-.02.071-.064.067-.122a.22.22 0 0 0-.015-.067l-1.124-3.03c.09.116.187.223.282.325.216.233.42.452.523.785.162.512.486.772.724.962.084.067.157.125.206.181.1.117.108.234.114.32.003.064.009.144.088.15h.006c.023 0 .064-.01.097-.065.066-.11.066-.35-.093-.615-.073-.122-.16-.2-.25-.284-.172-.157-.367-.336-.54-.873-.136-.423-.322-.64-.502-.848-.104-.121-.203-.237-.29-.39l2.436 2.259a.246.246 0 0 0 .057.04c.052.027.102.021.137-.014a.1.1 0 0 0 .032-.075c0-.06-.051-.114-.055-.119l-2.199-2.37c.129.074.258.136.386.194.288.132.56.257.784.524.345.412.743.527 1.036.612.103.03.193.056.26.09.137.068.189.174.227.25.024.05.054.11.108.11.01 0 .02-.002.03-.005.023-.008.06-.03.072-.098.018-.127-.073-.348-.322-.533a1.24 1.24 0 0 0-.34-.167c-.219-.08-.466-.17-.832-.6-.288-.338-.543-.467-.79-.592-.14-.072-.278-.14-.415-.248l3.114 1.154a.226.226 0 0 0 .068.016c.059.005.102-.02.122-.067a.107.107 0 0 0 0-.08c-.023-.057-.09-.087-.097-.088l-2.937-1.349c.146.019.29.026.43.031.317.012.616.023.924.185.476.249.89.203 1.191.168.108-.013.2-.023.275-.016a.491.491 0 0 1 .306.145c.034.03.074.065.115.065a.08.08 0 0 0 .054-.022c.017-.016.044-.052.027-.118-.03-.125-.2-.294-.5-.369-.138-.035-.255-.03-.379-.024-.232.01-.496.022-.998-.236-.395-.202-.68-.224-.956-.245-.158-.012-.31-.024-.478-.07l3.318-.126c.075 0 .156-.037.156-.119a.104.104 0 0 0-.03-.075c-.044-.043-.114-.04-.124-.045l-3.228-.12c.141-.04.276-.088.408-.137.297-.11.577-.215.924-.184.535.05.9-.153 1.165-.3.095-.052.177-.097.247-.12a.494.494 0 0 1 .339.017c.062.021.137.047.172-.024.01-.021.02-.064-.02-.12-.076-.104-.298-.195-.604-.15-.14.021-.246.07-.358.123-.21.098-.449.21-1.013.165-.442-.036-.714.053-.976.139-.151.049-.296.097-.47.118l3.019-1.385c.069-.03.129-.095.098-.17a.104.104 0 0 0-.058-.058c-.056-.024-.124.004-.13.006l-3.03 1.124c.116-.09.223-.186.325-.282.233-.216.452-.42.784-.524.513-.16.772-.486.962-.723.067-.085.126-.158.183-.205a.483.483 0 0 1 .319-.114c.064-.005.144-.01.149-.09.001-.022-.005-.066-.064-.102-.11-.067-.35-.066-.614.093-.123.073-.201.16-.285.25-.157.172-.335.366-.873.54-.423.136-.639.322-.849.502-.12.103-.237.204-.389.289l2.26-2.435a.246.246 0 0 0 .04-.057c.026-.052.02-.102-.016-.138a.101.101 0 0 0-.074-.03c-.06 0-.114.05-.119.055l-2.369 2.197a4.78 4.78 0 0 0 .193-.385c.132-.288.257-.56.523-.784.414-.344.529-.744.613-1.035.03-.105.055-.194.089-.26.07-.138.175-.19.252-.228.058-.028.13-.063.104-.139-.008-.022-.03-.06-.098-.07-.127-.02-.348.073-.533.321a1.222 1.222 0 0 0-.167.34c-.08.22-.17.466-.6.832-.338.288-.467.543-.592.79-.072.141-.14.278-.248.415L16.6 8.83a.226.226 0 0 0 .015-.068c.005-.058-.02-.102-.066-.122-.047-.02-.095-.005-.134.038a.249.249 0 0 0-.036.06l-1.348 2.936a4.83 4.83 0 0 0 .03-.43c.013-.317.024-.616.185-.924.25-.477.203-.89.17-1.192a1.575 1.575 0 0 1-.018-.274.494.494 0 0 1 .146-.306c.042-.049.095-.11.043-.168-.027-.03-.069-.04-.118-.028-.125.03-.294.2-.369.5-.035.138-.03.255-.024.379.01.232.021.495-.236.998-.202.395-.224.68-.245.956-.012.158-.024.311-.07.479l-.125-3.32c0-.075-.038-.155-.12-.155a.103.103 0 0 0-.075.03c-.043.044-.045.117-.045.124l-.121 3.23a4.985 4.985 0 0 0-.136-.41c-.11-.297-.215-.578-.184-.924.049-.535-.153-.899-.3-1.166a1.59 1.59 0 0 1-.12-.246.494.494 0 0 1 .017-.339c.021-.061.047-.137-.024-.172-.021-.01-.064-.02-.12.02-.103.076-.194.298-.15.603.022.14.07.247.123.359.098.21.21.45.164 1.013-.035.442.054.714.14.976.05.151.097.297.118.47L12.18 8.74c-.028-.07-.094-.13-.17-.099-.046.019-.07.064-.066.122a.25.25 0 0 0 .015.066l1.124 3.03a5.042 5.042 0 0 0-.282-.326c-.216-.232-.42-.451-.523-.784-.161-.512-.486-.772-.724-.961-.085-.068-.157-.126-.206-.183a.491.491 0 0 1-.114-.319c-.004-.064-.009-.144-.088-.149-.022 0-.067.006-.103.064-.066.11-.066.35.093.615.073.121.16.2.25.284.172.157.366.335.54.873.136.422.322.64.502.849.104.12.203.236.29.388l-2.436-2.258a.246.246 0 0 0-.057-.041c-.052-.026-.102-.02-.137.015-.036.036-.042.086-.016.138a.247.247 0 0 0 .04.055l2.198 2.37a5.052 5.052 0 0 0-.386-.193c-.288-.132-.56-.257-.784-.524-.344-.413-.744-.528-1.035-.612a1.548 1.548 0 0 1-.26-.09.49.49 0 0 1-.228-.25c-.029-.059-.065-.13-.138-.104-.023.007-.06.03-.072.098-.018.127.073.348.322.532.114.085.224.124.34.167.219.08.466.17.832.6.288.338.543.467.79.592.14.071.278.14.415.248l-3.114-1.155c-.008-.003-.076-.03-.133-.006a.105.105 0 0 0-.057.057.109.109 0 0 0 0 .082c.023.056.09.085.097.087l2.937 1.348a5.143 5.143 0 0 0-.43-.03c-.317-.012-.616-.023-.924-.184-.477-.25-.89-.203-1.191-.169-.109.012-.201.022-.276.017-.153-.012-.24-.09-.305-.145-.049-.043-.11-.097-.169-.043-.017.014-.044.05-.027.117.03.125.2.294.5.37.138.034.255.03.378.024.233-.011.497-.022.999.235.395.202.68.224.955.245.159.012.312.024.48.07l-3.32.125c-.074 0-.155.038-.155.12 0 .028.01.055.03.075a.183.183 0 0 0 .124.044z" mask="url(#b)"/>
        <path fill="#F6B40E" d="M11.995 13.335c.01-.03.022-.062.034-.092l-1.417-.648 1.46.543.04-.083-3.154-1.17c-.011-.004-.06-.02-.069 0 .006.024.035.04.047.046l3.06 1.404zM12.194 12.902l.049-.08c-.5-.407-1.007-.451-1.234-.91.37.472.822.496 1.3.81.02-.028.043-.056.064-.084a3.759 3.759 0 0 0-.488-.258c-.298-.136-.58-.265-.817-.548-.326-.39-.71-.501-.99-.582a1.626 1.626 0 0 1-.276-.096c-.166-.084-.228-.211-.27-.294a.314.314 0 0 0-.03-.055c.002.005-.002.018-.002.04-.001.078.058.255.285.425.103.076.202.112.316.153.23.084.49.179.872.628.275.324.521.448.76.57.156.078.308.155.461.281M12.47 12.522c.02-.024.042-.049.065-.072l-1.061-1.142 1.142 1.061.068-.062-2.467-2.289c-.008-.007-.05-.04-.063-.026-.014.014.019.055.026.062l2.29 2.468zM12.015 10.943c.13.405.31.614.485.817.114.133.225.262.318.438l.075-.057c-.305-.567-.758-.802-.791-1.313.16.578.57.773.892 1.247.03-.019.06-.038.09-.055a3.803 3.803 0 0 0-.352-.423c-.224-.24-.434-.468-.545-.82-.152-.486-.464-.734-.691-.916-.089-.07-.166-.132-.219-.195-.121-.141-.13-.282-.136-.374-.002-.022-.003-.05-.007-.063-.001.006-.01.016-.018.035-.03.072-.045.259.1.503.067.11.144.18.234.263.18.165.384.352.565.913M9.42 15.166c.222-.103.474-.22 1.06-.172.424.034.687-.053.94-.136.167-.054.328-.106.526-.125-.008-.03-.017-.06-.024-.092-.64.065-1.03.394-1.515.23.596.071.932-.232 1.493-.347a1.64 1.64 0 0 1-.015-.106c-.188.04-.36.102-.526.164-.308.114-.6.224-.967.19-.506-.046-.856.147-1.111.288a1.649 1.649 0 0 1-.263.128c-.177.058-.31.011-.398-.018-.02-.007-.047-.016-.06-.018.005.003.01.014.026.03.054.056.22.14.502.099.127-.018.222-.063.332-.115M12.07 15.09l-1.46.543 1.417-.648-.032-.087-3.057 1.404c-.01.004-.057.029-.049.047.008.019.058.004.067 0l3.156-1.17c-.014-.03-.029-.058-.042-.089M13.217 11.95c.03-.014.059-.029.089-.042l-.543-1.46.648 1.417.086-.032-1.403-3.057c-.004-.01-.03-.06-.048-.049-.018.008-.003.058 0 .067l1.171 3.156zM13.115 8.925c.018.127.063.223.114.333.103.222.221.472.173 1.06-.034.424.052.686.136.94.054.166.106.328.125.525l.092-.023c-.065-.64-.394-1.03-.229-1.515-.073.595.231.932.347 1.493l.104-.016a3.78 3.78 0 0 0-.163-.526c-.114-.307-.223-.598-.19-.966.046-.506-.147-.855-.288-1.11a1.622 1.622 0 0 1-.127-.264.577.577 0 0 1 .018-.398c.006-.02.015-.047.017-.06-.003.005-.015.01-.03.025-.056.055-.141.222-.1.502M14.225 11.704l.057-1.557.057 1.557c.031 0 .062.003.092.004l-.127-3.361c0-.011-.004-.064-.025-.064-.02 0-.025.052-.025.061l-.127 3.364c.033-.001.065-.004.098-.004M15.065 10.252c-.295.522-.143.949-.251 1.51l.102.027a3.83 3.83 0 0 0 .051-.548c.012-.328.024-.638.195-.965.236-.45.19-.847.159-1.137-.013-.112-.024-.21-.018-.292a.577.577 0 0 1 .169-.361c.014-.017.033-.038.04-.049-.006.003-.018.004-.038.012-.073.029-.214.151-.284.426-.03.125-.027.23-.021.351.01.244.022.52-.246 1.046-.194.378-.215.654-.235.92-.014.175-.027.344-.084.533l.092.014c.186-.616.031-1.102.37-1.487M16.485 10.847c-.473.37-.496.823-.812 1.3a1.7 1.7 0 0 1 .085.064c.104-.161.184-.326.257-.488.137-.299.266-.58.55-.817.39-.326.5-.71.581-.99.032-.109.058-.202.096-.276a.58.58 0 0 1 .295-.27c.018-.009.043-.021.054-.029-.005.002-.018-.003-.04-.003-.075 0-.255.057-.424.284a1.14 1.14 0 0 0-.155.317c-.083.23-.178.49-.627.872-.324.276-.448.522-.569.76a2.32 2.32 0 0 1-.283.46c.028.016.054.033.08.05.409-.5.452-1.007.912-1.234M15.06 11.833c.032.011.063.022.092.034l.649-1.417-.544 1.46c.03.013.056.027.083.04l1.17-3.155c.005-.01.02-.06.001-.068-.018-.008-.043.039-.046.047l-1.404 3.06zM16.637 12.338a2.333 2.333 0 0 1-.439.318c.02.024.039.05.057.075.567-.305.802-.758 1.313-.791-.578.16-.773.57-1.247.892.019.029.037.06.055.09a3.8 3.8 0 0 0 .424-.352c.24-.224.467-.434.82-.545.485-.151.734-.464.916-.691.07-.089.13-.165.194-.22a.578.578 0 0 1 .375-.135c.02-.002.048-.003.062-.007-.007-.001-.016-.01-.036-.018-.072-.031-.257-.045-.501.1-.11.067-.181.144-.264.234-.165.18-.352.384-.913.565-.404.13-.614.31-.816.485M15.874 12.307c.025.022.049.043.072.066l1.142-1.061-1.06 1.142.061.068 2.289-2.467c.008-.008.04-.05.026-.063-.025-.004-.051.016-.062.026l-2.468 2.29zM18.378 18.18l-2.29-2.468c-.021.024-.043.05-.065.072l1.061 1.142-1.142-1.061-.068.062 2.467 2.288c.008.008.05.041.063.027.004-.025-.015-.05-.026-.061M16.543 17.29c-.131-.404-.31-.613-.485-.816a2.299 2.299 0 0 1-.318-.438l-.075.057c.305.567.757.802.79 1.313-.16-.578-.569-.773-.89-1.247-.03.019-.06.038-.09.055a3.8 3.8 0 0 0 .351.424c.224.24.435.467.544.819.152.486.465.735.693.917.088.07.164.13.218.194.122.141.13.282.137.374.001.022.003.05.006.063 0-.006.01-.016.018-.035.031-.073.045-.259-.1-.503-.066-.11-.145-.18-.234-.262-.18-.166-.384-.353-.565-.914M18.124 14.76c-.378-.193-.653-.214-.92-.234a2.246 2.246 0 0 1-.533-.085l-.015.093c.617.185 1.103.032 1.488.37-.522-.295-.949-.144-1.51-.252a2.188 2.188 0 0 1-.028.102c.19.035.371.044.55.051.327.012.637.023.964.195.45.236.847.191 1.137.159.112-.013.209-.024.293-.017.184.014.29.106.36.168.017.014.038.033.049.04-.003-.005-.004-.018-.012-.038-.03-.073-.151-.215-.426-.284-.124-.031-.23-.026-.352-.021-.243.01-.52.023-1.045-.246M16.687 13.965l.005.098 1.557.057-1.557.057c0 .03-.003.061-.005.092l3.363-.126c.01 0 .063-.006.063-.026 0-.02-.052-.025-.062-.025l-3.364-.127zM16.562 14.898c-.01.032-.022.062-.033.093l1.417.648-1.46-.543-.04.083 3.154 1.17c.011.003.06.02.069.001-.006-.025-.035-.042-.048-.047l-3.059-1.405zM16.364 15.331l-.049.081c.5.408 1.007.45 1.234.91-.37-.472-.822-.495-1.3-.81-.02.029-.043.056-.064.084.162.104.325.183.488.257.298.137.58.266.817.55.326.39.71.5.99.581.108.032.202.06.276.096.166.084.228.21.27.294.009.02.02.044.03.055-.002-.006.002-.018.002-.04.001-.078-.058-.255-.285-.424a1.14 1.14 0 0 0-.317-.155c-.23-.083-.49-.178-.871-.627-.275-.323-.521-.448-.76-.569-.157-.08-.308-.157-.461-.283M16.489 13.143l1.459-.542-1.417.648a2.8 2.8 0 0 1 .032.086l3.058-1.403c.009-.004.055-.029.048-.047-.008-.02-.058-.004-.066 0l-3.158 1.17.044.088M19.138 13.068c-.221.102-.474.22-1.06.172-.424-.034-.687.053-.94.136-.167.054-.328.107-.526.126l.024.09c.64-.064 1.03-.393 1.515-.228-.596-.072-.932.231-1.493.346l.015.105c.188-.04.36-.1.526-.163.308-.114.6-.223.967-.19.506.045.856-.147 1.111-.288.099-.055.184-.102.263-.128a.576.576 0 0 1 .398.018c.02.007.047.016.06.018-.005-.003-.01-.014-.026-.03-.054-.057-.22-.14-.502-.099a1.12 1.12 0 0 0-.332.115M14.576 15.174a.45.45 0 0 0-.095.014l-.026.007c-.016.004-.03.01-.045.013a.406.406 0 0 1-.03.009.36.36 0 0 1-.101.017h-.003a.36.36 0 0 1-.128-.025l-.046-.013-.026-.007-.02-.004-.027-.005a.778.778 0 0 0-.047-.006l-.03-.001a.897.897 0 0 0-.206.021h.004c.082 0 .136.013.177.033a.333.333 0 0 1 .081.06l.026.021.011.011c.012.01.024.018.038.027h.001c.025.017.054.031.094.04.027.005.06.01.098.01h.003a.475.475 0 0 0 .095-.01.268.268 0 0 0 .099-.04s.002 0 .002-.002l.036-.025.013-.012.024-.022.025-.02a.35.35 0 0 1 .053-.035.39.39 0 0 1 .192-.034.904.904 0 0 0-.219-.023l-.023.001M13.333 13.863l-.009-.027a.157.157 0 0 1-.004-.02c-.001-.008-.005-.016-.005-.025a.16.16 0 0 1 .073-.132.372.372 0 0 0-.258.165.02.02 0 0 1-.004.004.51.51 0 0 0 .28.107.237.237 0 0 1-.04-.026.16.16 0 0 1-.033-.046" mask="url(#b)"/>
        <path fill="#F6B40E" d="M15.295 13.24c.03.012.06.027.09.042.014.008.03.011.044.02l.03.019.01.008.034.026.045.033a1.034 1.034 0 0 1 .208.216l.006.006-.007-.005a1.441 1.441 0 0 0-.284-.189c-.019-.009-.039-.02-.058-.028h-.001c-.016-.006-.031-.01-.046-.017l-.021-.008-.027-.01a.945.945 0 0 0-.365-.056h-.011c-.018.001-.036.007-.054.009a.581.581 0 0 0-.053.009c-.022.004-.043.008-.063.014-.018.006-.033.015-.05.02-.027.012-.055.023-.08.037-.018.01-.035.025-.052.038-.016.011-.032.02-.046.033l-.012.009c-.011.016-.018.032-.028.048l-.005.008a.72.72 0 0 0-.062.119c-.002.002-.002.005-.003.007l-.018.06-.003.008v.002c-.004.016-.012.03-.014.046l-.002.004v.023c-.002.003 0 .006-.002.01v.014l-.001.014v.022a.34.34 0 0 0-.002.028l-.001.01-.001.013c0 .007-.002.015 0 .023 0 .017.006.036.008.054 0 .006.002.01.003.016l.005.023.005.032v.004c.002.003.002.004.002.008l.003.017.01.03c0 .003.002.006.003.008 0 .003.002.006.004.01.003.01.008.02.012.029l.003.009.01.026c.002.002.002.004.002.005.008.02.014.038.023.057l.003.004c.003.01.01.017.014.025l.008.013a.032.032 0 0 1 .004.007l.002.003a.21.21 0 0 1 .01.018l.01.014.007.013h.001a.18.18 0 0 1 .007.013l.01.015v.001l.01.016c.007.01.01.02.018.03a.088.088 0 0 0-.03.009l-.008.003-.01.007c-.01.006-.019.011-.025.017-.003-.004-.003-.008-.005-.012l-.001-.003-.005-.01-.016-.037-.003-.006-.002-.006a.048.048 0 0 1-.004-.01l-.011-.025-.002-.002-.002-.007v-.002a.615.615 0 0 1-.017-.034c0-.004-.003-.007-.004-.011-.003-.01-.009-.019-.012-.028 0-.003-.002-.006-.003-.008l-.01-.032-.003-.01-.006-.023-.003-.012c0-.002 0-.005-.002-.007l-.002-.009-.002-.008-.01-.035-.001-.007-.003-.008-.006-.026-.002-.007-.002-.007-.007-.031v-.01c-.002-.003-.002-.006-.002-.009L14.365 14v-.007c-.002-.004-.002-.01-.002-.015l-.004-.042-.001-.01-.004-.04v-.009c0-.007-.002-.014-.003-.02v-.004l-.001-.019v-.004c0-.013.003-.026.004-.038V13.783v-.003l.005-.048v-.003l.001-.015v-.003c.003-.023.003-.046.006-.07v-.005c.001-.005.004-.009.004-.013.004-.023.013-.044.018-.066l.002-.006.012-.044.002-.008c.008-.024.011-.046.02-.07l.02-.014c.016-.013.034-.023.05-.035.015-.01.03-.022.046-.03.015-.011.03-.023.046-.031.04-.023.08-.04.12-.057l.057-.023c.016-.005.034-.007.05-.012l.06-.016.036-.008.019-.003c.017-.002.033 0 .05-.001a.767.767 0 0 1 .317.042zm-.106.83a.666.666 0 0 1-.144.013l-.031.001a.585.585 0 0 1-.204-.045l-.002-.002c-.014-.006-.029-.012-.042-.02l-.016-.009-.025-.015-.004-.002-.03-.019a1.48 1.48 0 0 1-.04-.027l-.006-.005a.524.524 0 0 1-.032-.027l-.005-.005c-.006-.006-.012-.012-.015-.017a.013.013 0 0 0-.002-.004c-.009-.016-.001-.023.014-.023h.001c.007 0 .015.002.023.006.011.004.024.01.04.02h.003l.013.008.028.016c.016.01.035.019.056.03l.043.023.01.006c.012.005.026.007.038.012l.037.011.003.001a.54.54 0 0 0 .178.02c.026 0 .055-.006.084-.01a1.872 1.872 0 0 0 .324-.087c.022-.008.038-.011.06-.02l-.027.018a.838.838 0 0 1-.33.151zm-.542 1.206a.661.661 0 0 0-.07.07l-.008.007a.233.233 0 0 1-.028.028l-.02.014-.02.012a.444.444 0 0 1-.128.037c-.029.003-.057.007-.094.007h-.003c-.039 0-.068-.004-.097-.008a.4.4 0 0 1-.123-.035l-.019-.012-.02-.014c-.011-.008-.02-.018-.028-.027l-.008-.008a.603.603 0 0 0-.075-.074.384.384 0 0 0-.19-.07c-.012-.002-.02-.005-.035-.006l.039-.001.022-.001c.092-.028.162-.04.222-.048l.017-.002.047-.006h.048c.018 0 .036 0 .051.002l.042.005.007.001c.036.006.067.013.1.013h.003c.034 0 .065-.007.102-.014h.002c.014-.003.03-.004.047-.006.016-.002.032-.002.05-.003h.049l.047.005.01.002c.062.008.136.023.233.052h.013c.016 0 .027-.001.045.001l-.042.007a.372.372 0 0 0-.188.072zm-.278.264a.338.338 0 0 0-.09-.015.304.304 0 0 0-.096.016.33.33 0 0 0-.092.044.361.361 0 0 0-.045.04c-.016.016-.032.03-.045.05a.324.324 0 0 0-.048.107c0-.058.02-.109.046-.157.013-.023.026-.046.045-.066.013-.014.03-.023.045-.035a.33.33 0 0 1 .092-.048.296.296 0 0 1 .098-.02c.033 0 .062.01.092.019a.316.316 0 0 1 .097.05c.016.01.032.02.046.034.019.018.031.042.045.065a.319.319 0 0 1 .046.158.347.347 0 0 0-.048-.108c-.013-.019-.03-.034-.046-.05a.302.302 0 0 0-.142-.084zm-1.263-1.592l-.043-.028c-.01-.007-.02-.012-.03-.02.021.009.037.012.057.019.076.029.149.052.213.068.03.007.055.01.081.014.033.006.069.014.098.017a.562.562 0 0 0 .196-.02l.025-.008.049-.015.005-.002.039-.021.052-.028a.619.619 0 0 0 .038-.022l.005-.002.02-.012.021-.01a.17.17 0 0 1 .042-.014c.012 0 .02.005.018.014 0 .002-.001.005-.003.007a.156.156 0 0 1-.039.042l-.024.019a.18.18 0 0 0-.015.01l-.04.027-.001.001a.276.276 0 0 0-.016.01L13.84 14a.058.058 0 0 1-.011.007c-.01.007-.022.011-.032.016a.368.368 0 0 1-.03.015c-.005.002-.009.005-.014.006-.012.006-.027.009-.04.013a.638.638 0 0 1-.17.026h-.031a.709.709 0 0 1-.3-.076.917.917 0 0 1-.107-.06zm1.293.788l-.001.001a.317.317 0 0 1-.036.006c-.02.002-.04.005-.054.005h-.006-.022l-.024-.001-.006-.001a.502.502 0 0 1-.055-.005c-.014-.002-.025-.01-.04-.014l-.002-.002c-.008-.002-.016-.006-.025-.01-.015-.006-.031-.008-.045-.02-.007.01-.016.015-.024.023-.01.01-.021.022-.034.029-.003.002-.008.001-.012.003a.16.16 0 0 1-.046.01c-.006.001-.01.005-.016.005-.005 0-.008-.002-.012-.003a.175.175 0 0 1-.054-.01.19.19 0 0 1-.047-.032c-.012-.01-.02-.024-.027-.038a.167.167 0 0 1-.023-.074v-.005a.17.17 0 0 1 .043-.11.157.157 0 0 1 .066-.043c.008-.002.014-.007.022-.008-.011.004-.018.014-.027.02a.103.103 0 0 0-.04.071c-.001.005-.004.008-.004.012 0 .009.003.017.004.024l.003.014a.113.113 0 0 0 .026.04c.01.01.023.018.037.023l.006.001c.01.003.02.007.033.007l.005-.001a.098.098 0 0 0 .047-.015.108.108 0 0 0 .045-.047.115.115 0 0 0 .01-.036v-.004l.003.003c.006.013.02.032.04.053.01.011.02.022.034.033l.01.005.001.002a.214.214 0 0 0 .03.018l.002.002.035.014a.262.262 0 0 0 .058.012l.003.001.01.002c.017 0 .03-.007.046-.01.012-.003.026-.004.037-.008l.011-.004.013-.008c.002 0 .002-.003.004-.003a.163.163 0 0 0 .025-.015c.013-.01.026-.019.037-.03a.331.331 0 0 0 .041-.052l.004-.005a.116.116 0 0 1 .007-.01l.003.013a.112.112 0 0 0 .031.06.11.11 0 0 0 .046.025c.01.002.018.005.029.005l.006-.001.006-.002a.104.104 0 0 0 .08-.053l.005-.008a.104.104 0 0 0 .01-.045v-.002a.107.107 0 0 0-.071-.1c.02.003.04.011.057.022a.165.165 0 0 1 .069.098.177.177 0 0 1 .006.04l-.002.012a.139.139 0 0 1-.007.031c-.001.005 0 .011-.003.016a.184.184 0 0 1-.057.07.152.152 0 0 1-.055.025c-.012.003-.026.008-.04.008l-.01-.003c-.009 0-.017-.004-.027-.006a.155.155 0 0 1-.046-.016.164.164 0 0 1-.046-.041l-.003-.003c-.003.003-.009.003-.013.005-.015.01-.031.014-.048.02-.011.005-.022.013-.036.015zm-1.396-1.048a.711.711 0 0 1 .275-.156l.05-.014.021-.004c.012-.003.024-.003.037-.004.023-.003.046-.007.07-.007l.011-.001.048.001a.87.87 0 0 1 .103.01.405.405 0 0 1 .143.053l.007.005a.677.677 0 0 1 .07.052l.028.024c.009.008.016.01.025.017a.416.416 0 0 0 .087.05l.026.009c.02.005.036.007.043.014l.004.01a.033.033 0 0 1-.001.026v.002a.032.032 0 0 1-.012.014c-.007.006-.016.008-.027.003l-.004-.002-.002-.001-.003-.002a1.103 1.103 0 0 1-.046-.025c-.024-.014-.051-.03-.085-.055a1.104 1.104 0 0 1-.074-.057l-.004-.003a.324.324 0 0 0-.068-.045l-.095-.034c-.02-.005-.042-.007-.062-.008a1.43 1.43 0 0 0-.1-.003h-.002c-.013 0-.023.002-.034.003-.02.001-.04.003-.059.006a.377.377 0 0 0-.089.023.741.741 0 0 0-.226.125 2.444 2.444 0 0 0-.086.07c-.023.018-.04.03-.047.026-.008-.004-.002-.021.012-.043a.411.411 0 0 1 .066-.079zm.74.207c-.015.007-.031.014-.047.018a.366.366 0 0 1-.05.015c-.028.007-.055.014-.082.018a.595.595 0 0 1-.075.005c-.004 0-.007.003-.011.003l-.006-.001a.697.697 0 0 1-.266-.038.53.53 0 0 1-.152-.089l.003-.004a.455.455 0 0 1 .306-.198l.013-.001a.447.447 0 0 1 .045-.005c.013 0 .024-.004.035-.004.01 0 .02.002.029.003a.622.622 0 0 1 .402.178c.004.005.012.01.017.015l-.01.005-.03.018-.016.01-.01.007-.014.008a.79.79 0 0 1-.078.037h-.003zm.839 1.12c-.016-.008-.031-.01-.047-.014l-.017-.005c-.01-.002-.02-.006-.03-.007a.277.277 0 0 0-.072.008l-.028.007-.018.006-.045.012c-.017.005-.033.01-.046.01h-.003c-.013 0-.028-.004-.043-.009l-.046-.012-.024-.007-.022-.007a.271.271 0 0 0-.072-.007c-.012 0-.025.004-.036.007l-.01.004c-.016.003-.031.005-.047.014-.002 0-.005 0-.007.002-.103.059-.17.116-.24.155a.305.305 0 0 1-.048.024c.02-.014.037-.03.055-.045.087-.073.154-.154.238-.197.014-.007.031-.008.047-.013l.041-.01h.005c.01-.002.018-.007.029-.007.016 0 .04.005.065.012l.008.002c.013.003.029.01.044.016.014.006.028.01.044.018l.02.007h.002c.007-.004.014-.005.022-.008a.39.39 0 0 1 .043-.018l.044-.016h.003a.277.277 0 0 1 .068-.013c.01 0 .02.006.03.007h.001c.017.002.032.007.047.01.016.006.033.008.047.015.08.042.146.118.228.188.022.018.041.037.065.052a.512.512 0 0 1-.055-.027c-.068-.04-.136-.095-.236-.152-.002 0-.003 0-.004-.002zm.506-1.065c-.005 0-.008.004-.013.004-.007 0-.013-.003-.019-.005-.019 0-.038.002-.056 0a.618.618 0 0 1-.094-.014l-.053-.011-.047-.02-.027-.01a.486.486 0 0 1-.058-.035l-.024-.015-.006-.005-.015-.01c.004-.007.009-.01.013-.016.003-.006.009-.01.014-.017l.007-.008a.453.453 0 0 1 .213-.147c.05-.015.1-.025.153-.026l.005-.001c.018 0 .036.004.054.005.02.002.038.003.058.007a.617.617 0 0 1 .258.117c.027.02.054.042.077.067a.017.017 0 0 0-.004.002l-.023.014c-.025.016-.048.032-.074.045a.736.736 0 0 1-.151.056.819.819 0 0 1-.188.023zm-.037-.447l.054-.001h.006c.022 0 .042.004.063.006l.04.004c.006 0 .013 0 .02.002l.05.014a.618.618 0 0 1 .29.159c.028.027.05.052.065.073.014.022.02.037.015.044v.006l-.008-.002a.143.143 0 0 1-.047-.03 1.661 1.661 0 0 0-.08-.066.729.729 0 0 0-.225-.124l-.051-.016-.057-.008c-.019-.003-.037-.006-.059-.006l-.016-.001h-.018a.795.795 0 0 0-.096.005.371.371 0 0 0-.177.062l-.034.023a.785.785 0 0 1-.059.045.967.967 0 0 1-.124.082l-.034.017c-.005.002-.008 0-.011.002h-.002c-.005 0-.01 0-.014-.003a.035.035 0 0 1-.014-.024c-.002-.01-.002-.022.005-.029.004-.005.011-.006.02-.009l.031-.007.017-.007a.378.378 0 0 0 .11-.066l.003-.001c.025-.021.047-.04.07-.057a.399.399 0 0 1 .064-.041c.005-.002.008-.005.013-.006a.417.417 0 0 1 .05-.02.663.663 0 0 1 .14-.02zm-2.105-.04a.824.824 0 0 1 .08-.07c.013-.012.028-.022.043-.034l.028-.02c.006-.005.011-.01.017-.013l.021-.017c.015-.009.03-.013.045-.02a.793.793 0 0 1 .324-.094c.025-.002.05.001.076.003l.05.001.017.001.036.006c.018.003.036.01.054.014.021.004.042.008.063.015.01.004.022.005.032.008a1.14 1.14 0 0 1 .187.092l.046.031.05.035c.012.01.027.018.04.029l.006.02c.009.024.013.049.02.073l.017.06v.003l.003.008c.002.014.009.028.011.042.002.009.002.017.002.027l.002.011.003.04c0 .006 0 .012.002.018v.004c0 .013.002.025.003.038v.008l.001.006c0 .013.003.026.003.04l.001.005v.007l-.002.026v.012a.951.951 0 0 1-.003.017c0 .014-.003.029-.004.042l-.002.031v.003l-.001.01-.001.003c-.002.018-.002.037-.005.055l-.001.008-.003.01c0 .006-.004.013-.005.02 0 .003 0 .005-.002.007a.023.023 0 0 0-.001.007l-.006.018-.001.008-.003.007c-.001.009-.004.017-.006.025l-.002.008v.001a.129.129 0 0 0-.003.009l-.01.039-.004.015-.004.015-.005.018c-.005.014-.013.028-.017.041l-.007.015-.002.005-.006.01-.007.019-.004.01-.001.001v.003l-.019.041v.002h-.001c-.007.016-.012.03-.02.045 0 .003 0 .004-.002.007l-.004.006v.002a.043.043 0 0 0-.007-.004c-.002-.003-.006-.004-.009-.007l-.008-.005a.1.1 0 0 0-.036-.016l-.004-.001-.008-.003.007-.013.01-.016.015-.026.004-.005.003-.005.005-.01h.001a.047.047 0 0 1 .007-.012.069.069 0 0 1 .005-.008l.004-.008.008-.013c.004-.007.009-.013.012-.02l.01-.016.003-.006.009-.014c.01-.018.013-.036.022-.054a.251.251 0 0 1 .006-.018l.007-.015.002-.005.005-.015.009-.022.003-.007.002-.007a.424.424 0 0 0 .011-.034l.002-.006v-.008c.004-.014.005-.027.008-.04l.001-.009.003-.012v-.004l.005-.025c.002-.015.007-.03.008-.046l-.001-.026v-.008l-.001-.015-.001-.005c0-.01 0-.02-.002-.03v-.012-.002-.005-.012l-.002-.017v-.01-.016l-.005-.012-.001-.003-.011-.037-.009-.028-.004-.013-.002-.008c-.006-.015-.008-.031-.015-.046-.009-.022-.024-.042-.035-.064-.013-.023-.025-.046-.041-.068-.005-.007-.007-.016-.013-.023-.01-.01-.022-.015-.032-.024a.706.706 0 0 0-.176-.1c-.02-.007-.04-.016-.062-.021-.018-.005-.037-.006-.055-.01l-.054-.009a.576.576 0 0 0-.052-.005h-.001a.971.971 0 0 0-.39.07l-.027.01-.042.015-.005.003c-.017.007-.034.018-.051.026a1.394 1.394 0 0 0-.277.185l-.006.004.004-.005c.04-.054.082-.1.125-.141zm.113-1.28a2.563 2.563 0 0 0-.187.132l-.037.028-.023.019-.034.032a1.73 1.73 0 0 0-.156.149 1.453 1.453 0 0 0-.066.072l-.02.022-.012.013a.444.444 0 0 1-.018.022l-.011.015-.017.023a2.306 2.306 0 0 0-.14.2l-.05.08-.023.04-.012.027-.022.042a3.968 3.968 0 0 0-.039.083l-.048.114-.033.092-.01.028-.006.017-.008.027-.005.018-.007.028c-.01.035-.018.07-.027.106-.01.044-.017.088-.025.133l-.014.093c-.002.015-.006.03-.007.046l-.002.029-.002.047-.005.092c0 .022-.003.043-.003.065 0 .02.002.039.003.058 0 .033.003.066.005.098l.001.03.001.017.002.03.003.018c0 .01.003.018.004.027a2.575 2.575 0 0 0 .066.333l.012.045.008.028.016.044a2.489 2.489 0 0 0 .078.2l.042.09.013.025.009.017.011.026.01.015c.004.009.01.017.015.025a2.241 2.241 0 0 0 .189.281l.027.037.019.023.032.034a2.588 2.588 0 0 0 .149.156c.023.023.048.045.073.066l.02.019c.005.004.01.01.014.012l.022.02.015.01.023.017a1.96 1.96 0 0 0 .2.14l.08.05.04.023.027.012.042.02a1.63 1.63 0 0 0 .197.088l.093.034c.008.002.017.007.026.01.006.001.012.004.017.006l.029.008.018.004.027.007c.035.01.07.02.106.028.044.01.088.017.133.025l.093.014c.015.002.03.006.046.007.01 0 .02 0 .029.002.016 0 .031 0 .047.002l.092.005c.022 0 .043.003.065.003.02 0 .039-.003.058-.003l.098-.005c.01 0 .02 0 .029-.002h.018c.01-.002.02-.001.03-.002l.017-.002.029-.005.108-.016a2.474 2.474 0 0 0 .224-.05l.045-.012.028-.008.045-.016.086-.032.114-.046.088-.043.026-.012.017-.008c.008-.005.017-.009.026-.012l.016-.01.024-.015c.032-.018.063-.037.093-.057.039-.024.075-.05.112-.075l.076-.057.037-.028.023-.018.034-.032c.023-.02.047-.04.069-.062.03-.028.058-.057.087-.087l.066-.072.019-.021.013-.014.018-.022.011-.015c.007-.007.011-.016.017-.023l.066-.087c.025-.037.05-.075.074-.114l.05-.08.022-.04c.006-.008.009-.018.014-.026l.02-.042a1.617 1.617 0 0 0 .087-.197l.034-.093.01-.026c.001-.007.004-.012.006-.018l.008-.028c.001-.005.002-.012.005-.018l.007-.027c.01-.035.018-.07.026-.105.01-.044.018-.09.026-.134l.014-.093.007-.046.001-.029c.002-.016.002-.031.002-.047.003-.03.004-.062.006-.093 0-.021.003-.042.003-.064 0-.02-.002-.039-.003-.059 0-.033-.003-.065-.005-.098l-.001-.028-.002-.019-.001-.029-.003-.018c0-.009-.003-.018-.004-.028a2.356 2.356 0 0 0-.043-.24l-.023-.092-.012-.045a.379.379 0 0 0-.008-.028l-.016-.045a2.457 2.457 0 0 0-.078-.2c-.013-.03-.028-.06-.043-.088a.39.39 0 0 0-.013-.026l-.007-.017-.013-.026-.01-.016a.668.668 0 0 0-.014-.024 2.17 2.17 0 0 0-.19-.281c-.009-.012-.016-.026-.027-.037l-.018-.022c-.01-.013-.022-.024-.032-.036a1.73 1.73 0 0 0-.149-.156 6.013 6.013 0 0 0-.072-.065l-.022-.02-.013-.012a.546.546 0 0 1-.022-.019l-.016-.01-.022-.018a2.157 2.157 0 0 0-.2-.14l-.08-.048-.04-.024-.027-.013c-.014-.008-.028-.013-.043-.02a1.332 1.332 0 0 0-.197-.087c-.03-.012-.06-.024-.091-.034l-.027-.01-.017-.006-.029-.008a.585.585 0 0 1-.018-.005l-.027-.007a2.492 2.492 0 0 0-.332-.067c-.015-.001-.03-.005-.046-.006-.01-.001-.02 0-.03-.002-.014 0-.03 0-.047-.002a1.796 1.796 0 0 0-.091-.004c-.022-.001-.043-.004-.065-.004-.02 0-.039.003-.058.003-.033 0-.066.003-.098.005l-.03.001-.018.001c-.01.002-.019 0-.028.002-.007 0-.013.002-.02.003-.009 0-.018.003-.027.004a2.358 2.358 0 0 0-.332.066l-.045.012-.028.008a1.612 1.612 0 0 0-.13.048c-.04.014-.078.03-.115.046-.03.013-.059.028-.089.043l-.025.012-.017.008-.026.013-.016.01c-.008.003-.016.01-.024.014a2.295 2.295 0 0 0-.094.057z" mask="url(#b)"/>
        <path fill="#F6B40E" d="M13.64 13.783v.008l-.002.013a.152.152 0 0 1-.008.039c0 .003 0 .006-.002.008-.005.014-.014.024-.022.035-.003.005-.005.01-.01.014-.005.006-.012.011-.018.016.014-.004.03-.007.043-.014l.007-.004c.013-.004.024-.013.036-.02.014-.007.028-.013.041-.023l.008-.007a.451.451 0 0 0 .055-.048l.01-.009c-.004-.009-.013-.016-.02-.025a.152.152 0 0 0-.033-.036.378.378 0 0 0-.15-.065.161.161 0 0 1 .063.118" mask="url(#b)"/>
        <path d="M16.121 15.01" mask="url(#b)"/>
        <path fill="#F6B40E" d="M15.233 13.816l-.006.03-.007.017a.15.15 0 0 1-.034.046c-.009.008-.02.015-.03.02a.456.456 0 0 0 .212-.107l.033-.03c-.002-.007-.01-.013-.013-.02-.03-.05-.116-.096-.222-.113a.16.16 0 0 1 .072.132c0 .009-.004.017-.005.025M14.949 13.89c-.01-.012-.019-.024-.024-.038l-.001-.005a.132.132 0 0 1-.009-.043c0-.005-.003-.008-.003-.013v-.001c0-.023.006-.045.015-.066a.162.162 0 0 1 .047-.058.372.372 0 0 0-.178.107c-.008.008-.014.017-.021.026-.006.007-.012.012-.017.02l-.007.01c.007.006.018.011.026.017.017.012.034.024.053.033.012.007.026.012.039.018l.006.003a.515.515 0 0 0 .125.034.17.17 0 0 1-.044-.033l-.007-.011" mask="url(#b)"/>
        <path fill="#843511" d="M15.427 13.87c.026-.012.05-.028.074-.044l.023-.014.004-.002a.564.564 0 0 0-.077-.067.615.615 0 0 0-.258-.117c-.02-.004-.039-.004-.058-.006-.018-.002-.036-.006-.054-.006h-.005a.526.526 0 0 0-.287.096.412.412 0 0 0-.08.078l-.006.008c-.005.007-.01.01-.014.017l-.013.016.015.01.006.004a.408.408 0 0 0 .024.016l.01.008a.481.481 0 0 0 .075.038c.016.006.03.014.047.018.017.006.035.009.053.013.03.006.062.01.094.014.019.002.037 0 .056 0-.013-.002-.027-.003-.039-.008l-.016-.008a.515.515 0 0 1-.077-.017c-.017-.005-.033-.01-.049-.017l-.005-.003c-.014-.006-.028-.01-.04-.018-.02-.009-.036-.02-.053-.032-.008-.007-.019-.012-.027-.018l.008-.01c.005-.008.011-.013.017-.02l.021-.026a.36.36 0 0 1 .178-.107.16.16 0 0 1 .086-.035c.006 0 .01-.003.015-.003.016 0 .03.005.044.01.008.002.016.002.024.006.007.003.013.009.02.014l.003.001c.106.017.191.063.222.113.004.006.011.013.013.019-.01.012-.023.02-.034.03a.394.394 0 0 1-.147.089.477.477 0 0 1-.064.02.168.168 0 0 1-.068.02.819.819 0 0 0 .188-.023l.044-.013a.74.74 0 0 0 .107-.043" mask="url(#b)"/>
        <path fill="#85340A" d="M14.849 13.549a1.004 1.004 0 0 0-.135.098h-.003v.002a.378.378 0 0 1-.11.065l-.017.007-.03.008c-.01.001-.017.003-.021.008-.007.007-.008.018-.006.03a.04.04 0 0 0 .015.023c.004.003.01.003.014.003h.001l.012-.001.034-.018a1.373 1.373 0 0 0 .124-.082c.008-.006.017-.012.025-.02a.474.474 0 0 0 .033-.025c.013-.01.024-.015.035-.023a.371.371 0 0 1 .177-.062.795.795 0 0 1 .096-.005h.018l.017.001c.02 0 .04.004.058.006.02.002.038.005.056.009a.783.783 0 0 1 .278.14c.03.023.06.047.08.065.022.018.036.028.047.03l.007.002v-.006c.004-.007-.001-.022-.015-.044a.689.689 0 0 0-.354-.232c-.018-.005-.034-.011-.052-.014l-.02-.002-.04-.004c-.02-.002-.04-.006-.062-.006h-.006c-.02 0-.037 0-.054.002a.663.663 0 0 0-.14.02.417.417 0 0 0-.05.019c-.005.001-.008.004-.012.006" mask="url(#b)"/>
        <path fill="#85340A" d="M14.927 13.2l-.018.002-.036.01-.06.015-.05.012-.057.023c-.04.017-.081.034-.12.056l-.046.03-.046.032c-.016.013-.034.022-.05.035l-.02.015c-.01.022-.012.046-.02.069 0 .002 0 .005-.002.007l-.012.046-.001.005c-.006.022-.015.044-.019.065 0 .005-.002.01-.003.014v.005c-.005.024-.004.047-.007.07v.002c0 .005 0 .01-.002.016v.003a.939.939 0 0 0-.003.049v.005l-.001.006-.003.038v.003l-.001.002.001.018v.003l.002.021c0 .003 0 .006.002.009 0 .014.002.027.003.04v.01l.004.042.002.016V14c.002.007.002.013.002.02l.001.008V14.038l.008.031.001.007.003.007c.001.009.005.018.007.027l.001.007.002.007.01.035.002.008.002.009.002.007a.059.059 0 0 1 .003.012l.006.022.003.01.01.033.003.008.012.028.005.01.006.013.009.023.004.008v.002l.012.025.004.01.003.006.002.005c.005.013.01.026.016.037l.004.01.002.004a.06.06 0 0 0 .005.012c.006-.006.016-.012.025-.017l.01-.007.008-.003a.08.08 0 0 1 .03-.009c-.008-.01-.011-.02-.018-.03-.004-.004-.007-.01-.01-.016v-.001l-.01-.015-.007-.012v-.001l-.008-.013-.01-.015-.01-.017-.002-.003-.004-.007-.008-.013-.015-.025-.002-.004c-.01-.02-.014-.038-.023-.057l-.001-.004a.268.268 0 0 1-.014-.036l-.012-.029a.054.054 0 0 0-.004-.01l-.003-.007-.01-.031-.003-.018-.001-.007-.001-.004a.372.372 0 0 1-.01-.055c0-.006-.002-.01-.003-.016-.002-.018-.008-.037-.009-.054v-.023l.002-.012v-.011l.002-.028v-.011-.011c.002-.004.002-.009.002-.013v-.015l.001-.01v-.006c0-.006 0-.011.002-.017v-.004l.015-.045v-.003l.003-.009c.005-.019.01-.04.018-.059l.003-.007a.687.687 0 0 1 .063-.119l.003-.008c.01-.016.018-.033.03-.048l.011-.008c.014-.013.03-.023.046-.034.017-.012.033-.027.051-.038.025-.014.054-.025.081-.036.017-.007.032-.015.05-.02.02-.007.041-.01.063-.016l.053-.008c.018-.003.036-.008.054-.009h.01a.916.916 0 0 1 .265.028.96.96 0 0 1 .1.028l.027.01.022.008c.015.006.031.01.046.017h.001l.058.028a1.379 1.379 0 0 1 .284.188l.006.006-.004-.006a1.412 1.412 0 0 0-.125-.142c-.027-.028-.056-.05-.085-.074a1.668 1.668 0 0 0-.044-.034c-.011-.007-.022-.018-.034-.025l-.01-.008-.03-.02c-.014-.008-.03-.012-.045-.02-.03-.014-.06-.03-.089-.04a.786.786 0 0 0-.233-.046l-.084.003c-.017.002-.033 0-.05.002M15.763 13.61h-.001z" mask="url(#b)"/>
        <path fill="#85340A" d="M15.186 13.909a.16.16 0 0 0 .033-.046l.008-.017.006-.03c.002-.008.005-.016.005-.025a.16.16 0 0 0-.072-.131l-.003-.002c-.007-.005-.012-.01-.02-.014l-.024-.007c-.014-.004-.028-.009-.044-.009l-.015.003a.165.165 0 0 0-.133.094.168.168 0 0 0-.014.065l-.001.001c0 .005.002.009.003.014a.2.2 0 0 0 .009.043l.001.004c.005.014.015.025.024.038.003.002.004.007.007.01a.153.153 0 0 0 .044.034c.007.002.01.006.017.008.012.004.026.006.039.008.006.001.013.004.019.004.005 0 .008-.004.013-.004a.17.17 0 0 0 .068-.02.116.116 0 0 0 .03-.021" mask="url(#b)"/>
        <path fill="#85340A" d="M15.52 13.918l.026-.017c-.022.008-.039.011-.06.02-.09.032-.17.057-.243.072-.028.006-.055.01-.081.014-.029.004-.058.009-.084.01a.567.567 0 0 1-.178-.02h-.002a.336.336 0 0 1-.037-.012c-.013-.004-.028-.007-.04-.012l-.009-.006-.043-.022a.813.813 0 0 1-.056-.031l-.029-.016-.012-.007-.003-.002a.857.857 0 0 0-.04-.02c-.008-.002-.015-.004-.023-.004l-.002-.001c-.014 0-.022.007-.014.023l.003.004.015.017.005.005a.251.251 0 0 0 .032.027.844.844 0 0 0 .046.032l.03.019c.002 0 .003.001.003.002l.025.016.018.008a.255.255 0 0 0 .041.02l.003.002a.607.607 0 0 0 .203.045h.03a.623.623 0 0 0 .146-.015.821.821 0 0 0 .164-.055 1.009 1.009 0 0 0 .165-.096M14.496 14.696c0 .002.003.002.003.003.013.017.03.03.046.04a.17.17 0 0 0 .047.017c.008.003.017.006.026.007l.01.002c.015 0 .027-.005.04-.008a.154.154 0 0 0 .055-.026.17.17 0 0 0 .057-.069l.004-.015a.148.148 0 0 0 .006-.032l.002-.011c0-.015-.003-.027-.007-.04a.16.16 0 0 0-.125-.122c.043.015.07.057.07.101l.001.003c0 .015-.004.03-.01.043 0 .004-.004.007-.005.01a.105.105 0 0 1-.025.03.108.108 0 0 1-.055.022l-.007.001-.006.002c-.01 0-.019-.003-.027-.006a.104.104 0 0 1-.047-.023.112.112 0 0 1-.03-.06l-.005-.015a.04.04 0 0 1-.006.011.264.264 0 0 1-.082.086.195.195 0 0 1-.025.016l-.004.002c-.004.003-.008.007-.013.008-.003.003-.007.003-.01.005-.012.004-.025.005-.038.008-.015.004-.029.01-.047.01l-.008-.002h-.004a.262.262 0 0 1-.094-.028h-.001a.273.273 0 0 1-.03-.019l-.001-.001-.01-.006c-.014-.01-.024-.022-.034-.033a.342.342 0 0 1-.043-.057v.006a.137.137 0 0 1-.01.035.112.112 0 0 1-.045.047.104.104 0 0 1-.047.015h-.006a.106.106 0 0 1-.032-.006h-.006a.123.123 0 0 1-.037-.024.1.1 0 0 1-.026-.04c-.002-.005-.002-.01-.002-.013a.084.084 0 0 1-.005-.024c0-.005.003-.008.003-.012a.106.106 0 0 1 .04-.07c.01-.009.017-.018.028-.022-.008.002-.015.006-.022.009a.165.165 0 0 0-.066.041.16.16 0 0 0-.036.063.166.166 0 0 0-.008.049v.005a.18.18 0 0 0 .023.074c.009.013.017.026.029.037a.148.148 0 0 0 .047.03.17.17 0 0 0 .053.013l.012.002c.006 0 .01-.003.015-.004a.158.158 0 0 0 .047-.01l.012-.004c.013-.007.023-.019.034-.03.008-.007.018-.012.024-.021.014.01.03.013.046.019.008.004.015.008.025.01 0 0 0 .002.002.002.013.004.026.011.04.014.02.004.036.004.053.005l.007.001.023.002h.028l.054-.006c.014-.002.023-.002.037-.005l.002-.001c.012-.003.023-.011.036-.015.016-.006.033-.011.048-.02l.012-.006M14.877 15.197c-.024-.017-.044-.035-.065-.053-.082-.07-.148-.146-.229-.188-.013-.007-.03-.009-.046-.014a.228.228 0 0 0-.047-.01l-.001-.001c-.01 0-.02-.007-.03-.007a.319.319 0 0 0-.068.012l-.003.001-.044.016c-.014.005-.028.01-.044.018l-.021.008h-.003l-.02-.007-.043-.018c-.015-.005-.03-.013-.044-.017l-.008-.001a.33.33 0 0 0-.065-.012c-.011 0-.019.005-.03.007h-.004a.323.323 0 0 0-.041.01c-.016.006-.033.006-.047.013-.084.043-.15.124-.238.197-.018.015-.034.031-.056.046.017-.007.033-.016.048-.025.07-.039.137-.096.24-.155.003-.002.006-.002.008-.002.016-.009.031-.011.046-.014l.01-.004c.012-.003.025-.007.037-.007.025-.001.05.002.072.007l.022.007.024.007.046.012c.015.005.03.01.043.01h.003c.013 0 .03-.006.046-.01l.045-.013.018-.005a.296.296 0 0 1 .1-.016c.01 0 .02.005.03.007.006 0 .011.004.017.005.015.004.031.006.047.014l.004.002c.1.057.167.113.236.152.018.01.036.02.055.028" mask="url(#b)"/>
        <path fill="#85340A" d="M14.626 15.26a.355.355 0 0 0-.053.046l-.025.027-.024.029-.013.014c-.01.013-.023.024-.036.035l-.002.003a.25.25 0 0 1-.099.052.363.363 0 0 1-.095.012h-.003a.384.384 0 0 1-.098-.012.249.249 0 0 1-.094-.051l-.001-.001a.497.497 0 0 1-.038-.037l-.01-.013-.027-.03-.022-.027a.3.3 0 0 0-.06-.05.3.3 0 0 0-.176-.044h-.004a.687.687 0 0 1 .206-.028.598.598 0 0 1 .078.01c.008.001.017.002.025.005l.021.005.026.01.046.017a.676.676 0 0 1 .022.01.281.281 0 0 0 .106.022h.003c.036 0 .069-.009.102-.021.009-.005.02-.008.029-.012l.045-.017.026-.01.021-.005.026-.006a.344.344 0 0 1 .048-.006l.023-.002a.662.662 0 0 1 .219.03.31.31 0 0 0-.192.045m.206-.044l-.013-.001a1.086 1.086 0 0 0-.233-.069c-.003 0-.006 0-.009-.002a3.833 3.833 0 0 1-.048-.006l-.047-.001h-.002c-.018.001-.034.001-.05.004l-.047.007-.002.001c-.037.009-.068.018-.102.018h-.003c-.033 0-.064-.01-.1-.017h-.007c-.013-.004-.028-.006-.042-.008-.015-.002-.033-.002-.05-.003h-.042l-.007.001-.047.007-.017.003a.98.98 0 0 0-.222.064h-.022c-.013 0-.024 0-.04.003.016 0 .024.005.037.008.094.018.15.052.19.092a.796.796 0 0 1 .074.097l.008.01c.008.013.017.026.027.037l.021.018a.191.191 0 0 0 .049.034.321.321 0 0 0 .093.029c.03.005.058.01.097.01h.003c.037 0 .065-.005.094-.01a.327.327 0 0 0 .1-.03.174.174 0 0 0 .027-.018c.008-.005.014-.011.02-.016l.021-.018c.01-.011.019-.025.028-.037a.328.328 0 0 1 .266-.197c.015-.003.025-.008.042-.01-.018-.002-.03 0-.045 0" mask="url(#b)"/>
        <path fill="#85340A" d="M14.512 15.624c.016.016.033.031.045.05a.337.337 0 0 1 .048.108c0-.059-.02-.11-.046-.158-.013-.023-.027-.047-.045-.065-.013-.015-.03-.024-.046-.035a.304.304 0 0 0-.096-.05.304.304 0 0 0-.093-.018.304.304 0 0 0-.099.02.325.325 0 0 0-.09.048c-.016.012-.034.021-.046.035a.305.305 0 0 0-.045.066.315.315 0 0 0-.045.157.34.34 0 0 1 .047-.107c.012-.02.029-.034.045-.05a.314.314 0 0 1 .137-.084.303.303 0 0 1 .096-.016.344.344 0 0 1 .233.099M12.817 13.61zM12.822 13.606c.055-.048.113-.089.171-.125.035-.022.071-.041.107-.06.017-.009.033-.019.05-.027.002 0 .004 0 .007-.002.013-.006.027-.01.04-.015l.027-.01a.943.943 0 0 1 .39-.07h.002l.053.005c.018.001.035.006.053.01.018.002.037.004.055.009.022.005.041.014.063.022a.47.47 0 0 1 .129.066c.016.01.031.021.046.034.01.008.022.014.031.023.007.008.009.015.015.022.015.022.027.046.04.07.011.02.026.041.036.063.006.016.008.031.014.046l.002.008.005.013.008.029c.003.011.009.023.011.036l.001.003c0 .004.003.008.004.012V13.794c.002.006.002.011.002.017v.012a.01.01 0 0 1 .001.005v.015l.003.029v.02l.001.008.002.026-.009.046-.005.026V14l-.002.012c0 .003 0 .005-.002.008l-.007.042-.001.006v.001l-.002.007c-.002.011-.007.022-.01.033l-.003.007-.003.007a.254.254 0 0 1-.009.022l-.005.015a68.682 68.682 0 0 1-.008.02.437.437 0 0 1-.007.018c-.008.018-.013.036-.022.054l-.008.014-.004.007-.01.015-.011.02-.009.013-.004.008a.085.085 0 0 0-.005.009l-.007.01-.001.002-.005.009-.003.005-.004.006-.015.025-.01.016a.118.118 0 0 1-.008.013l.009.002.004.002a.11.11 0 0 1 .044.021.072.072 0 0 0 .01.006l.005.005.001-.002.003-.006.004-.008c.007-.014.012-.029.02-.043V14.4v-.002l.018-.041v-.002l.002-.003.004-.01.008-.017a.154.154 0 0 0 .005-.011l.001-.005.007-.015.018-.04.005-.019.004-.015.004-.015a.572.572 0 0 0 .01-.04l.002-.008.003-.009.007-.025.001-.007.003-.007c0-.006.003-.013.004-.019l.002-.007.002-.007.006-.021.002-.009.001-.008c.003-.018.002-.037.005-.055v-.003l.001-.01v-.003a.716.716 0 0 0 .007-.072l.002-.017v-.003-.01c0-.008.003-.017.003-.026v-.007-.004-.002c0-.012-.003-.026-.004-.04v-.005-.004-.004a.53.53 0 0 0-.005-.037v-.005l-.001-.018c-.002-.013-.002-.026-.003-.04l-.002-.012c0-.008 0-.018-.002-.026-.002-.014-.008-.028-.011-.043a.099.099 0 0 1-.003-.007v-.003l-.017-.06c-.007-.024-.012-.049-.02-.073-.002-.007-.002-.013-.006-.02-.013-.011-.027-.02-.041-.03a1.882 1.882 0 0 0-.05-.034c-.014-.01-.03-.022-.045-.031a1.027 1.027 0 0 0-.187-.09c-.01-.005-.021-.007-.032-.01a.814.814 0 0 0-.063-.015c-.018-.005-.036-.011-.054-.014l-.036-.006h-.017c-.017-.002-.033-.002-.05-.002-.026-.001-.05-.004-.075-.003a.741.741 0 0 0-.325.094c-.015.007-.03.011-.045.02l-.021.017c-.006.003-.011.008-.016.012-.01.006-.019.015-.029.022a.918.918 0 0 0-.123.103 1.259 1.259 0 0 0-.129.147l.005-.004" mask="url(#b)"/>
        <path fill="#85340A" d="M12.925 13.81c.008.004.024-.008.047-.026.021-.018.05-.043.085-.07a.773.773 0 0 1 .227-.125l.036-.011a.532.532 0 0 1 .112-.018c.011 0 .021-.004.033-.004h.003c.033 0 .066.001.1.004l.062.007.095.036c.002 0 .004.003.006.004.021.011.042.023.063.04a1.135 1.135 0 0 0 .074.059l.003.001a.915.915 0 0 0 .085.055l.046.025.003.002.003.001.003.002c.01.005.02.003.027-.003.005-.004.01-.008.012-.014v-.001a.042.042 0 0 0 0-.026c0-.003 0-.008-.003-.01-.007-.008-.022-.01-.043-.015l-.026-.009a.385.385 0 0 1-.087-.05l-.025-.017-.029-.023a.688.688 0 0 0-.07-.053l-.006-.005a.405.405 0 0 0-.143-.053.72.72 0 0 0-.103-.01l-.047-.001-.011.001a.651.651 0 0 0-.071.007l-.037.003-.02.004c-.018.004-.034.01-.051.015a.694.694 0 0 0-.275.157.368.368 0 0 0-.066.078c-.013.022-.02.039-.012.043" mask="url(#b)"/>
        <path fill="#843511" d="M13.837 13.85l.011-.006.017-.01.029-.018.01-.006c-.005-.006-.012-.01-.017-.015a.633.633 0 0 0-.235-.145.619.619 0 0 0-.167-.033c-.01 0-.02-.003-.028-.003-.012 0-.023.003-.035.004-.016 0-.03.003-.046.005l-.012.001a.46.46 0 0 0-.307.198l-.004.004-.001.003a.53.53 0 0 0 .274.117.826.826 0 0 0 .147.007.152.152 0 0 1-.066-.018.498.498 0 0 1-.282-.106c.002-.003.004-.003.005-.006a.317.317 0 0 1 .046-.055.368.368 0 0 1 .212-.11c.002 0 .003-.002.005-.003.008-.005.017-.011.027-.015.006-.003.013-.003.018-.004.014-.003.026-.008.04-.008.007 0 .014.003.021.005a.157.157 0 0 1 .077.032.395.395 0 0 1 .15.065.152.152 0 0 1 .033.035v.001c.006.009.015.016.018.025l-.009.009a.546.546 0 0 1-.055.05c-.003 0-.005.003-.008.005-.013.01-.027.016-.041.024-.012.006-.023.015-.035.02l-.007.003c-.014.007-.03.01-.044.014a.125.125 0 0 1-.089.035c.025 0 .05-.002.075-.005.027-.004.054-.011.081-.018.017-.004.034-.008.051-.014.016-.005.031-.012.047-.019h.002a.714.714 0 0 0 .079-.037l.013-.008" mask="url(#b)"/>
        <path fill="#85340A" d="M13.578 13.916l.019-.016.01-.014c.007-.01.016-.02.021-.034.002-.003.001-.007.002-.009a.159.159 0 0 0 .008-.04l.003-.012-.002-.007a.165.165 0 0 0-.063-.12.156.156 0 0 0-.077-.032c-.007 0-.013-.004-.021-.004-.014 0-.027.005-.04.008l-.018.003c-.01.004-.018.01-.028.017l-.004.003a.16.16 0 0 0-.073.132c0 .009.004.017.005.025l.004.02.01.027a.16.16 0 0 0 .032.046c.012.01.026.02.04.027.02.01.043.016.066.017h.006l.011-.002a.15.15 0 0 0 .057-.014c.012-.005.022-.013.032-.021" mask="url(#b)"/>
        <path fill="#85340A" d="M13.513 14.084h.031a.536.536 0 0 0 .17-.026c.013-.004.028-.007.04-.013.005-.001.009-.004.014-.006a.368.368 0 0 0 .03-.015l.032-.016.011-.007.013-.007a.276.276 0 0 1 .016-.01l.041-.028.015-.01a.352.352 0 0 0 .024-.02.156.156 0 0 0 .04-.04.015.015 0 0 0 .002-.008c.001-.01-.006-.014-.018-.014a.064.064 0 0 0-.022.006 1928.129 1928.129 0 0 1-.062.03l-.004.003c-.012.007-.022.013-.038.02-.014.01-.034.02-.052.029l-.038.02-.006.002c-.014.007-.033.01-.049.016l-.025.008a.564.564 0 0 1-.196.02c-.03-.003-.065-.011-.098-.017-.026-.004-.051-.007-.082-.015a1.754 1.754 0 0 1-.212-.067c-.02-.007-.036-.01-.057-.019l.03.02a1.29 1.29 0 0 0 .15.088.777.777 0 0 0 .3.076" mask="url(#b)"/>
    </g>
</svg>
