<svg xmlns="http://www.w3.org/2000/svg" width="100" height="60" viewBox="0 0 100 60">
    <g fill="#FFF" fill-rule="nonzero">
        <path d="M40.328 24.247c-1.803 0-8.77 1.726-5.574 9.452 0 0 1.64 2.794 6.394 1.972 0 0 2.213-.082 4.016-1.644 1.803-1.561.164-.082.164-.082v1.89h4.754l-.164-15.04s.246-4.357-7.623-4.357c-7.95 0-8.197 6.247-7.95 6.494h4.835s.082-3.453 4.263-2.548c0 0 1.967 0 1.885 1.89-.164 1.973-3.197 1.973-5 1.973zm4.836 3.78c0 1.48-.492 4.357-4.016 4.603-3.525.247-3.28-4.603-.492-4.931 2.787-.33 4.426-1.315 4.426-1.315s.082.164.082 1.643zM98.279 34.932v-4.768H96.31l-.737 2.877-.738-2.877h-1.885v4.768h1.23v-3.617l.901 3.617h1.066l.901-3.617v3.617zM7.95 48.164c-1.884 0-3.196.74-3.934 2.137V48.33H.738v11.507h3.278v-5.672c0-.822.246-1.561.738-2.137.492-.575 1.148-.822 1.885-.822.656 0 1.23.247 1.64.658.41.411.573.986.573 1.726v6.247h3.28v-7.233c0-1.315-.41-2.384-1.148-3.206-.738-.822-1.722-1.233-3.033-1.233zM87.705 20.877H99.59v4.603H87.705zM73.525.658h4.59v11.918h-4.59zM57.869 26.301c0-5.589 5.492-5.013 5.983-4.685v-5.095c-4.508.164-5.983 2.794-5.983 2.794v-1.973h-4.754v18.33h4.754v-9.37zM90.82 34.932v-3.535h1.475v-1.233H87.87v1.233h1.475v3.535zM82.118 14.152l11.417-11.45 3.072 3.08-11.416 11.45zM24.426 26.959h-5.082c-1.23 2.548-3.77 4.274-6.721 4.274-4.098 0-7.46-3.37-7.46-7.48s3.362-7.479 7.46-7.479a7.409 7.409 0 0 1 6.803 4.438h5c-1.393-5.26-6.147-9.205-11.803-9.205C5.82 11.507.41 17.014.41 23.753.41 30.493 5.902 36 12.623 36c5.656 0 10.41-3.78 11.803-9.041zM89.672 48.329h-3.688l-4.18 4.356v-8.712h-3.28v15.78h3.28v-3.04l1.393-1.562 2.787 4.602h3.934l-4.426-6.986zM83.77 25.89c0-5.342-4.344-9.616-9.59-9.616-5.328 0-9.59 4.356-9.59 9.616s4.262 9.699 9.59 9.699 9.59-4.356 9.59-9.699zm-14.754 0a5.15 5.15 0 0 1 5.164-5.178 5.15 5.15 0 0 1 5.164 5.178 5.15 5.15 0 0 1-5.164 5.178c-2.869.083-5.164-2.3-5.164-5.178zM72.787 50.384v-2.055h-3.279v11.507h3.279v-5.59c0-.904.328-1.643.902-2.219.573-.575 1.393-.822 2.377-.822h.491v-3.123c-.82 0-1.557.247-2.213.576-.655.493-1.147.986-1.557 1.726zM99.18 54.493c-.41-.493-.82-.822-1.393-1.068-.492-.247-1.23-.493-1.967-.74-.738-.247-1.23-.411-1.558-.575-.328-.165-.492-.411-.492-.74 0-.247.082-.493.328-.658.246-.164.574-.246.984-.246.492 0 1.066.082 1.64.329.573.164 1.229.493 1.885.821l1.147-2.219a8.466 8.466 0 0 0-2.131-.986c-.82-.247-1.557-.329-2.377-.329-1.312 0-2.377.329-3.197.904-.82.658-1.311 1.48-1.311 2.63 0 .74.164 1.316.573 1.809.41.493.82.822 1.312 1.068a7.836 7.836 0 0 0 1.967.658c.738.246 1.312.41 1.64.575.327.164.491.411.491.74s-.164.493-.41.657c-.245.165-.573.247-1.065.247-.656 0-1.312-.165-2.05-.411-.737-.247-1.393-.575-1.966-1.069l-1.066 2.22c.656.493 1.393.904 2.295 1.15.902.247 1.803.411 2.705.411 1.393 0 2.459-.329 3.36-.986.902-.658 1.312-1.48 1.312-2.63-.082-.493-.328-1.069-.656-1.562zM49.262 56.548l-2.54-8.22h-3.197l-2.541 8.22-2.541-8.22h-3.28l4.181 11.425h3.279l2.459-7.561 2.459 7.561h3.279L55 48.33h-3.279zM32.541 57.123c-.656 0-1.066-.41-1.066-1.315v-4.767h3.115V48.74h-3.115v-3.124h-3.278v3.124h-1.558v2.301h1.558v5.343c0 1.15.328 2.054.983 2.63.656.575 1.558.904 2.623.904.492 0 1.066-.082 1.558-.165.491-.164.983-.328 1.393-.575l-.656-2.466a3.146 3.146 0 0 1-1.557.411zM26.557 11.589h4.672v24.082h-4.672zM19.918 48.164c-1.148 0-2.213.247-3.033.74a4.945 4.945 0 0 0-2.049 2.055c-.492.904-.738 1.89-.738 3.123 0 1.15.246 2.137.738 3.041a4.945 4.945 0 0 0 2.05 2.055c.9.493 1.966.74 3.196.74.984 0 1.967-.165 2.787-.493.82-.33 1.557-.822 2.131-1.48l-1.721-1.726c-.41.411-.82.74-1.312.904-.492.247-.983.33-1.557.33-.738 0-1.394-.165-1.885-.576a3.117 3.117 0 0 1-1.066-1.726h8.197v-.822c0-1.89-.492-3.37-1.476-4.439-1.065-1.15-2.459-1.726-4.262-1.726zm-2.705 4.932c.164-.74.41-1.397.902-1.808a2.696 2.696 0 0 1 1.803-.658c.738 0 1.393.247 1.803.658.492.493.656 1.068.738 1.808h-5.246zM64.426 48.904c-.901-.493-1.967-.74-3.196-.74-1.23 0-2.296.247-3.197.74-.902.493-1.64 1.15-2.131 2.055-.492.904-.738 1.89-.738 3.041 0 1.15.246 2.137.738 3.041.491.904 1.23 1.562 2.13 2.055.902.493 1.968.74 3.198.74 1.229 0 2.295-.247 3.196-.74.902-.493 1.64-1.15 2.131-2.055.492-.904.738-1.89.738-3.041 0-1.15-.246-2.22-.738-3.041a5.702 5.702 0 0 0-2.13-2.055zm-1.147 7.48c-.492.575-1.23.904-2.05.904-.82 0-1.557-.33-2.049-.904-.491-.576-.82-1.316-.82-2.302s.247-1.726.82-2.301c.492-.576 1.23-.904 2.05-.904.82 0 1.557.328 2.049.904.491.575.82 1.315.82 2.301 0 .986-.329 1.726-.82 2.302z"/>
    </g>
</svg>
