<svg xmlns="http://www.w3.org/2000/svg" width="60" height="36" viewBox="0 0 60 36">
    <g fill="#FFF" fill-rule="nonzero">
        <path d="M24.197 14.548c-1.082 0-5.263 1.036-3.345 5.671 0 0 .984 1.677 3.837 1.184 0 0 1.327-.05 2.41-.987 1.081-.937.098-.049.098-.049v1.134h2.852l-.098-9.024s.147-2.614-4.574-2.614c-4.77 0-4.918 3.748-4.77 3.896h2.901s.05-2.071 2.558-1.529c0 0 1.18 0 1.13 1.134-.098 1.184-1.917 1.184-3 1.184zm2.901 2.268c0 .888-.295 2.614-2.41 2.762-2.114.148-1.967-2.762-.295-2.959 1.673-.197 2.656-.789 2.656-.789s.05.099.05.986zM58.967 20.959v-2.86h-1.18l-.443 1.726-.442-1.726H55.77v2.86h.738v-2.17l.541 2.17h.64l.54-2.17v2.17zM4.77 28.899c-1.13 0-1.918.443-2.36 1.282v-1.184H.443v6.904H2.41V32.5c0-.494.147-.937.442-1.283.296-.345.689-.493 1.132-.493.393 0 .737.148.983.395.246.246.344.592.344 1.035v3.748H7.28v-4.34c0-.788-.246-1.43-.689-1.923-.442-.493-1.033-.74-1.82-.74zM52.623 12.526h7.131v2.762h-7.131zM44.115.395h2.754v7.151h-2.754zM34.721 15.78c0-3.353 3.295-3.007 3.59-2.81V9.912c-2.704.099-3.59 1.677-3.59 1.677v-1.184H31.87v10.998h2.852V15.78zM54.492 20.959v-2.12h.885v-.74h-2.656v.74h.886v2.12zM49.271 8.491l6.85-6.87 1.843 1.848-6.85 6.87zM14.656 16.175h-3.05c-.737 1.53-2.262 2.565-4.032 2.565-2.46 0-4.476-2.022-4.476-4.488 0-2.466 2.017-4.488 4.476-4.488a4.445 4.445 0 0 1 4.082 2.663h3c-.836-3.156-3.689-5.523-7.082-5.523-4.082 0-7.328 3.304-7.328 7.348 0 4.044 3.295 7.348 7.328 7.348a7.294 7.294 0 0 0 7.082-5.425zM53.803 28.997H51.59l-2.508 2.614v-5.227h-1.967v9.468h1.967v-1.825l.836-.937 1.672 2.762h2.36l-2.655-4.192zM50.262 15.534c0-3.205-2.606-5.77-5.754-5.77-3.197 0-5.754 2.614-5.754 5.77 0 3.156 2.557 5.82 5.754 5.82 3.197 0 5.754-2.614 5.754-5.82zm-8.852 0a3.09 3.09 0 0 1 3.098-3.107 3.09 3.09 0 0 1 3.099 3.107 3.09 3.09 0 0 1-3.099 3.107c-1.721.05-3.098-1.38-3.098-3.107zM43.672 30.23v-1.233h-1.967v6.904h1.967v-3.353c0-.543.197-.986.541-1.332.344-.345.836-.493 1.426-.493h.295V28.85c-.491 0-.934.148-1.327.346-.394.295-.689.591-.935 1.035zM59.508 32.696a2.12 2.12 0 0 0-.836-.641c-.295-.148-.738-.296-1.18-.444-.443-.148-.738-.247-.935-.345-.196-.099-.295-.247-.295-.444 0-.148.05-.296.197-.395.148-.098.344-.148.59-.148.295 0 .64.05.984.198.344.098.737.296 1.13.493l.69-1.332a5.08 5.08 0 0 0-1.28-.591 4.742 4.742 0 0 0-1.425-.198c-.787 0-1.427.198-1.918.543-.492.394-.787.887-.787 1.578 0 .444.098.789.344 1.085.246.296.492.493.787.64.295.149.688.297 1.18.395.443.148.787.247.984.346.196.098.295.246.295.443 0 .198-.099.296-.246.395-.148.099-.344.148-.64.148-.393 0-.786-.099-1.229-.247-.443-.148-.836-.345-1.18-.64l-.64 1.33a4.02 4.02 0 0 0 1.377.691c.541.148 1.082.247 1.623.247.836 0 1.476-.198 2.017-.592.54-.395.787-.888.787-1.578a2.552 2.552 0 0 0-.394-.937zM29.557 33.929l-1.524-4.932h-1.918L24.59 33.93l-1.524-4.932h-1.968l2.509 6.855h1.967l1.475-4.537 1.476 4.537h1.967L33 28.997h-1.967zM19.525 34.274c-.394 0-.64-.247-.64-.79v-2.86h1.87v-1.38h-1.87V27.37h-1.967v1.874h-.934v1.38h.934v3.206c0 .69.197 1.233.59 1.578.394.345.935.543 1.574.543.295 0 .64-.05.934-.099.295-.099.59-.197.836-.345l-.393-1.48a1.887 1.887 0 0 1-.934.247zM15.934 6.953h2.803v14.449h-2.803zM11.95 28.899c-.688 0-1.327.148-1.819.443-.54.296-.934.69-1.23 1.233-.294.543-.442 1.135-.442 1.874 0 .69.148 1.283.443 1.825.295.542.688.937 1.23 1.233.54.296 1.18.444 1.917.444.59 0 1.18-.099 1.672-.296A3.327 3.327 0 0 0 15 34.767l-1.033-1.035c-.246.246-.492.443-.787.542-.295.148-.59.197-.934.197-.443 0-.836-.098-1.131-.345a1.87 1.87 0 0 1-.64-1.036h4.918v-.493c0-1.134-.295-2.022-.885-2.663-.64-.69-1.475-1.035-2.557-1.035zm-1.622 2.959c.098-.444.246-.839.54-1.085.296-.247.64-.395 1.083-.395.442 0 .836.148 1.082.395.295.295.393.64.442 1.085h-3.147zM38.656 29.342c-.541-.295-1.18-.443-1.918-.443s-1.377.148-1.918.443c-.541.296-.984.69-1.279 1.233-.295.543-.443 1.135-.443 1.825s.148 1.282.443 1.825c.295.542.738.937 1.279 1.233.54.295 1.18.443 1.918.443.737 0 1.377-.148 1.918-.443.54-.296.983-.69 1.278-1.233.296-.543.443-1.135.443-1.825s-.147-1.332-.443-1.825a3.421 3.421 0 0 0-1.278-1.233zm-.689 4.488a1.596 1.596 0 0 1-1.23.543c-.491 0-.934-.198-1.229-.543-.295-.345-.492-.789-.492-1.38 0-.592.148-1.036.492-1.382a1.596 1.596 0 0 1 1.23-.542c.492 0 .934.197 1.23.542.294.346.491.79.491 1.381 0 .592-.197 1.036-.492 1.381z"/>
    </g>
</svg>
