<svg xmlns="http://www.w3.org/2000/svg" xmlns:xlink="http://www.w3.org/1999/xlink" width="29" height="29" viewBox="0 0 29 29">
    <defs>
        <path id="a" d="M.325 14.325c0 7.791 6.317 14.108 14.108 14.108 7.792 0 14.108-6.317 14.108-14.108 0-7.792-6.316-14.108-14.108-14.108C6.642.217.325 6.533.325 14.325z"/>
    </defs>
    <g fill="none" fill-rule="evenodd">
        <mask id="b" fill="#fff">
            <use xlink:href="#a"/>
        </mask>
        <path fill="#FFF" d="M-7.054 28.65H35.92V0H-7.054z" mask="url(#b)"/>
        <path fill="#005293" d="M-7.054 28.649h21.487V14.325H-7.054z" mask="url(#b)"/>
        <path fill="#D21034" d="M14.433 14.325h21.488V0H14.433z" mask="url(#b)"/>
        <path fill="#005293" d="M.283 6.056L2.39 7.585l-.804 2.474L3.69 8.53l2.104 1.53-.804-2.475 2.105-1.53H4.494L3.69 3.582l-.804 2.475z" mask="url(#b)"/>
        <path fill="#D21034" d="M21.771 20.38l2.105 1.53-.804 2.474 2.105-1.529 2.105 1.53-.804-2.475 2.105-1.53H25.98l-.804-2.474-.804 2.475z" mask="url(#b)"/>
    </g>
</svg>
