<svg xmlns="http://www.w3.org/2000/svg" xmlns:xlink="http://www.w3.org/1999/xlink" width="29" height="29" viewBox="0 0 29 29">
    <defs>
        <path id="a" d="M.278 14.731c0 7.792 6.317 14.108 14.108 14.108 7.793 0 14.108-6.316 14.108-14.108 0-7.79-6.315-14.108-14.108-14.108C6.595.623.278 6.94.278 14.731z"/>
    </defs>
    <g fill="none" fill-rule="evenodd">
        <mask id="b" fill="#fff">
            <use xlink:href="#a"/>
        </mask>
        <path fill="#E41015" d="M-.784 5.93H47.31V0H-.784zM-.784 29.463H47.31v-5.967H-.784z" mask="url(#b)"/>
        <path fill="#FFF" d="M-.784 23.496H47.31v-5.855H-.784zM-.784 11.786H47.31V5.93H-.784z" mask="url(#b)"/>
        <path fill="#E41015" d="M-.784 17.641H47.31v-5.855H-.784z" mask="url(#b)"/>
        <path fill="#2F57A4" d="M-.784 0l20.8 14.77-20.8 14.67z" mask="url(#b)"/>
        <path fill="#FFF" d="M2.724 13.879l2.624.019.803-2.323.841 2.323h2.544l-2.043 1.42.78 2.324-2.122-1.475-2.126 1.457.802-2.306z" mask="url(#b)"/>
    </g>
</svg>
