<svg xmlns="http://www.w3.org/2000/svg" xmlns:xlink="http://www.w3.org/1999/xlink" width="29" height="29" viewBox="0 0 29 29">
    <defs>
        <path id="a" d="M.457 14.326c0 7.793 6.316 14.108 14.108 14.108 7.79 0 14.108-6.315 14.108-14.108 0-7.791-6.317-14.108-14.108-14.108C6.773.218.457 6.535.457 14.326z"/>
    </defs>
    <g fill="none" fill-rule="evenodd">
        <mask id="b" fill="#fff">
            <use xlink:href="#a"/>
        </mask>
        <path fill="#009B3A" d="M-9.405 29.437h47.94V-.783h-47.94z" mask="url(#b)"/>
        <path fill="#FEDF00" d="M-5.053 14.694L14.833 3.387l19.888 11.386-19.888 11.306z" mask="url(#b)"/>
        <path fill="#002776" d="M16.009 13.507c-4.019-1.285-7.355-.933-8.743-.684a7.408 7.408 0 0 0-.242 1.88c0 4.176 3.461 7.483 7.728 7.483 3.45 0 6.372-2.134 7.368-5.187-.767-.77-2.525-2.17-6.111-3.492" mask="url(#b)"/>
        <path fill="#002776" d="M15.681 12.282a20.43 20.43 0 0 1 6.735 3.41c.042-.324.067-.654.067-.988 0-4.176-3.463-7.444-7.73-7.444-3.168 0-5.892 1.748-7.086 4.418 1.568-.185 4.633-.34 8.014.604" mask="url(#b)"/>
        <path fill="#FFF" d="M15.681 12.282c-3.381-.944-6.446-.789-8.014-.604-.163.367-.3.75-.401 1.145 1.388-.249 4.724-.601 8.743.684 3.586 1.321 5.344 2.721 6.11 3.492.137-.421.237-.858.297-1.308a20.43 20.43 0 0 0-6.735-3.41M14.475 15.846h.194l.085-.187.08.187h.198l-.142.126.048.185-.184-.123-.172.114.055-.176zM13.752 16.532h.148l.065-.138.057.138h.149l-.105.094.035.139-.136-.092-.13.088.04-.135zM14.214 17.074h.096l.043-.091.037.09h.099l-.07.064.023.091-.089-.06-.086.057.028-.088zM14.456 18.007h.208l.092-.198.084.198h.212l-.149.135.05.197-.197-.132-.185.126.06-.191zM15.37 16.504h.195l.086-.184.079.184h.197l-.139.127.047.184-.184-.123-.172.116.054-.177zM18.374 19.505h.195l.087-.186.078.186h.197l-.138.125.046.186-.183-.124-.172.116.053-.178zM18.443 20.281h.134l.064-.13.056.13h.138l-.098.09.033.13-.129-.087-.122.082.037-.125zM16.799 19.682h.194l.086-.184.08.184h.196l-.14.126.048.185-.184-.121-.173.114.055-.178zM14.662 20.543h.065l.028-.06.026.06h.065l-.046.042.015.061-.06-.04-.056.037.017-.058zM18.432 18.795h.132l.061-.128.053.128h.136l-.096.085.032.127-.125-.083-.119.078.038-.122zM19.236 18.938h.132l.06-.128.053.128h.136l-.096.087.033.125-.125-.083-.12.08.04-.122zM19.813 18.533h.169l.076-.161.069.161h.173l-.122.109.041.162-.16-.106-.151.1.045-.156zM20.29 17.943h.176l.076-.165.07.165h.177l-.124.112.041.166-.164-.11-.153.104.048-.16zM21.044 17.345h.173l.077-.166.07.166h.177l-.123.112.04.166-.164-.11-.153.104.048-.16zM19.92 17.267h.206l.094-.196.083.196h.208l-.147.134.049.197-.193-.13-.183.123.056-.19z" mask="url(#b)"/>
        <path fill="#FFF" d="M16.65 14.3h.148l.067-.143.06.142h.151l-.106.098.033.141-.138-.093-.133.088.042-.136zM16.846 12.326h.214l.097-.206.087.206h.217l-.153.139.052.206-.203-.136-.191.127.06-.197zM17.561 19.046h.131l.06-.129.057.129h.133l-.095.087.032.126-.127-.085-.118.081.039-.122zM16.257 18.856h.143l.061-.135.059.135h.144l-.102.092.036.137-.137-.09-.124.084.039-.13zM11.506 14.955h.194l.086-.185.08.185h.197l-.14.126.048.186-.185-.122-.17.114.053-.178zM8.086 13.294H8.3l.098-.209.087.209h.222l-.156.14.051.207-.204-.137-.192.128.06-.199zM10.409 17.179h.193l.087-.186.079.186h.197l-.138.128.046.184-.184-.123-.173.115.054-.176zM7.843 17.128h.192l.088-.187.08.187h.196l-.14.127.046.184-.182-.123-.171.116.054-.177zM11.337 18.616h.206l.096-.199.084.199h.212l-.15.135.05.2-.196-.132-.186.124.057-.192zM10.259 17.967h.144l.062-.137.059.137h.145l-.101.092.033.137-.136-.091-.126.085.04-.131zM9.697 16.037h.105l.049-.103.04.103H10l-.076.068.026.1-.1-.066-.093.064.029-.098zM8.78 16.424h.207l.095-.2.085.2h.214l-.151.137.05.2-.198-.132-.187.125.058-.193z" mask="url(#b)"/>
        <path fill="#009B3A" d="M8.861 12.182h.307a.81.81 0 0 0 .11-.008.268.268 0 0 0 .076-.03.117.117 0 0 0 .044-.049.237.237 0 0 0 .012-.077c0-.054-.017-.096-.055-.12-.035-.027-.092-.04-.165-.04H8.86v.324zm.727.517h-.15l-.095-.254a.198.198 0 0 0-.037-.06.157.157 0 0 0-.05-.049.237.237 0 0 0-.065-.03.223.223 0 0 0-.076-.012h-.254v.405h-.137v-.947h.46l.078.002a.468.468 0 0 1 .138.026c.02.01.038.021.058.034a.267.267 0 0 1 .071.093.27.27 0 0 1 .008.2.257.257 0 0 1-.046.075.303.303 0 0 1-.073.055.5.5 0 0 1-.097.032v.002c.072.02.127.077.166.17l.101.258zM10.378 12.175c0-.054-.006-.1-.016-.145a.269.269 0 0 0-.065-.109.303.303 0 0 0-.12-.068.729.729 0 0 0-.19-.023h-.192v.7h.193c.076 0 .139-.01.187-.024a.28.28 0 0 0 .121-.07.27.27 0 0 0 .066-.11.653.653 0 0 0 .016-.151m.142 0c0 .31-.176.464-.531.464h-.333v-.918h.333c.355 0 .531.153.531.454M11.228 12.437h-.597v-.716h.58v.085h-.473v.216h.441v.086h-.441v.244h.49zM12.192 12.505l-.086-.005.038-.606-.233.595-.08-.004-.156-.62-.039.608-.085-.006.044-.713.138.007.145.607.225-.583.135.005zM13.627 12.686l-.549-.082.094-.592.535.078-.013.072-.435-.066-.03.18.408.061-.011.07-.408-.06-.033.201.453.068zM14.768 12.692l.266.068a.446.446 0 0 0 .118.019.209.209 0 0 0 .086-.013.123.123 0 0 0 .057-.044.18.18 0 0 0 .036-.075.179.179 0 0 0 .006-.09.159.159 0 0 0-.043-.064.218.218 0 0 0-.073-.046c-.03-.012-.06-.02-.095-.03l-.262-.07-.096.345zm-.01-.49l.393.1c.053.013.102.03.148.05a.416.416 0 0 1 .116.076.273.273 0 0 1 .066.11c.012.04.009.09-.006.143a.274.274 0 0 1-.161.195.507.507 0 0 1-.313-.001l-.266-.07-.106.38-.139-.036.268-.947zM15.706 12.848l.298.086a.511.511 0 0 0 .188.022.118.118 0 0 0 .056-.03.152.152 0 0 0 .04-.061c.018-.046.013-.086-.012-.118a.309.309 0 0 0-.148-.078l-.312-.093-.11.272zm.525.637l-.142-.041-.01-.24a.133.133 0 0 0-.015-.062.115.115 0 0 0-.031-.053.24.24 0 0 0-.05-.045.42.42 0 0 0-.07-.03l-.243-.072-.135.339-.132-.038.315-.794.442.13a.368.368 0 0 1 .073.024.461.461 0 0 1 .122.059c.017.014.033.028.046.045.022.03.032.064.037.097a.24.24 0 0 1-.014.101.265.265 0 0 1-.046.07.21.21 0 0 1-.07.049.252.252 0 0 1-.086.027.688.688 0 0 1-.106-.002v.002c.064.038.096.1.103.19l.012.244zM17.443 13.817a.313.313 0 0 1-.106-.088.28.28 0 0 1-.054-.115.323.323 0 0 1-.002-.131.429.429 0 0 1 .056-.138.41.41 0 0 1 .216-.18.312.312 0 0 1 .13-.01.346.346 0 0 1 .13.043.36.36 0 0 1 .093.07.354.354 0 0 1 .058.084c.012.028.02.06.02.09a.241.241 0 0 1-.022.095l-.084-.047a.131.131 0 0 0 .002-.12.235.235 0 0 0-.107-.103.222.222 0 0 0-.093-.03.202.202 0 0 0-.096.009.25.25 0 0 0-.087.05.375.375 0 0 0-.077.095.347.347 0 0 0-.046.11.222.222 0 0 0 .033.185c.02.025.046.047.076.062.044.025.089.04.127.043.041.004.081-.002.12-.018l.055-.092-.16-.09.044-.07.237.133-.183.303-.059-.03.018-.075c-.072.026-.152.013-.239-.035M18.373 13.83l.253.126c.033.016.064.03.091.038a.248.248 0 0 0 .074.01.15.15 0 0 0 .06-.018.155.155 0 0 0 .048-.051c.027-.038.031-.075.015-.11a.277.277 0 0 0-.118-.096l-.267-.135-.156.235zm.345.67l-.12-.062.041-.222a.19.19 0 0 0-.019-.114.259.259 0 0 0-.035-.048.22.22 0 0 0-.058-.039l-.207-.104-.194.292-.112-.058.453-.681.374.187.064.034c.02.01.04.023.055.035a.26.26 0 0 1 .076.088.22.22 0 0 1 .013.096.225.225 0 0 1-.163.183.277.277 0 0 1-.086.01.366.366 0 0 1-.093-.018v.002c.047.045.064.108.05.191l-.039.228zM19.38 14.773l-.508-.287.379-.616.493.279-.045.073-.403-.228-.114.188.376.213-.045.073-.377-.214-.13.209.42.237zM19.957 15.13a.41.41 0 0 1-.104-.089.276.276 0 0 1-.053-.094.25.25 0 0 1-.004-.096.28.28 0 0 1 .038-.092l.08.052a.158.158 0 0 0-.013.136.2.2 0 0 0 .04.06.367.367 0 0 0 .061.05c.023.015.047.025.068.033a.186.186 0 0 0 .063.013c.02 0 .037-.005.054-.013a.113.113 0 0 0 .06-.082.091.091 0 0 0-.013-.052.538.538 0 0 0-.119-.14.924.924 0 0 1-.073-.083.283.283 0 0 1-.036-.075.155.155 0 0 1-.006-.068.191.191 0 0 1 .173-.144.34.34 0 0 1 .095.01c.032.01.064.025.098.047a.367.367 0 0 1 .087.073.302.302 0 0 1 .05.083c.007.03.01.058.007.087a.192.192 0 0 1-.033.087l-.08-.05c.043-.078.016-.146-.077-.207a.239.239 0 0 0-.125-.045.103.103 0 0 0-.082.042.09.09 0 0 0-.016.039.08.08 0 0 0 .007.036c.007.015.015.03.03.047a.61.61 0 0 0 .057.06l.05.05a.479.479 0 0 1 .044.052.476.476 0 0 1 .039.056.298.298 0 0 1 .021.06.14.14 0 0 1-.003.062.177.177 0 0 1-.031.065.188.188 0 0 1-.156.087.287.287 0 0 1-.098-.01.435.435 0 0 1-.1-.047M20.758 15.647a.536.536 0 0 1-.118-.099.284.284 0 0 1-.065-.1c-.012-.034-.015-.067-.012-.1a.25.25 0 0 1 .038-.095l.089.058a.14.14 0 0 0-.02.071c0 .024.005.048.015.07a.358.358 0 0 0 .117.121.47.47 0 0 0 .076.04.22.22 0 0 0 .069.016.143.143 0 0 0 .058-.01.129.129 0 0 0 .043-.033.092.092 0 0 0 .017-.049.125.125 0 0 0-.016-.055.488.488 0 0 0-.051-.065 1.643 1.643 0 0 0-.09-.087 1.023 1.023 0 0 1-.083-.092.367.367 0 0 1-.044-.08.141.141 0 0 1-.01-.07.145.145 0 0 1 .027-.066.15.15 0 0 1 .065-.055.202.202 0 0 1 .089-.02.42.42 0 0 1 .212.07c.04.025.071.053.099.082.026.03.046.059.058.09a.216.216 0 0 1 .017.091.187.187 0 0 1-.032.089l-.09-.057c.041-.079.008-.153-.097-.221a.292.292 0 0 0-.137-.053c-.04-.003-.07.01-.09.038a.09.09 0 0 0-.016.037c0 .012.003.026.012.042.007.015.02.032.035.05l.066.067.055.052a.551.551 0 0 1 .099.118.169.169 0 0 1 .025.064.112.112 0 0 1 .004.064.206.206 0 0 1-.03.068.187.187 0 0 1-.07.06.27.27 0 0 1-.201.002.389.389 0 0 1-.113-.053M21.641 16.267a.236.236 0 0 0 .204.041.306.306 0 0 0 .107-.048.52.52 0 0 0 .169-.218.294.294 0 0 0 .02-.11.243.243 0 0 0-.025-.098.243.243 0 0 0-.07-.076.214.214 0 0 0-.1-.044.22.22 0 0 0-.107 0 .275.275 0 0 0-.103.052.405.405 0 0 0-.1.093.405.405 0 0 0-.07.12.272.272 0 0 0-.022.113c0 .034.01.066.028.098.014.03.038.055.07.077m.493-.643a.398.398 0 0 1 .142.453.615.615 0 0 1-.242.31.505.505 0 0 1-.165.07.407.407 0 0 1-.328-.074.378.378 0 0 1-.167-.284.516.516 0 0 1 .12-.343.547.547 0 0 1 .311-.206.446.446 0 0 1 .33.074M8.157 12.64a.246.246 0 0 0 .106-.017.27.27 0 0 0 .087-.057.298.298 0 0 0 .06-.099.528.528 0 0 0 .02-.27.447.447 0 0 0-.05-.104.23.23 0 0 0-.18-.092.247.247 0 0 0-.107.014.216.216 0 0 0-.086.057.373.373 0 0 0-.063.097.486.486 0 0 0-.019.27c.011.04.027.074.048.103a.2.2 0 0 0 .081.068.237.237 0 0 0 .103.03m.043-.796a.402.402 0 0 1 .3.148.458.458 0 0 1 .08.155.54.54 0 0 1 .02.195.642.642 0 0 1-.045.19.414.414 0 0 1-.24.231.433.433 0 0 1-.48-.123.53.53 0 0 1-.076-.155.549.549 0 0 1-.018-.196.578.578 0 0 1 .042-.192.412.412 0 0 1 .417-.254M16.763 13.618c.038.01.075.012.109.006a.236.236 0 0 0 .097-.044.263.263 0 0 0 .08-.085.448.448 0 0 0 .072-.266.273.273 0 0 0-.027-.11.186.186 0 0 0-.062-.085.247.247 0 0 0-.096-.045.225.225 0 0 0-.107-.004.256.256 0 0 0-.098.042.353.353 0 0 0-.08.085.483.483 0 0 0-.053.128.428.428 0 0 0-.02.14c.002.042.011.078.028.112a.241.241 0 0 0 .063.08.206.206 0 0 0 .094.046m.204-.781c.06.014.114.039.159.073a.42.42 0 0 1 .106.124c.027.05.04.107.047.166a.6.6 0 0 1-.1.377.45.45 0 0 1-.125.122.4.4 0 0 1-.156.062.44.44 0 0 1-.337-.082.388.388 0 0 1-.154-.295.593.593 0 0 1 .101-.375.513.513 0 0 1 .127-.124c.05-.03.1-.048.157-.06a.458.458 0 0 1 .175.012" mask="url(#b)"/>
    </g>
</svg>
