<svg xmlns="http://www.w3.org/2000/svg" xmlns:xlink="http://www.w3.org/1999/xlink" width="29" height="29" viewBox="0 0 29 29">
    <defs>
        <path id="a" d="M.77 14.494c0 7.79 6.317 14.108 14.109 14.108 7.79 0 14.108-6.318 14.108-14.108 0-7.792-6.318-14.109-14.108-14.109C7.087.385.77 6.702.77 14.494z"/>
    </defs>
    <g fill="none" fill-rule="evenodd">
        <mask id="b" fill="#fff">
            <use xlink:href="#a"/>
        </mask>
        <path fill="#0073CF" d="M-14.108 28.986h57.973V0h-57.973z" mask="url(#b)"/>
        <path fill="#FFF" d="M-14.108 19.325h57.973V9.662h-57.973z" mask="url(#b)"/>
        <path fill="#0073CF" d="M13.347 13.996l.947.687-.362 1.113.946-.688.947.688-.362-1.113.947-.687h-1.17l-.362-1.113-.361 1.113zM21.399 11.419l.946.687-.36 1.113.945-.687.947.687-.361-1.113.946-.687h-1.17l-.362-1.112-.361 1.112zM21.399 16.25l.946.688-.36 1.113.945-.689.947.689-.361-1.113.946-.688h-1.17l-.362-1.113-.361 1.113zM5.295 16.25l.947.688-.362 1.113.947-.689.946.689-.362-1.113.947-.688h-1.17l-.361-1.113-.362 1.113zM5.295 11.419l.947.687-.362 1.113.947-.687.946.687-.362-1.113.947-.687h-1.17l-.361-1.112-.362 1.112z" mask="url(#b)"/>
    </g>
</svg>
