<svg xmlns="http://www.w3.org/2000/svg" xmlns:xlink="http://www.w3.org/1999/xlink" width="29" height="29" viewBox="0 0 29 29">
    <defs>
        <path id="a" d="M.173 14.683c0 7.79 6.317 14.108 14.108 14.108 7.792 0 14.108-6.318 14.108-14.108C28.39 6.89 22.073.575 14.281.575 6.49.575.173 6.89.173 14.683z"/>
    </defs>
    <g fill="none" fill-rule="evenodd">
        <mask id="b" fill="#fff">
            <use xlink:href="#a"/>
        </mask>
        <path fill="#003876" d="M-14.108 31.716H42.67V-2.351h-56.78z" mask="url(#b)"/>
        <path fill="#FFF" d="M-14.108 20.36H42.67V9.004h-56.78z" mask="url(#b)"/>
        <path fill="#003876" d="M17.83 16.681l-3.549-6.05-3.549 6.05z" mask="url(#b)"/>
        <path fill="#FFCE46" d="M10.847 16.609l3.434-5.835 3.435 5.835z" mask="url(#b)"/>
        <path fill="#003876" d="M10.961 16.537l3.32-5.618 3.321 5.618z" mask="url(#b)"/>
        <path fill="#FFF" d="M17.488 16.465l-3.207-5.402-3.206 5.402z" mask="url(#b)"/>
        <path fill="#EE3E42" d="M14.083 14.036l-.044-.001c-.017 0-.01-.007-.01-.04 0-.127.006-.237.051-.282a.2.2 0 0 1 .142-.05c.04 0 .057-.038.008-.053-.048-.014-.077-.023-.135-.017-.002-.077.025-.156.116-.156.049 0 .078.004.152.004.076 0 .163.11.163.23 0 .145-.004.285-.004.33 0 .045-.025.056-.065.056l-.1-.001c-.025 0-.042-.003-.042.043 0 .045-.006.092-.006.135 0 .044-.035.069-.095.037-.06-.031-.09-.079-.131-.235" mask="url(#b)"/>
        <path fill="#FFCE46" d="M9.445 13.778l-.048.326.146.022.044-.293.121.018-.044.293.173.025.05-.325.106.017-.068.457-.659-.098.069-.458zM9.629 13.398l.114.036.038-.122c.018-.058-.017-.112-.079-.131-.06-.02-.106.017-.122.069l-.037.121.086.027-.03.118-.2-.062.083-.265c.033-.107.142-.156.256-.121.102.031.185.135.151.248a18.22 18.22 0 0 0-.047.148l.229.073-.036.116-.437-.137.03-.118zM10.25 12.756c.04-.081-.003-.13-.054-.155l-.394-.194.056-.116.393.195c.096.047.18.15.096.319-.082.167-.215.165-.312.117l-.393-.194.058-.115.393.195c.051.025.116.03.156-.052M10.463 12.168c.036.027.076.054.076.054l.102-.142c.025-.034.014-.078-.031-.11-.044-.031-.086-.027-.112.008l-.102.142.067.048-.078.107-.22-.158.077-.107.062.044s.06-.082.094-.132a.072.072 0 0 0-.015-.102c-.023-.018-.075-.023-.103.017l-.095.132.057.04-.077.108-.15-.107.15-.208c.073-.102.184-.16.276-.095.041.03.07.081.077.137a.187.187 0 0 1 .172.033c.067.047.134.15.037.284l-.17.237-.172-.123.078-.107zM10.612 11.25l.39.38.206-.21.087.084-.3.307-.475-.466zM11.439 11.378l-.42-.517.102-.084.42.517zM11.837 10.555c-.022-.034-.087-.079-.174-.024-.088.055-.084.153-.013.265.068.11.17.153.245.106.074-.047.077-.132.05-.174l.098-.062c.073.117.033.255-.097.336-.13.082-.29.026-.396-.144-.107-.171-.087-.339.051-.425a.239.239 0 0 1 .334.061l-.098.061zM13.557 10.027l.026.226.105-.012c.04-.004.155-.036.131-.246-.022-.191-.136-.194-.176-.19a22.56 22.56 0 0 0-.11.013s.013.103.024.209l-.122.016a21.584 21.584 0 0 1-.036-.321c.066-.007.165-.02.247-.028.08-.01.263-.007.296.28.02.18-.046.361-.198.38l-.27.03-.039-.34.122-.017zM14.72 9.779l-.328-.016-.007.147.296.015-.007.122-.294-.014-.009.175.329.016-.006.109-.462-.023.032-.665.462.022zM15.686 9.843l.103.455.123-.383.125.041-.204.634-.12-.039-.115-.481-.13.403-.126-.041.204-.634zM16.043 10.678l.282-.603.12.057-.282.602zM16.956 10.68c.022-.035.033-.113-.054-.168-.087-.056-.173-.009-.243.102-.07.111-.065.22.01.267.075.048.153.013.18-.03l.096.062c-.072.117-.214.14-.344.06-.13-.083-.149-.252-.042-.421.107-.17.267-.225.405-.138.139.087.145.239.09.327l-.098-.061zM18.903 13.224c.053-.047.075-.107.053-.17-.032-.094-.137-.126-.263-.083s-.192.136-.158.23c.029.08.096.116.18.094l-.042-.123.098-.034.078.227-.32.11-.025-.073a.288.288 0 0 0 .067-.034.21.21 0 0 1-.143-.132c-.058-.143.04-.314.227-.378.187-.065.346-.003.402.162.045.13-.004.266-.12.305l-.034-.101zM18.72 13.92c.015.09.078.104.134.095l.434-.07.02.126-.432.07c-.105.018-.234-.018-.264-.204-.03-.183.08-.259.186-.276l.432-.07.02.125-.433.072c-.056.008-.112.043-.097.132M10.17 17.182l.047.077.186-.214-.274.072.041.065-.098.053-.055-.09-.138.036-.065-.107.677-.17.077.126-.454.53-.066-.106.094-.107-.07-.112.098-.053zM10.444 17.983l.297-.43-.377.341-.083-.09.493-.448.13.142-.302.427.455-.258.129.142-.493.448-.083-.092.376-.34-.456.252zM11.664 18.358l-.26-.202-.09.116.234.182-.076.097-.233-.182-.108.138.259.202-.067.085-.365-.285.41-.524.365.285zM11.909 18.725l.114.064c.035.02.083.006.11-.042.026-.047.01-.094-.033-.118a11.42 11.42 0 0 1-.148-.083l-.086.156.043.023-.048.11-.053-.03-.126.226-.116-.065.325-.582.317.178c.08.045.081.155.035.237-.046.084-.14.102-.171.085.039.022.058.089.017.16l-.091.164-.111-.063.076-.137c.04-.07.017-.107-.041-.139a1.008 1.008 0 0 0-.061-.033l.048-.11zM12.255 19.326l.253-.616.122.05-.252.617zM13.168 19.178c.011-.04 0-.118-.1-.145-.1-.028-.168.043-.204.17-.034.125.003.228.088.252.086.023.15-.033.163-.081l.111.03c-.036.134-.165.198-.312.157-.15-.04-.217-.197-.163-.39.053-.194.19-.293.348-.25a.238.238 0 0 1 .18.287l-.11-.03zM15.121 19.24c-.006-.04-.049-.106-.15-.09-.104.016-.137.107-.116.238.02.128.095.207.183.193.087-.014.123-.09.115-.14l.114-.018c.021.136-.07.248-.22.272-.153.023-.278-.092-.309-.29-.031-.198.053-.344.214-.37.162-.025.267.085.284.187l-.115.018zM15.843 18.925l-.313.1.046.142.28-.09.038.116-.282.09.054.167.313-.1.033.103-.441.142-.203-.634.441-.141zM16.124 18.688l.392.251-.18-.358.117-.06.3.595-.112.057-.42-.262.19.378-.119.06-.3-.595zM17.18 18.846l-.326-.449-.157.114-.065-.09.41-.299.066.09-.157.114.327.45zM18.157 16.783l.485.246.134-.263.108.055-.194.382-.594-.302zM13.739 19.473l.09.01-.057-.278-.11.261.077.007-.017.11-.106-.01-.056.13-.124-.013.278-.64.147.015.143.683-.124-.012-.027-.14-.13-.013.016-.11zM18.172 17.536l.053-.073-.268-.09.17.226.045-.063.087.069a18.05 18.05 0 0 1-.062.087l.085.113-.072.102-.417-.561.086-.12.664.218-.073.1-.134-.046-.077.107-.087-.069zM17.52 18.084l.093-.093c.029-.029.028-.078-.01-.117a.082.082 0 0 0-.123 0l-.12.12.126.124.035-.034.093.076-.044.043.183.182-.094.094-.47-.47s.19-.193.256-.258c.065-.065.17-.036.238.03.067.068.06.164.034.189.032-.032.101-.032.16.027l.132.131-.09.091-.112-.11c-.057-.057-.098-.046-.144.001a1.463 1.463 0 0 0-.05.05l-.092-.076zM18.925 14.671v.09l.27-.082-.27-.085v.077l-.111-.005v-.108l-.135-.042v-.125l.665.215v.147l-.667.209.001-.125.136-.04v-.131l.111.005zM18.324 12.417l.044.079.196-.204-.277.057.037.068-.1.048-.051-.092-.14.029-.06-.11.685-.137.072.128-.48.508-.06-.109.098-.102-.063-.115.1-.048zM17.348 11.219l.067.06.118-.256-.243.145.058.05-.078.08c-.04-.037-.08-.07-.08-.07l-.12.072-.094-.083.601-.355.11.098-.286.637-.093-.083.06-.128-.098-.088.078-.08zM12.493 10.436l.084-.033-.18-.219.025.282.071-.03.037.105-.098.041.013.141-.115.048-.058-.697.136-.055.449.534-.115.048-.09-.11-.122.05-.037-.105zM9.542 14.844v-.13c0-.042-.037-.076-.092-.076-.054 0-.086.04-.086.088v.167h.178v-.049l.119-.013v.062l.258-.002v.133l-.665.003-.002-.363c0-.092.094-.147.19-.148.095 0 .158.073.158.109 0-.047.048-.095.13-.095l.187-.002.001.129h-.157c-.08 0-.1.039-.1.105v.069l-.12.013zM17.947 11.644l.081.102c.026.032.076.037.119.003a.083.083 0 0 0 .013-.122l-.105-.132-.139.11.03.039-.085.084-.038-.048-.201.16-.083-.103.52-.415.227.283c.057.072.018.174-.057.234-.074.06-.17.04-.191.013.028.036.02.105-.044.156l-.146.116-.08-.1s.059-.046.122-.098c.063-.05.056-.092.015-.143l-.044-.055.086-.084zM9.758 16.055a.115.115 0 0 0 0-.23.115.115 0 0 0 0 .23M18.804 16.055a.115.115 0 1 1 0-.23.115.115 0 0 1 0 .23" mask="url(#b)"/>
        <path fill="#B3D2EE" d="M12.843 13.485l-.13.218 1.033.203a1.987 1.987 0 0 1-.004-.068l-.899-.353zM13.176 12.924l-.109.183.758.35c.007-.017.017-.034.025-.05l-.674-.483zM13.022 13.185l-.107.18.837.322a.91.91 0 0 1 .014-.066l-.744-.436zM14.714 14.236l1.18.832c.112-.005.42-.018.482-.022l-1.629-.873a.807.807 0 0 1-.033.063M14.232 14.512l-.055.57h.106v-.567h-.002l-.049-.003M14.313 13.134l.14-1.784-.172-.287-.073.123.062 1.947h.011l.032.001M16.5 14.8l-.27-.454-1.436-.307a1.06 1.06 0 0 1-.028.089l1.734.672zM16.032 14.012l-.157-.263-1.058.154a.775.775 0 0 1-.012.087l1.227.022zM15.793 13.609l-.118-.199-.86.318a.71.71 0 0 1 .005.081l.973-.2zM15.566 13.227l-.082-.138-.7.483a.685.685 0 0 1 .018.07l.764-.415zM15.41 12.965l-.103-.174-.584.637c.012.021.022.044.032.066l.656-.529zM15.266 12.722l-.069-.116-.547.714c.013.015.026.032.037.049l.58-.647zM15.137 12.504l-.069-.116-.518.837c.015.011.029.022.043.035l.544-.756zM14.98 12.24l-.097-.164-.407 1.104a.57.57 0 0 1 .048.026l.457-.965zM14.759 11.868l-.134-.226-.262 1.499a.42.42 0 0 1 .042.01l.354-1.283zM14.03 11.485l-.14.238.287 1.423.043-.009-.19-1.652zM13.768 11.927l-.103.175.42 1.079a.239.239 0 0 1 .032-.015l-.349-1.24zM13.566 12.268l-.081.138.53.818.027-.02-.476-.936zM13.397 12.553l-.137.231.66.528c.01-.012.02-.024.032-.034l-.555-.725zM12.505 14.026l-.175.317 1.446-.278a.851.851 0 0 1-.013-.048l-1.258.009zM12.097 14.743l-.196.332 1.909-.915a.425.425 0 0 1-.017-.044l-1.696.627zM12.89 14.836l.082.13.884-.717a.408.408 0 0 1-.018-.032l-.948.62zM13.046 15.084l.003.003.201.003.673-.75c-.01-.01-.018-.02-.027-.032l-.85.776zM13.683 14.799l.16-.02.17-.354-.043-.037-.287.41zM13.933 14.851c.022.047.071.144.078.155l.13-.515a.376.376 0 0 1-.052-.02l-.156.38zM14.414 15.079l.15-.002-.166-.578a.296.296 0 0 1-.051.01l.067.57zM14.719 15.075h.191l-.422-.613a.464.464 0 0 1-.053.025l.284.588zM15.027 15.076h.26l-.701-.681-.029.023.47.658zM15.395 15.076l.283-.003-1.001-.78a.498.498 0 0 1-.047.058l.765.725z" mask="url(#b)"/>
        <path fill="#4E2F90" d="M16.257 14.392a2.037 2.037 0 0 1 .028.68l.042-.001a2.107 2.107 0 0 0-.01-.579l-.06-.1zM15.54 13.183a2.051 2.051 0 0 0-1.258-.429c-.474 0-.911.16-1.259.429l-.06.102c.354-.305.814-.49 1.319-.49.504 0 .964.185 1.318.49l-.06-.102zM12.305 14.392l-.06.1a2.095 2.095 0 0 0-.004.618h.041a2.038 2.038 0 0 1 .023-.718" mask="url(#b)"/>
        <path fill="#003876" d="M16.317 14.492a2.087 2.087 0 0 1 .01.578h.04a2.098 2.098 0 0 0 .003-.487l-.053-.09zM15.486 13.093a2.095 2.095 0 0 0-1.205-.38c-.448 0-.864.141-1.205.38l-.053.09a2.051 2.051 0 0 1 1.258-.43c.474 0 .91.16 1.259.43l-.054-.09zM12.245 14.493l-.053.09a2.065 2.065 0 0 0 .008.527h.04a2.136 2.136 0 0 1 .005-.617" mask="url(#b)"/>
        <path fill="#009BDB" d="M16.37 14.582a2.085 2.085 0 0 1-.002.489h.04a2.11 2.11 0 0 0 .01-.408l-.047-.08zM15.438 13.012a2.137 2.137 0 0 0-2.313 0l-.049.081c.341-.239.757-.38 1.205-.38.448 0 .864.141 1.205.38l-.048-.081zM12.192 14.583l-.048.08a2.038 2.038 0 0 0 .015.447h.041a2.156 2.156 0 0 1-.008-.527" mask="url(#b)"/>
        <path fill="#00AC8D" d="M16.418 14.663a2.283 2.283 0 0 1-.01.408h.042a2.11 2.11 0 0 0 .013-.332l-.045-.076zM15.394 12.937a2.17 2.17 0 0 0-1.113-.305c-.406 0-.786.111-1.112.305l-.045.074a2.138 2.138 0 0 1 2.314.001l-.044-.075zM12.144 14.663l-.044.076c-.002.026-.002.05-.002.077 0 .1.006.2.02.296l.041-.002a2.038 2.038 0 0 1-.015-.447" mask="url(#b)"/>
        <path fill="#FFF100" d="M16.464 14.74v.075c0 .087-.004.173-.015.257l.042-.001c.01-.084.014-.169.014-.256v-.005l-.041-.07zM15.351 12.865a2.21 2.21 0 0 0-1.07-.274c-.387 0-.752.1-1.07.274l-.042.072a2.167 2.167 0 0 1 1.112-.305c.406 0 .787.111 1.113.305l-.043-.072zM12.1 14.739l-.043.071v.006c0 .1.007.198.02.294l.04.002a2.17 2.17 0 0 1-.017-.373" mask="url(#b)"/>
        <path fill="#F9AA53" d="M16.505 14.81v.005c0 .086-.004.172-.014.256h.04c.008-.065.013-.129.014-.194l-.04-.067zM15.311 12.798a2.252 2.252 0 0 0-1.03-.248c-.371 0-.72.09-1.03.248l-.04.068a2.21 2.21 0 0 1 1.07-.275c.388 0 .753.1 1.07.275l-.04-.068zM12.057 14.81l-.04.067c.003.079.008.156.018.233h.041a2.288 2.288 0 0 1-.019-.294v-.006" mask="url(#b)"/>
        <path fill="#EC1B2E" d="M16.545 14.877a2.25 2.25 0 0 1-.013.194h.041c.005-.044.008-.087.01-.13l-.038-.064zM15.273 12.734a2.295 2.295 0 0 0-1.983 0l-.039.064c.309-.158.66-.248 1.03-.248.372 0 .721.09 1.03.248l-.038-.064zM11.98 14.941c.002.057.007.114.014.17h.042a2.289 2.289 0 0 1-.019-.234l-.038.064z" mask="url(#b)"/>
        <path fill="#003876" d="M13.124 15.212c.05.002.195.004.227.004.031 0 .067.036-.002.036-.07 0-.18.004-.198.004l-.027-.044zM13.2 15.32c.034 0 .097-.006.119-.004.02.003.032.02 0 .023-.032.004-.073.013-.102.014l-.017-.033zM14.11 15.2c.032.006.213-.003.245-.003v.034c-.076.002-.195.014-.227.013l-.018-.044zM15.018 15.164c.051 0 .143.004.172.004l-.002.027c-.055-.001-.136.008-.152.008l-.018-.039zM15.619 15.172c.054-.003.171.002.203.002l-.002.031a7.18 7.18 0 0 1-.178.005l-.023-.038zM16.85 15.392a2.17 2.17 0 0 0-.208.018c-.032.006-.044.041.011.033.043-.007.158-.012.22-.014l-.022-.037zM11.695 15.42c.07.001.232.015.316.03l.085-.047a5.225 5.225 0 0 0-.375-.026l-.026.043zM11.767 15.299l-.023.037c.112-.025.318-.016.428.011l.038-.035c-.083-.04-.336-.031-.443-.013M11.831 15.19l-.04.068c.14-.03.39-.057.514-.027l.036-.034c-.136-.047-.4-.019-.51-.007M12.476 16.334c-.027-.007.01-.027.044-.042.152-.067.348-.029.44-.01.092.018.082.038.055.047.103-.002.21-.003.303-.007a1.058 1.058 0 0 1-.294-.065 1.12 1.12 0 0 0-.568 0c-.076.023-.167.039-.262.023.09.025.188.047.282.054M16.642 15.04c-.152-.001-.576.019-.719.026-.16.009-.88.013-1.06.009-.177-.004-1.046.016-1.3.016-.243 0-1.42-.011-1.663-.016l-.037.062c.14-.002.804.009 1.025.004.238-.003.852.005 1.065 0 .211-.003.716-.02.813-.017.097.005.806 0 .937-.007.126-.01.596-.02.968-.029l-.03-.048zM16.699 15.136a7.454 7.454 0 0 0-.347.016c-.034.004-.07.035.01.029.066-.005.268-.005.361-.005l-.024-.04zM16.749 15.22c-.098 0-.29.01-.319.015-.031.006-.053.048.007.035.048-.01.244-.014.333-.014l-.021-.036zM16.805 15.314c-.09.004-.24.02-.269.023-.034.002-.066.035 0 .033.053-.001.217-.016.29-.021l-.021-.035zM17.22 16.016a.725.725 0 0 1-.245-.034c-.055-.02-.102-.03-.03.012.064.037.22.067.302.065l-.026-.043zM17.282 16.118a1.123 1.123 0 0 1-.43-.094c-.157-.076-.36-.048-.534-.025a1.809 1.809 0 0 1-.759-.042c-.267-.063-.628-.054-.75-.004-.123.05-.098.067.034.042.131-.025.436-.063.699.008.263.07.513.083.675.07.16-.012.292-.029.36-.024.068.004.059.025 0 .033-.488.062-.691.079-.971 0-.28-.08-.538-.05-.725-.025a1.107 1.107 0 0 1-.547-.054c-.174-.067-.31-.09-.415-.055-.038.013-.051.034.012.026a.82.82 0 0 1 .394.062c.153.07.386.087.594.058.207-.029.462-.062.682.03.221.09.475.07.7.037.224-.033.377-.075.555-.03.157.04.37.052.459.043l-.033-.056z" mask="url(#b)"/>
        <path fill="#003876" d="M17.341 16.218c-.1.017-.357-.002-.468-.028-.123-.03-.322-.004-.607.05-.283.054-.592-.038-.754-.075a1.634 1.634 0 0 0-.504-.025c-.144.017-.373.046-.7-.05-.404-.118-.619-.066-.72-.037-.102.029-.318.029-.547-.033a1.125 1.125 0 0 0-.577-.009c-.14.038-.35.067-.546.009a1.688 1.688 0 0 0-.553-.045l-.028.047c.123-.02.406-.027.576.04.204.078.48.046.573.016.207-.067.343-.054.547.008.143.044.413.052.589.008.284-.07.445-.029.678.046.233.075.556.084.729.071.174-.013.322-.054.534.013.212.066.497.112.742.054.246-.06.466-.067.58-.047.11.02.306.047.476.022l-.02-.035z" mask="url(#b)"/>
        <path fill="#003876" d="M17.389 16.298c-.075.01-.247.014-.41-.008a1.642 1.642 0 0 0-.631.024 1.158 1.158 0 0 1-.623-.007 1.827 1.827 0 0 0-.645-.038c-.237.025-.59-.016-.86-.087a1.319 1.319 0 0 0-.692.008c-.199.05-.508-.004-.605-.05-.098-.046-.242-.05-.437-.008-.195.041-.37.029-.568-.025a1.579 1.579 0 0 0-.604-.044l-.02.032c.128-.014.446-.023.628.045.212.079.45.055.572.029.124-.025.336-.034.429.013.199.1.513.077.627.045.258-.07.45-.07.67-.003.22.066.623.107.873.074.168-.022.424-.013.632.046.207.058.41.067.644.004.233-.063.487-.046.628-.025.132.02.239.036.414.012l-.022-.037z" mask="url(#b)"/>
        <path fill="#003876" d="M17.447 16.396a3.74 3.74 0 0 1-.459-.002c-.124-.013-.323-.042-.543.02a1.4 1.4 0 0 1-.708-.004 1.383 1.383 0 0 0-.606-.049 1.79 1.79 0 0 1-.784-.042c-.314-.091-.437-.108-.767-.02-.14.036-.815.028-1.005.036-.19.009-.428-.062-.572-.12-.137-.055-.493-.08-.749-.051l-.03.05c.24-.05.555-.006.677.063-.154-.037-.525-.02-.724.015l-.044.075c.315-.07.783-.052.954-.015.191.042.505.075.708.026.197-.049.511.011.704.087h.88c-.137-.085-.3-.037-.418-.026a.54.54 0 0 1-.31-.054c-.059-.037 0-.033.103-.062.294-.084.525.015.696.142h.693c.187-.127.354-.066.45-.03.024.01.078.02.147.03h.73c.178-.071.412-.046.526-.03.112.017.26.033.473-.002l-.022-.037z" mask="url(#b)"/>
        <path fill="#00AC8D" d="M16.942 15.545c-.45-.007-.64-.272-.806-.55-.085.005-.208.017-.289.013-.012.042-.067.183-.101.292-.098-.063-.2-.27-.26-.388-.045 0-.143.004-.22-.004-.03.062-.119.266-.156.35a4.396 4.396 0 0 1-.31-.429c-.08-.004-.199.013-.292.013-.051.15-.153.37-.28.5-.093-.093-.271-.426-.33-.567-.06 0-.179.025-.247.025-.059.116-.229.467-.33.65-.17-.176-.381-.534-.526-.774l-.203.016c-.256.713-.696.81-.962.838l-.202.34c.104 0 .277.017.405.058.144.046.411.079.62.004.207-.075.427-.062.643-.021.217.042.581.067.899-.087.407.204.666.092.865.05.199-.042.475-.071.686-.004.28.087.64.087.903.017.319-.087.51.08.75.09l-.257-.432z" mask="url(#b)"/>
        <path fill="#FFE01A" d="M12.592 14.692c.016.378.232.775.776 1.25h.121c-.144-.142-.47-.497-.58-.67a.579.579 0 0 1-.008-.08c.299.338.52.6.804.726.05-.01.121-.027.167-.044-.471-.244-.729-.601-1.077-1.199-.068.007-.155.01-.203.017M14.604 14.838c-.08.245-.177.478-.316.6.022.026.058.055.084.08.06-.046.136-.136.155-.156.036.016.048.087-.047.25.124.083.331.197.48.244-.125.019-.273.062-.34.072-.271-.195-.485-.33-.693-.683-.03.133-.01.197.085.304.084.096.218.245.472.393a.996.996 0 0 1-.49-.118 2.455 2.455 0 0 1-.343-1.024c.073-.002.178-.024.246-.025.076.17.226.453.331.566.09-.09.21-.29.28-.5l.096-.003M15.34 14.913c-.026.122-.11.311-.169.413-.016-.019-.045-.048-.061-.068l.157-.35c.018.002.06.006.073.005M15.193 15.414c.023.013.065.044.082.052.048-.075.06-.135.047-.248-.057.046-.064.15-.13.196M15.746 15.3c.023.02.05.039.072.054.042-.117.09-.267.104-.346-.028 0-.052.002-.075 0-.043.121-.089.25-.101.292" mask="url(#b)"/>
    </g>
</svg>
