<svg xmlns="http://www.w3.org/2000/svg" xmlns:xlink="http://www.w3.org/1999/xlink" width="29" height="29" viewBox="0 0 29 29">
    <defs>
        <path id="a" d="M.089 14.16c0 7.793 6.315 14.108 14.108 14.108 7.791 0 14.108-6.315 14.108-14.108C28.305 6.37 21.988.052 14.197.052 6.404.052.089 6.37.089 14.16z"/>
    </defs>
    <g fill="none" fill-rule="evenodd">
        <mask id="b" fill="#fff">
            <use xlink:href="#a"/>
        </mask>
        <path fill="#FFF" d="M-21.162 35.375h70.717v-42.43h-70.717z" mask="url(#b)"/>
        <path fill="#0038A8" d="M-21.162 35.375h70.717V21.232h-70.717z" mask="url(#b)"/>
        <path fill="#D52B1E" d="M-21.162 7.09h70.717V-7.055h-70.717z" mask="url(#b)"/>
        <path fill="#000" d="M14.196 8.845a5.28 5.28 0 0 0-3.759 1.557A5.277 5.277 0 0 0 8.88 14.16c0 1.42.553 2.756 1.558 3.76a5.279 5.279 0 0 0 3.758 1.556 5.322 5.322 0 0 0 5.316-5.316 5.322 5.322 0 0 0-5.316-5.316zm0 10.852a5.541 5.541 0 0 1-5.535-5.535c0-1.48.575-2.87 1.62-3.915a5.497 5.497 0 0 1 3.915-1.622 5.5 5.5 0 0 1 3.913 1.62 5.499 5.499 0 0 1 1.622 3.915 5.542 5.542 0 0 1-5.535 5.537z" mask="url(#b)"/>
        <path fill="#009B3A" d="M14.913 11.628s2.064.888 1.703 2.726c-.36 1.838-1.508 1.825-1.96 2.028-.45.204-.76.494-.939.454a1.903 1.903 0 0 1-.412-.179s-.019.303.342.358c.363.054.838-.477 1.067-.537.228-.058 1.631-.21 1.972-2.08.4-1.996-1.76-2.712-1.773-2.77" mask="url(#b)"/>
        <path fill="#000" d="M13.313 16.672c.002.062.028.286.336.334.225.034.503-.168.725-.33.135-.1.252-.183.337-.206.018-.004.04-.01.07-.015.186-.039.574-.12.964-.41.485-.36.799-.914.933-1.649.196-.982-.189-1.791-1.145-2.411.12.087.248.19.373.31.431.414.906 1.107.72 2.06-.133.677-.38 1.163-.756 1.487-.317.275-.658.374-.932.455-.108.032-.203.06-.278.093a4.462 4.462 0 0 0-.48.264c-.207.124-.356.215-.465.19a1.797 1.797 0 0 1-.402-.172m.388.355c-.019 0-.037-.001-.055-.004-.292-.044-.357-.259-.35-.366v-.014l.013.007c.003.001.236.137.41.177.101.023.256-.07.452-.188.14-.086.298-.181.482-.264a2.28 2.28 0 0 1 .28-.095c.548-.16 1.376-.405 1.675-1.928.185-.945-.286-1.633-.715-2.044a3.76 3.76 0 0 0-.682-.514 4.42 4.42 0 0 0-.193-.099c-.094-.046-.111-.054-.114-.065l-.004-.018.016.007c.003.001.112.049.275.143.253.132.639.359.963.706.507.545.688 1.195.541 1.931-.135.74-.451 1.298-.94 1.66a2.406 2.406 0 0 1-.972.414.883.883 0 0 0-.067.014c-.082.022-.197.105-.33.203-.21.15-.465.337-.685.337" mask="url(#b)"/>
        <path fill="#009B3A" d="M15.956 12.019c.038.151.039.276.001.279-.037.003-.1-.117-.138-.27-.038-.15-.039-.276-.001-.278.037-.003.1.117.138.269" mask="url(#b)"/>
        <path fill="#000" d="M15.831 11.764c-.002 0-.006 0-.011.006-.024.034-.024.165.024.348.055.218.134.347.169.347 0 0 .006 0 .011-.006.023-.034.023-.164-.024-.348-.055-.218-.134-.347-.169-.347zm.182.725c-.065 0-.146-.186-.192-.365-.045-.174-.053-.32-.02-.367.01-.013.02-.016.028-.016h.002c.065 0 .146.186.192.364.044.174.052.322.02.367a.04.04 0 0 1-.027.017h-.003z" mask="url(#b)"/>
        <path fill="#009B3A" d="M15.884 12.038c.071.144.102.272.068.284-.035.012-.12-.095-.191-.239-.072-.145-.102-.272-.068-.285.033-.013.119.095.19.239" mask="url(#b)"/>
        <path fill="#000" d="M15.802 12.175c.098.197.198.308.232.308h.005c0-.001.003-.002.006-.009.016-.039-.015-.175-.103-.35v-.003c-.099-.198-.2-.31-.233-.31-.003 0-.004 0-.005.002-.002 0-.005 0-.007.008-.015.038.016.174.104.351v.003zm.233.332c-.062 0-.173-.158-.255-.324l-.001-.003c-.082-.164-.124-.316-.104-.368a.038.038 0 0 1 .02-.021c.06-.024.18.144.267.32h.001c.082.168.125.32.104.372-.005.013-.014.02-.02.021a.037.037 0 0 1-.012.003z" mask="url(#b)"/>
        <path fill="#009B3A" d="M15.678 12.174c.146.043.262.109.259.147-.004.039-.126.036-.272-.007-.146-.043-.262-.109-.258-.148.003-.038.124-.035.27.008" mask="url(#b)"/>
        <path fill="#000" d="M15.505 12.154a.16.16 0 0 0-.077.014c-.006.005-.007.008-.008.01-.003.04.133.125.335.183.175.052.301.055.335.031.006-.004.008-.008.009-.01.003-.04-.133-.123-.335-.182a.962.962 0 0 0-.259-.046m.508.276a1.02 1.02 0 0 1-.266-.046c-.174-.05-.356-.14-.35-.207a.036.036 0 0 1 .019-.028c.046-.032.19-.02.355.028.174.05.357.14.35.207a.04.04 0 0 1-.017.028c-.018.012-.05.018-.091.018" mask="url(#b)"/>
        <path fill="#009B3A" d="M15.708 12.099c.133.09.228.188.213.221-.017.032-.138-.013-.272-.103s-.229-.189-.212-.221c.016-.033.137.013.27.103h.001" mask="url(#b)"/>
        <path fill="#000" d="M15.473 12l-.014.001c-.007.002-.008.005-.008.006-.015.03.084.148.275.277l.003.002c.161.108.292.154.33.145.007-.001.01-.004.01-.005.014-.03-.084-.148-.276-.277l-.003-.003c-.146-.097-.268-.146-.317-.146m.573.456c-.064 0-.191-.058-.332-.152-.163-.11-.313-.25-.285-.307a.039.039 0 0 1 .024-.019c.055-.014.196.046.351.15l.001.001c.16.106.313.25.284.306a.03.03 0 0 1-.024.019.093.093 0 0 1-.019.002" mask="url(#b)"/>
        <path fill="#009B3A" d="M15.795 12.063c.113.118.185.234.16.26-.025.025-.136-.05-.25-.168-.113-.118-.185-.234-.16-.259.025-.026.137.05.25.167" mask="url(#b)"/>
        <path fill="#000" d="M15.568 11.906c-.005 0-.008 0-.01.003-.022.021.049.156.211.325.14.146.26.224.303.224.005 0 .01-.001.011-.003.022-.022-.048-.157-.212-.326-.139-.145-.26-.223-.303-.223m.505.575h-.001c-.057 0-.189-.095-.32-.23-.138-.144-.255-.313-.21-.359.006-.007.015-.01.026-.01.058 0 .19.095.32.23.138.145.256.314.212.36a.035.035 0 0 1-.027.01" mask="url(#b)"/>
        <path fill="#009B3A" d="M15.94 12.322c0 .001-.08.045-.099.052-.018.006-.043-.025-.095.002a.235.235 0 0 0-.1.105c-.012.029.014.041.078.01.063-.03.08-.08.111-.099a.69.69 0 0 1 .111-.058c.013-.028.054-.087.076-.12.02-.035.104-.09.134-.156.027-.054.017-.1-.018-.081a.326.326 0 0 0-.103.113c-.021.038-.003.088-.027.124-.019.027-.064.108-.069.108" mask="url(#b)"/>
        <path fill="#000" d="M16.32 11.987a.034.034 0 0 0-.014.004.406.406 0 0 0-.132.145c-.012.023-.013.048-.015.076a.237.237 0 0 1-.006.054.603.603 0 0 1 .045-.044c.04-.04.092-.087.116-.139.024-.05.022-.085.011-.094 0-.002-.004-.002-.006-.002m-.482.518a.11.11 0 0 0-.05.014.291.291 0 0 0-.128.133c0 .004-.004.013 0 .018.007.006.033.008.088-.02.05-.023.077-.056.1-.084.016-.019.029-.035.046-.046l.004-.002c-.008 0-.014-.003-.022-.005a.099.099 0 0 0-.038-.008m-.163.192c-.013 0-.024-.004-.03-.01-.006-.006-.016-.02-.005-.043a.307.307 0 0 1 .137-.145.122.122 0 0 1 .106-.009c.01.004.018.007.022.005.02-.008.088-.044.115-.06l-.009-.009h.023c.006-.01.027-.041.04-.066l.046-.07a.16.16 0 0 0 .017-.08.191.191 0 0 1 .017-.085.45.45 0 0 1 .141-.155c.026-.014.042-.005.048.003.02.02.019.068-.006.12a.533.533 0 0 1-.123.146c-.024.025-.047.045-.058.06-.008.014-.018.032-.03.05a.908.908 0 0 0-.068.11l-.002.004-.004.002a1.036 1.036 0 0 0-.145.075c-.015.008-.026.024-.04.04-.024.03-.053.066-.108.092a.21.21 0 0 1-.084.025" mask="url(#b)"/>
        <path fill="#009B3A" d="M16.578 12.534c.003.234-.037.414-.09.402-.053-.013-.098-.213-.102-.447v-.001c-.003-.234.037-.414.09-.402.053.012.099.212.102.446v.002z" mask="url(#b)"/>
        <path fill="#000" d="M16.5 12.097c-.002 0-.007.001-.014.006-.045.034-.09.204-.085.464.005.295.07.512.126.524.004.001.01.001.018-.005.046-.033.09-.203.085-.464v-.002c-.004-.293-.07-.51-.125-.523h-.004m.03 1.016l-.01-.001c-.087-.02-.14-.294-.143-.543-.005-.242.035-.439.094-.483a.049.049 0 0 1 .038-.008c.088.018.14.292.144.542l-.011.002h.011c.004.24-.035.437-.094.48a.05.05 0 0 1-.03.01" mask="url(#b)"/>
        <path fill="#009B3A" d="M16.472 12.529c.051.239.051.435 0 .437-.05.003-.134-.189-.185-.428-.051-.239-.051-.434 0-.437.051-.002.134.189.185.428" mask="url(#b)"/>
        <path fill="#000" d="M16.304 12.113c-.005 0-.01.003-.016.008-.035.041-.038.228.025.492.072.293.18.495.232.495.006-.002.01-.003.016-.008.035-.042.04-.228-.025-.493-.07-.293-.178-.494-.232-.494zm.242 1.015c-.086 0-.196-.262-.256-.51-.059-.246-.067-.456-.02-.51a.04.04 0 0 1 .032-.015h.002c.086 0 .195.26.255.51.059.245.067.454.02.509a.044.044 0 0 1-.032.016z" mask="url(#b)"/>
        <path fill="#009B3A" d="M16.142 12.632c.188.127.327.274.31.327-.018.054-.184-.005-.373-.132h-.001c-.19-.127-.328-.274-.31-.327.017-.054.184.004.373.131l.001.001" mask="url(#b)"/>
        <path fill="#000" d="M15.823 12.494a.08.08 0 0 0-.025.003.027.027 0 0 0-.016.016c-.019.058.14.24.406.418l.003.003c.227.152.402.212.457.194.009-.003.014-.009.016-.016.019-.057-.14-.24-.405-.418l-.002-.001c-.2-.136-.361-.2-.434-.2m.8.662c-.088 0-.26-.078-.448-.203-.226-.154-.442-.36-.415-.447a.045.045 0 0 1 .031-.03c.073-.025.266.055.48.198v.001c.226.152.443.36.415.445a.046.046 0 0 1-.03.03.106.106 0 0 1-.033.006" mask="url(#b)"/>
        <path fill="#009B3A" d="M16.209 12.538c.155.188.254.372.22.412-.033.039-.186-.081-.341-.269-.156-.188-.254-.372-.22-.411.033-.04.186.08.34.268" mask="url(#b)"/>
        <path fill="#000" d="M15.897 12.277c-.007 0-.012.002-.015.005-.035.041.075.267.29.528l.002.002c.192.232.358.359.416.359.01 0 .015-.005.016-.006.034-.041-.077-.268-.292-.528-.193-.233-.358-.36-.417-.36m.693.917c-.077 0-.256-.152-.435-.368l-.002-.002c-.182-.221-.346-.491-.289-.557a.043.043 0 0 1 .033-.013c.078.001.256.152.434.368.184.221.348.493.292.559a.045.045 0 0 1-.033.013" mask="url(#b)"/>
        <path fill="#009B3A" d="M16.341 12.525c.118.22.18.418.137.444-.042.026-.173-.13-.29-.35l-.002-.002c-.117-.219-.178-.418-.136-.444.042-.025.172.131.29.35 0 .002.002.002.002.002" mask="url(#b)"/>
        <path fill="#000" d="M16.071 12.184c-.003 0-.006 0-.008.002-.044.025.022.256.184.547l.002.003c.148.263.292.423.351.438.008.002.013.002.017 0 .043-.026-.022-.257-.184-.546l-.002-.003c-.15-.265-.293-.424-.352-.44h-.008m.538 1.013l-.015-.002c-.078-.02-.228-.206-.365-.45l-.003-.003c-.138-.248-.247-.534-.176-.576a.052.052 0 0 1 .036-.003c.077.02.227.205.365.45l.001.003c.14.248.249.533.177.576a.049.049 0 0 1-.02.005" mask="url(#b)"/>
        <path fill="#009B3A" d="M16.455 12.96c0 .003-.125.03-.153.03-.027.002-.051-.053-.133-.039a.293.293 0 0 0-.173.106c-.026.036.006.066.105.05.098-.016.138-.079.186-.092a.907.907 0 0 1 .174-.033c.026-.034.103-.101.144-.14.04-.04.175-.083.239-.162.054-.066.056-.137 0-.125a.423.423 0 0 0-.18.115c-.042.047-.033.126-.078.168-.034.03-.124.124-.13.123" mask="url(#b)"/>
        <path fill="#000" d="M16.97 12.569h-.01a.468.468 0 0 0-.198.15c-.022.028-.03.065-.04.104a.324.324 0 0 1-.035.099.506.506 0 0 1 .084-.058.6.6 0 0 0 .178-.148c.04-.057.053-.114.041-.137-.004-.007-.01-.01-.02-.01m-.745.522a.154.154 0 0 0-.03.003.32.32 0 0 0-.19.134c-.004.01-.01.023-.004.033.008.016.043.029.115.015a.294.294 0 0 0 .143-.078c.023-.02.043-.036.066-.043.013-.004.028-.008.042-.014-.013.004-.022.005-.022.005h-.001c-.014 0-.025-.01-.038-.021-.02-.016-.043-.034-.081-.034m-.164.214c-.04 0-.067-.01-.077-.031-.006-.01-.011-.03.006-.058a.34.34 0 0 1 .202-.145c.065-.013.101.016.125.035.01.009.02.017.027.017.026-.002.126-.026.158-.035l-.006-.013.02.007a1.03 1.03 0 0 0 .07-.077c.028-.031.056-.064.073-.081.024-.026.033-.065.043-.107.01-.04.02-.082.045-.114a.485.485 0 0 1 .208-.156c.032-.008.047.01.052.02.018.036 0 .103-.042.163-.046.068-.123.115-.185.155a.433.433 0 0 0-.086.06c-.014.017-.032.036-.052.057-.041.045-.09.097-.11.128l-.003.003-.004.001a.916.916 0 0 0-.195.043c-.02.007-.038.022-.06.04a.323.323 0 0 1-.152.083.401.401 0 0 1-.057.005" mask="url(#b)"/>
        <path fill="#009B3A" d="M16.914 13.39c-.039.231-.11.4-.16.378-.049-.022-.058-.23-.02-.461.04-.232.112-.402.162-.379.049.022.058.23.018.461" mask="url(#b)"/>
        <path fill="#000" d="M16.946 12.938c-.003 0-.006 0-.012.003-.051.024-.128.186-.177.446-.054.293-.033.521.019.543.004.002.01.004.019-.002.051-.024.129-.185.177-.445.053-.293.033-.521-.019-.543a.016.016 0 0 0-.007-.002m-.163 1.015c-.006 0-.011-.001-.016-.003-.082-.035-.078-.318-.033-.566.045-.24.123-.43.19-.462a.05.05 0 0 1 .038-.002c.083.035.078.318.032.566-.044.24-.122.43-.188.461a.054.054 0 0 1-.023.006" mask="url(#b)"/>
        <path fill="#009B3A" d="M16.812 13.364c.007.245-.028.44-.079.432-.05-.007-.097-.212-.103-.458-.007-.246.028-.44.078-.433.05.007.097.213.104.458z" mask="url(#b)"/>
        <path fill="#000" d="M16.733 12.916c-.002 0-.007.001-.014.006-.043.033-.083.211-.075.477.01.295.074.506.127.513.002 0 .007 0 .016-.005.042-.034.084-.212.075-.477v-.002c-.01-.293-.075-.505-.127-.512h-.002m.04 1.016h-.005c-.085-.01-.14-.281-.147-.531-.008-.247.026-.45.083-.495a.05.05 0 0 1 .034-.01c.085.011.139.282.147.532v.001c.008.246-.026.449-.084.492a.042.042 0 0 1-.028.011" mask="url(#b)"/>
        <path fill="#009B3A" d="M16.47 13.403c.162.161.27.332.244.382-.026.05-.18-.04-.34-.202l-.002-.001c-.161-.161-.27-.332-.243-.382.027-.05.18.04.34.202h.001" mask="url(#b)"/>
        <path fill="#000" d="M16.465 13.705c.188.188.343.282.406.282l.007-.001c.009-.001.015-.004.018-.012.029-.053-.092-.263-.319-.49l-.002-.003c-.196-.194-.355-.289-.413-.28-.009.002-.015.005-.019.011-.028.054.093.264.32.492h.001l.001.001zm.406.305c-.08 0-.247-.113-.421-.287l-.004-.003c-.192-.193-.366-.44-.324-.518a.046.046 0 0 1 .037-.024c.075-.011.25.105.433.288h.002c.192.195.366.44.323.52a.042.042 0 0 1-.036.023h-.01z" mask="url(#b)"/>
        <path fill="#009B3A" d="M16.553 13.322c.117.215.18.416.14.449-.038.032-.166-.116-.284-.33v-.002c-.118-.215-.182-.415-.142-.448.04-.032.167.115.285.33v.001" mask="url(#b)"/>
        <path fill="#000" d="M16.291 13c-.006 0-.008.002-.01.003-.04.033.027.272.19.563l.001.003c.146.258.286.41.342.421.011.001.016-.002.017-.003.041-.033-.027-.271-.19-.56v-.002c-.148-.261-.287-.414-.344-.424L16.291 13m.53 1.013h-.011c-.075-.015-.223-.194-.358-.435-.14-.248-.252-.539-.186-.592.006-.006.019-.01.035-.007.076.014.223.192.359.435.14.247.251.538.185.591-.005.003-.013.008-.025.008" mask="url(#b)"/>
        <path fill="#009B3A" d="M16.685 13.335c.075.24.1.447.053.465-.046.017-.145-.162-.22-.401v-.003c-.077-.239-.101-.446-.055-.464.046-.018.145.162.221.402v.001" mask="url(#b)"/>
        <path fill="#000" d="M16.482 12.943h-.004c-.042.014-.037.21.077.53 0 0 .002.001.002.003.095.266.206.435.26.458.007.003.01.004.015.002.048-.016.028-.237-.077-.529v-.002c-.097-.267-.207-.437-.262-.46-.004-.002-.008-.002-.011-.002m.346 1.015a.055.055 0 0 1-.022-.006c-.071-.03-.183-.224-.272-.471l-.001-.003c-.09-.249-.142-.528-.063-.554a.056.056 0 0 1 .034.002c.071.031.183.225.272.473l.001.002c.09.249.142.528.064.554a.04.04 0 0 1-.013.003" mask="url(#b)"/>
        <path fill="#009B3A" d="M16.717 13.787c.001.002-.127.004-.154 0-.028-.004-.04-.063-.123-.064a.292.292 0 0 0-.19.071c-.031.03-.005.066.094.07.1.003.15-.052.2-.056a.873.873 0 0 1 .175.001c.032-.029.119-.08.166-.11.047-.031.186-.048.263-.115.065-.055.079-.124.023-.123a.415.415 0 0 0-.197.08c-.05.037-.055.118-.107.15-.04.022-.143.1-.15.096" mask="url(#b)"/>
        <path fill="#000" d="M17.22 13.475c-.058.001-.15.054-.203.103a.26.26 0 0 0-.05.094.297.297 0 0 1-.047.09.463.463 0 0 1 .085-.039c.06-.024.135-.053.183-.106.045-.046.064-.1.057-.125-.003-.011-.012-.017-.025-.017zm-.772.346a.26.26 0 0 0-.19.091c-.006.008-.013.02-.01.032.007.017.036.037.103.04h.009c.057 0 .096-.024.132-.045.025-.014.045-.027.067-.029l.042-.003h-.023c-.013-.003-.022-.015-.033-.03-.019-.025-.042-.055-.095-.056h-.002zm-.088.186h-.01c-.066-.002-.108-.022-.119-.056-.005-.018 0-.037.014-.055a.285.285 0 0 1 .203-.097h.002c.06 0 .09.037.109.062.009.011.015.021.023.022.024.005.123.004.151.002v-.01l.01.007a.998.998 0 0 0 .075-.06c.029-.026.06-.051.077-.065.025-.02.04-.056.055-.095a.272.272 0 0 1 .057-.103c.053-.05.15-.105.211-.106h.002a.04.04 0 0 1 .042.03c.012.04-.014.102-.062.152-.05.056-.127.086-.19.11a.34.34 0 0 0-.086.042 2.235 2.235 0 0 1-.053.043 1.123 1.123 0 0 0-.12.102l-.005.003h-.004a.82.82 0 0 0-.182 0c-.018.001-.038.013-.06.025a.257.257 0 0 1-.14.047z" mask="url(#b)"/>
        <path fill="#009B3A" d="M16.94 14.344c-.126.2-.257.327-.293.285-.036-.04.036-.236.162-.435s.257-.327.293-.286c.035.042-.037.237-.162.436z" mask="url(#b)"/>
        <path fill="#000" d="M17.23 13.915h-.003c-.058.004-.196.137-.35.382-.174.277-.253.518-.215.562.003.003.008.008.017.006.057-.004.196-.137.35-.382l.001-.001c.174-.277.252-.517.215-.56-.002-.004-.006-.007-.016-.007zm-.553.973a.042.042 0 0 1-.033-.014c-.06-.069.065-.355.213-.589l.003-.003c.14-.223.29-.384.365-.39.018-.002.028.004.037.014.06.068-.065.354-.212.59-.144.225-.294.387-.369.392h-.004z" mask="url(#b)"/>
        <path fill="#009B3A" d="M16.857 14.279c-.09.23-.196.395-.24.368-.043-.027-.005-.237.084-.467v-.002c.09-.23.196-.395.239-.367.043.028.005.237-.083.468" mask="url(#b)"/>
        <path fill="#000" d="M17.039 13.82c-.002 0-.004 0-.007.002-.055.016-.172.174-.284.438l-.002.004c-.122.29-.159.522-.114.547.003.002.007.004.015.001.054-.016.172-.175.284-.44l.012.005-.012-.005c.123-.29.16-.523.115-.55a.016.016 0 0 0-.007-.001m-.399 1.014a.04.04 0 0 1-.02-.006c-.073-.041 0-.327.105-.576l.001-.002c.104-.243.226-.428.297-.45a.052.052 0 0 1 .037.004c.07.042-.003.328-.107.576-.104.244-.226.43-.298.451a.044.044 0 0 1-.015.003" mask="url(#b)"/>
        <path fill="#009B3A" d="M16.532 14.173c.083.216.115.42.072.455-.044.035-.146-.113-.23-.329-.083-.216-.116-.42-.072-.455.043-.035.147.113.23.329" mask="url(#b)"/>
        <path fill="#000" d="M16.33 13.853a.017.017 0 0 0-.011.004c-.048.037-.02.273.098.568.102.255.211.403.266.418a.026.026 0 0 0 .02-.003c.047-.037.019-.274-.098-.568-.102-.255-.212-.403-.267-.418l-.008-.001m.36 1.013c-.004 0-.009 0-.014-.002-.072-.02-.185-.192-.28-.431-.1-.25-.162-.54-.092-.594a.047.047 0 0 1 .04-.007c.073.02.186.193.282.432.1.249.161.54.092.593a.044.044 0 0 1-.027.009" mask="url(#b)"/>
        <path fill="#009B3A" d="M16.638 14.133c.022.247.002.46-.047.473-.048.014-.106-.176-.129-.425-.023-.247-.002-.46.046-.473.048-.014.107.176.13.425" mask="url(#b)"/>
        <path fill="#000" d="M16.535 13.718h-.003c-.05.013-.084.231-.053.525.03.266.096.44.142.468.008.005.014.003.015.003.05-.013.085-.23.052-.524-.029-.267-.094-.44-.141-.468a.028.028 0 0 0-.012-.004m.098 1.016a.05.05 0 0 1-.025-.007c-.062-.037-.126-.235-.152-.482-.028-.25-.012-.527.07-.545a.046.046 0 0 1 .034.005c.062.037.125.235.151.482.028.25.013.527-.07.546l-.008.001" mask="url(#b)"/>
        <path fill="#009B3A" d="M16.752 14.2c-.024.253-.083.455-.132.45-.048-.003-.068-.21-.043-.464.024-.252.083-.455.131-.451.049.003.068.211.044.464" mask="url(#b)"/>
        <path fill="#000" d="M16.755 13.745c-.043 0-.125.186-.16.493-.031.27-.007.459.033.498.005.005.008.007.014.007.045 0 .126-.185.16-.492.032-.27.007-.459-.033-.499-.004-.005-.009-.007-.014-.007m-.113 1.017h-.003a.042.042 0 0 1-.029-.013c-.05-.052-.068-.263-.04-.513.03-.249.103-.51.185-.51h.003c.01.001.02.006.03.014.051.052.068.262.039.513-.028.248-.103.509-.185.509" mask="url(#b)"/>
        <path fill="#009B3A" d="M16.606 14.632c0 .002-.116-.049-.14-.064-.023-.015-.012-.076-.087-.111a.276.276 0 0 0-.197-.012c-.041.016-.031.06.058.104.088.044.154.014.201.03.047.018.121.05.158.073.04-.012.139-.023.194-.033.054-.01.186.032.282.002.08-.023.12-.082.068-.104a.397.397 0 0 0-.208-.007c-.06.014-.097.086-.155.094-.045.005-.17.033-.174.028" mask="url(#b)"/>
        <path fill="#000" d="M16.398 14.61c.018 0 .034.001.049.008a.386.386 0 0 1 .037.019.252.252 0 0 1-.02-.013c-.01-.009-.015-.025-.02-.044-.01-.033-.02-.073-.066-.101a.212.212 0 0 0-.193-.016c-.008.004-.017.011-.018.024 0 .019.02.054.077.091a.213.213 0 0 0 .136.032h.018zm.42.058c.02 0 .045.004.073.008.06.01.133.021.19-.002.055-.021.085-.06.087-.087 0-.012-.006-.022-.018-.03-.05-.028-.146-.028-.205-.009-.027.008-.05.034-.073.061a.223.223 0 0 1-.068.06h.015zm-.215.072l-.004-.004a.814.814 0 0 0-.158-.096c-.017-.008-.037-.007-.06-.007a.22.22 0 0 1-.145-.034c-.057-.038-.088-.078-.086-.114a.05.05 0 0 1 .028-.044.23.23 0 0 1 .208.017.175.175 0 0 1 .075.114c.005.015.008.028.013.033.02.015.1.063.129.078l.001-.016.012.02c.011 0 .051-.01.082-.017a.755.755 0 0 1 .087-.018c.027-.007.05-.033.075-.062.024-.026.049-.054.08-.065.062-.018.162-.02.217.012.027.014.029.038.028.051-.001.043-.043.086-.098.108a.38.38 0 0 1-.199.003c-.036-.005-.068-.01-.088-.006l-.059.011c-.05.01-.107.021-.134.034l-.004.002z" mask="url(#b)"/>
        <path fill="#009B3A" d="M16.682 15.312c-.203.174-.39.268-.415.21-.026-.06.117-.248.321-.422.204-.175.39-.269.415-.21.026.059-.117.247-.32.422z" mask="url(#b)"/>
        <path fill="#000" d="M16.7 15.187c-.286.245-.447.477-.419.54.003.009.01.014.02.016l.014.001c.078 0 .264-.097.496-.297l.005-.002c.284-.246.446-.478.418-.542a.029.029 0 0 0-.02-.014.08.08 0 0 0-.015-.002c-.077 0-.263.098-.496.297l-.003.003zm-.386.58a.114.114 0 0 1-.018-.001.053.053 0 0 1-.037-.028c-.04-.093.186-.364.428-.572l.004-.002c.212-.181.415-.3.509-.3.007 0 .013 0 .018.002.018.004.03.013.037.028.041.093-.186.363-.427.572l-.004.002c-.211.18-.414.3-.51.3z" mask="url(#b)"/>
        <path fill="#009B3A" d="M16.612 15.21c-.174.222-.345.366-.384.32-.039-.045.07-.262.245-.485l.002-.001c.173-.224.345-.367.384-.322.038.046-.072.264-.246.486v.002" mask="url(#b)"/>
        <path fill="#000" d="M17.04 14.727c-.067 0-.255.142-.472.401-.243.29-.367.541-.326.585.003.004.01.007.018.007h.001c.066-.002.255-.143.471-.401l.001-.001c.243-.29.366-.54.326-.584-.005-.005-.01-.007-.02-.007zm-.78 1.014a.051.051 0 0 1-.036-.013c-.063-.071.12-.369.324-.612.202-.24.404-.41.49-.41h.002c.02 0 .03.007.036.013.063.07-.119.369-.324.612l-.001.001c-.201.24-.402.408-.489.41h-.002z" mask="url(#b)"/>
        <path fill="#009B3A" d="M16.29 14.976c.02.269-.01.506-.07.529-.06.023-.125-.176-.145-.445v-.002c-.022-.269.01-.506.07-.529.059-.023.124.176.145.445v.002" mask="url(#b)"/>
        <path fill="#000" d="M16.185 14.537h-.008c-.066.021-.115.242-.085.541.024.261.095.426.152.454a.03.03 0 0 0 .024.003c.064-.02.114-.242.085-.54v-.002h.011-.011c-.026-.26-.097-.424-.153-.452a.03.03 0 0 0-.015-.004m.074 1.017a.075.075 0 0 1-.029-.006c-.071-.037-.138-.228-.162-.467v-.002c-.025-.252.006-.53.1-.558a.063.063 0 0 1 .045.004c.072.036.14.227.162.466l.001.002c.024.252-.006.53-.1.559a.058.058 0 0 1-.017.002" mask="url(#b)"/>
        <path fill="#009B3A" d="M16.42 14.97c-.057.282-.15.508-.207.506-.058-.003-.06-.234-.003-.516.056-.282.148-.508.206-.506.058.002.06.234.004.516" mask="url(#b)"/>
        <path fill="#000" d="M16.498 14.463c-.062 0-.183.204-.26.498-.072.27-.066.458-.023.498.004.006.01.009.016.008.061 0 .183-.204.26-.5.07-.268.066-.456.024-.497a.03.03 0 0 0-.017-.007m-.267 1.021h-.002a.05.05 0 0 1-.034-.014c-.054-.052-.045-.263.02-.512.065-.25.186-.513.283-.513h.002a.05.05 0 0 1 .033.015c.055.052.047.263-.019.51-.065.25-.187.514-.283.514" mask="url(#b)"/>
        <path fill="#009B3A" d="M16.524 15.085c-.11.27-.242.472-.294.45-.052-.022-.006-.258.105-.528.11-.27.24-.473.293-.45.052.021.005.257-.104.528" mask="url(#b)"/>
        <path fill="#000" d="M16.755 14.564a.05.05 0 0 0-.014.002c-.077.026-.23.224-.353.46-.152.295-.198.519-.144.536a.033.033 0 0 0 .02 0c.078-.027.23-.225.353-.461.152-.294.199-.518.144-.536l-.006-.001m-.505 1.017a.04.04 0 0 1-.014-.002c-.09-.028 0-.31.13-.559.13-.249.28-.442.367-.47a.066.066 0 0 1 .037-.002c.088.029-.002.31-.131.56-.13.249-.28.442-.366.47a.078.078 0 0 1-.023.003" mask="url(#b)"/>
        <path fill="#009B3A" d="M16.221 15.51c0 .002-.113-.097-.133-.122-.02-.025.011-.088-.06-.153a.322.322 0 0 0-.214-.085c-.05.002-.052.054.03.134.083.081.165.072.212.108.047.035.118.098.15.138.049 0 .162.023.224.033.063.01.195.103.31.104.096.004.159-.046.11-.09a.472.472 0 0 0-.228-.084c-.07-.006-.134.06-.202.05-.05-.012-.197-.026-.199-.034" mask="url(#b)"/>
        <path fill="#000" d="M15.822 15.164h-.007c-.01 0-.022.005-.026.018-.006.022.007.07.062.14.05.064.098.083.14.1.028.012.051.022.07.04.02.02.045.049.071.079l-.05-.066c-.01-.014-.011-.034-.012-.057-.002-.04-.004-.09-.048-.145a.282.282 0 0 0-.2-.11m.519.503l.022.006.069.015a.38.38 0 0 1 .1.05c.061.039.139.086.208.087.062.003.108-.026.116-.055.004-.014 0-.029-.012-.043a.405.405 0 0 0-.222-.109h-.009c-.029 0-.057.017-.086.033-.035.02-.07.04-.108.032-.018-.005-.048-.01-.078-.016m.408.182h-.01c-.072 0-.151-.05-.215-.089a.37.37 0 0 0-.096-.05l-.067-.014a1.05 1.05 0 0 0-.154-.03h-.005l-.002-.003c-.031-.049-.1-.13-.15-.18a.186.186 0 0 0-.064-.037c-.043-.017-.095-.04-.148-.106-.053-.068-.077-.127-.066-.165a.043.043 0 0 1 .042-.033.292.292 0 0 1 .22.116.244.244 0 0 1 .053.16c.001.019.002.035.008.044.017.028.096.121.122.149l.004-.015.008.024a.638.638 0 0 0 .095.021c.038.006.076.013.098.02.032.006.064-.012.098-.031.033-.019.067-.039.103-.035a.414.414 0 0 1 .233.114.073.073 0 0 1 .017.07c-.013.042-.064.07-.124.07" mask="url(#b)"/>
        <path fill="#009B3A" d="M16.019 16.16c-.292.048-.523.03-.516-.042.007-.07.248-.167.54-.215h.001c.292-.048.522-.03.516.041-.007.07-.248.167-.54.216h-.001" mask="url(#b)"/>
        <path fill="#000" d="M16.337 15.89c-.08 0-.178.01-.292.035-.312.069-.528.198-.533.275-.001.01.002.018.008.028.042.05.227.073.496.014h.003c.31-.068.526-.198.532-.274a.038.038 0 0 0-.009-.028c-.025-.03-.096-.05-.205-.05m-.611.41c-.108 0-.188-.019-.218-.056a.062.062 0 0 1-.014-.046c.008-.112.285-.238.547-.296.249-.053.459-.045.513.021a.062.062 0 0 1 .014.047c-.008.112-.284.238-.547.295-.11.024-.212.035-.295.035" mask="url(#b)"/>
        <path fill="#009B3A" d="M16.007 16.022c-.29.111-.534.147-.546.081-.011-.065.214-.209.504-.32.289-.11.533-.148.545-.082.012.066-.213.21-.503.32z" mask="url(#b)"/>
        <path fill="#000" d="M15.966 15.835c-.309.156-.505.338-.495.409 0 .008.004.014.011.02.05.037.246.002.52-.136l.002-.001.001-.001c.31-.157.506-.338.496-.41a.026.026 0 0 0-.011-.018c-.051-.037-.246-.003-.52.136h-.004zm-.42.466c-.032 0-.056-.006-.072-.017a.054.054 0 0 1-.021-.036c-.014-.105.247-.304.508-.436h.002c.252-.128.471-.182.535-.135.012.008.02.02.021.035.014.105-.246.304-.507.435v.001h-.001c-.191.097-.365.153-.465.153z" mask="url(#b)"/>
        <path fill="#009B3A" d="M15.824 15.613c-.127.267-.287.474-.357.462-.07-.014-.023-.24.104-.509.127-.267.286-.474.356-.462.07.014.024.241-.103.51" mask="url(#b)"/>
        <path fill="#000" d="M16.08 15.114c-.082 0-.278.187-.452.479-.156.26-.203.45-.167.505a.031.031 0 0 0 .021.014h.008c.08 0 .276-.187.451-.478l.01.004-.01-.004c.156-.26.203-.451.168-.505-.006-.009-.013-.014-.023-.015h-.006m-.592 1.017h-.01a.052.052 0 0 1-.038-.025c-.045-.068.025-.283.167-.52.147-.246.36-.49.473-.49h.01a.056.056 0 0 1 .04.024c.043.068-.025.284-.168.522-.146.245-.36.49-.474.49" mask="url(#b)"/>
        <path fill="#009B3A" d="M15.952 15.682c-.209.235-.422.397-.476.36-.054-.035.07-.255.28-.49.208-.236.42-.399.475-.363.055.036-.07.257-.278.493h-.001" mask="url(#b)"/>
        <path fill="#000" d="M16.438 15.196c-.084 0-.324.161-.584.428-.26.265-.386.474-.376.543.002.01.005.016.011.02.056.032.319-.132.603-.424l.002-.002c.26-.265.383-.473.373-.542a.025.025 0 0 0-.01-.018.033.033 0 0 0-.02-.005m-.93 1.015a.06.06 0 0 1-.031-.008.042.042 0 0 1-.02-.033c-.014-.088.143-.318.38-.56.24-.246.545-.48.633-.427a.044.044 0 0 1 .02.033c.014.088-.142.318-.379.56l-.002.002c-.217.222-.485.433-.6.433" mask="url(#b)"/>
        <path fill="#009B3A" d="M15.99 15.851c-.254.194-.49.31-.53.26-.04-.05.135-.249.389-.443.255-.194.491-.31.53-.258.038.05-.136.247-.39.441" mask="url(#b)"/>
        <path fill="#000" d="M16.43 15.412c-.089 0-.309.145-.536.354-.238.22-.418.449-.429.545 0 .01 0 .019.004.025.033.052.274-.077.566-.345.29-.268.456-.515.424-.568-.004-.006-.01-.009-.02-.011h-.01m-.932.957c-.02 0-.035-.006-.044-.02a.068.068 0 0 1-.007-.041c.012-.104.19-.334.434-.558.235-.217.456-.36.55-.36h.013a.04.04 0 0 1 .031.019c.052.086-.18.373-.428.6-.207.191-.445.36-.549.36" mask="url(#b)"/>
        <path fill="#009B3A" d="M15.465 16.08a1.734 1.734 0 0 1-.062-.192c-.006-.035.06-.077.027-.18a.38.38 0 0 0-.16-.206c-.05-.026-.081.022-.045.146.036.125.12.164.146.225.025.06.06.161.07.218.046.028.142.115.198.16.055.046.131.211.242.28.09.058.179.047.155-.023a.545.545 0 0 0-.174-.21c-.065-.048-.162-.021-.222-.071-.043-.04-.175-.138-.175-.147" mask="url(#b)"/>
        <path fill="#000" d="M15.504 16.086c.013.007.03.016.047.029-.031-.022-.037-.03-.038-.034a1.643 1.643 0 0 1-.075-.191c-.003-.016.005-.03.016-.047.018-.03.041-.068.016-.133a.393.393 0 0 0-.19-.2c-.013-.004-.028-.009-.04-.001-.019.012-.028.055.001.137a.357.357 0 0 0 .115.154c.027.024.05.044.062.07.033.063.073.16.086.216m.092.058l.076.052.07.049c.028.018.057.053.092.094a.712.712 0 0 0 .203.184c.075.04.142.044.165.027.014-.007.016-.02.008-.04a.578.578 0 0 0-.208-.206c-.036-.022-.083-.026-.129-.032a.309.309 0 0 1-.143-.039 2.431 2.431 0 0 0-.134-.09m.567.434a.317.317 0 0 1-.138-.04.724.724 0 0 1-.208-.188.547.547 0 0 0-.16-.14 1.79 1.79 0 0 0-.169-.11l-.005-.002v-.004a1.118 1.118 0 0 0-.085-.217.274.274 0 0 0-.057-.064c-.041-.037-.094-.083-.12-.161-.03-.08-.027-.135.005-.156.016-.011.038-.011.063 0 .059.025.161.102.202.21.027.071.001.114-.018.146-.01.014-.016.026-.014.036.005.03.054.146.07.18l.01-.007-.004.019c.01.009.061.042.103.07.042.026.085.053.107.07.035.025.081.03.132.036.048.005.098.01.138.034a.59.59 0 0 1 .216.216c.014.034-.004.053-.015.06a.097.097 0 0 1-.053.012" mask="url(#b)"/>
        <path fill="#009B3A" d="M15.147 16.634c-.3.005-.542-.062-.54-.148 0-.085.242-.16.54-.163.3-.005.542.062.542.148-.001.086-.243.158-.542.163" mask="url(#b)"/>
        <path fill="#000" d="M15.175 16.337h-.027c-.318.006-.533.11-.533.205 0 .015.006.032.018.048.062.081.26.136.487.136l.027-.001c.318-.005.533-.11.534-.204a.086.086 0 0 0-.018-.049c-.062-.08-.26-.135-.488-.135m-.056.412c-.234 0-.433-.056-.499-.142a.106.106 0 0 1-.023-.065c.001-.121.243-.222.55-.228.247-.005.46.053.528.142a.11.11 0 0 1 .023.065c-.001.121-.243.222-.551.228h-.028" mask="url(#b)"/>
        <path fill="#009B3A" d="M15.075 16.147c-.19.245-.395.4-.459.347-.063-.053.038-.295.228-.54.19-.246.395-.401.46-.347.063.052-.039.295-.229.54" mask="url(#b)"/>
        <path fill="#000" d="M15.49 15.607h-.01c-.117.011-.341.174-.544.396-.267.293-.373.542-.304.59a.065.065 0 0 0 .047.01c.117-.01.34-.174.544-.396.267-.292.373-.542.303-.59a.063.063 0 0 0-.036-.01m-.821 1.016a.088.088 0 0 1-.051-.013c-.102-.072.072-.371.3-.62.205-.225.436-.391.559-.402a.086.086 0 0 1 .064.013c.1.071-.073.37-.3.619-.207.226-.437.391-.56.403h-.012" mask="url(#b)"/>
        <path fill="#009B3A" d="M15.152 16.396c-.278.12-.529.153-.559.073-.03-.08.17-.241.449-.36.279-.122.529-.154.56-.074.029.08-.172.24-.45.36" mask="url(#b)"/>
        <path fill="#000" d="M15.49 16.006c-.105 0-.27.056-.442.153-.299.169-.472.376-.447.463a.055.055 0 0 0 .03.033c.082.047.296-.01.52-.137.298-.168.471-.376.446-.463a.059.059 0 0 0-.029-.034.162.162 0 0 0-.077-.015m-.783.69a.168.168 0 0 1-.085-.02.073.073 0 0 1-.038-.046c-.033-.113.167-.329.456-.493.231-.131.446-.186.534-.137.02.011.032.028.039.048.032.112-.168.328-.456.491-.176.1-.341.157-.45.157" mask="url(#b)"/>
        <path fill="#009B3A" d="M15.3 11.674c.138.125.22.24.186.26-.037.018-.176-.066-.314-.19s-.222-.24-.187-.26c.036-.019.176.066.315.19" mask="url(#b)"/>
        <path fill="#000" d="M15.01 11.495a.039.039 0 0 0-.013.002c-.002.002-.004.003-.004.009-.006.039.081.163.252.317.19.17.365.268.4.25.003-.002.004-.004.005-.01.006-.037-.081-.162-.252-.315l-.001-.001c-.174-.157-.334-.252-.388-.252m.626.602c-.079 0-.26-.125-.406-.257-.135-.121-.267-.272-.26-.337a.035.035 0 0 1 .016-.025c.06-.033.265.104.427.251l.003.003c.134.12.265.27.258.335a.032.032 0 0 1-.016.026.045.045 0 0 1-.022.004" mask="url(#b)"/>
        <path fill="#009B3A" d="M15.133 11.814c.186.024.343.075.35.114.008.039-.138.05-.324.026-.187-.024-.344-.075-.35-.114-.008-.039.137-.05.324-.026" mask="url(#b)"/>
        <path fill="#000" d="M15.006 11.816c-.1 0-.164.012-.18.03-.003.003-.003.005-.003.007.007.04.195.108.453.14.231.032.386.016.414-.012.003-.004.003-.006.003-.008-.009-.04-.196-.108-.454-.14a1.897 1.897 0 0 0-.233-.017m.505.218a1.92 1.92 0 0 1-.238-.016c-.22-.03-.46-.095-.473-.16a.031.031 0 0 1 .01-.029c.044-.046.248-.043.432-.02.22.029.461.095.473.16a.03.03 0 0 1-.009.028c-.025.027-.1.037-.195.037" mask="url(#b)"/>
        <path fill="#009B3A" d="M15.2 11.726c.175.09.303.186.284.217-.018.03-.175-.016-.35-.106h-.002c-.176-.09-.303-.187-.283-.218.019-.03.175.018.35.107" mask="url(#b)"/>
        <path fill="#000" d="M15.234 11.903c.251.127.433.17.449.144v-.007c-.013-.043-.146-.15-.372-.263-.254-.13-.432-.172-.45-.145v.007c.012.042.147.149.371.263h.002zm.42.174c-.093 0-.293-.084-.432-.153l-.001-.001c-.21-.107-.366-.221-.382-.278a.033.033 0 0 1 .003-.026c.037-.06.306.049.48.137.21.105.366.22.383.277a.03.03 0 0 1-.002.026c-.008.013-.025.018-.05.018z" mask="url(#b)"/>
        <path fill="#009B3A" d="M12.755 16.106s.454.098.85.241c.395.144.996.637 1.157.665.181.008.432-.054.528-.315-.28.074-.446.187-.713.04-.094-.035-.402-.315-.74-.466-.337-.15-1.018-.32-1.018-.32l-.064.155z" mask="url(#b)"/>
        <path fill="#000" d="M12.767 16.1c.07.015.482.108.841.239.218.079.503.268.733.419.189.125.352.233.422.245.093.005.396-.005.512-.293-.05.013-.096.028-.141.042-.194.063-.346.112-.561-.007a1.095 1.095 0 0 1-.184-.121c-.145-.105-.343-.25-.555-.344-.315-.14-.935-.3-1.01-.32l-.057.14zm2.023.921h-.03c-.074-.013-.23-.117-.429-.248-.228-.15-.513-.339-.73-.417-.39-.142-.843-.24-.848-.242l-.01-.001.071-.173.007.002c.007.001.686.173 1.02.321.214.096.413.24.559.347.082.06.147.107.18.12.21.115.359.067.549.006.049-.016.101-.032.158-.048l.016-.004-.005.016c-.106.29-.388.321-.508.321z" mask="url(#b)"/>
        <path fill="#009B3A" d="M13.24 11.996c-.002-.004.522-.276.522-.276l-.576.148-.067.101.12.027z" mask="url(#b)"/>
        <path fill="#000" d="M13.143 12.044l.14.032a9.98 9.98 0 0 1 .596-.317l-.66.17-.076.115zm.16.06l-.199-.044.1-.153h.005l.762-.195.01.021c-.253.13-.627.327-.684.359l.005.012z" mask="url(#b)"/>
        <path fill="#009B3A" d="M13.736 12.124c-.202-.037-.514-.105-.712-.121.137-.152.326-.41.442-.567-.077.15-.198.349-.245.492.14.076.36.135.515.196" mask="url(#b)"/>
        <path fill="#000" d="M13.054 12.177c.194.017.46.07.696.115l.08.015-.096-.032c-.161-.055-.327-.11-.45-.176l-.008-.005.003-.008c.045-.136.137-.305.225-.468l.026-.047c-.146.197-.33.441-.476.606zm.915.18c-.067-.011-.144-.027-.225-.043-.243-.047-.52-.1-.715-.116l-.024-.002.015-.018c.178-.195.417-.52.574-.734l.01-.013.02.012c-.03.058-.063.12-.1.187-.085.158-.174.32-.22.454.12.063.28.117.437.17.084.027.163.053.234.081l-.006.022z" mask="url(#b)"/>
        <path fill="#009B3A" d="M13.145 12.028c-.002-.004.465-.36.465-.36l-.54.242-.048.111.123.007z" mask="url(#b)"/>
        <path fill="#000" d="M13.043 12.127l.144.007c.03-.029.141-.116.53-.412l-.619.276-.055.129zm.168.032l-.202-.01.071-.168.005-.002.713-.32.013.02c-.225.172-.557.426-.607.47l.007.01z" mask="url(#b)"/>
        <path fill="#009B3A" d="M13.642 12.118c-.204-.039-.518-.11-.717-.128.134-.156.32-.42.433-.583-.074.155-.191.36-.237.508.142.079.363.14.52.203" mask="url(#b)"/>
        <path fill="#000" d="M12.954 12.17c.197.02.466.074.704.123l.081.016-.101-.035c-.162-.057-.33-.115-.453-.184l-.01-.004.004-.009c.042-.14.131-.316.218-.483l.026-.051c-.144.203-.325.457-.469.627zm.922.19l-.222-.045c-.247-.05-.527-.106-.725-.123l-.022-.002.015-.017c.171-.2.403-.53.556-.75l.016-.021.02.011c-.028.06-.062.124-.096.192-.084.164-.17.332-.214.47.121.065.285.121.441.176.086.03.166.058.237.086l-.006.023z" mask="url(#b)"/>
        <path fill="#009B3A" d="M13.068 12.057c-.001-.004.548-.229.548-.229l-.59.097-.076.095.118.037z" mask="url(#b)"/>
        <path fill="#000" d="M12.974 12.078l.138.044c.036-.022.167-.076.623-.263l-.674.11-.087.11zm.155.074l-.194-.061.114-.143h.004l.78-.129.005.022c-.263.108-.653.27-.713.298l.004.013z" mask="url(#b)"/>
        <path fill="#009B3A" d="M13.58 12.122c-.206-.017-.525-.055-.724-.05.115-.175.267-.464.36-.642-.055.166-.147.387-.174.543.15.064.376.102.539.15" mask="url(#b)"/>
        <path fill="#000" d="M12.905 12.266c.194 0 .454.025.686.047l.09.01-.108-.027a3.05 3.05 0 0 1-.471-.136l-.009-.005.003-.009c.024-.147.093-.333.158-.514l.02-.056c-.117.223-.268.5-.39.69h.021zm.912.091a9.827 9.827 0 0 1-.228-.02 7.532 7.532 0 0 0-.728-.047h-.021l.012-.019c.147-.221.338-.584.464-.824l.01-.02.022.009c-.02.063-.046.132-.072.205-.064.175-.13.357-.156.5.128.054.296.094.458.133.087.02.17.04.245.06l-.006.023z" mask="url(#b)"/>
        <path fill="#009B3A" d="M13.012 12.06c-.002-.003.372-.453.372-.453l-.47.352-.022.12.12-.02z" mask="url(#b)"/>
        <path fill="#000" d="M12.935 12.08l-.025.139.14-.023c.022-.035.112-.144.422-.518l-.537.403zm-.054.167l.032-.18.004-.003.622-.464.015.017c-.18.215-.445.535-.485.588l.01.01-.198.032z" mask="url(#b)"/>
        <path fill="#009B3A" d="M13.577 12.152c-.22-.004-.564-.023-.775-.004.104-.198.237-.525.318-.725-.042.185-.117.432-.13.604.164.06.408.086.587.125" mask="url(#b)"/>
        <path fill="#000" d="M13.108 12.359c.152 0 .318.005.47.01l.107.003-.13-.022c-.18-.032-.364-.065-.508-.116l-.008-.003v-.01c.013-.162.065-.37.116-.571l.02-.076c-.103.254-.236.576-.348.794.083-.007.178-.009.28-.009zm.712.041l-.241-.007a7.076 7.076 0 0 0-.772 0l-.02.002.01-.018c.132-.255.297-.665.406-.936l.009-.021.022.007-.057.229c-.049.197-.1.4-.114.558.14.05.321.082.496.113.095.016.184.032.264.05l-.003.023z" mask="url(#b)"/>
        <path fill="#009B3A" d="M12.937 12.167c-.003-.004.451-.433.451-.433l-.546.302-.036.13h.131z" mask="url(#b)"/>
        <path fill="#000" d="M12.825 12.295l.155.002a12.9 12.9 0 0 1 .523-.505l-.635.351-.043.152zm.18.025l-.211-.003.055-.19.004-.002.72-.398.014.019c-.22.206-.544.515-.59.563l.009.011z" mask="url(#b)"/>
        <path fill="#009B3A" d="M13.479 12.167c-.238 0-.604-.012-.836.014.154-.22.364-.583.493-.806-.083.205-.216.479-.265.669.165.06.424.084.608.123" mask="url(#b)"/>
        <path fill="#000" d="M13.168 11.534c-.151.27-.345.612-.499.844.21-.021.495-.018.749-.016.042 0 .084 0 .124.002l-.138-.024c-.173-.029-.353-.058-.486-.11l-.009-.004.002-.01c.044-.17.136-.39.224-.603l.033-.079zm-.543.872l.013-.02c.182-.271.425-.707.586-.996l.01-.02.02.01c-.029.075-.063.156-.099.242-.086.208-.176.422-.22.59.13.049.304.078.472.105.091.016.177.03.254.047l-.002.021h-.241c-.263-.003-.56-.007-.77.018l-.023.003z" mask="url(#b)"/>
        <path fill="#009B3A" d="M12.785 12.199c-.002-.005.576-.488.576-.488l-.65.346-.067.144.141-.002z" mask="url(#b)"/>
        <path fill="#000" d="M12.745 12.18l-.08.169.168-.003c.033-.034.163-.146.67-.57l-.758.404zm-.116.192l.099-.21h.003l.86-.459.013.02c-.283.236-.702.588-.754.637l.005.01-.226.002z" mask="url(#b)"/>
        <path fill="#009B3A" d="M13.393 12.181c-.235.034-.6.072-.826.13.121-.236.277-.619.374-.854-.055.211-.146.497-.169.69.173.036.433.022.62.034" mask="url(#b)"/>
        <path fill="#000" d="M12.975 11.614c-.115.268-.261.61-.383.844.207-.048.494-.085.749-.117l.124-.016-.14-.003c-.179-.003-.364-.005-.504-.034l-.01-.002.001-.01c.02-.163.081-.378.14-.585l.023-.077zm-.425.875l.01-.02c.145-.273.328-.705.45-.991l.01-.025.02.007-.066.237a4.348 4.348 0 0 0-.14.572c.139.026.318.029.491.032.093.002.181.003.26.008l.001.02-.243.032a7.648 7.648 0 0 0-.77.123l-.023.005z" mask="url(#b)"/>
        <path fill="#009B3A" d="M12.709 12.295c-.003-.003.443-.615.443-.615l-.553.501-.03.153.14-.039z" mask="url(#b)"/>
        <path fill="#000" d="M12.623 12.35l-.036.18.165-.046c.023-.041.124-.181.515-.716l-.644.582zm-.065.213l.043-.225.003-.003.731-.66.018.015a56.88 56.88 0 0 0-.581.802l.007.009-.22.062z" mask="url(#b)"/>
        <path fill="#009B3A" d="M13.263 12.254c-.237.022-.603.042-.833.088.134-.23.312-.604.422-.834-.066.208-.174.489-.207.68.17.045.43.045.618.066" mask="url(#b)"/>
        <path fill="#000" d="M12.884 11.666c-.129.269-.294.61-.429.843.21-.039.497-.062.752-.083.042-.002.083-.005.122-.01l-.14-.009a2.744 2.744 0 0 1-.496-.06l-.01-.003.003-.01c.027-.165.1-.382.172-.591l.026-.077zm-.47.874l.01-.02c.16-.273.367-.707.503-.995l.01-.02.02.007c-.023.073-.05.154-.079.238a4.6 4.6 0 0 0-.17.578c.135.034.312.047.483.057.092.007.18.013.258.021v.022c-.072.007-.153.014-.24.02a7.426 7.426 0 0 0-.773.087l-.023.005z" mask="url(#b)"/>
        <path fill="#009B3A" d="M12.629 12.36c-.002-.004.564-.489.564-.489l-.64.345-.065.144h.14z" mask="url(#b)"/>
        <path fill="#000" d="M12.587 12.338l-.077.17h.166c.03-.034.16-.147.658-.572l-.747.402zm-.112.194l.094-.21.003-.003.846-.455.014.018c-.278.237-.689.59-.74.64l.006.009h-.223z" mask="url(#b)"/>
        <path fill="#009B3A" d="M13.193 12.28c-.236.049-.602.112-.828.184.11-.24.25-.63.335-.867-.044.211-.123.5-.136.69.177.025.438-.007.63-.008" mask="url(#b)"/>
        <path fill="#000" d="M12.732 11.751c-.101.269-.232.609-.344.844a8.6 8.6 0 0 1 .75-.163l.121-.023-.139.007c-.18.008-.366.018-.51 0l-.009-.002v-.01c.012-.159.063-.372.112-.577l.019-.076zm-.383.878l.01-.021c.132-.276.294-.71.402-.996l.007-.019.021.006c-.016.072-.034.15-.055.233-.047.2-.098.408-.11.564.14.017.32.008.495-.002.093-.004.182-.009.263-.01l.003.021-.243.047c-.265.05-.564.107-.77.17l-.023.007z" mask="url(#b)"/>
        <path fill="#009B3A" d="M12.535 12.385c-.004-.002.36-.67.36-.67l-.488.58-.008.153.136-.063z" mask="url(#b)"/>
        <path fill="#000" d="M12.424 12.487l-.01.178.161-.073c.017-.044.1-.198.417-.778l-.568.673zm-.035.215l.012-.224.648-.768.02.013c-.125.225-.438.801-.473.875l.008.006-.215.098z" mask="url(#b)"/>
        <path fill="#009B3A" d="M13.193 12.317c-.253.066-.648.152-.887.243.092-.275.197-.714.262-.985-.022.24-.074.565-.064.778.196.02.48-.027.69-.036" mask="url(#b)"/>
        <path fill="#000" d="M12.582 11.712a11.34 11.34 0 0 1-.258.867c.205-.068.496-.133.754-.19l.14-.031-.162.013a3.26 3.26 0 0 1-.523.018h-.009v-.008c-.008-.158.02-.37.046-.574l.012-.095zm-.29.897l.007-.018c.102-.277.217-.71.295-.999l.004-.018.02.003c-.007.071-.017.15-.028.233-.026.2-.052.407-.046.562.147.012.332-.004.51-.02.097-.007.188-.015.27-.019l.004.018-.245.055a8.34 8.34 0 0 0-.771.197l-.02.006z" mask="url(#b)"/>
        <path fill="#009B3A" d="M12.463 12.54c-.003-.004.455-.671.455-.671l-.581.542-.025.17.151-.041z" mask="url(#b)"/>
        <path fill="#000" d="M12.36 12.593l-.03.202.18-.048c.022-.044.126-.197.536-.795l-.687.641zm-.059.234l.037-.245.003-.003.767-.717.018.016c-.225.327-.557.814-.596.877l.009.01-.238.062z" mask="url(#b)"/>
        <path fill="#009B3A" d="M13.093 12.393c-.25.08-.638.186-.872.289.079-.276.162-.717.215-.987-.011.237-.047.561-.028.772.197.008.476-.053.685-.074" mask="url(#b)"/>
        <path fill="#000" d="M12.454 11.831c-.058.27-.139.624-.214.865a8.84 8.84 0 0 1 .755-.224l.135-.035c-.051.005-.104.013-.16.02-.186.024-.377.05-.53.044l-.009-.001v-.008c-.016-.156 0-.365.016-.568l.007-.093zm-.246.898l.005-.019c.089-.274.183-.703.244-.986l.006-.031.021.002-.016.23c-.016.199-.032.404-.017.557h.036c.143 0 .314-.022.48-.044.097-.013.188-.024.272-.032l.004.018a9.287 9.287 0 0 1-.242.065c-.267.072-.57.152-.773.232l-.02.008z" mask="url(#b)"/>
        <path fill="#009B3A" d="M12.372 12.639c-.004-.003.345-.741.345-.741l-.49.638.002.17.143-.067z" mask="url(#b)"/>
        <path fill="#000" d="M12.241 12.701l.003.193.171-.077c.015-.044.093-.204.406-.83l-.58.714zm-.02.227l-.003-.234.002-.003.649-.799.02.012c-.119.238-.422.845-.453.918l.009.006-.225.1z" mask="url(#b)"/>
        <path fill="#009B3A" d="M12.998 12.494c-.255.058-.652.132-.894.216.103-.269.227-.7.303-.966-.032.235-.097.556-.097.767.195.025.479-.014.688-.017" mask="url(#b)"/>
        <path fill="#000" d="M12.418 11.882c-.084.272-.197.624-.296.865a8.78 8.78 0 0 1 .756-.173l.135-.026-.157.008c-.182.011-.37.023-.518.006l-.009-.001v-.008c0-.16.038-.373.073-.579l.016-.092zm-.33.895l.009-.018c.114-.274.247-.705.336-.991l.008-.026.02.003a5.25 5.25 0 0 1-.04.233c-.034.201-.07.41-.071.566.143.016.328.004.505-.006.095-.006.185-.012.267-.013l.002.019c-.072.015-.154.03-.241.05-.267.052-.568.111-.774.177l-.02.006z" mask="url(#b)"/>
        <path fill="#009B3A" d="M12.29 12.71c-.002-.005.565-.58.565-.58l-.665.43-.054.162.155-.012z" mask="url(#b)"/>
        <path fill="#000" d="M12.221 12.707l-.064.194.185-.015c.03-.038.157-.17.665-.686l-.786.507zm-.098.22l.078-.235.004-.002.879-.567.014.018c-.192.195-.685.697-.74.758l.007.01-.242.019z" mask="url(#b)"/>
        <path fill="#009B3A" d="M12.884 12.595c-.252.033-.645.07-.886.13.117-.262.265-.69.355-.952-.046.236-.13.556-.142.77.189.045.469.035.673.052" mask="url(#b)"/>
        <path fill="#000" d="M12.366 11.914c-.101.273-.235.625-.349.864.208-.046.498-.078.756-.108l.137-.015a8.119 8.119 0 0 0-.156-.006 2.958 2.958 0 0 1-.513-.042l-.007-.002v-.009a4.01 4.01 0 0 1 .11-.587l.022-.095zm-.384.892l.01-.018c.13-.273.29-.707.397-.994l.01-.024.018.004a9.833 9.833 0 0 1-.053.24 4.057 4.057 0 0 0-.11.576c.142.03.323.035.5.04.094.003.183.006.264.013v.018c-.073.01-.156.018-.243.028a7.35 7.35 0 0 0-.772.112l-.02.005z" mask="url(#b)"/>
        <path fill="#009B3A" d="M12.18 12.652c-.005-.003.383-.725.383-.725l-.521.61-.008.173.145-.058z" mask="url(#b)"/>
        <path fill="#000" d="M12.06 12.72l-.01.202.172-.068c.018-.045.105-.205.452-.837l-.614.703zm-.036.236l.013-.245.002-.003.689-.788.018.013c-.131.241-.469.855-.503.928l.008.007-.227.088z" mask="url(#b)"/>
        <path fill="#009B3A" d="M12.916 12.509c-.275.112-.704.27-.962.408.084-.327.173-.843.228-1.16-.01.274-.047.653-.023.895.218-.007.527-.102.757-.143" mask="url(#b)"/>
        <path fill="#000" d="M12.18 11.896c-.057.311-.136.72-.211 1.004.204-.102.497-.211.755-.307l.152-.058-.174.038a3.04 3.04 0 0 1-.53.088h-.009v-.008a4.437 4.437 0 0 1 .01-.639l.007-.118zm-.24 1.038l.006-.02c.086-.316.176-.806.236-1.13l.005-.03.02.002a12.4 12.4 0 0 1-.015.259 4.554 4.554 0 0 0-.012.628c.149-.006.336-.047.518-.087.097-.021.189-.042.273-.056l.005.017c-.073.029-.156.06-.245.092-.266.1-.568.212-.772.315l-.019.01z" mask="url(#b)"/>
        <path fill="#009B3A" d="M12.126 12.871c-.004-.004.46-.832.46-.832l-.607.703-.016.197.163-.068z" mask="url(#b)"/>
        <path fill="#000" d="M11.999 12.836l-.02.201.196-.07c.014-.03.076-.127.298-.466l.25-.38-.724.715zm-.047.232l.025-.24.002-.003.802-.792.018.011c-.158.242-.564.861-.603.928l.008.006-.252.09z" mask="url(#b)"/>
        <path fill="#009B3A" d="M12.81 12.611c-.27.127-.691.306-.942.457.07-.326.135-.84.176-1.157.002.272-.018.648.017.884.217-.019.52-.13.749-.184" mask="url(#b)"/>
        <path fill="#000" d="M12.05 12.05c-.043.31-.104.718-.167 1 .203-.111.496-.234.755-.343l.15-.064-.173.047c-.188.05-.382.102-.537.114h-.01v-.007a4.1 4.1 0 0 1-.02-.63l.002-.117zm-.195 1.036l.004-.02c.074-.318.142-.808.188-1.133l.003-.023.02.001-.002.257a4.31 4.31 0 0 0 .017.618c.152-.014.34-.064.524-.114.098-.026.191-.05.275-.07l.007.017-.244.104a8.53 8.53 0 0 0-.773.353l-.019.01z" mask="url(#b)"/>
        <path fill="#009B3A" d="M12.032 12.997c-.005-.003.335-.896.335-.896l-.501.8.012.194.154-.098z" mask="url(#b)"/>
        <path fill="#000" d="M11.88 12.92l.015.18.185-.09c.008-.03.055-.124.216-.456l.183-.37-.599.737zm-.005.212l-.019-.216.002-.003.663-.817.022.008c-.117.236-.414.841-.441.908l.009.004-.236.116z" mask="url(#b)"/>
        <path fill="#009B3A" d="M12.692 12.686c-.268.128-.69.31-.94.465.069-.327.13-.841.17-1.158.004.271-.013.647.021.883.218-.02.521-.135.75-.19" mask="url(#b)"/>
        <path fill="#000" d="M11.928 12.132c-.041.31-.099.718-.16 1 .203-.112.497-.238.756-.35l.149-.063-.175.047c-.188.051-.381.105-.537.119h-.009v-.007a4.245 4.245 0 0 1-.024-.629v-.117zm-.188 1.037l.004-.02c.071-.318.137-.806.18-1.13l.004-.027h.018c.002.08.001.165 0 .257 0 .222-.003.45.022.618.153-.015.342-.067.525-.118.098-.027.19-.052.276-.072l.007.017-.244.105c-.267.115-.57.244-.773.359l-.02.01z" mask="url(#b)"/>
        <path fill="#009B3A" d="M11.957 13.104c-.004-.005.519-.79.519-.79l-.655.646-.031.196.167-.052z" mask="url(#b)"/>
        <path fill="#000" d="M11.846 13.097l-.038.216.2-.058c.023-.042.137-.201.618-.86l-.78.702zm-.067.246l.045-.256.002-.003.865-.776.018.013c-.18.246-.638.874-.682.942l.008.007-.256.073z" mask="url(#b)"/>
        <path fill="#009B3A" d="M12.667 12.645c-.24.191-.62.472-.835.682 0-.33-.044-.837-.07-1.15.06.259.119.622.203.84.211-.075.488-.26.702-.372" mask="url(#b)"/>
        <path fill="#000" d="M11.785 12.31c.029.307.065.711.067.997.183-.156.456-.344.697-.51l.137-.096a9.723 9.723 0 0 0-.166.085c-.181.093-.368.19-.525.24l-.01.002-.003-.008c-.068-.156-.12-.38-.17-.597a8.509 8.509 0 0 0-.027-.113zm.047 1.039v-.021c0-.32-.046-.806-.077-1.126l-.003-.024.02-.002c.019.074.038.156.059.243.05.213.101.433.166.587.154-.05.337-.144.513-.236.095-.048.184-.094.267-.133l.01.015c-.066.048-.144.101-.226.158a9.16 9.16 0 0 0-.712.524l-.017.015z" mask="url(#b)"/>
        <path fill="#009B3A" d="M11.982 13.142c-.006 0 .06-.947.06-.947l-.25.92.07.174.12-.147z" mask="url(#b)"/>
        <path fill="#000" d="M11.807 13.115l.084.157.144-.134c-.003-.03.006-.13.036-.47.012-.147.026-.294.034-.384l-.298.831zm.076.191l-.1-.19.001-.002.33-.92.022.002c-.022.244-.077.866-.08.938h.012l-.185.172z" mask="url(#b)"/>
        <path fill="#009B3A" d="M12.599 12.732c-.24.19-.62.47-.837.679 0-.33-.042-.839-.067-1.152.06.26.118.624.201.841.21-.073.489-.257.703-.368" mask="url(#b)"/>
        <path fill="#000" d="M11.719 12.392c.028.306.061.712.062.998.183-.154.458-.341.7-.507l.138-.095-.165.084c-.183.092-.37.188-.529.237l-.008.002-.004-.007a3.883 3.883 0 0 1-.168-.598l-.026-.114zm.042 1.04v-.021c.002-.32-.042-.805-.072-1.125l-.002-.026.02-.003c.019.075.037.158.058.246.048.213.099.432.163.586.155-.049.338-.142.516-.232.094-.049.185-.095.268-.133l.01.015c-.068.048-.146.102-.23.158-.249.17-.531.364-.714.52l-.017.014z" mask="url(#b)"/>
        <path fill="#009B3A" d="M11.922 13.302c-.006-.002.241-.925.241-.925l-.418.85.033.19.144-.115z" mask="url(#b)"/>
        <path fill="#000" d="M11.76 13.229l.04.172.172-.105c.004-.029.038-.125.154-.46l.133-.375-.5.768zm.024.205l-.048-.208.002-.002.552-.85.022.006c-.084.238-.3.849-.318.916l.01.004-.22.134z" mask="url(#b)"/>
        <path fill="#009B3A" d="M12.572 12.755c-.227.224-.588.555-.79.796-.034-.339-.135-.855-.196-1.173.09.259.19.625.3.839.211-.102.477-.324.686-.462" mask="url(#b)"/>
        <path fill="#000" d="M11.621 12.506c.062.311.142.728.176 1.023.156-.177.394-.399.604-.594l.123-.114c-.048.032-.098.068-.15.105a3.38 3.38 0 0 1-.473.299l-.008.004-.004-.008a4.267 4.267 0 0 1-.228-.595l-.04-.12zm.162 1.066l-.002-.02c-.035-.327-.133-.817-.197-1.14l-.006-.032.018-.005.083.246c.07.213.144.433.222.584a3.51 3.51 0 0 0 .463-.294c.084-.06.163-.116.238-.163l.011.013c-.059.056-.127.12-.2.186-.216.202-.46.43-.616.61l-.014.015z" mask="url(#b)"/>
        <path fill="#009B3A" d="M11.923 13.42c-.006 0 .045-.983.045-.983l-.241.955.074.18.122-.152z" mask="url(#b)"/>
        <path fill="#000" d="M11.742 13.391l.09.164.146-.14c-.003-.03.003-.132.026-.488l.027-.4-.289.864zm.084.199l-.109-.197.001-.003.32-.956.023.003c-.018.254-.061.903-.061.975l.011.001-.185.177z" mask="url(#b)"/>
        <path fill="#009B3A" d="M12.5 12.918c-.243.2-.628.497-.846.717-.007-.343-.065-.87-.099-1.195.068.268.138.645.229.87.216-.08.498-.275.716-.392" mask="url(#b)"/>
        <path fill="#000" d="M11.58 12.573c.036.318.083.742.091 1.04.178-.162.442-.36.678-.535l.136-.103-.165.09c-.177.1-.36.201-.514.254l-.009.003-.003-.008c-.071-.161-.128-.394-.183-.619l-.03-.122zm.074 1.082l-.001-.02c-.008-.33-.065-.83-.103-1.16l-.004-.035.019-.003.065.253c.054.221.11.45.178.61.15-.054.33-.153.502-.25.093-.05.18-.1.26-.14l.012.015-.222.166c-.24.181-.515.385-.691.55l-.015.014z" mask="url(#b)"/>
        <path fill="#009B3A" d="M11.85 13.533c-.005-.003.343-.925.343-.925l-.513.82.013.203.157-.098z" mask="url(#b)"/>
        <path fill="#000" d="M11.694 13.43l.017.185.19-.089a7.37 7.37 0 0 1 .22-.46c.072-.146.145-.29.188-.379l-.615.743zm-.004.215l-.02-.22.002-.002.679-.82.02.008c-.119.24-.422.852-.45.917l.01.004-.241.113z" mask="url(#b)"/>
        <path fill="#009B3A" d="M12.496 12.921c-.215.229-.557.566-.748.81-.033-.343-.129-.866-.186-1.188.085.262.18.632.284.85.2-.104.453-.33.65-.472" mask="url(#b)"/>
        <path fill="#000" d="M11.599 12.68c.061.315.141.732.174 1.028.157-.18.394-.406.605-.605.041-.04.081-.078.12-.113l-.15.105c-.16.117-.327.237-.47.305l-.01.005-.003-.009a4.286 4.286 0 0 1-.228-.602l-.038-.114zm.16 1.074l-.002-.022c-.037-.334-.135-.833-.2-1.163l-.004-.025.019-.004c.027.076.054.16.083.25.07.215.144.437.223.59.14-.068.302-.185.46-.298.083-.061.163-.12.238-.168l.013.013-.197.188c-.217.206-.463.439-.618.622l-.015.017z" mask="url(#b)"/>
        <path fill="#009B3A" d="M11.864 13.58c-.006 0-.04-.978-.04-.978l-.16.974.092.17.108-.166z" mask="url(#b)"/>
        <path fill="#000" d="M11.68 13.574l.109.154.13-.152a6.85 6.85 0 0 1-.03-.485l-.02-.4-.19.883zm.106.188l-.13-.185v-.003l.21-.974.023.002c.011.252.042.896.052.97h.011l-.166.19z" mask="url(#b)"/>
        <path fill="#009B3A" d="M12.39 12.994c-.208.23-.54.57-.722.817-.045-.343-.154-.866-.222-1.188.093.261.2.632.31.848.195-.105.441-.333.635-.477" mask="url(#b)"/>
        <path fill="#000" d="M11.487 12.76c.071.315.163.731.206 1.028.148-.182.374-.408.576-.608l.116-.117-.143.106c-.156.118-.317.24-.456.31l-.01.004-.004-.008c-.085-.154-.165-.381-.244-.6a6.251 6.251 0 0 0-.04-.115zm.192 1.074l-.002-.022c-.047-.332-.158-.83-.233-1.158l-.006-.03.017-.004c.03.076.06.16.092.249.076.215.155.437.238.59.136-.07.293-.189.446-.303a6.58 6.58 0 0 1 .229-.169l.013.014-.19.19c-.208.207-.442.441-.59.626l-.014.017z" mask="url(#b)"/>
        <path fill="#009B3A" d="M11.809 13.677a59.24 59.24 0 0 1 .109-.994l-.291.94.058.193.124-.14z" mask="url(#b)"/>
        <path fill="#000" d="M11.642 13.623l.069.176.15-.127c-.002-.03.014-.13.066-.493l.061-.402-.346.846zm.06.21l-.084-.21v-.002l.385-.94.023.003c-.04.258-.139.917-.144.987l.01.001-.19.162z" mask="url(#b)"/>
        <path fill="#009B3A" d="M12.346 13.033c-.19.249-.495.62-.66.883-.07-.337-.22-.847-.311-1.16.113.25.247.609.374.813.187-.124.414-.374.597-.536" mask="url(#b)"/>
        <path fill="#000" d="M11.426 12.888c.094.306.216.713.281 1.005.13-.196.333-.442.513-.66a8.21 8.21 0 0 0 .102-.124l-.131.119a3.158 3.158 0 0 1-.418.348l-.008.005-.005-.007a4.347 4.347 0 0 1-.286-.578l-.048-.108zm.272 1.05l-.005-.02c-.07-.326-.219-.808-.317-1.128l-.01-.032.018-.006c.034.072.07.152.107.237.092.208.186.422.28.568.126-.081.27-.214.407-.342.075-.068.144-.133.21-.188l.014.011-.168.206a8.51 8.51 0 0 0-.524.677l-.012.018z" mask="url(#b)"/>
        <path fill="#009B3A" d="M11.804 13.77c-.005 0-.062-.995-.062-.995l-.126.987.09.173.098-.165z" mask="url(#b)"/>
        <path fill="#000" d="M11.631 13.76l.108.158.118-.151c-.008-.03-.017-.134-.046-.494l-.03-.402-.15.89zm.107.194l-.13-.19v-.004l.165-.986h.024c.019.257.07.914.08.987h.011l-.15.193z" mask="url(#b)"/>
        <path fill="#009B3A" d="M12.326 13.09c-.178.261-.467.65-.618.924-.087-.336-.263-.841-.371-1.153.125.248.279.602.417.8.18-.134.397-.4.572-.57" mask="url(#b)"/>
        <path fill="#000" d="M11.393 12.992c.11.304.25.707.33.998.117-.202.305-.46.47-.688l.095-.133-.122.128c-.134.139-.27.282-.394.372l-.008.005-.005-.008c-.102-.141-.209-.358-.313-.566-.017-.037-.036-.074-.053-.108zm.324 1.045l-.006-.021c-.087-.326-.26-.808-.374-1.126l-.009-.025.017-.007c.038.07.077.15.118.234.101.204.206.416.305.556.12-.087.255-.228.384-.363.07-.073.136-.142.198-.201l.014.011c-.046.066-.1.14-.156.217a8.607 8.607 0 0 0-.48.706l-.011.02z" mask="url(#b)"/>
        <path fill="#009B3A" d="M11.867 13.863c-.006-.002.101-1 .101-1l-.285.94.06.196.124-.136z" mask="url(#b)"/>
        <path fill="#000" d="M11.699 13.803l.072.18.147-.125a58.416 58.416 0 0 1 .12-.903l-.34.848zm.062.214l-.087-.214.002-.003.376-.94.022.005c-.037.26-.13.923-.134.991l.01.002-.19.159z" mask="url(#b)"/>
        <path fill="#009B3A" d="M12.29 13.183c-.153.284-.405.712-.53 1.004-.117-.321-.338-.8-.473-1.093.146.228.33.558.485.736.169-.158.36-.452.518-.647" mask="url(#b)"/>
        <path fill="#000" d="M11.352 13.212c.135.288.312.672.416.95.097-.216.257-.498.398-.747.027-.05.055-.096.08-.142l-.107.14a3.43 3.43 0 0 1-.353.424l-.006.006-.006-.007a4.252 4.252 0 0 1-.357-.52 9.487 9.487 0 0 1-.065-.104zm.414.998l-.007-.02a16.307 16.307 0 0 0-.468-1.067l-.012-.026.015-.009c.044.067.09.14.138.219.118.189.239.384.349.51.11-.103.23-.262.344-.414.061-.081.12-.159.174-.226l.016.01-.133.237a9.018 9.018 0 0 0-.406.766l-.01.02z" mask="url(#b)"/>
        <path fill="#009B3A" d="M11.832 13.945c-.005.002-.279-.947-.279-.947l.094.998.126.141.06-.192z" mask="url(#b)"/>
        <path fill="#000" d="M11.691 13.993l.15.127.072-.176c-.018-.028-.055-.128-.186-.47a40.427 40.427 0 0 1-.147-.383l.111.902zm.161.162l-.014-.012L11.67 14l-.001-.003-.125-.999.023-.003c.093.245.332.868.365.94l.01-.003-.09.223z" mask="url(#b)"/>
        <path fill="#009B3A" d="M12.285 13.293c-.16.283-.422.71-.554 1.001-.117-.32-.34-.797-.477-1.09.15.227.336.557.493.735.175-.158.373-.45.538-.646" mask="url(#b)"/>
        <path fill="#000" d="M11.318 13.32c.134.288.31.672.414.951.1-.216.264-.497.408-.746l.084-.142c-.036.043-.072.091-.11.14-.12.157-.245.318-.36.422l-.008.007-.005-.007a4.183 4.183 0 0 1-.357-.52l-.066-.105zm.413.998l-.007-.02c-.115-.311-.326-.763-.465-1.063l-.013-.027.016-.009c.043.066.089.14.137.218.118.188.24.383.349.51.113-.105.234-.262.352-.414.063-.081.121-.159.178-.225l.015.01-.137.237a9.388 9.388 0 0 0-.416.763l-.01.02z" mask="url(#b)"/>
        <path fill="#009B3A" d="M11.845 14.124c-.006 0-.103-.997-.103-.997l-.092.997.1.17.095-.17z" mask="url(#b)"/>
        <path fill="#000" d="M11.665 14.122l.119.154.115-.155c-.01-.03-.023-.133-.072-.494l-.052-.406-.11.901zm.12.19l-.144-.186v-.003l.122-.996h.023c.033.258.12.916.134.988h.01l-.145.198z" mask="url(#b)"/>
        <path fill="#009B3A" d="M12.3 13.38c-.164.28-.433.7-.568.989-.113-.324-.329-.806-.46-1.102.146.23.327.565.481.747.177-.155.38-.442.548-.634" mask="url(#b)"/>
        <path fill="#000" d="M11.334 13.384c.13.291.3.68.399.961.103-.214.27-.491.42-.737l.085-.14c-.036.043-.073.09-.112.139-.123.153-.25.311-.367.413l-.007.006-.006-.007c-.11-.13-.23-.331-.347-.527l-.065-.108zm.396 1.008l-.007-.021c-.109-.313-.312-.77-.446-1.072l-.013-.028.016-.008c.042.066.087.14.134.22.114.191.232.39.34.518.114-.101.238-.256.358-.405.064-.08.125-.156.182-.221l.015.01-.14.232c-.154.253-.328.54-.43.756l-.009.02z" mask="url(#b)"/>
        <path fill="#009B3A" d="M11.835 14.204c-.006 0-.185-.98-.185-.98l-.009 1.003.113.158.08-.181z" mask="url(#b)"/>
        <path fill="#000" d="M11.655 14.224l.136.144.097-.167a6.07 6.07 0 0 1-.125-.485l-.097-.399-.01.907zm.141.179l-.163-.173v-.003l.011-1.002.023-.002c.06.253.22.9.241.97h.01l-.122.21z" mask="url(#b)"/>
        <path fill="#009B3A" d="M12.23 13.522c-.178.267-.466.668-.616.946-.096-.33-.288-.826-.406-1.13.135.24.3.586.446.778.184-.142.4-.416.576-.594" mask="url(#b)"/>
        <path fill="#000" d="M11.265 13.46c.115.3.266.698.352.986.113-.207.295-.472.455-.707l.092-.136-.12.132c-.13.145-.264.294-.385.388l-.007.005-.006-.007c-.103-.137-.215-.348-.322-.55a8.063 8.063 0 0 1-.059-.111zm.347 1.032l-.006-.02a16.815 16.815 0 0 0-.397-1.11l-.009-.022.017-.007c.038.07.08.147.123.23.105.198.214.404.315.54.118-.093.249-.238.376-.38.067-.075.132-.147.193-.208l.013.011-.15.223a9.215 9.215 0 0 0-.464.723l-.01.02z" mask="url(#b)"/>
        <path fill="#009B3A" d="M11.75 14.312c-.006-.001.082-1 .082-1l-.272.948.066.194.123-.142z" mask="url(#b)"/>
        <path fill="#000" d="M11.575 14.26l.08.177.147-.129c-.002-.03.01-.132.051-.497l.047-.408-.325.857zm.07.211l-.094-.21v-.003l.36-.949.023.004c-.03.259-.107.922-.11.993l.01.001-.189.164z" mask="url(#b)"/>
        <path fill="#009B3A" d="M12.24 13.547c-.151.29-.4.726-.523 1.023-.127-.315-.364-.782-.508-1.069.155.221.35.543.514.714.17-.166.359-.467.518-.668" mask="url(#b)"/>
        <path fill="#000" d="M11.275 13.613c.142.283.33.66.442.934.093-.22.248-.507.386-.762l.079-.147a48.04 48.04 0 0 0-.106.146 3.54 3.54 0 0 1-.347.437l-.007.006-.006-.006c-.116-.122-.246-.317-.372-.505l-.07-.103zm.442.98l-.008-.02c-.123-.304-.347-.747-.495-1.041l-.014-.027.015-.008c.046.063.093.134.144.21.123.184.25.374.363.495.11-.108.227-.271.34-.428.06-.084.117-.163.172-.233l.014.01c-.038.073-.082.156-.13.243-.14.261-.302.558-.393.78l-.008.02z" mask="url(#b)"/>
        <path fill="#009B3A" d="M11.715 14.396c-.005.001-.307-.932-.307-.932l.118.991.133.135.056-.194z" mask="url(#b)"/>
        <path fill="#000" d="M11.579 14.45l.157.123.068-.178a21.19 21.19 0 0 1-.367-.842l.142.898zm.168.157l-.19-.148-.001-.004-.157-.99.023-.004c.103.24.366.853.401.924l.011-.002-.087.224z" mask="url(#b)"/>
        <path fill="#009B3A" d="M12.199 13.621c-.107.318-.285.801-.361 1.12-.173-.282-.476-.688-.663-.94.188.184.428.457.614.59.143-.2.284-.538.41-.77" mask="url(#b)"/>
        <path fill="#000" d="M11.255 13.894c.182.246.426.578.579.825.059-.238.168-.555.266-.836l.054-.156-.081.164c-.09.183-.182.372-.277.505l-.005.007-.007-.005c-.133-.095-.29-.258-.442-.414l-.087-.09zm.586.87l-.011-.019c-.166-.271-.452-.656-.642-.912l-.019-.026.013-.01c.054.052.112.111.173.175.149.153.302.312.432.406.091-.13.182-.315.27-.495.047-.095.091-.186.134-.266l.016.007c-.026.08-.057.17-.09.265-.1.288-.214.616-.272.854l-.004.021z" mask="url(#b)"/>
        <path fill="#009B3A" d="M11.989 14.472a53.46 53.46 0 0 1-.332-.92l.145.986.136.13.05-.196z" mask="url(#b)"/>
        <path fill="#000" d="M11.862 14.534l.163.117.062-.18a6.563 6.563 0 0 1-.222-.455l-.177-.375.174.893zm.175.15l-.197-.141v-.003l-.192-.986.022-.004c.111.237.396.842.434.911l.012-.003-.079.227z" mask="url(#b)"/>
        <path fill="#009B3A" d="M12.196 13.718c-.103.319-.279.804-.353 1.124-.174-.28-.48-.684-.669-.932.19.18.431.45.618.581.142-.201.28-.54.404-.773" mask="url(#b)"/>
        <path fill="#000" d="M11.255 14c.183.244.43.574.584.819.057-.237.165-.556.26-.839l.053-.155-.08.164c-.088.184-.18.375-.272.508l-.005.007-.008-.006a3.677 3.677 0 0 1-.444-.408l-.088-.09zm.592.864l-.012-.018c-.167-.27-.456-.65-.646-.903l-.021-.028.013-.012c.055.053.113.112.175.175.15.152.304.308.435.4.09-.13.18-.316.265-.496.047-.096.09-.188.133-.268l.015.007c-.025.08-.055.17-.087.265-.1.29-.21.619-.265.858l-.005.02z" mask="url(#b)"/>
        <path fill="#009B3A" d="M11.992 14.629c-.006.002-.428-.86-.428-.86l.249.955.148.107.03-.202z" mask="url(#b)"/>
        <path fill="#000" d="M11.906 14.718l.177.097.037-.185c-.023-.028-.11-.156-.513-.778l.299.866zm.194.129l-.215-.118-.001-.003-.328-.955.021-.006c.143.222.51.786.559.852l.01-.005-.046.235z" mask="url(#b)"/>
        <path fill="#009B3A" d="M12.164 13.799c-.066.33-.185.838-.222 1.164-.204-.252-.554-.609-.77-.828.208.153.48.386.68.488.116-.22.216-.575.312-.824" mask="url(#b)"/>
        <path fill="#000" d="M11.264 14.213c.218.216.507.507.695.73.03-.245.102-.576.165-.87l.036-.16-.062.173a3.925 3.925 0 0 1-.218.542l-.004.008-.008-.005c-.148-.073-.328-.21-.503-.341a5.988 5.988 0 0 0-.101-.077zm.708.772l-.014-.016a13.84 13.84 0 0 0-.776-.812l-.016-.016.012-.013c.062.044.129.095.199.148.17.128.347.262.492.335.076-.142.145-.34.212-.53.036-.103.07-.2.104-.286l.017.006c-.017.083-.037.177-.06.277-.065.3-.14.641-.168.886l-.002.021z" mask="url(#b)"/>
        <path fill="#009B3A" d="M12.02 14.763c-.006.001-.231-.964-.231-.964l.037 1.001.122.15.071-.187z" mask="url(#b)"/>
        <path fill="#000" d="M11.853 14.797l.144.136.087-.171c-.014-.028-.045-.129-.154-.478-.048-.15-.094-.301-.122-.393l.045.906zm.152.17l-.174-.164V14.8l-.051-1 .024-.002c.075.248.273.885.3.955l.01-.001-.11.215z" mask="url(#b)"/>
        <path fill="#009B3A" d="M12.165 13.901c-.035.339-.105.86-.111 1.19-.227-.225-.607-.532-.841-.721.22.124.512.319.72.394.095-.234.16-.602.232-.863" mask="url(#b)"/>
        <path fill="#000" d="M11.313 14.434c.247.187.577.44.793.636.006-.247.048-.587.085-.887l.02-.163c-.016.057-.03.117-.046.179-.051.203-.104.414-.171.569l-.004.008-.009-.003a3.803 3.803 0 0 1-.552-.274l-.116-.065zm.81.677l-.015-.014a13.23 13.23 0 0 0-.882-.706l-.019-.014.01-.015c.07.036.143.077.221.121.19.106.385.216.541.27.066-.153.118-.359.168-.558.026-.106.052-.206.078-.296l.018.003c-.009.085-.02.182-.033.283-.038.31-.081.658-.085.906l-.001.02z" mask="url(#b)"/>
        <path fill="#009B3A" d="M12.03 14.834c-.004.005-.609-.696-.609-.696l.46.843.167.058-.018-.205z" mask="url(#b)"/>
        <path fill="#000" d="M12.039 15.08l.2.06-.021-.214a21.958 21.958 0 0 1-.733-.71l.554.865zm.226.088l-.243-.071-.002-.003-.607-.95.02-.011c.205.202.727.717.796.777l.01-.008.026.266z" mask="url(#b)"/>
        <path fill="#009B3A" d="M12.178 14.02c-.036.337-.109.858-.116 1.188a13.11 13.11 0 0 0-.839-.725c.22.124.511.322.72.399.096-.235.162-.602.235-.863" mask="url(#b)"/>
        <path fill="#000" d="M11.324 14.547c.244.188.573.443.787.64.008-.246.05-.586.09-.887a8.21 8.21 0 0 0 .02-.162l-.047.179c-.052.203-.105.413-.173.567l-.004.008-.009-.002c-.158-.055-.358-.169-.55-.278l-.114-.065zm.805.682l-.015-.015c-.234-.218-.618-.512-.872-.707l-.024-.018.011-.014c.068.036.14.078.219.122.188.107.383.218.54.273.065-.153.118-.358.168-.557.027-.107.053-.206.08-.296l.018.004-.035.282c-.039.308-.083.658-.09.906v.02z" mask="url(#b)"/>
        <path fill="#009B3A" d="M12.099 14.995c-.006.003-.468-.838-.468-.838l.294.941.153.101.02-.204z" mask="url(#b)"/>
        <path fill="#000" d="M12.032 15.093l.183.09.025-.187c-.024-.026-.12-.151-.561-.758l.353.855zm.203.121l-.223-.11-.002-.003-.388-.942.022-.007c.157.217.559.767.61.832l.012-.005-.03.235z" mask="url(#b)"/>
        <path fill="#009B3A" d="M12.206 14.158c-.022.34-.073.865-.066 1.196-.235-.212-.627-.498-.867-.674.224.11.523.29.733.354.086-.24.138-.61.2-.876" mask="url(#b)"/>
        <path fill="#000" d="M11.376 14.738c.258.173.607.41.835.595-.003-.246.025-.588.05-.89l.014-.164-.04.182c-.043.205-.089.418-.15.575l-.003.009-.01-.002a3.773 3.773 0 0 1-.575-.246l-.12-.06zm.856.635l-.016-.013c-.25-.204-.654-.476-.922-.655l-.026-.019.009-.015c.071.032.148.07.23.11.197.096.401.196.563.242.06-.156.104-.364.147-.565.022-.108.044-.21.067-.302l.02.003-.023.285c-.026.31-.055.662-.05.91l.001.02z" mask="url(#b)"/>
        <path fill="#009B3A" d="M12.158 15.15c-.005.003-.578-.734-.578-.734l.421.87.166.068-.009-.205z" mask="url(#b)"/>
        <path fill="#000" d="M12.148 15.35l.197.067-.01-.204c-.03-.025-.149-.145-.693-.719l.506.857zm.223.096l-.24-.08-.002-.003-.558-.943.02-.01c.195.205.69.725.756.786l.01-.006.014.256z" mask="url(#b)"/>
        <path fill="#009B3A" d="M12.212 14.315c-.02.34-.067.865-.059 1.195-.236-.21-.63-.492-.871-.666.225.11.524.286.736.348.084-.24.133-.611.194-.877" mask="url(#b)"/>
        <path fill="#000" d="M11.386 14.901c.262.173.612.406.842.59-.005-.247.021-.59.044-.893.006-.056.009-.11.012-.163l-.037.182c-.043.207-.086.42-.148.578l-.003.008-.009-.002c-.165-.044-.375-.145-.577-.241l-.124-.059zm.862.63l-.016-.014a13.813 13.813 0 0 0-.935-.653l-.02-.013.01-.015c.072.032.15.07.232.108.198.095.403.192.565.237.058-.156.102-.364.144-.567.022-.108.043-.21.066-.3l.019.002-.02.283c-.025.312-.052.664-.045.911v.02z" mask="url(#b)"/>
        <path fill="#009B3A" d="M12.21 15.274c-.005.002-.405-.885-.405-.885l.225.968.145.116.036-.2z" mask="url(#b)"/>
        <path fill="#000" d="M12.115 15.352l.174.105.042-.183c-.02-.027-.103-.159-.485-.799l.269.877zm.19.138l-.212-.127-.297-.971.023-.006c.135.228.483.81.53.876l.01-.004-.054.232z" mask="url(#b)"/>
        <path fill="#009B3A" d="M12.227 14.416c.012.342.014.87.053 1.198-.254-.176-.67-.405-.926-.546.233.079.547.214.762.247.062-.25.076-.626.111-.899" mask="url(#b)"/>
        <path fill="#000" d="M11.462 15.111c.278.14.65.33.9.485-.032-.246-.04-.589-.048-.893l-.004-.164-.02.184c-.021.211-.043.43-.087.594l-.003.008-.009-.001a3.72 3.72 0 0 1-.6-.17l-.13-.043zm.923.522l-.017-.011a13.28 13.28 0 0 0-.993-.533l-.025-.014.007-.015c.075.022.156.05.24.078.208.07.422.143.588.168.043-.163.065-.377.086-.584.011-.11.021-.213.035-.307l.02.001c.002.086.004.183.008.286.007.312.017.666.049.911l.002.02z" mask="url(#b)"/>
        <path fill="#009B3A" d="M12.281 15.24c-.003.005-.74-.507-.74-.507l.627.691.175.01-.062-.194z" mask="url(#b)"/>
        <path fill="#000" d="M12.34 15.638l.199.01-.072-.236c-.035-.02-.181-.121-.85-.609l.722.835zm.23.036h-.016l-.226-.013-.003-.003-.791-.915.015-.018c.342.25.852.619.923.664l.008-.012.09.297z" mask="url(#b)"/>
        <path fill="#009B3A" d="M12.25 14.453c.03.34.06.867.116 1.193-.263-.167-.692-.379-.956-.51.238.07.56.193.776.218.049-.252.044-.627.065-.9" mask="url(#b)"/>
        <path fill="#000" d="M11.518 15.176c.276.13.649.306.899.451-.044-.243-.071-.586-.097-.888a7.327 7.327 0 0 0-.013-.163l-.008.185c-.009.21-.018.428-.052.595l-.002.007h-.009a3.644 3.644 0 0 1-.591-.149l-.127-.038zm.924.488l-.018-.011c-.272-.162-.705-.363-.992-.497l-.025-.012.006-.017c.073.02.153.045.238.071.205.062.416.127.58.146.032-.164.04-.377.05-.583.004-.11.008-.214.016-.308h.018l.025.284c.025.31.053.663.1.907l.002.02z" mask="url(#b)"/>
        <path fill="#009B3A" d="M12.361 15.428c-.005.005-.618-.71-.618-.71l.468.853.169.061-.019-.204z" mask="url(#b)"/>
        <path fill="#000" d="M12.372 15.658l.202.062-.024-.209c-.03-.024-.156-.143-.74-.714l.562.861zm.229.091l-.245-.075-.002-.003-.618-.947.019-.01c.208.202.738.72.807.78l.009-.007.002.02.028.242z" mask="url(#b)"/>
        <path fill="#009B3A" d="M12.304 14.583c.044.338.096.864.166 1.186-.27-.15-.707-.337-.975-.453.24.056.566.16.783.172.038-.255.017-.63.026-.905" mask="url(#b)"/>
        <path fill="#000" d="M11.602 15.35c.275.114.649.27.9.402-.053-.242-.096-.584-.134-.887l-.02-.16v.187c.001.21.002.429-.024.597l-.002.008h-.008c-.162-.008-.377-.063-.585-.114l-.127-.032zm.926.436l-.018-.01c-.272-.145-.703-.322-.99-.44l-.028-.011.006-.017c.072.016.152.036.236.057.203.051.413.104.573.114.024-.166.024-.38.023-.587 0-.111-.001-.215.003-.31h.018c.012.084.023.18.036.281.038.31.082.662.137.905l.004.018z" mask="url(#b)"/>
        <path fill="#009B3A" d="M12.485 15.548c-.004.005-.736-.52-.736-.52l.62.702.175.013-.06-.195z" mask="url(#b)"/>
        <path fill="#000" d="M12.546 15.948l.201.014-.07-.238c-.034-.02-.18-.123-.852-.624l.72.848zm.232.04l-.243-.019-.003-.003-.79-.928.016-.017c.238.178.847.63.926.681l.007-.012.087.298z" mask="url(#b)"/>
        <path fill="#009B3A" d="M12.327 14.726c.066.335.152.855.244 1.172a11.616 11.616 0 0 0-.998-.36c.242.032.572.105.789.097.02-.259-.026-.633-.035-.909" mask="url(#b)"/>
        <path fill="#000" d="M11.677 15.561c.277.09.648.212.9.321a11.38 11.38 0 0 1-.188-.875l-.03-.159c.002.06.007.122.012.187.015.211.03.43.017.6l-.001.008h-.008c-.16.005-.37-.028-.576-.061l-.126-.02zm.93.352l-.02-.008c-.275-.121-.71-.26-.996-.352l-.02-.007.004-.018c.07.01.15.022.232.036.2.033.409.066.563.062a4.321 4.321 0 0 0-.017-.59 8.288 8.288 0 0 1-.019-.31h.019l.053.278c.059.307.125.655.195.891l.005.018z" mask="url(#b)"/>
        <path fill="#009B3A" d="M12.566 15.651c-.005.004-.609-.72-.609-.72l.457.86.168.064-.016-.204z" mask="url(#b)"/>
        <path fill="#000" d="M12.571 15.867l.201.065-.02-.208a24.787 24.787 0 0 1-.729-.715l.548.858zm.227.093l-.243-.077-.002-.004-.603-.943.019-.012c.205.205.727.724.795.784l.01-.007.024.26z" mask="url(#b)"/>
        <path fill="#009B3A" d="M12.367 14.819c.096.325.23.834.35 1.137-.286-.088-.74-.173-1.02-.226.243 0 .576.03.79-.008-.005-.262-.085-.628-.12-.903" mask="url(#b)"/>
        <path fill="#000" d="M11.8 15.74c.275.053.647.126.903.202a11.022 11.022 0 0 1-.265-.845 39.7 39.7 0 0 1-.045-.158l.03.185c.034.209.07.425.072.598v.007l-.008.002c-.152.026-.361.02-.562.013l-.126-.004zm.933.23l-.018-.005a10.665 10.665 0 0 0-.995-.222l-.024-.004.001-.018c.07 0 .148.003.228.005.198.007.402.013.552-.012-.003-.17-.038-.382-.072-.587-.018-.11-.034-.213-.047-.307l.017-.003c.025.081.052.175.08.274.085.298.181.636.27.862l.008.017z" mask="url(#b)"/>
        <path fill="#009B3A" d="M12.598 15.653c0 .006-.85-.182-.85-.182l.809.401.163-.06-.122-.16z" mask="url(#b)"/>
        <path fill="#000" d="M11.82 15.506l.775.486.156-.075-.118-.193a16.2 16.2 0 0 1-.812-.218zm.774.511l-.003-.003-.846-.53.006-.022c.327.091.813.226.88.24l.002-.016.147.242-.186.09z" mask="url(#b)"/>
        <path fill="#009B3A" d="M12.423 14.92c.096.326.228.835.346 1.14-.286-.09-.74-.178-1.019-.233.242.002.575.033.789-.004-.003-.261-.083-.628-.116-.903z" mask="url(#b)"/>
        <path fill="#000" d="M11.852 15.838c.275.054.648.13.903.207-.087-.228-.18-.557-.262-.85l-.044-.155c.008.06.019.121.029.186.033.209.068.424.07.597v.008l-.007.001a3.048 3.048 0 0 1-.563.01c-.044-.001-.086-.004-.126-.004zm.932.235l-.018-.006c-.278-.087-.71-.171-.996-.227l-.022-.005.002-.017c.07 0 .147.003.229.006.196.008.4.016.55-.008-.002-.17-.036-.383-.07-.587-.016-.11-.033-.214-.045-.308l.018-.003c.024.081.05.174.077.273.085.3.18.637.268.865l.007.017z" mask="url(#b)"/>
        <path fill="#009B3A" d="M12.737 15.742c-.002.006-.813-.392-.813-.392l.73.59.174-.016-.09-.182z" mask="url(#b)"/>
        <path fill="#000" d="M12 15.408l.747.713.178-.02-.095-.222a20.482 20.482 0 0 1-.83-.47zm.74.737l-.003-.003-.818-.78.01-.02c.234.135.827.477.903.514l.005-.014.117.279-.213.024z" mask="url(#b)"/>
        <path fill="#009B3A" d="M12.381 14.978c.162.296.398.765.577 1.034a11.258 11.258 0 0 0-1.042.004c.236-.053.567-.098.768-.182-.058-.254-.213-.595-.303-.856" mask="url(#b)"/>
        <path fill="#000" d="M12.431 15.088l.067.177c.077.196.156.4.195.567l.001.007-.007.003c-.143.06-.348.1-.546.138l-.124.024c.28-.01.66-.02.923 0-.133-.205-.293-.507-.434-.774a9.205 9.205 0 0 1-.075-.142zm-.515.937l-.002-.017c.069-.016.144-.03.224-.046.194-.037.394-.075.536-.133-.038-.165-.117-.365-.192-.558-.04-.103-.078-.2-.109-.29l.016-.008.133.249c.144.273.309.584.444.786l.01.015-.018-.002a10.661 10.661 0 0 0-1.014.003l-.028.001z" mask="url(#b)"/>
        <path fill="#009B3A" d="M12.865 15.831c-.002.006-.845-.233-.845-.233l.793.449.166-.051-.114-.165z" mask="url(#b)"/>
        <path fill="#000" d="M12.093 15.638l.768.543.162-.061-.113-.201a17.125 17.125 0 0 1-.817-.28zm.766.568l-.003-.002-.84-.594.007-.02c.33.116.819.288.886.306l.002-.015.14.252-.011.005-.181.068z" mask="url(#b)"/>
        <path fill="#009B3A" d="M12.469 15.103c.163.296.402.763.583 1.031-.298-.02-.76 0-1.042.012.236-.054.567-.102.767-.188-.06-.254-.217-.595-.308-.855" mask="url(#b)"/>
        <path fill="#000" d="M12.519 15.214l.069.175c.077.196.158.399.197.567l.002.007-.007.003a2.999 2.999 0 0 1-.546.142l-.123.025c.28-.01.658-.025.923-.008a10.974 10.974 0 0 1-.438-.767l-.077-.144zm-.508.941l-.003-.017c.069-.016.143-.03.223-.047.194-.04.394-.08.535-.138a4.516 4.516 0 0 0-.195-.557c-.04-.103-.08-.2-.111-.29l.016-.007c.042.075.087.16.136.25.146.272.312.58.447.78l.01.015h-.018c-.289-.02-.726-.002-1.016.01l-.024.001z" mask="url(#b)"/>
        <path fill="#009B3A" d="M12.972 15.9c-.003.006-.787-.47-.787-.47l.688.658.177.001-.078-.189z" mask="url(#b)"/>
        <path fill="#000" d="M12.996 16.29l.188.002-.084-.23c-.033-.018-.176-.111-.838-.564l.734.792zm.219.026l-.227-.003-.003-.003-.806-.869.013-.019c.235.16.836.571.912.617l.006-.012.105.29z" mask="url(#b)"/>
        <path fill="#009B3A" d="M12.534 15.178c.189.275.469.714.672.96-.293.019-.744.1-1.02.148.226-.086.545-.177.734-.29-.084-.248-.27-.57-.386-.818" mask="url(#b)"/>
        <path fill="#000" d="M12.594 15.281l.085.17c.096.186.194.379.248.543l.003.006-.006.004c-.134.08-.331.148-.522.214a5.165 5.165 0 0 0-.12.042c.274-.048.645-.112.906-.13-.15-.186-.339-.467-.505-.715-.03-.047-.061-.091-.09-.134zm-.408 1.014l-.004-.018.215-.076c.186-.064.378-.13.512-.208-.055-.162-.152-.351-.246-.535-.05-.098-.098-.19-.137-.276l.015-.01.157.232c.17.255.363.543.516.728l.01.014h-.017c-.284.019-.711.094-.994.144l-.027.005z" mask="url(#b)"/>
        <path fill="#009B3A" d="M13.03 15.97c0 .006-.85-.02-.85-.02l.84.248.15-.093-.14-.136z" mask="url(#b)"/>
        <path fill="#000" d="M12.25 15.967l.793.301.142-.113-.134-.165a5.053 5.053 0 0 1-.434-.01l-.367-.013zm.797.326l-.004-.002-.865-.327.002-.023c.299.011.731.027.844.027h.022v-.016l.168.208-.167.133z" mask="url(#b)"/>
        <path fill="#009B3A" d="M13.522 11.854c0-.002.611-.102.611-.102l-.608.014-.106.055.103.033z" mask="url(#b)"/>
        <path fill="#000" d="M13.457 11.843l.109.036c.038-.01.17-.033.636-.108l-.632.014-.113.058zm.117.062l-.178-.056.17-.087.803-.02.004.025c-.207.033-.729.119-.799.132v.006z" mask="url(#b)"/>
        <path fill="#009B3A" d="M13.858 11.985c-.177-.054-.446-.144-.627-.183.193-.078.48-.213.656-.297-.136.085-.333.194-.438.279.101.069.286.139.409.2" mask="url(#b)"/>
        <path fill="#000" d="M13.28 11.897a8.932 8.932 0 0 1 .63.183l-.035-.016c-.13-.058-.264-.118-.353-.178l-.013-.009.012-.01c.094-.077.241-.165.385-.251-.203.095-.441.205-.627.28zm.786.255l-.194-.06c-.212-.066-.454-.142-.634-.18l-.037-.01.035-.013c.25-.099.61-.271.85-.384l.016-.008.011.02c-.053.034-.11.068-.173.105-.144.087-.294.176-.392.253.088.057.214.113.336.169.07.03.134.059.19.087l-.008.021z" mask="url(#b)"/>
        <path fill="#009B3A" d="M13.496 11.875c-.001-.002.59-.163.59-.163l-.612.079-.092.063.114.021z" mask="url(#b)"/>
        <path fill="#000" d="M13.42 11.896l.121.023c.03-.012.12-.036.386-.109l.227-.061-.638.082-.097.065zm.135.049l-.196-.037.15-.1.81-.105.005.024c-.197.053-.697.189-.771.211l.002.007z" mask="url(#b)"/>
        <path fill="#009B3A" d="M13.886 12.027c-.208-.02-.525-.06-.73-.06a9.25 9.25 0 0 0 .504-.505c-.092.131-.232.305-.293.43.139.056.362.093.52.135" mask="url(#b)"/>
        <path fill="#000" d="M13.194 12.119a9.465 9.465 0 0 1 .767.064 1.486 1.486 0 0 0-.073-.016 3.205 3.205 0 0 1-.45-.124l-.012-.004.006-.011a2.984 2.984 0 0 1 .288-.433c-.163.17-.366.38-.526.524zm.933.104l-.231-.023c-.249-.026-.53-.056-.732-.058h-.03l.022-.021c.197-.174.468-.459.646-.647l.018-.019.019.016-.117.161c-.102.138-.205.28-.265.395.12.045.28.082.437.117.084.018.165.037.237.056l-.004.023z" mask="url(#b)"/>
        <path fill="#009B3A" d="M13.276 11.916c0-.002.614-.068.614-.068l-.598-.02-.112.05.096.038z" mask="url(#b)"/>
        <path fill="#000" d="M13.217 11.896l.102.041c.037-.008.168-.023.64-.074l-.622-.02-.12.053zm.106.068l-.166-.068.178-.077.791.026.002.023c-.209.023-.737.08-.804.09l-.001.006z" mask="url(#b)"/>
        <path fill="#009B3A" d="M13.731 12.05c-.188-.035-.474-.098-.665-.12.18-.09.445-.242.607-.336-.121.092-.3.212-.39.3.114.057.312.108.448.157" mask="url(#b)"/>
        <path fill="#000" d="M13.116 12.033c.185.024.425.073.638.115l.014.003a.16.16 0 0 0-.024-.007c-.14-.044-.286-.09-.387-.14l-.015-.007.012-.011c.082-.081.213-.177.344-.273-.188.108-.408.233-.582.32zm.837.179l-.203-.04c-.228-.046-.486-.098-.676-.12l-.039-.005.036-.018c.231-.113.563-.304.781-.43l.02-.013.013.02-.153.113c-.13.094-.265.19-.35.27.098.048.236.091.37.132.075.024.145.046.207.068l-.006.023z" mask="url(#b)"/>
        <path fill="#009B3A" d="M13.222 11.91c-.001-.002.541-.232.541-.232l-.592.156-.07.072.121.005z" mask="url(#b)"/>
        <path fill="#000" d="M13.133 11.972l.135.004c.029-.015.138-.062.561-.242l-.623.164-.073.074zm.144.028l-.198-.007.115-.117h.004l.783-.207.007.022c-.186.079-.66.28-.71.305V12z" mask="url(#b)"/>
        <path fill="#009B3A" d="M13.713 12.12c-.157-.065-.397-.175-.552-.22.12-.112.29-.308.394-.428-.072.12-.184.275-.233.395.104.088.273.174.391.253" mask="url(#b)"/>
        <path fill="#000" d="M13.19 12.034c.152.047.357.134.54.213l.035.014-.054-.03a2.763 2.763 0 0 1-.34-.227l-.005-.006.003-.008c.046-.112.132-.246.215-.376l.013-.019a7.11 7.11 0 0 1-.408.439zm.702.306a6.804 6.804 0 0 1-.172-.072 5.937 5.937 0 0 0-.556-.218l-.02-.005.014-.015c.153-.141.364-.385.504-.545l.016-.019.019.013a4.077 4.077 0 0 1-.093.148c-.081.126-.164.255-.21.364.089.075.212.148.33.219.064.039.125.075.178.11l-.01.02z" mask="url(#b)"/>
        <path fill="#009B3A" d="M13.253 11.951c0-.004.421-.182.421-.182l-.458.062-.057.083.094.037z" mask="url(#b)"/>
        <path fill="#000" d="M13.182 11.957l.107.044c.03-.02.135-.065.47-.207l-.514.072-.063.091zm.124.076l-.16-.066.086-.123h.005l.606-.084.006.022c-.2.085-.497.212-.547.236l.004.015z" mask="url(#b)"/>
        <path fill="#009B3A" d="M12.9 15.892c0 .006-.871.006-.871.006l.883.216.145-.095-.156-.127z" mask="url(#b)"/>
        <path fill="#000" d="M12.102 15.918l.808.261.132-.114-.144-.156c-.032.004-.168.01-.796.01zm.811.286l-.003-.001-.883-.285.002-.023h.028c.32 0 .772-.002.835-.007l-.001-.016.18.195-.158.137z" mask="url(#b)"/>
        <path fill="#009B3A" d="M13.058 15.948c0 .007-.886-.206-.886-.206l.85.418.167-.054-.131-.158z" mask="url(#b)"/>
        <path fill="#000" d="M12.248 15.781l.775.502.151-.064-.121-.191a16.05 16.05 0 0 1-.805-.247zm.774.528l-.004-.003-.85-.55.006-.022c.226.072.804.253.876.27l.003-.013.152.24-.183.078z" mask="url(#b)"/>
        <path fill="#009B3A" d="M13.203 16.008c0 .006-.88-.045-.88-.045l.88.265.15-.086-.15-.134z" mask="url(#b)"/>
        <path fill="#000" d="M12.398 15.983l.804.32.137-.102-.14-.165c-.03.002-.167-.005-.801-.053zm.807.345H13.2l-.88-.35.003-.024c.323.025.802.06.87.06v-.015l.175.206-.164.123z" mask="url(#b)"/>
        <path fill="#009B3A" d="M12.645 15.386c.23.252.572.653.812.876-.295.045-.74.164-1.014.237.217-.105.53-.223.704-.35-.118-.233-.351-.53-.502-.763" mask="url(#b)"/>
        <path fill="#000" d="M12.721 15.483l.107.154c.123.174.249.354.326.509l.004.006-.006.005a2.96 2.96 0 0 1-.498.256l-.116.051c.27-.071.637-.167.9-.208-.178-.167-.407-.424-.609-.652a11.332 11.332 0 0 1-.108-.121zm-.276 1.024l-.006-.016c.063-.03.134-.061.208-.094.18-.08.365-.162.489-.25-.078-.152-.203-.329-.322-.5a8.153 8.153 0 0 1-.176-.257l.014-.01.19.213c.207.232.441.496.62.663l.014.012-.018.003c-.286.043-.709.156-.989.23l-.024.006z" mask="url(#b)"/>
        <path fill="#009B3A" d="M13.324 16.052c-.001.006-.88-.288-.88-.288l.828.491.172-.036-.12-.167z" mask="url(#b)"/>
        <path fill="#000" d="M12.522 15.813l.765.59.159-.043-.113-.204c-.031-.009-.169-.064-.811-.343zm.762.616l-.004-.003-.84-.649.009-.021c.227.1.809.352.883.378l.003-.015.141.256-.192.054z" mask="url(#b)"/>
        <path fill="#009B3A" d="M12.726 15.444c.25.227.626.592.883.788-.283.082-.704.257-.962.364.2-.132.49-.29.648-.44-.139-.223-.397-.495-.569-.712" mask="url(#b)"/>
        <path fill="#000" d="M12.818 15.532c.04.047.083.094.128.144.144.161.293.328.39.476l.004.006-.006.005a3.143 3.143 0 0 1-.482.32l-.113.067c.27-.105.634-.248.898-.322-.2-.147-.46-.379-.693-.584a7.363 7.363 0 0 0-.126-.112zm-.168 1.073l-.009-.016c.061-.039.13-.078.201-.12.175-.104.357-.21.474-.314-.096-.145-.243-.31-.384-.467-.076-.085-.148-.164-.208-.239l.013-.012.22.194c.236.21.505.448.706.594l.014.01-.017.005c-.288.08-.707.245-.984.354l-.026.01z" mask="url(#b)"/>
        <path fill="#009B3A" d="M13.397 16.106c.001.007-.834.164-.834.164l.878.06.125-.123-.17-.1z" mask="url(#b)"/>
        <path fill="#000" d="M12.633 16.324l.82.072.114-.148-.158-.123c-.03.011-.163.048-.776.199zm.827.096h-.004l-.894-.079-.001-.024c.312-.076.778-.191.839-.212l-.002-.017.199.156-.008.011-.13.165z" mask="url(#b)"/>
        <path fill="#009B3A" d="M13.222 16.054c0 .007-.87.067-.87.067l.898.154.137-.105-.165-.116z" mask="url(#b)"/>
        <path fill="#000" d="M12.426 16.153l.821.187.126-.126-.154-.143c-.03.008-.166.025-.793.082zm.826.211h-.004l-.897-.205v-.022c.321-.03.798-.075.861-.086l-.001-.016.192.178-.01.01-.14.141z" mask="url(#b)"/>
        <path fill="#009B3A" d="M13.383 16.1c0 .006-.9-.144-.9-.144l.881.356.162-.065-.143-.147z" mask="url(#b)"/>
        <path fill="#000" d="M12.561 15.987l.803.431.146-.079-.132-.18c-.032-.002-.17-.029-.817-.172zm.803.456l-.003-.002-.881-.472.005-.022c.23.05.816.179.89.19l.001-.014.166.226-.178.094z" mask="url(#b)"/>
        <path fill="#009B3A" d="M13.533 16.148c0 .008-.882.017-.882.017l.898.204.144-.096-.16-.125z" mask="url(#b)"/>
        <path fill="#000" d="M12.727 16.187l.82.246.131-.114-.149-.153c-.03.005-.167.012-.802.021zm.824.271h-.004l-.898-.27.003-.023c.324-.005.806-.014.871-.02v-.016l.185.19-.157.14z" mask="url(#b)"/>
        <path fill="#009B3A" d="M12.929 15.568c.247.235.62.612.876.816-.291.065-.727.215-.994.307.209-.12.51-.258.676-.396-.135-.227-.39-.506-.558-.727" mask="url(#b)"/>
        <path fill="#000" d="M13.016 15.66l.12.146c.138.165.279.335.37.484l.004.006-.006.005c-.12.099-.306.196-.486.29l-.114.059c.27-.09.634-.21.897-.27-.193-.154-.445-.395-.668-.608l-.117-.112zm-.202 1.04l-.008-.017.203-.109c.176-.091.359-.185.478-.282a4.608 4.608 0 0 0-.365-.475c-.071-.087-.14-.168-.198-.244l.013-.012.209.198c.227.218.486.465.68.619l.016.011-.018.004c-.288.063-.709.205-.987.298l-.023.008z" mask="url(#b)"/>
        <path fill="#009B3A" d="M13.657 16.184c-.001.007-.9-.226-.9-.226l.862.433.17-.048-.132-.159z" mask="url(#b)"/>
        <path fill="#000" d="M12.836 16l.784.52.153-.057-.121-.194c-.032-.006-.17-.05-.816-.27zm.782.545l-.002-.002-.862-.571.006-.022c.23.078.816.278.89.296l.002-.012.153.24-.187.07z" mask="url(#b)"/>
        <path fill="#009B3A" d="M13.015 15.62c.265.209.668.547.94.724-.277.1-.683.305-.934.43.19-.146.469-.323.614-.484-.156-.213-.433-.465-.62-.67" mask="url(#b)"/>
        <path fill="#000" d="M13.112 15.703l.141.134c.16.152.325.308.436.449l.004.005-.005.006c-.112.114-.292.235-.466.352l-.11.073a10.9 10.9 0 0 1 .89-.38c-.217-.134-.504-.35-.757-.54l-.133-.1zm-.086 1.079l-.01-.015.195-.133c.17-.115.347-.232.458-.344-.11-.138-.272-.292-.43-.44a8.028 8.028 0 0 1-.231-.225l.013-.012.236.176c.259.194.553.415.77.548l.016.01-.017.005c-.287.098-.7.291-.975.418l-.025.012z" mask="url(#b)"/>
        <path fill="#009B3A" d="M13.733 16.234c.001.006-.82.22-.82.22h.882l.114-.13-.176-.09z" mask="url(#b)"/>
        <path fill="#000" d="M13.75 16.251a14.2 14.2 0 0 1-.767.269l.827-.001.106-.158-.166-.11zm-.837.292l-.003-.023c.31-.104.77-.261.83-.287l-.003-.016.21.137-.129.187-.905.002z" mask="url(#b)"/>
        <path fill="#FEDF00" d="M14.866 15l-.67-.464-.67.464.251-.741-.586-.463h.754l.251-.741.252.74h.753l-.586.464z" mask="url(#b)"/>
        <path fill="#000" d="M14.196 14.513l.633.438-.236-.699.553-.437h-.712l-.238-.7-.237.7h-.712l.553.437-.237.7.633-.439zm-.707.535l.266-.783-.62-.489h.796l.265-.781.265.781h.796l-.62.49.266.782-.707-.488-.707.488zM10.881 16.31l-.056-.086a.316.316 0 0 0-.046-.049.074.074 0 0 0-.044-.02.09.09 0 0 0-.051.01c-.024.012-.037.028-.041.049-.004.02.006.048.03.086l.06.089.148-.08zm.569-.03l-.73.391-.223-.338a.528.528 0 0 1-.077-.153.155.155 0 0 1 .013-.116.227.227 0 0 1 .098-.094.272.272 0 0 1 .121-.033c.04 0 .077.01.114.027.023.011.048.029.075.056a.205.205 0 0 1-.008-.068c.001-.01.007-.029.017-.052a.278.278 0 0 1 .027-.053l.146-.212.152.23-.152.227a.17.17 0 0 0-.032.067c-.001.02.004.04.017.059l.01.018.297-.159.135.204zM10.224 15.794l-.19-.574.147-.05.12.36.11-.036-.11-.334.141-.047.11.333.138-.045-.123-.37.157-.052.195.585z" mask="url(#b)"/>
        <path fill="#000" d="M10.363 14.803l-.008-.072c-.006-.057-.02-.098-.044-.119a.095.095 0 0 0-.08-.024.1.1 0 0 0-.073.038c-.018.023-.025.061-.018.117l.009.084.214-.024zm-.375.345l-.057-.494c-.012-.107.005-.19.049-.25.046-.059.115-.094.21-.105a.296.296 0 0 1 .237.062c.062.052.099.138.112.257l.019.162.356-.04.034.298-.96.11zM9.95 13.568l.025-.225.433.047a.359.359 0 0 1 .12.033.267.267 0 0 1 .143.17.456.456 0 0 1 .008.16.874.874 0 0 1-.02.116.255.255 0 0 1-.112.172.225.225 0 0 1-.089.038.419.419 0 0 1-.125.008l-.434-.047.024-.224.444.048a.125.125 0 0 0 .097-.023.12.12 0 0 0 .044-.088.125.125 0 0 0-.024-.095.125.125 0 0 0-.09-.043l-.444-.047zM10.8 13.163l.045-.141c.016-.048.02-.085.01-.11a.09.09 0 0 0-.055-.053.074.074 0 0 0-.07.007c-.02.013-.04.045-.055.092l-.046.142.17.063zm-.33-.123l.039-.12c.014-.044.017-.076.008-.098a.084.084 0 0 0-.052-.049.072.072 0 0 0-.065.004c-.02.013-.036.04-.05.082l-.04.122.16.059zm-.422.156l.17-.518c.028-.087.07-.146.125-.176a.195.195 0 0 1 .172-.014c.05.018.087.05.112.097.016.03.025.07.025.117a.25.25 0 0 1 .12-.114.202.202 0 0 1 .149.004.248.248 0 0 1 .16.195.316.316 0 0 1-.007.117.997.997 0 0 1-.03.128l-.156.478-.84-.314zM10.394 12.151l.117-.194.472.286.182-.303.155.094-.3.495zM10.836 11.481l.145-.174.562.468-.145.175zM11.82 11.104l.188-.083c.027.05.041.1.043.146a.258.258 0 0 1-.025.133.392.392 0 0 1-.105.127.49.49 0 0 1-.17.101.313.313 0 0 1-.179-.007.416.416 0 0 1-.187-.134c-.079-.092-.115-.184-.108-.275.005-.091.054-.175.143-.252a.364.364 0 0 1 .202-.099.323.323 0 0 1 .2.053l-.122.164a.16.16 0 0 0-.048-.023.116.116 0 0 0-.061 0 .127.127 0 0 0-.056.03.132.132 0 0 0-.05.123c.005.037.029.08.071.13.053.062.099.095.137.102a.126.126 0 0 0 .108-.033c.033-.028.05-.058.051-.091 0-.033-.01-.07-.033-.112M12.596 10.774l-.251-.226.067.315.184-.089zm.15.137l-.293.14.033.143-.262.127-.132-.901.28-.135.756.6-.269.13-.114-.104zM13.506 10.142l.09.518.071-.012a.315.315 0 0 0 .129-.043.144.144 0 0 0 .049-.081.466.466 0 0 0-.008-.17c-.016-.1-.045-.167-.085-.198-.039-.032-.096-.04-.173-.028l-.073.014zm-.332-.165l.438-.075a.52.52 0 0 1 .215 0c.057.013.107.04.15.077a.426.426 0 0 1 .1.14.7.7 0 0 1 .056.179c.017.102.02.182.006.242a.397.397 0 0 1-.072.157.324.324 0 0 1-.12.098.632.632 0 0 1-.17.056l-.439.075-.164-.95z" mask="url(#b)"/>
        <path fill="#000" d="M14.114 9.83l.605.027-.006.156-.38-.017-.004.116.35.015-.006.15-.35-.015-.007.143.39.018-.008.165-.616-.026zM14.995 9.9l.22.054-.132.535.343.084-.043.176-.562-.138zM16.306 10.797l.06.037c.045.029.083.041.112.036a.09.09 0 0 0 .065-.049.114.114 0 0 0 .013-.081c-.006-.03-.032-.057-.078-.085l-.069-.044-.103.186zm-.046-.508l.403.253c.088.055.141.119.16.19a.304.304 0 0 1-.04.23c-.046.084-.107.135-.181.153-.073.017-.16-.005-.257-.066l-.133-.084-.172.309-.244-.152.464-.833zM17.008 11.454l.141-.288-.28.16.139.128zm-.086.172l-.222-.204-.128.074-.198-.182.823-.405.212.195-.349.84-.205-.187.067-.131z" mask="url(#b)"/>
        <path fill="#000" d="M17.56 11.816l.063.08a.34.34 0 0 0 .049.046c.012.01.027.017.045.017a.083.083 0 0 0 .05-.012c.022-.014.035-.031.037-.051.002-.02-.01-.047-.037-.082l-.065-.084-.141.086zm-.56.06l.694-.425.246.319c.046.06.075.108.087.147a.157.157 0 0 1-.005.114.212.212 0 0 1-.09.098.257.257 0 0 1-.117.04.266.266 0 0 1-.194-.07c.01.028.014.05.014.065a.28.28 0 0 1-.014.053.27.27 0 0 1-.022.054l-.13.216-.167-.217.133-.232a.151.151 0 0 0 .028-.068c0-.02-.007-.04-.02-.057l-.014-.016-.281.172-.148-.193z" mask="url(#b)"/>
        <path fill="#000" d="M17.925 12.912l.254-.227-.325.03.07.197zm-.154.136l-.113-.316-.149.016-.101-.284.927-.02.109.302-.686.696-.104-.29.117-.104z" mask="url(#b)"/>
        <path fill="#000" d="M18.033 13.597l.15-.022.053.345-.308.046a.668.668 0 0 1-.119-.161.584.584 0 0 1-.051-.177.45.45 0 0 1 .012-.217.306.306 0 0 1 .112-.145.43.43 0 0 1 .193-.075.425.425 0 0 1 .213.018.316.316 0 0 1 .155.123c.03.046.051.11.064.193.012.08.014.14.005.183a.236.236 0 0 1-.052.109.3.3 0 0 1-.108.076l-.07-.21a.122.122 0 0 0 .056-.054.148.148 0 0 0 .01-.085.148.148 0 0 0-.07-.11c-.038-.024-.094-.03-.167-.02-.078.012-.132.036-.161.07a.156.156 0 0 0-.033.13.227.227 0 0 0 .022.07c.01.022.027.047.049.073l.068-.01-.023-.15zM18.512 14.66l-.02.225-.435-.04a.375.375 0 0 1-.12-.03.261.261 0 0 1-.095-.073.25.25 0 0 1-.052-.095.452.452 0 0 1-.01-.16c.003-.036.01-.073.017-.116a.256.256 0 0 1 .11-.174.226.226 0 0 1 .087-.04.428.428 0 0 1 .126-.01l.434.04-.02.223-.445-.04a.132.132 0 0 0-.096.026.122.122 0 0 0-.042.088c-.004.04.005.07.025.094.02.025.05.039.091.042l.445.04zM17.944 15.612l.332.007-.271-.209-.061.202zm-.2-.005l.098-.323-.126-.095.088-.29.735.647-.094.31-.942.043.09-.297.151.005zM18.13 16.033l-.13.215h-.287l.137.253-.129.214-.219-.462-.262-.158.116-.194.263.157z" mask="url(#b)"/>
        <path fill="#000" d="M14.196 9.762c-1.176 0-2.28.458-3.11 1.29a4.368 4.368 0 0 0-1.289 3.108c.001 2.427 1.974 4.4 4.399 4.4a4.404 4.404 0 0 0 4.399-4.4c0-1.175-.458-2.28-1.289-3.11a4.37 4.37 0 0 0-3.11-1.288m0 8.916a4.522 4.522 0 0 1-4.517-4.516 4.49 4.49 0 0 1 1.322-3.195 4.49 4.49 0 0 1 3.195-1.323c1.206 0 2.34.469 3.194 1.323a4.487 4.487 0 0 1 1.323 3.193 4.522 4.522 0 0 1-4.517 4.518" mask="url(#b)"/>
        <path fill="#000" d="M14.196 10.817a3.347 3.347 0 0 0-3.344 3.344c0 1.845 1.5 3.344 3.344 3.344 1.844 0 3.344-1.5 3.344-3.344 0-.894-.348-1.733-.98-2.365a3.32 3.32 0 0 0-2.364-.979m0 6.83a3.49 3.49 0 0 1-3.485-3.486 3.49 3.49 0 0 1 3.485-3.486c.931 0 1.806.362 2.464 1.02a3.464 3.464 0 0 1 1.022 2.466 3.49 3.49 0 0 1-3.486 3.486" mask="url(#b)"/>
    </g>
</svg>
