<svg xmlns="http://www.w3.org/2000/svg" xmlns:xlink="http://www.w3.org/1999/xlink" width="29" height="29" viewBox="0 0 29 29">
    <defs>
        <path id="a" d="M14.393 0C6.6 0 .285 6.317.285 14.108S6.6 28.216 14.393 28.216c7.792 0 14.108-6.317 14.108-14.108S22.185 0 14.393 0z"/>
    </defs>
    <g fill="none" fill-rule="evenodd">
        <mask id="b" fill="#fff">
            <use xlink:href="#a"/>
        </mask>
        <path fill="#FFF" d="M-1.568 29.986h47.934v-3.43H-1.568zM-1.568 3.267h47.934V.005H-1.568z" mask="url(#b)"/>
        <path fill="#0038A8" d="M-1.568 6.643h47.934V3.267H-1.568zM-1.568 26.555h47.934v-3.262H-1.568z" mask="url(#b)"/>
        <path fill="#FFF" d="M-1.568 23.293h47.934v-3.376H-1.568zM-1.568 9.962h47.934v-3.32H-1.568z" mask="url(#b)"/>
        <path fill="#0038A8" d="M-1.568 19.917h47.934v-3.263H-1.568zM-1.568 13.28h47.934V9.961H-1.568z" mask="url(#b)"/>
        <path fill="#FFF" d="M-1.568 16.654h47.934V13.28H-1.568z" mask="url(#b)"/>
        <path fill="#FFF" d="M-1.568 16.654h17.736V.004H-1.568z" mask="url(#b)"/>
        <path fill="#FCD116" d="M7.106 2.757c.107 1 .016 2.185.046 3.256-.295-.032-.451.064-.685.087.234-1.095.464-2.195.639-3.343M7.288 2.885c.253 1.033.434 2.135.64 3.215-.228-.017-.362-.118-.64-.087V2.885zM9.159 3.016c.134 1.103.16 2.63-.866 2.997.392-.728.638-1.97.866-2.997M4.596 3.1c.523 1.008 1.36 1.722 1.688 2.913-.285-.017-.603-.375-.912-.513.056-1.095-.67-1.457-.776-2.4M1.584 6.313c1.033.259 2.575.41 3.469.944-.3.116-.722.121-1.05.213-.564-.611-1.697-.692-2.419-1.157" mask="url(#b)"/>
        <path fill="#000" d="M7.015 7.343c-.2.08-.303-.146-.548-.172-.335-.04-.61.174-.867.13.336-.432 1.13-.395 1.415.042M8.749 7.343c-.37-.232-.999-.204-1.323.041.15-.52 1.258-.51 1.323-.041" mask="url(#b)"/>
        <path fill="#FCD116" d="M5.052 7.385c.103.155-.106.385-.046.641H1.54c1.13-.253 2.39-.381 3.513-.641M1.675 8.197c1.018-.098 2.237-.013 3.331-.041-.033.26.077.387.093.6-1.155-.174-2.239-.412-3.424-.559M12.719 8.156c-1.1.238-2.275.406-3.422.6.07-.177.116-.377.136-.6h3.286zM5.052 8.97c-.167.315-.426.54-.591.856-1.223-.09-1.571.64-2.603.73 1.123-.475 1.84-1.33 3.194-1.586M7.7 9.054c-.208.16-.721.075-1.004.043.36-.118.592-.03 1.004-.043M6.467 10.085c.142-.062.435.103.685.084v3.213c-.27-1.06-.408-2.244-.685-3.297M7.88 10.04c-.048 1.04-.426 2.14-.547 3.256-.106-.956-.014-2.098-.045-3.126.218-.026.44-.047.593-.13M8.157 10.085c.298.203.617.39.91.598-.083 1.121.683 1.444.777 2.4-.522-1.039-1.428-1.717-1.687-2.998" mask="url(#b)"/>
        <path fill="#000" d="M9.615 13.04c-.292-.826-1.32-1.701-1.596-2.828-.459 1.477.988 1.96 1.596 2.828zM5.51 10.555c-.498.702-.139 2.11-.365 2.784.387-.966.527-2.39.958-3.17a2.57 2.57 0 0 1-.593.386zm-.182 2.784c.358-.265.326-.76.593-1.328.171-.366.596-.696.639-.942.051-.298-.19-.638-.228-.943-.583.81-.708 2.277-1.004 3.213zm4.517-.257c-.094-.955-.86-1.277-.776-2.399-.294-.208-.613-.394-.911-.599.26 1.282 1.165 1.96 1.687 2.998zM7.288 10.17c.03 1.028-.06 2.17.045 3.126.12-1.116.5-2.216.548-3.257-.154.084-.374.106-.593.13zm-.136 3.212V10.17c-.25.018-.542-.147-.685-.086.277 1.054.415 2.238.685 3.298zm4.015-1.542c-.856-.71-1.57-1.553-2.465-2.228-.156.11-.276.253-.5.3a26.24 26.24 0 0 0 2.965 1.928zm-7.849.042c.925-.658 1.909-1.263 2.875-1.883-.121-.187-.346-.275-.547-.387-.726.775-1.715 1.532-2.328 2.27zM12.765 10c-1.027-.351-2.547-.467-3.332-.902.36 1.106 2.264.779 3.332.902zm-1.643 1.67c.094.047.096.045.045-.042-.648-.864-1.3-1.72-1.916-2.613-.192.118-.276.339-.41.514.78.695 1.54 1.409 2.28 2.141zm-7.895 0c-.051.089-.048.092.045.042.75-.766 1.58-1.46 2.328-2.227-.196-.101-.229-.356-.411-.47-.648.89-1.3 1.777-1.962 2.655zm-1.369-1.114c1.032-.09 1.38-.819 2.602-.729.166-.315.425-.541.592-.856-1.355.255-2.071 1.111-3.194 1.585zm10.997-.685c-.292-.342-.808-.319-1.413-.556-.406-.161-.761-.558-1.05-.6-.324-.05-.614.176-.96.127.738.694 2.466.686 3.423 1.03zm-10.859.427c0 .058-.08.039-.091.086 1.057-.462 1.79-1.232 3.01-1.542-1.502-.415-2.07.865-2.919 1.456zm7.437-2.14c-.02.222-.066.422-.137.599 1.149-.194 2.322-.362 3.422-.6H9.433zm-4.335.599c-.015-.213-.124-.34-.091-.6-1.094.028-2.313-.057-3.331.042 1.184.146 2.268.384 3.422.558zm4.335-.73c1.126-.03 2.373.058 3.422-.042-1.196-.146-2.47-.452-3.559-.557.088.16.123.37.137.6zm-7.894 0h3.468c-.061-.256.148-.487.045-.641-1.124.26-2.384.388-3.513.642zm2.464-.557c.328-.09.75-.096 1.05-.213-.894-.533-2.435-.685-3.47-.943.724.464 1.856.545 2.42 1.156zm.548-.983c-.519-.41-1.775-.211-2.418-.216-.036 0-.496-.137-.275-.043 1.032.276 2.421.442 3.149.858-.16-.193-.305-.4-.456-.6zm.685 2.27c.468 1.312 2.593 1.671 3.558.642 1.339-1.428-.07-3.312-1.642-3.255-1.421.051-2.387 1.297-1.916 2.613zM9.57 7.342c1.538.32 2.057-.916 2.874-1.542-.978.496-1.786 1.151-2.874 1.542zm-.184-.129c1.28-.3 2.045-1.078 3.105-1.584-1.003.1-1.387.782-2.557.727-.126.31-.507.61-.548.857zm-.546-.6c.118.19.212.4.41.515.62-.916 1.444-1.872 1.963-2.742A70.065 70.065 0 0 1 8.84 6.614zm-3.605.559c.065-.241.264-.353.364-.558-.824-.68-1.63-1.61-2.417-2.186.697.9 1.339 1.856 2.053 2.744zm.5-.645c.143-.137.352-.214.501-.341-.981-.577-1.997-1.35-2.919-1.843.84.696 1.541 1.525 2.418 2.184zm2.465-.3c.218.082.381.216.548.343.741-.788 1.745-1.56 2.373-2.312-.922.703-2.002 1.263-2.92 1.97zM5.098 3.53c-.11-.1-.193-.328-.32-.3.592.844 1.234 1.641 1.643 2.656.38-1.232-.714-1.804-1.323-2.356zm.273 1.97c.31.139.627.497.913.514C5.957 4.822 5.12 4.11 4.597 3.101c.105.943.83 1.304.774 2.399zm2.922.514c1.026-.367 1-1.894.865-2.997-.228 1.027-.473 2.268-.865 2.997zm-1.005 0c.279-.031.413.07.64.087-.207-1.08-.387-2.181-.64-3.215v3.128zm1.187-1.842c-.165.348-.551.677-.594.9-.062.32.14.643.229.942.57-.82.678-2.304 1.004-3.213-.382.325-.36.784-.639 1.371zm-2.008 1.93c.234-.024.39-.12.685-.088-.03-1.07.062-2.256-.046-3.256C6.93 3.906 6.7 5.005 6.466 6.1zM2.452 3.657c.892.447 1.867 1.188 2.784 1.756.056-1.234-1.302-1.936-.503-3.085.078 1.37 1.471 1.504 1.826 2.614.255-1.016.419-2.12.64-3.17.233.98.42 2.002.592 3.04.926-.415.588-2.389 2.053-2.44-.115.239-.397.32-.502.598-.264.696.252 1.842-.228 2.443.865-.487 1.904-1.183 2.783-1.798-.432.864-1.268 1.72-1.825 2.611 1.29.026 2.056-1.218 3.286-.47-1.48.052-1.631 1.353-2.782 1.712 1.082.241 2.256.393 3.374.6a54.441 54.441 0 0 1-3.284.559c.567.908 2.51.527 2.601 1.884-.558-.864-2.32-.125-3.24-.686.522.852 1.306 1.831 1.962 2.698-.878-.46-1.854-1.2-2.784-1.754-.123 1.084 1.305 1.97.457 3.084.005-1.45-1.498-1.479-1.781-2.656-.274 1.01-.455 2.112-.638 3.213-.282-.963-.416-2.067-.639-3.085-.852.44-.585 2.306-1.916 2.441-.03-.211.392-.423.456-.813.112-.684-.283-1.676.183-2.229-1.01.553-1.866 1.249-2.875 1.8.642-.868 1.296-1.726 1.916-2.612-1.264.001-2.1 1.222-3.33.47 1.57.019 1.593-1.415 2.875-1.67-1.077-.26-2.255-.426-3.424-.6 1.014-.277 2.19-.4 3.286-.6-.51-.792-2.501-.566-2.646-1.842.208-.044.368.307.684.43.622.238 1.96-.309 2.555.212-.49-.853-1.277-1.8-1.916-2.655z" mask="url(#b)"/>
        <path fill="#FCD116" d="M9.114 2.8c-.326.909-.434 2.393-1.004 3.213-.089-.3-.29-.623-.23-.943.044-.222.43-.551.595-.899.279-.587.257-1.046.639-1.37M6.421 5.886C6.011 4.87 5.37 4.073 4.778 3.228c.127-.027.21.202.321.301.608.552 1.702 1.124 1.322 2.357M11.122 4.258c-.629.752-1.633 1.524-2.373 2.313-.166-.129-.33-.261-.547-.344.917-.706 1.998-1.265 2.92-1.97M3.319 4.343c.921.492 1.937 1.266 2.919 1.842-.15.128-.359.205-.501.342-.878-.659-1.578-1.488-2.418-2.184M3.183 4.428c.787.576 1.592 1.505 2.417 2.186-.1.205-.3.317-.364.557-.715-.887-1.356-1.842-2.053-2.743M11.213 4.386c-.517.87-1.342 1.826-1.962 2.742-.198-.115-.292-.326-.41-.514.81-.725 1.6-1.467 2.372-2.228M9.935 6.355c1.17.057 1.554-.625 2.557-.726-1.06.505-1.825 1.285-3.105 1.585.041-.249.422-.547.548-.859M12.445 5.8c-.817.627-1.336 1.862-2.874 1.543 1.089-.391 1.896-1.047 2.874-1.543M5.006 7.085c-.727-.416-2.117-.582-3.148-.858-.221-.093.239.043.274.043.644.005 1.9-.194 2.418.216.152.2.297.406.456.6" mask="url(#b)"/>
        <path fill="#FCD116" d="M6.102 9.14c-.009-.093.038-.136.136-.127.518.448 1.493.295 2.055 0 .01.032 0 .083.046.084a.308.308 0 0 0-.182-.256c-.02.073.067.108 0 .129-.578-.255-1.516-.048-1.92-.086.027 0 .054-.036 0-.043-.028.089-.26.207-.135.3m1.916-.514c-.214-.1-.334-.283-.501-.43-.028.077.134.18 0 .216-.171-.073-.09.01-.184.084h-.272c.07-.253-.168.025-.228-.127.023-.064.067-.109.09-.173-.131.151-.476.325-.456.473.44-.183 1.149-.068 1.551-.043m.501-1.071c.007.034.152.13.139.042-.145-.264-1-.428-1.096 0 .14.032.089-.116.23-.085-.053.125.218.158.09.215-.067-.058-.244-.199-.275-.043.236.293.925.137.912-.129m-1.093-.172c.324-.245.952-.273 1.323-.041-.065-.468-1.173-.478-1.323.041M5.6 7.3c.257.045.532-.169.867-.129.246.027.347.252.548.172-.284-.437-1.08-.474-1.415-.043m1.05.213c.066.023.114.064.183.085-.068-.468-1.019-.247-1.096.045.117.044.16-.187.228-.045-.191.169.75.445.82.045-.085-.13-.21.16-.272.042.127.018.044-.16.136-.172m.503-1.371c1.572-.056 2.98 1.828 1.642 3.255-.965 1.03-3.09.67-3.559-.641-.47-1.316.496-2.561 1.917-2.614" mask="url(#b)"/>
        <path fill="#000" d="M8.293 7.854c.01-.046.039-.066.09-.058.008-.139.01-.273-.09-.284.052.151-.089.335 0 .342m-.686-.058c.03-.204.208-.019.274.058.129-.075-.142-.118-.09-.284-.14-.041-.088.156-.229.113.097-.566.951-.349 1.096 0 .013.116-.132-.011-.138-.056.012.352-.677.556-.913.169" mask="url(#b)"/>
        <path fill="#FCD116" d="M9.297 7.427c1.088.105 2.362.41 3.558.557-1.049.1-2.297.014-3.422.043-.013-.23-.049-.44-.136-.6" mask="url(#b)"/>
        <path fill="#000" d="M6.513 7.684c.062.12.187-.171.272-.041-.069.4-1.011.124-.82-.044-.067-.143-.112.088-.229.044.078-.293 1.03-.513 1.096-.044-.067-.022-.116-.063-.183-.086-.093.013-.009.19-.136.171" mask="url(#b)"/>
        <path fill="#FCD116" d="M8.293 7.47c.1.007.098.108.09.214-.051-.007-.08.009-.09.044-.089-.005.052-.144 0-.258" mask="url(#b)"/>
        <path fill="#000" d="M6.467 8.67c-.02-.148.326-.321.456-.473-.023.065-.066.109-.09.172.06.154.297-.125.228.129h.272c.095-.076.014-.158.184-.086.134-.035-.028-.138 0-.215.167.147.288.33.501.43-.403-.025-1.111-.14-1.55.043" mask="url(#b)"/>
        <path fill="#FCD116" d="M4.916 8.84c-1.221.311-1.954 1.08-3.012 1.542.011-.046.091-.027.092-.085.85-.59 1.417-1.87 2.92-1.456M9.433 8.84c.345.05.635-.176.96-.127.288.043.643.44 1.049.6.604.239 1.121.215 1.413.557-.957-.343-2.685-.335-3.422-1.03" mask="url(#b)"/>
        <path fill="#000" d="M6.696 9.18c.282.042.796.154 1.004-.057-.413.015-.643-.1-1.004.057m-.458-.339c.053.01.025.057 0 .057.403.05 1.34-.224 1.919.113.067-.027-.02-.073 0-.17.102.061.165.172.182.339-.046-.001-.037-.069-.046-.111-.562.39-1.537.591-2.055 0-.098-.012-.145.044-.136.169-.125-.124.107-.279.136-.397" mask="url(#b)"/>
        <path fill="#FCD116" d="M5.189 9.013c.182.115.215.37.411.471-.748.769-1.578 1.46-2.328 2.226-.093.05-.096.047-.045-.04.662-.879 1.314-1.766 1.962-2.657M8.84 9.527c.135-.174.219-.395.41-.514.616.894 1.269 1.75 1.917 2.614.052.087.049.089-.045.042a62.027 62.027 0 0 0-2.281-2.142" mask="url(#b)"/>
        <path fill="#FCD116" d="M9.433 9.097c.785.434 2.304.551 3.332.901-1.068-.122-2.972.206-3.332-.9M5.646 9.612c.2.112.426.2.547.387-.966.62-1.95 1.225-2.875 1.883.613-.738 1.602-1.495 2.328-2.27M8.202 9.912c.225-.047.344-.19.5-.3.895.676 1.61 1.518 2.465 2.228a26.17 26.17 0 0 1-2.965-1.928M6.33 10.126c.04.305.28.645.228.943-.042.245-.466.575-.639.941-.266.57-.234 1.063-.593 1.33.297-.937.423-2.403 1.005-3.214M6.102 10.17c-.432.779-.571 2.204-.958 3.17.227-.675-.133-2.083.366-2.785.218-.107.421-.232.592-.385M8.019 10.212c.276 1.127 1.305 2.002 1.596 2.828-.608-.869-2.055-1.351-1.596-2.828" mask="url(#b)"/>
        <path fill="#000" d="M6.989 9.5h.443s-.308.127-.443 0" mask="url(#b)"/>
    </g>
</svg>
