<svg xmlns="http://www.w3.org/2000/svg" xmlns:xlink="http://www.w3.org/1999/xlink" width="29" height="29" viewBox="0 0 29 29">
    <defs>
        <path id="a" d="M.701 14.727c0 7.792 6.317 14.108 14.109 14.108s14.108-6.316 14.108-14.108C28.918 6.935 22.602.62 14.81.62 7.018.619.7 6.935.7 14.727z"/>
    </defs>
    <g fill="none" fill-rule="evenodd">
        <mask id="b" fill="#fff">
            <use xlink:href="#a"/>
        </mask>
        <path fill="#B22234" d="M-9.405 2.237h48.43V0h-48.43zM-9.405 29.454h48.43v-2.24h-48.43z" mask="url(#b)"/>
        <path fill="#FFF" d="M-9.405 27.214h48.43v-2.378h-48.43zM-9.405 4.546h48.43V2.238h-48.43z" mask="url(#b)"/>
        <path fill="#B22234" d="M-9.405 6.749h48.43V4.546h-48.43zM-9.405 24.836h48.43v-2.034h-48.43z" mask="url(#b)"/>
        <path fill="#FFF" d="M-9.405 22.803h48.43V20.39h-48.43zM-9.405 9.16h48.43V6.748h-48.43z" mask="url(#b)"/>
        <path fill="#B22234" d="M-9.405 20.39h48.43v-2.31h-48.43zM-9.405 11.366h48.43V9.16h-48.43z" mask="url(#b)"/>
        <path fill="#FFF" d="M-9.405 13.642h48.43v-2.276h-48.43zM-9.405 18.08h48.43v-2.307h-48.43z" mask="url(#b)"/>
        <path fill="#B22234" d="M-9.405 15.773h48.43v-2.131h-48.43z" mask="url(#b)"/>
        <path fill="#3C3B6E" d="M-9.405 15.773h19.36V0h-19.36z" mask="url(#b)"/>
        <path fill="#FFF" d="M1.172 1.227h.564l.21-.636.178.636h.575l-.46.428.179.635-.471-.427-.461.427.136-.635zM4.506 1.227h.565L5.279.59l.178.636h.575l-.46.428.177.635-.47-.427-.46.427.135-.635zM7.838 1.227h.566L8.612.59l.178.636h.576l-.46.428.176.635-.47-.427-.46.427.137-.635zM1.172 4.416h.564l.21-.636.178.636h.575l-.46.428.179.636-.471-.428-.461.428.136-.636zM4.506 4.416h.565l.208-.636.178.636h.575l-.46.428.177.636-.47-.428-.46.428.135-.636zM7.838 4.416h.566l.208-.636.178.636h.576l-.46.428.176.636-.47-.428-.46.428.137-.636zM1.172 7.502h.564l.21-.636.178.636h.575l-.46.427.179.635-.471-.426-.461.426.136-.635zM4.506 7.502h.565l.208-.636.178.636h.575l-.46.427.177.635-.47-.426-.46.426.135-.635zM7.838 7.502h.566l.208-.636.178.636h.576l-.46.427.176.635-.47-.426-.46.426.137-.635zM1.188 10.725h.563l.21-.635.178.635h.575l-.46.43.177.635-.47-.43-.46.43.136-.636zM4.52 10.725h.565l.21-.635.176.635h.576l-.46.43.178.635-.47-.43-.462.43.137-.636zM7.853 10.725h.564l.21-.635.178.635h.576l-.461.43.177.635-.47-.43-.461.43.137-.636zM1.188 13.847h.563l.21-.637.178.637h.575l-.46.426.177.637-.47-.427-.46.427.136-.637zM4.52 13.847h.565l.21-.637.176.637h.576l-.46.426.178.637-.47-.427-.462.427.137-.637zM7.853 13.847h.564l.21-.637.178.637h.576l-.461.426.177.637-.47-.427-.461.427.137-.637zM-.496 12.236h.565l.208-.637.179.637h.575l-.46.428.176.635-.47-.426-.46.426.136-.635zM2.836 12.236h.565l.21-.637.178.637h.575l-.461.428.178.635-.47-.426-.46.426.135-.635zM6.17 12.236h.565l.209-.637.177.637h.575l-.459.428.178.635-.471-.426-.46.426.135-.635zM-.496 9.116h.565l.208-.636.179.636h.575l-.46.428.176.636-.47-.428-.46.428.136-.636zM2.836 9.116h.565l.21-.636.178.636h.575l-.461.428.178.636-.47-.428-.46.428.135-.636zM6.17 9.116h.565l.209-.636.177.636h.575l-.459.428.178.636-.471-.428-.46.428.135-.636zM-.462 5.962h.564l.21-.637.178.637h.576l-.461.426.177.636-.47-.426-.46.426.136-.636zM2.871 5.962h.565l.21-.637.177.637h.574l-.458.426.177.636-.47-.426-.462.426.137-.636zM6.204 5.962h.565l.209-.637.179.637h.575l-.46.426.177.636-.471-.426-.46.426.136-.636zM-.462 2.841h.564l.21-.635.178.635h.576l-.461.428.177.636-.47-.428-.46.428.136-.636zM2.871 2.841h.565l.21-.635.177.635h.574l-.458.428.177.636-.47-.428-.462.428.137-.636zM6.204 2.841h.565l.209-.635.179.635h.575l-.46.428.177.636-.471-.428-.46.428.136-.636z" mask="url(#b)"/>
    </g>
</svg>
