<svg xmlns="http://www.w3.org/2000/svg" xmlns:xlink="http://www.w3.org/1999/xlink" width="15" height="26" viewBox="0 0 15 26">
    <defs>
        <path id="a" d="M0 0h14.981v25.112H0z"/>
    </defs>
    <g fill="none" fill-rule="evenodd">
        <mask id="b" fill="#fff">
            <use xlink:href="#a"/>
        </mask>
        <path fill="#FFF" d="M7.49 12.556a5.022 5.022 0 1 1 0-10.045 5.022 5.022 0 0 1 0 10.045M7.49 0a7.534 7.534 0 0 0-1.255 14.954v2.625H3.723a1.255 1.255 0 1 0 0 2.51h2.512v3.767a1.256 1.256 0 1 0 2.51 0V20.09h2.512a1.256 1.256 0 1 0 0-2.51H8.745v-2.626A7.534 7.534 0 0 0 7.49 0" mask="url(#b)"/>
    </g>
</svg>
