<svg xmlns="http://www.w3.org/2000/svg" xmlns:xlink="http://www.w3.org/1999/xlink" width="25" height="25" viewBox="0 0 25 25">
    <defs>
        <path id="a" d="M0 0h24.19V24.19H0z"/>
    </defs>
    <g fill="none" fill-rule="evenodd">
        <mask id="b" fill="#fff">
            <use xlink:href="#a"/>
        </mask>
        <path fill="#FFF" d="M14.585 19.404a6.885 6.885 0 0 1-4.899 2.028c-1.85 0-3.59-.72-4.9-2.028a6.885 6.885 0 0 1-2.028-4.9c0-1.85.72-3.59 2.03-4.899a6.889 6.889 0 0 1 4.9-2.03c1.85 0 3.588.722 4.897 2.03l.001.002a6.936 6.936 0 0 1-.001 9.797m9.6-18.07a1.378 1.378 0 0 0-.019-.186c-.003-.023-.006-.047-.012-.07a1.242 1.242 0 0 0-.07-.227l-.001-.004c-.005-.01-.01-.019-.014-.03a1.573 1.573 0 0 0-.1-.184l-.045-.061a1.41 1.41 0 0 0-.109-.133c-.017-.017-.033-.036-.052-.054a1.47 1.47 0 0 0-.162-.134l-.023-.018a1.353 1.353 0 0 0-.206-.111C23.349.11 23.325.103 23.3.093a1.387 1.387 0 0 0-.165-.05c-.025-.006-.05-.013-.076-.018A1.43 1.43 0 0 0 22.81 0H16.42a1.38 1.38 0 0 0 0 2.758h3.063L15.49 6.75a9.608 9.608 0 0 0-5.803-1.93 9.63 9.63 0 0 0-6.85 2.836A9.621 9.621 0 0 0 0 14.506a9.62 9.62 0 0 0 2.837 6.847 9.62 9.62 0 0 0 6.85 2.838 9.614 9.614 0 0 0 6.848-2.837c3.446-3.444 3.738-8.855.899-12.646l3.999-4v3.121a1.378 1.378 0 1 0 2.757 0V1.38c0-.015-.004-.03-.005-.044" mask="url(#b)"/>
    </g>
</svg>
