<svg xmlns="http://www.w3.org/2000/svg" xmlns:xlink="http://www.w3.org/1999/xlink" width="772" height="438" viewBox="0 0 772 438">
    <defs>
        <path id="zqacqii4xa" d="M0 0H771V438H0z"/>
        <mask id="zf48ec29zb" width="771" height="438" x="0" y="0" fill="#fff" maskContentUnits="userSpaceOnUse" maskUnits="objectBoundingBox">
            <use xlink:href="#zqacqii4xa"/>
        </mask>
    </defs>
    <g fill="none" fill-rule="evenodd" transform="translate(1)">
        <use fill="#F7F7F7" stroke="#DA291C" stroke-dasharray="9" stroke-width="14" mask="url(#zf48ec29zb)" xlink:href="#zqacqii4xa"/>
        <ellipse cx="75.338" cy="80.073" fill="#D8D8D8" stroke="#D5D7D7" stroke-width="4" rx="50.766" ry="50.829"/>
        <path fill="#D5D7D7" stroke="#D5D7D7" stroke-width="4" d="M3.3 432.356c78.15-95.373 130.156-156.646 156.019-183.82 9.39-9.866 21.697-8.92 32.935 0 15.37 12.201 125.609 115.902 146.946 125.612 3.576 1.627 11.245-.698 18.079-6.696 19.365-16.996 175.685-182.801 204.956-208.251 11.973-10.41 29.018-9.017 35.597-6.464 24.58 9.54 81.067 62.42 169.459 158.64v120.98H3.3z"/>
    </g>
</svg>
